<svg width="580" height="580" viewBox="0 0 580 580" version="1.1" xmlns="http://www.w3.org/2000/svg" xmlns:xlink="http://www.w3.org/1999/xlink" xmlns:figma="http://www.figma.com/figma/ns">
<title>247-img</title>
<desc>Created using Figma</desc>
<g id="Canvas" transform="matrix(10 0 0 10 -27070 -2360)" figma:type="canvas">
<g id="247-img" figma:type="frame">
<g id="img" figma:type="frame">
<g id="bg" figma:type="rounded-rectangle">
<use xlink:href="#path0_fill" transform="translate(2707 236)" fill="#FFFFFF"/>
<mask id="mask0_outline_ins">
<use xlink:href="#path0_fill" fill="white" transform="translate(2707 236)"/>
</mask>
<g mask="url(#mask0_outline_ins)">
<use xlink:href="#path1_stroke_2x" transform="translate(2707 236)" fill="#000000" fill-opacity="0.1"/>
</g>
</g>
</g>
<g id="Vector 5" figma:type="vector">
<use xlink:href="#path2_fill" transform="translate(2730 265)" fill="#94CBFE"/>
</g>
<g id="hourglass" figma:type="frame">
<g id="Group" figma:type="frame">
<g id="Vector" figma:type="vector">
<use xlink:href="#path3_fill" transform="translate(2726 252)" fill="#047AE9"/>
<use xlink:href="#path4_stroke" transform="translate(2726 252)" fill="#047AE9"/>
</g>
</g>
</g>
</g>
</g>
<defs>
<path id="path0_fill" d="M 0 10C 0 4.47715 4.47715 0 10 0L 48 0C 53.5228 0 58 4.47715 58 10L 58 48C 58 53.5228 53.5228 58 48 58L 10 58C 4.47715 58 0 53.5228 0 48L 0 10Z"/>
<path id="path1_stroke_2x" d="M 10 1L 48 1L 48 -1L 10 -1L 10 1ZM 57 10L 57 48L 59 48L 59 10L 57 10ZM 48 57L 10 57L 10 59L 48 59L 48 57ZM 1 48L 1 10L -1 10L -1 48L 1 48ZM 10 -1C 3.92487 -1 -1 3.92487 -1 10L 1 10C 1 5.02944 5.02944 1 10 1L 10 -1ZM 48 1C 52.9706 1 57 5.02944 57 10L 59 10C 59 3.92487 54.0751 -1 48 -1L 48 1ZM 57 48C 57 52.9706 52.9706 57 48 57L 48 59C 54.0751 59 59 54.0751 59 48L 57 48ZM 10 57C 5.02944 57 1 52.9706 1 48L -1 48C -1 54.0751 3.92487 59 10 59L 10 57Z"/>
<path id="path2_fill" d="M 0 5L 0 10.5L 12 10.5L 12 5L 6 0L 0 5Z"/>
<path id="path3_fill" d="M 19.6 25.1333L 18.4 25.1333L 18.4 23.4L 16.4 23.4L 16.4 18.9705C 16.4 17.8005 15.8632 16.7137 14.9644 16.0645L 10.7212 13L 14.9644 9.93547C 15.8632 9.28633 16.4 8.19953 16.4 7.02953L 16.4 2.6L 18.4 2.6L 18.4 0.866667L 19.6 0.866667C 19.8208 0.866667 20 0.672967 20 0.433333C 20 0.1937 19.8208 0 19.6 0L 18.4 0L 18 0L 2 0L 1.6 0L 0.4 0C 0.1792 0 0 0.1937 0 0.433333C 0 0.672967 0.1792 0.866667 0.4 0.866667L 1.6 0.866667L 1.6 2.6L 3.6 2.6L 3.6 7.02953C 3.6 8.19953 4.1368 9.28633 5.0356 9.93547L 9.2788 13L 5.0356 16.0645C 4.1368 16.7137 3.6 17.8005 3.6 18.9705L 3.6 23.4L 1.6 23.4L 1.6 25.1333L 0.4 25.1333C 0.1792 25.1333 0 25.327 0 25.5667C 0 25.8063 0.1792 26 0.4 26L 1.6 26L 2 26L 18 26L 18.4 26L 19.6 26C 19.8208 26 20 25.8063 20 25.5667C 20 25.327 19.8208 25.1333 19.6 25.1333ZM 2.4 1.73333L 2.4 0.866667L 17.6 0.866667L 17.6 1.73333L 16.4 1.73333L 3.6 1.73333L 2.4 1.73333ZM 5.4792 9.2144C 4.8036 8.72603 4.4 7.9092 4.4 7.02953L 4.4 2.6L 15.6 2.6L 15.6 7.02953C 15.6 7.9092 15.1964 8.72603 14.5208 9.2144L 10 12.4791L 5.4792 9.2144ZM 4.4 18.9705C 4.4 18.0908 4.8036 17.274 5.4792 16.7856L 10 13.5209L 14.5208 16.7856C 15.1964 17.274 15.6 18.0908 15.6 18.9705L 15.6 23.4L 4.4 23.4L 4.4 18.9705ZM 2.4 24.2667L 3.6 24.2667L 16.4 24.2667L 17.6 24.2667L 17.6 25.1333L 2.4 25.1333L 2.4 24.2667Z"/>
<path id="path4_stroke" d="M 18.4 25.1333L 18.15 25.1333L 18.15 25.3833L 18.4 25.3833L 18.4 25.1333ZM 18.4 23.4L 18.65 23.4L 18.65 23.15L 18.4 23.15L 18.4 23.4ZM 16.4 23.4L 16.15 23.4L 16.15 23.65L 16.4 23.65L 16.4 23.4ZM 14.9644 16.0645L 14.818 16.2672L 14.9644 16.0645ZM 10.7212 13L 10.5748 12.7973L 10.2942 13L 10.5748 13.2027L 10.7212 13ZM 14.9644 9.93547L 14.818 9.7328L 14.9644 9.93547ZM 16.4 2.6L 16.4 2.35L 16.15 2.35L 16.15 2.6L 16.4 2.6ZM 18.4 2.6L 18.4 2.85L 18.65 2.85L 18.65 2.6L 18.4 2.6ZM 18.4 0.866667L 18.4 0.616667L 18.15 0.616667L 18.15 0.866667L 18.4 0.866667ZM 1.6 0.866667L 1.85 0.866667L 1.85 0.616667L 1.6 0.616667L 1.6 0.866667ZM 1.6 2.6L 1.35 2.6L 1.35 2.85L 1.6 2.85L 1.6 2.6ZM 3.6 2.6L 3.85 2.6L 3.85 2.35L 3.6 2.35L 3.6 2.6ZM 5.0356 9.93547L 5.18197 9.7328L 5.0356 9.93547ZM 9.2788 13L 9.42517 13.2027L 9.70579 13L 9.42517 12.7973L 9.2788 13ZM 5.0356 16.0645L 5.18197 16.2672L 5.0356 16.0645ZM 3.6 23.4L 3.6 23.65L 3.85 23.65L 3.85 23.4L 3.6 23.4ZM 1.6 23.4L 1.6 23.15L 1.35 23.15L 1.35 23.4L 1.6 23.4ZM 1.6 25.1333L 1.6 25.3833L 1.85 25.3833L 1.85 25.1333L 1.6 25.1333ZM 2.4 1.73333L 2.15 1.73333L 2.15 1.98333L 2.4 1.98333L 2.4 1.73333ZM 2.4 0.866667L 2.4 0.616667L 2.15 0.616667L 2.15 0.866667L 2.4 0.866667ZM 17.6 0.866667L 17.85 0.866667L 17.85 0.616667L 17.6 0.616667L 17.6 0.866667ZM 17.6 1.73333L 17.6 1.98333L 17.85 1.98333L 17.85 1.73333L 17.6 1.73333ZM 5.4792 9.2144L 5.33274 9.41701L 5.33284 9.41708L 5.4792 9.2144ZM 4.4 2.6L 4.4 2.35L 4.15 2.35L 4.15 2.6L 4.4 2.6ZM 15.6 2.6L 15.85 2.6L 15.85 2.35L 15.6 2.35L 15.6 2.6ZM 14.5208 9.2144L 14.6672 9.41708L 14.6673 9.41701L 14.5208 9.2144ZM 10 12.4791L 9.85364 12.6818L 10 12.7875L 10.1464 12.6818L 10 12.4791ZM 5.4792 16.7856L 5.33284 16.5829L 5.33274 16.583L 5.4792 16.7856ZM 10 13.5209L 10.1464 13.3182L 10 13.2125L 9.85364 13.3182L 10 13.5209ZM 14.5208 16.7856L 14.6673 16.583L 14.6672 16.5829L 14.5208 16.7856ZM 15.6 23.4L 15.6 23.65L 15.85 23.65L 15.85 23.4L 15.6 23.4ZM 4.4 23.4L 4.15 23.4L 4.15 23.65L 4.4 23.65L 4.4 23.4ZM 2.4 24.2667L 2.4 24.0167L 2.15 24.0167L 2.15 24.2667L 2.4 24.2667ZM 17.6 24.2667L 17.85 24.2667L 17.85 24.0167L 17.6 24.0167L 17.6 24.2667ZM 17.6 25.1333L 17.6 25.3833L 17.85 25.3833L 17.85 25.1333L 17.6 25.1333ZM 2.4 25.1333L 2.15 25.1333L 2.15 25.3833L 2.4 25.3833L 2.4 25.1333ZM 19.6 24.8833L 18.4 24.8833L 18.4 25.3833L 19.6 25.3833L 19.6 24.8833ZM 18.65 25.1333L 18.65 23.4L 18.15 23.4L 18.15 25.1333L 18.65 25.1333ZM 18.4 23.15L 16.4 23.15L 16.4 23.65L 18.4 23.65L 18.4 23.15ZM 16.65 23.4L 16.65 18.9705L 16.15 18.9705L 16.15 23.4L 16.65 23.4ZM 16.65 18.9705C 16.65 17.7254 16.0788 16.561 15.1108 15.8619L 14.818 16.2672C 15.6476 16.8663 16.15 17.8755 16.15 18.9705L 16.65 18.9705ZM 15.1108 15.8619L 10.8676 12.7973L 10.5748 13.2027L 14.818 16.2672L 15.1108 15.8619ZM 10.8676 13.2027L 15.1108 10.1381L 14.818 9.7328L 10.5748 12.7973L 10.8676 13.2027ZM 15.1108 10.1381C 16.0788 9.43901 16.65 8.27457 16.65 7.02953L 16.15 7.02953C 16.15 8.1245 15.6476 9.13365 14.818 9.7328L 15.1108 10.1381ZM 16.65 7.02953L 16.65 2.6L 16.15 2.6L 16.15 7.02953L 16.65 7.02953ZM 16.4 2.85L 18.4 2.85L 18.4 2.35L 16.4 2.35L 16.4 2.85ZM 18.65 2.6L 18.65 0.866667L 18.15 0.866667L 18.15 2.6L 18.65 2.6ZM 18.4 1.11667L 19.6 1.11667L 19.6 0.616667L 18.4 0.616667L 18.4 1.11667ZM 19.6 1.11667C 19.9772 1.11667 20.25 0.791988 20.25 0.433333L 19.75 0.433333C 19.75 0.553945 19.6644 0.616667 19.6 0.616667L 19.6 1.11667ZM 20.25 0.433333C 20.25 0.0746783 19.9772 -0.25 19.6 -0.25L 19.6 0.25C 19.6644 0.25 19.75 0.312722 19.75 0.433333L 20.25 0.433333ZM 19.6 -0.25L 18.4 -0.25L 18.4 0.25L 19.6 0.25L 19.6 -0.25ZM 18.4 -0.25L 18 -0.25L 18 0.25L 18.4 0.25L 18.4 -0.25ZM 18 -0.25L 2 -0.25L 2 0.25L 18 0.25L 18 -0.25ZM 2 -0.25L 1.6 -0.25L 1.6 0.25L 2 0.25L 2 -0.25ZM 1.6 -0.25L 0.4 -0.25L 0.4 0.25L 1.6 0.25L 1.6 -0.25ZM 0.4 -0.25C 0.0228201 -0.25 -0.25 0.074678 -0.25 0.433333L 0.25 0.433333C 0.25 0.312722 0.33558 0.25 0.4 0.25L 0.4 -0.25ZM -0.25 0.433333C -0.25 0.791989 0.0228201 1.11667 0.4 1.11667L 0.4 0.616667C 0.33558 0.616667 0.25 0.553945 0.25 0.433333L -0.25 0.433333ZM 0.4 1.11667L 1.6 1.11667L 1.6 0.616667L 0.4 0.616667L 0.4 1.11667ZM 1.35 0.866667L 1.35 2.6L 1.85 2.6L 1.85 0.866667L 1.35 0.866667ZM 1.6 2.85L 3.6 2.85L 3.6 2.35L 1.6 2.35L 1.6 2.85ZM 3.35 2.6L 3.35 7.02953L 3.85 7.02953L 3.85 2.6L 3.35 2.6ZM 3.35 7.02953C 3.35 8.27457 3.92121 9.43901 4.88923 10.1381L 5.18197 9.7328C 4.35239 9.13365 3.85 8.1245 3.85 7.02953L 3.35 7.02953ZM 4.88923 10.1381L 9.13243 13.2027L 9.42517 12.7973L 5.18197 9.7328L 4.88923 10.1381ZM 9.13243 12.7973L 4.88923 15.8619L 5.18197 16.2672L 9.42517 13.2027L 9.13243 12.7973ZM 4.88923 15.8619C 3.92121 16.561 3.35 17.7254 3.35 18.9705L 3.85 18.9705C 3.85 17.8755 4.35239 16.8663 5.18197 16.2672L 4.88923 15.8619ZM 3.35 18.9705L 3.35 23.4L 3.85 23.4L 3.85 18.9705L 3.35 18.9705ZM 3.6 23.15L 1.6 23.15L 1.6 23.65L 3.6 23.65L 3.6 23.15ZM 1.35 23.4L 1.35 25.1333L 1.85 25.1333L 1.85 23.4L 1.35 23.4ZM 1.6 24.8833L 0.4 24.8833L 0.4 25.3833L 1.6 25.3833L 1.6 24.8833ZM 0.4 24.8833C 0.0228194 24.8833 -0.25 25.208 -0.25 25.5667L 0.25 25.5667C 0.25 25.4461 0.335581 25.3833 0.4 25.3833L 0.4 24.8833ZM -0.25 25.5667C -0.25 25.9253 0.0228208 26.25 0.4 26.25L 0.4 25.75C 0.335579 25.75 0.25 25.6873 0.25 25.5667L -0.25 25.5667ZM 0.4 26.25L 1.6 26.25L 1.6 25.75L 0.4 25.75L 0.4 26.25ZM 1.6 26.25L 2 26.25L 2 25.75L 1.6 25.75L 1.6 26.25ZM 2 26.25L 18 26.25L 18 25.75L 2 25.75L 2 26.25ZM 18 26.25L 18.4 26.25L 18.4 25.75L 18 25.75L 18 26.25ZM 18.4 26.25L 19.6 26.25L 19.6 25.75L 18.4 25.75L 18.4 26.25ZM 19.6 26.25C 19.9772 26.25 20.25 25.9253 20.25 25.5667L 19.75 25.5667C 19.75 25.6873 19.6644 25.75 19.6 25.75L 19.6 26.25ZM 20.25 25.5667C 20.25 25.208 19.9772 24.8833 19.6 24.8833L 19.6 25.3833C 19.6644 25.3833 19.75 25.4461 19.75 25.5667L 20.25 25.5667ZM 2.65 1.73333L 2.65 0.866667L 2.15 0.866667L 2.15 1.73333L 2.65 1.73333ZM 2.4 1.11667L 17.6 1.11667L 17.6 0.616667L 2.4 0.616667L 2.4 1.11667ZM 17.35 0.866667L 17.35 1.73333L 17.85 1.73333L 17.85 0.866667L 17.35 0.866667ZM 17.6 1.48333L 16.4 1.48333L 16.4 1.98333L 17.6 1.98333L 17.6 1.48333ZM 16.4 1.48333L 3.6 1.48333L 3.6 1.98333L 16.4 1.98333L 16.4 1.48333ZM 3.6 1.48333L 2.4 1.48333L 2.4 1.98333L 3.6 1.98333L 3.6 1.48333ZM 5.62566 9.01179C 5.01916 8.57338 4.65 7.83413 4.65 7.02953L 4.15 7.02953C 4.15 7.98427 4.58804 8.87869 5.33274 9.41701L 5.62566 9.01179ZM 4.65 7.02953L 4.65 2.6L 4.15 2.6L 4.15 7.02953L 4.65 7.02953ZM 4.4 2.85L 15.6 2.85L 15.6 2.35L 4.4 2.35L 4.4 2.85ZM 15.35 2.6L 15.35 7.02953L 15.85 7.02953L 15.85 2.6L 15.35 2.6ZM 15.35 7.02953C 15.35 7.83413 14.9808 8.57338 14.3743 9.01179L 14.6673 9.41701C 15.412 8.87869 15.85 7.98427 15.85 7.02953L 15.35 7.02953ZM 14.3744 9.01172L 9.85364 12.2765L 10.1464 12.6818L 14.6672 9.41708L 14.3744 9.01172ZM 10.1464 12.2765L 5.62556 9.01172L 5.33284 9.41708L 9.85364 12.6818L 10.1464 12.2765ZM 4.65 18.9705C 4.65 18.1659 5.01916 17.4266 5.62566 16.9882L 5.33274 16.583C 4.58804 17.1213 4.15 18.0157 4.15 18.9705L 4.65 18.9705ZM 5.62556 16.9883L 10.1464 13.7235L 9.85364 13.3182L 5.33284 16.5829L 5.62556 16.9883ZM 9.85364 13.7235L 14.3744 16.9883L 14.6672 16.5829L 10.1464 13.3182L 9.85364 13.7235ZM 14.3743 16.9882C 14.9808 17.4266 15.35 18.1659 15.35 18.9705L 15.85 18.9705C 15.85 18.0157 15.412 17.1213 14.6673 16.583L 14.3743 16.9882ZM 15.35 18.9705L 15.35 23.4L 15.85 23.4L 15.85 18.9705L 15.35 18.9705ZM 15.6 23.15L 4.4 23.15L 4.4 23.65L 15.6 23.65L 15.6 23.15ZM 4.65 23.4L 4.65 18.9705L 4.15 18.9705L 4.15 23.4L 4.65 23.4ZM 2.4 24.5167L 3.6 24.5167L 3.6 24.0167L 2.4 24.0167L 2.4 24.5167ZM 3.6 24.5167L 16.4 24.5167L 16.4 24.0167L 3.6 24.0167L 3.6 24.5167ZM 16.4 24.5167L 17.6 24.5167L 17.6 24.0167L 16.4 24.0167L 16.4 24.5167ZM 17.35 24.2667L 17.35 25.1333L 17.85 25.1333L 17.85 24.2667L 17.35 24.2667ZM 17.6 24.8833L 2.4 24.8833L 2.4 25.3833L 17.6 25.3833L 17.6 24.8833ZM 2.65 25.1333L 2.65 24.2667L 2.15 24.2667L 2.15 25.1333L 2.65 25.1333Z"/>
</defs>
</svg>
