<svg width="180" height="52" viewBox="0 0 180 52" version="1.1" xmlns="http://www.w3.org/2000/svg" xmlns:xlink="http://www.w3.org/1999/xlink" xmlns:figma="http://www.figma.com/figma/ns">
<title>accenture</title>
<desc>Created using Figma</desc>
<g id="Canvas" transform="translate(-885 -2238)" figma:type="canvas">
<g id="accenture" figma:type="vector">
<use xlink:href="#path0_fill" transform="translate(885.094 2238)" fill="#000000" fill-opacity="0.2"/>
<use xlink:href="#path1_fill" transform="translate(885.094 2238)" fill="#000000" fill-opacity="0.2"/>
<use xlink:href="#path2_fill" transform="translate(885.094 2238)" fill="#000000" fill-opacity="0.2"/>
<use xlink:href="#path3_fill" transform="translate(885.094 2238)" fill="#000000" fill-opacity="0.2"/>
<use xlink:href="#path4_fill" transform="translate(885.094 2238)" fill="#000000" fill-opacity="0.2"/>
<use xlink:href="#path5_fill" transform="translate(885.094 2238)" fill="#000000" fill-opacity="0.2"/>
<use xlink:href="#path6_fill" transform="translate(885.094 2238)" fill="#000000" fill-opacity="0.2"/>
<use xlink:href="#path7_fill" transform="translate(885.094 2238)" fill="#000000" fill-opacity="0.2"/>
<use xlink:href="#path8_fill" transform="translate(885.094 2238)" fill="#000000" fill-opacity="0.2"/>
<use xlink:href="#path9_fill" transform="translate(885.094 2238)" fill="#000000" fill-opacity="0.2"/>
</g>
</g>
<defs>
<path id="path0_fill" d="M 105.027 3.86088L 105.027 0L 122.015 6.90727L 122.015 10.4514L 105.027 17.3468L 105.027 13.5008C 105.027 13.5008 115.94 9.28951 117.511 8.68578C 115.94 8.08107 105.027 3.86088 105.027 3.86088Z"/>
<path id="path1_fill" d="M 115.071 42.3673L 115.071 31.2873L 122.011 31.2873L 122.011 27.4967L 115.071 27.4967L 115.071 19.7215L 109.621 21.9444L 109.621 27.4967L 105.039 27.4967L 105.039 31.2873L 109.621 31.2873L 109.621 45.0287C 109.621 49.8941 112.007 51.4747 116.794 51.4747C 118.276 51.4747 119.791 51.3272 121.276 51.0867L 121.276 47.2387C 120.44 47.4465 119.595 47.6326 118.767 47.6326C 115.358 47.6326 115.071 45.1325 115.071 42.3673Z"/>
<path id="path2_fill" d="M 98.2409 50.9252L 98.2409 37.5452C 98.2409 37.4594 98.2414 37.3627 98.2421 37.257L 98.2421 37.2534L 98.2421 37.2489L 98.2421 37.2483C 98.2497 35.9577 98.2652 33.336 97.407 32.5184C 97.0063 32.1215 96.3762 32.073 95.8292 32.073C 91.8931 32.073 90.3163 37.6382 90.3163 40.8004L 90.3163 50.9252L 84.8559 50.9252L 84.8559 27.4965L 90.3163 27.4965L 90.3163 31.877L 90.4162 31.877C 91.6498 28.8772 94.0021 26.9611 97.3555 26.9611C 101.835 26.9611 103.706 30.6527 103.706 34.6878L 103.706 50.9252L 98.2409 50.9252Z"/>
<path id="path3_fill" fill-rule="evenodd" d="M 18.3092 34.2415L 18.3092 50.9252L 13.0892 50.9252L 13.0892 48.2243L 12.9962 48.2243C 11.8072 50.6362 9.4499 51.4755 6.88587 51.4755C 3.15359 51.4755 0 49.31 0 45.3254C 0 38.2855 7.77418 37.5452 13.0892 37.3967L 13.0892 35.0778C 13.0892 32.7648 12.4976 30.7953 9.79217 30.7953C 7.4339 30.7953 6.20629 32.073 6.20629 34.3889L 0.877428 34.3889C 0.877428 29.0266 4.92724 26.9611 9.79217 26.9611C 14.76 26.9611 18.3092 28.8297 18.3092 34.2415ZM 8.21834 47.6324C 11.8576 47.6324 13.0892 43.6053 13.0892 40.5965C 10.4826 40.5965 5.31304 41.3032 5.31304 44.8256C 5.31304 46.6952 6.39226 47.6324 8.21834 47.6324Z"/>
<path id="path4_fill" d="M 30.9612 30.7955C 33.8141 30.7955 34.5026 33.1155 34.5026 35.5294L 40.3073 35.5294C 40.3073 29.7583 37.1151 26.9614 31.4064 26.9614C 24.3751 26.9614 20.6754 31.3795 20.6754 38.1838C 20.6754 46.3471 24.8588 51.4748 33.2206 51.4748C 35.5373 51.4748 37.8431 51.0868 40.0629 50.3891L 40.0629 47.025C 38.7779 47.4852 37.4534 47.6327 36.1338 47.6327C 29.9176 47.6327 26.4821 43.1127 26.4821 37.205C 26.4821 34.3892 27.5128 30.7955 30.9612 30.7955Z"/>
<path id="path5_fill" d="M 55.4799 35.5294C 55.4799 33.1155 54.7894 30.7955 51.9415 30.7955C 48.5001 30.7955 47.4564 34.3892 47.4564 37.205C 47.4564 43.1127 50.9147 47.6327 57.1081 47.6327C 58.4327 47.6327 59.7622 47.4852 61.0383 47.025L 61.0383 50.3891C 58.8323 51.0868 56.5156 51.4748 54.2019 51.4748C 45.8361 51.4748 41.6597 46.3471 41.6597 38.1838C 41.6597 31.3795 45.3544 26.9614 52.3807 26.9614C 58.0944 26.9614 61.2915 29.7583 61.2915 35.5294L 55.4799 35.5294Z"/>
<path id="path6_fill" fill-rule="evenodd" d="M 82.0542 36.4549L 82.0542 37.7969L 68.1766 37.7969C 68.1766 42.7753 71.6695 47.6328 76.9885 47.6328C 78.4555 47.6328 80.0857 47.2389 81.4557 46.7628L 81.4557 50.5347C 79.3467 51.2245 77.1299 51.4749 74.9131 51.4749C 66.5998 51.4749 63.1079 45.7138 63.1079 37.987C 63.1079 31.339 66.1636 26.9615 73.1483 26.9615C 79.1073 26.9615 82.0542 30.7412 82.0542 36.4549ZM 68.3279 34.4883L 76.8876 34.4883C 76.8876 31.9774 75.2653 30.4394 72.7487 30.4394C 70.3993 30.4394 68.5703 32.1219 68.3279 34.4883Z"/>
<path id="path7_fill" d="M 137.82 50.9252L 137.82 46.5546L 137.726 46.5546C 136.48 49.501 134.082 51.4755 130.783 51.4755C 126.306 51.4755 124.431 47.7868 124.431 43.7537L 124.431 27.4965L 129.896 27.4965L 129.896 40.8984C 129.896 40.9858 129.895 41.0844 129.895 41.1922C 129.887 42.4821 129.872 45.0967 130.727 45.9133C 131.13 46.3102 131.762 46.3468 132.311 46.3468C 136.239 46.3468 137.82 40.8004 137.82 37.6382L 137.82 27.4965L 143.291 27.4965L 143.291 50.9252L 137.82 50.9252Z"/>
<path id="path8_fill" d="M 152.186 50.9253L 152.186 40.654C 152.186 35.1274 154.259 32.6669 159.866 32.6669L 159.866 26.9612C 155.928 26.9612 154.111 28.5903 152.282 31.8237L 152.186 31.8237L 152.186 27.4966L 146.728 27.4966L 146.728 50.9253L 152.186 50.9253Z"/>
<path id="path9_fill" fill-rule="evenodd" d="M 179.906 37.7969L 179.906 36.4549C 179.906 30.7412 176.96 26.9615 171.002 26.9615C 164.017 26.9615 160.956 31.339 160.956 37.987C 160.956 45.7138 164.455 51.4749 172.761 51.4749C 174.988 51.4749 177.198 51.2245 179.314 50.5347L 179.314 46.7628C 177.944 47.2389 176.314 47.6328 174.844 47.6328C 169.526 47.6328 166.027 42.7753 166.027 37.7969L 179.906 37.7969ZM 174.739 34.4883L 166.18 34.4883C 166.429 32.1219 168.245 30.4394 170.606 30.4394C 173.118 30.4394 174.739 31.9774 174.739 34.4883Z"/>
</defs>
</svg>
