<svg width="190" height="190" viewBox="0 0 190 190" version="1.1" xmlns="http://www.w3.org/2000/svg" xmlns:xlink="http://www.w3.org/1999/xlink" xmlns:figma="http://www.figma.com/figma/ns">
<title>img</title>
<desc>Created using Figma</desc>
<g id="Canvas" transform="translate(-595 -1645)" figma:type="canvas">
<g id="img" figma:type="frame">
<g id="availability-img" figma:type="frame">
<g id="Group" figma:type="frame">
<g id="img" figma:type="frame">
<g id="bg" figma:type="rounded-rectangle">
<use xlink:href="#path0_fill" transform="translate(595 1645)" fill="#FFFFFF"/>
<mask id="mask0_outline_ins">
<use xlink:href="#path0_fill" fill="white" transform="translate(595 1645)"/>
</mask>
<g mask="url(#mask0_outline_ins)">
<use xlink:href="#path1_stroke_2x" transform="translate(595 1645)" fill="#000000" fill-opacity="0.1"/>
</g>
</g>
</g>
</g>
<g id="Group" figma:type="frame">
<g id="Union" figma:type="vector">
<use xlink:href="#path2_fill" transform="translate(656 1715)" fill="#94CBFE"/>
<use xlink:href="#path3_stroke" transform="translate(656 1715)" fill="#047AE9"/>
</g>
<g id="Union" figma:type="vector">
<use xlink:href="#path2_fill" transform="translate(666 1705)" fill="#FFFFFF"/>
<use xlink:href="#path3_stroke" transform="translate(666 1705)" fill="#047AE9"/>
</g>
</g>
</g>
</g>
</g>
<defs>
<path id="path0_fill" d="M 0 10C 0 4.47715 4.47715 0 10 0L 180 0C 185.523 0 190 4.47715 190 10L 190 180C 190 185.523 185.523 190 180 190L 10 190C 4.47715 190 0 185.523 0 180L 0 10Z"/>
<path id="path1_stroke_2x" d="M 10 1L 180 1L 180 -1L 10 -1L 10 1ZM 189 10L 189 180L 191 180L 191 10L 189 10ZM 180 189L 10 189L 10 191L 180 191L 180 189ZM 1 180L 1 10L -1 10L -1 180L 1 180ZM 10 -1C 3.92487 -1 -1 3.92487 -1 10L 1 10C 1 5.02944 5.02944 1 10 1L 10 -1ZM 180 1C 184.971 1 189 5.02944 189 10L 191 10C 191 3.92487 186.075 -1 180 -1L 180 1ZM 189 180C 189 184.971 184.971 189 180 189L 180 191C 186.075 191 191 186.075 191 180L 189 180ZM 10 189C 5.02944 189 1 184.971 1 180L -1 180C -1 186.075 3.92487 191 10 191L 10 189Z"/>
<path id="path2_fill" d="M 23.323 12.3345L 23.202 2.7601C 26.1098 -1.76525 32.3937 0.380438 33.0745 1.49382C 34.7068 4.16304 36.9921 9.1771 37.0533 12.6175C 37.1093 15.7593 36.4602 18.3046 35.8513 20.6923C 35.7936 20.9184 35.7363 21.1431 35.68 21.3667C 35.5232 21.9896 35.997 22.586 36.6393 22.586L 53.4821 22.586C 57.6398 22.586 61.1335 28.8987 55.7497 33.4102C 57.4425 36.1849 55.9731 39.2889 53.9528 40.94C 55.0945 44.2666 53.9541 46.8853 52.0275 48.4271C 53.7315 54.4699 48.5459 58.0534 45.1822 58.0534L 18.3143 58.0534C 17.6412 58.0534 16.9214 57.7831 16.2725 57.4022C 15.5773 56.9941 14.3416 57.4617 14.314 58.2673C 14.2813 59.2245 13.2119 60 12.4316 60L 4.32395 60C 3.27834 60 2.27844 58.8231 2.20617 57.8822L 0.00283502 29.196C -0.0669472 28.2875 1.16399 26.9624 2.31569 27.0115L 12.8729 27.0554L 13.2866 27.5671C 16.5354 24.7697 21.0437 17.2423 23.323 12.3345Z"/>
<path id="path3_stroke" d="M 23.202 2.7601L 21.0988 1.40864L 20.6927 2.04059L 20.7022 2.7917L 23.202 2.7601ZM 23.323 12.3345L 25.5904 13.3876L 25.83 12.8717L 25.8228 12.3029L 23.323 12.3345ZM 33.0745 1.49382L 35.2073 0.189582L 35.2073 0.189582L 33.0745 1.49382ZM 37.0533 12.6175L 34.5537 12.662L 34.5537 12.662L 37.0533 12.6175ZM 35.8513 20.6923L 38.2737 21.3102L 38.2737 21.3101L 35.8513 20.6923ZM 35.68 21.3667L 33.2557 20.7564L 35.68 21.3667ZM 55.7497 33.4102L 54.144 31.494L 52.495 32.8757L 53.6155 34.7122L 55.7497 33.4102ZM 53.9528 40.94L 52.3707 39.0043L 51.0232 40.1056L 51.5882 41.7516L 53.9528 40.94ZM 52.0275 48.4271L 50.4655 46.4752L 49.1716 47.5106L 49.6214 49.1056L 52.0275 48.4271ZM 16.2725 57.4022L 15.0068 59.5581L 16.2725 57.4022ZM 2.20617 57.8822L -0.286487 58.0737L -0.286487 58.0737L 2.20617 57.8822ZM 0.00283502 29.196L 2.49549 29.0046L 2.49549 29.0046L 0.00283502 29.196ZM 2.31569 27.0115L 2.20922 29.5092L 2.25724 29.5113L 2.3053 29.5115L 2.31569 27.0115ZM 12.8729 27.0554L 14.8171 25.4837L 14.0707 24.5603L 12.8833 24.5554L 12.8729 27.0554ZM 13.2866 27.5671L 11.3424 29.1387L 12.9636 31.1442L 14.9178 29.4616L 13.2866 27.5671ZM 20.7022 2.7917L 20.8232 12.3661L 25.8228 12.3029L 25.7018 2.72851L 20.7022 2.7917ZM 35.2073 0.189582C 34.8278 -0.431096 34.2774 -0.833519 33.9284 -1.05845C 33.5726 -1.28358 33.0393 -1.5531 32.5681 -1.74116C 31.6807 -2.08394 30.3512 -2.40537 29.1092 -2.48387C 26.5203 -2.62479 23.1938 -1.85184 21.0988 1.40864L 25.3052 4.11156C 26.118 2.84669 27.3873 2.4298 28.8375 2.50874C 29.6151 2.54016 30.1659 2.68109 30.7391 2.91234C 30.9982 3.0113 31.0903 3.05673 31.2198 3.14437C 31.3561 3.23221 31.151 3.14039 30.9417 2.79806L 35.2073 0.189582ZM 39.553 12.573C 39.5145 10.4118 38.8027 7.97184 37.9836 5.86181C 37.1518 3.72781 36.0723 1.6076 35.2073 0.189582L 30.9417 2.79806C 31.709 4.04927 32.5882 5.77069 33.3225 7.67112C 34.0695 9.59552 34.531 11.3828 34.5537 12.662L 39.553 12.573ZM 38.2737 21.3101C 38.8827 18.9224 39.5925 16.0485 39.553 12.573L 34.5537 12.662C 34.6261 15.4701 34.0378 17.6868 33.4288 20.0745L 38.2737 21.3101ZM 38.1043 21.9771C 38.1597 21.7572 38.2161 21.5362 38.2737 21.3102L 33.4288 20.0745C 33.3712 20.3006 33.3129 20.529 33.2557 20.7564L 38.1043 21.9771ZM 53.4821 20.086L 36.6393 20.086L 36.6393 25.086L 53.4821 25.086L 53.4821 20.086ZM 57.3553 35.3264C 64.3455 29.4689 60.2117 20.086 53.4821 20.086L 53.4821 25.086C 55.0679 25.086 57.9216 28.3285 54.144 31.494L 57.3553 35.3264ZM 55.5348 42.8758C 58.0483 40.8216 60.5013 36.3985 57.8838 32.1081L 53.6155 34.7122C 54.3837 35.9714 53.8978 37.7562 52.3707 39.0043L 55.5348 42.8758ZM 53.5896 50.379C 56.302 48.2084 57.8173 44.4987 56.3174 40.1284L 51.5882 41.7516C 52.3717 44.0344 51.6062 45.5623 50.4655 46.4752L 53.5896 50.379ZM 45.1822 60.5534C 47.6261 60.5534 50.4168 59.3162 52.3535 57.1897C 54.3992 54.9435 55.5354 51.6556 54.4337 47.7486L 49.6214 49.1056C 50.2236 51.2414 49.619 52.7666 48.6569 53.8229C 47.586 54.9988 46.102 55.5534 45.1822 55.5534L 45.1822 60.5534ZM 18.3143 60.5534L 45.1822 60.5534L 45.1822 55.5534L 18.3143 55.5534L 18.3143 60.5534ZM 15.0068 59.5581C 15.8533 60.0551 17.0211 60.5534 18.3143 60.5534L 18.3143 55.5534C 18.2613 55.5534 17.9894 55.5112 17.5381 55.2462L 15.0068 59.5581ZM 12.4316 62.5C 13.5567 62.5 14.5724 61.9921 15.2719 61.3977C 15.9878 60.7895 16.7648 59.7497 16.8126 58.3527L 11.8155 58.1819C 11.823 57.9608 11.8895 57.8001 11.9388 57.7127C 11.9857 57.6297 12.0261 57.5945 12.0344 57.5875C 12.043 57.5801 12.0563 57.5697 12.0892 57.556C 12.1137 57.5458 12.2289 57.5 12.4316 57.5L 12.4316 62.5ZM 4.32395 62.5L 12.4316 62.5L 12.4316 57.5L 4.32395 57.5L 4.32395 62.5ZM -0.286487 58.0737C -0.195558 59.2575 0.410937 60.3008 1.08418 61.0122C 1.7558 61.722 2.87928 62.5 4.32395 62.5L 4.32395 57.5C 4.5344 57.5 4.66753 57.5586 4.71002 57.5805C 4.75129 57.6019 4.74602 57.6074 4.71593 57.5756C 4.68684 57.5449 4.66721 57.5134 4.66057 57.5C 4.65038 57.4795 4.68734 57.5412 4.69883 57.6908L -0.286487 58.0737ZM -2.48982 29.3875L -0.286487 58.0737L 4.69883 57.6908L 2.49549 29.0046L -2.48982 29.3875ZM 2.42216 24.5138C 0.901259 24.4489 -0.331889 25.2493 -1.05797 25.9683C -1.73252 26.6364 -2.60605 27.8743 -2.48982 29.3875L 2.49549 29.0046C 2.50984 29.1914 2.48714 29.3333 2.4673 29.4169C 2.44724 29.5014 2.42423 29.5515 2.41608 29.568C 2.40278 29.5951 2.41255 29.5683 2.46038 29.521C 2.50685 29.475 2.53994 29.4584 2.53321 29.4616C 2.52905 29.4636 2.41585 29.518 2.20922 29.5092L 2.42216 24.5138ZM 12.8833 24.5554L 2.32608 24.5115L 2.3053 29.5115L 12.8625 29.5554L 12.8833 24.5554ZM 15.2307 25.9954L 14.8171 25.4837L 10.9288 28.6271L 11.3424 29.1387L 15.2307 25.9954ZM 21.0556 11.2815C 19.9513 13.6624 18.3347 16.6244 16.5618 19.396C 14.7614 22.2132 12.9849 24.5278 11.6554 25.6725L 14.9178 29.4616C 16.8371 27.809 18.9391 24.9611 20.775 22.0884C 22.6382 19.1699 24.4154 15.9144 25.5904 13.3876L 21.0556 11.2815ZM 33.2557 20.7564C 32.6932 22.9902 34.4022 25.086 36.6393 25.086L 36.6393 20.086C 37.5919 20.086 38.3531 20.9889 38.1043 21.9771L 33.2557 20.7564ZM 17.5381 55.2462C 16.3225 54.5326 14.9735 54.6997 14.0803 55.0724C 13.2101 55.4354 11.8761 56.4077 11.8155 58.1819L 16.8126 58.3527C 16.7794 59.3212 16.0771 59.657 16.0055 59.6868C 15.9109 59.7263 15.5273 59.8637 15.0068 59.5581L 17.5381 55.2462Z"/>
</defs>
</svg>
