<svg width="190" height="190" viewBox="0 0 190 190" version="1.1" xmlns="http://www.w3.org/2000/svg" xmlns:xlink="http://www.w3.org/1999/xlink" xmlns:figma="http://www.figma.com/figma/ns">
<title>capital-img</title>
<desc>Created using Figma</desc>
<g id="Canvas" transform="translate(-595 -596)" figma:type="canvas">
<g id="capital-img" figma:type="frame">
<g id="img" figma:type="frame">
<g id="bg" figma:type="rounded-rectangle">
<use xlink:href="#path0_fill" transform="translate(595 596)" fill="#FFFFFF"/>
<mask id="mask0_outline_ins">
<use xlink:href="#path0_fill" fill="white" transform="translate(595 596)"/>
</mask>
<g mask="url(#mask0_outline_ins)">
<use xlink:href="#path1_stroke_2x" transform="translate(595 596)" fill="#000000" fill-opacity="0.1"/>
</g>
</g>
</g>
<g id="Vector 3" figma:type="vector">
<use xlink:href="#path2_fill" transform="translate(657 706)" fill="#94CBFE"/>
</g>
<g id="Union" figma:type="vector">
<use xlink:href="#path3_fill" transform="translate(652 662)" fill="#047AE9"/>
</g>
</g>
</g>
<defs>
<path id="path0_fill" d="M 0 10C 0 4.47715 4.47715 0 10 0L 180 0C 185.523 0 190 4.47715 190 10L 190 180C 190 185.523 185.523 190 180 190L 10 190C 4.47715 190 0 185.523 0 180L 0 10Z"/>
<path id="path1_stroke_2x" d="M 10 1L 180 1L 180 -1L 10 -1L 10 1ZM 189 10L 189 180L 191 180L 191 10L 189 10ZM 180 189L 10 189L 10 191L 180 191L 180 189ZM 1 180L 1 10L -1 10L -1 180L 1 180ZM 10 -1C 3.92487 -1 -1 3.92487 -1 10L 1 10C 1 5.02944 5.02944 1 10 1L 10 -1ZM 180 1C 184.971 1 189 5.02944 189 10L 191 10C 191 3.92487 186.075 -1 180 -1L 180 1ZM 189 180C 189 184.971 184.971 189 180 189L 180 191C 186.075 191 191 186.075 191 180L 189 180ZM 10 189C 5.02944 189 1 184.971 1 180L -1 180C -1 186.075 3.92487 191 10 191L 10 189Z"/>
<path id="path2_fill" d="M 0 9L 0 0L 67 0L 67 9L 0 9Z"/>
<path id="path3_fill" fill-rule="evenodd" d="M 72.1333 0L 45.386 0L 29.6152 0L 2.8667 0C 1.28314 0 0 1.29181 0 2.88524L 0 44.3707L 0 53C 0 55.2091 1.79086 57 4 57L 22 57L 32.4819 57L 42.5192 57L 49 57L 71 57C 73.2091 57 75 55.2091 75 53L 75 44.3707L 75 2.88524C 75 1.29181 73.7165 0 72.1333 0ZM 42.5192 52L 42.5192 47.2555L 32.4819 47.2555L 32.4819 52L 42.5192 52ZM 69.2665 21.1611L 69.2665 26.4799C 61.6296 27.7152 55.5842 33.7992 54.3569 41.4851L 48.2527 41.4851L 48.2527 34.9033C 54.1215 32.5301 57.6827 28.3361 57.6838 23.6274C 57.6827 18.9194 54.1218 14.7251 48.2527 12.3519L 48.2527 5.77048L 54.3011 5.77048C 55.3855 13.6379 61.5023 19.9058 69.2665 21.1611ZM 69.2665 32.362L 69.2665 41.4855L 60.2008 41.4855C 61.2745 36.9879 64.7979 33.4422 69.2665 32.362ZM 48.2527 18.7652C 50.5541 20.142 51.95 21.9055 51.9504 23.6274C 51.95 25.3501 50.5541 27.1131 48.2527 28.4904L 48.2527 18.7652ZM 48.2527 47.2555L 69.2665 47.2555L 69.2665 51.8569L 48.2527 51.8569L 48.2527 47.2555ZM 69.2665 15.2794C 64.671 14.168 61.0723 10.4503 60.1125 5.77048L 69.2665 5.77048L 69.2665 15.2794ZM 42.5192 5.77048L 42.5192 41.4855L 32.4819 41.4855L 32.4819 32.8628L 32.4819 32.8351L 32.4819 14.4208L 32.4819 14.3931L 32.4819 5.77048L 42.5192 5.77048ZM 20.6985 5.77048L 26.7485 5.77048L 26.7485 12.3519C 20.8785 14.7247 17.3165 18.9191 17.3165 23.6282C 17.3165 28.3372 20.8782 32.5316 26.7485 34.9044L 26.7485 41.4855L 20.6435 41.4855C 19.4161 33.7988 13.3708 27.714 5.73346 26.4792L 5.73346 21.1599C 13.4977 19.9043 19.6141 13.6372 20.6985 5.77048ZM 26.7485 28.4915C 24.4467 27.1143 23.05 25.3508 23.05 23.6278C 23.05 21.9047 24.4463 20.1413 26.7485 18.764L 26.7485 28.4915ZM 5.73346 32.3608C 10.2021 33.4414 13.7255 36.9876 14.7992 41.4851L 5.73346 41.4851L 5.73346 32.3608ZM 5.73346 47.2555L 26.7485 47.2555L 26.7485 51.8569L 5.73346 51.8569L 5.73346 47.2555ZM 14.8875 5.77048C 13.9277 10.4496 10.3286 14.1669 5.73346 15.2779L 5.73346 5.77048L 14.8875 5.77048Z"/>
</defs>
</svg>
