<svg width="190" height="190" viewBox="0 0 190 190" version="1.1" xmlns="http://www.w3.org/2000/svg" xmlns:xlink="http://www.w3.org/1999/xlink" xmlns:figma="http://www.figma.com/figma/ns">
<title>cloud-img</title>
<desc>Created using Figma</desc>
<g id="Canvas" transform="translate(-63 217)" figma:type="canvas">
<g id="cloud-img" figma:type="frame">
<g id="img" figma:type="frame">
<g id="bg" figma:type="rounded-rectangle">
<use xlink:href="#path0_fill" transform="translate(63 -217)" fill="#FFFFFF"/>
<mask id="mask0_outline_ins">
<use xlink:href="#path0_fill" fill="white" transform="translate(63 -217)"/>
</mask>
<g mask="url(#mask0_outline_ins)">
<use xlink:href="#path1_stroke_2x" transform="translate(63 -217)" fill="#000000" fill-opacity="0.1"/>
</g>
</g>
</g>
<g id="Union" figma:type="vector">
<use xlink:href="#path2_fill" transform="translate(139 -152)" fill="#94CBFE"/>
<use xlink:href="#path3_stroke" transform="translate(139 -152)" fill="#047AE9"/>
</g>
<g id="Union" figma:type="vector">
<use xlink:href="#path4_fill" transform="translate(114 -138)" fill="#FFFFFF"/>
<use xlink:href="#path5_stroke" transform="translate(114 -138)" fill="#047AE9"/>
</g>
</g>
</g>
<defs>
<path id="path0_fill" d="M 0 10C 0 4.47715 4.47715 0 10 0L 180 0C 185.523 0 190 4.47715 190 10L 190 180C 190 185.523 185.523 190 180 190L 10 190C 4.47715 190 0 185.523 0 180L 0 10Z"/>
<path id="path1_stroke_2x" d="M 10 1L 180 1L 180 -1L 10 -1L 10 1ZM 189 10L 189 180L 191 180L 191 10L 189 10ZM 180 189L 10 189L 10 191L 180 191L 180 189ZM 1 180L 1 10L -1 10L -1 180L 1 180ZM 10 -1C 3.92487 -1 -1 3.92487 -1 10L 1 10C 1 5.02944 5.02944 1 10 1L 10 -1ZM 180 1C 184.971 1 189 5.02944 189 10L 191 10C 191 3.92487 186.075 -1 180 -1L 180 1ZM 189 180C 189 184.971 184.971 189 180 189L 180 191C 186.075 191 191 186.075 191 180L 189 180ZM 10 189C 5.02944 189 1 184.971 1 180L -1 180C -1 186.075 3.92487 191 10 191L 10 189Z"/>
<path id="path2_fill" d="M 11.2727 40C 5.04698 40 0 34.8833 0 28.5714C 0 22.2596 5.04698 17.1429 11.2727 17.1429C 11.3394 17.1429 11.4059 17.1434 11.4723 17.1446C 12.839 7.45149 21.0612 0 31 0C 40.9388 0 49.161 7.45149 50.5277 17.1446C 50.5941 17.1434 50.6606 17.1429 50.7273 17.1429C 56.953 17.1429 62 22.2596 62 28.5714C 62 34.8833 56.953 40 50.7273 40L 31 40L 11.2727 40Z"/>
<path id="path3_stroke" d="M 11.4723 17.1446L 11.4289 19.6442L 13.6391 19.6825L 13.9478 17.4936L 11.4723 17.1446ZM 50.5277 17.1446L 48.0522 17.4936L 48.3609 19.6825L 50.5711 19.6442L 50.5277 17.1446ZM 11.2727 37.5C 6.45994 37.5 2.5 33.535 2.5 28.5714L -2.5 28.5714C -2.5 36.2315 3.63402 42.5 11.2727 42.5L 11.2727 37.5ZM 2.5 28.5714C 2.5 23.6078 6.45994 19.6429 11.2727 19.6429L 11.2727 14.6429C 3.63402 14.6429 -2.5 20.9113 -2.5 28.5714L 2.5 28.5714ZM 11.2727 19.6429C 11.3282 19.6428 11.3731 19.6432 11.4289 19.6442L 11.5156 14.645C 11.4387 14.6437 11.3505 14.6429 11.2727 14.6429L 11.2727 19.6429ZM 13.9478 17.4936C 15.1467 8.99082 22.3503 2.5 31 2.5L 31 -2.5C 19.772 -2.5 10.5313 5.91215 8.99674 16.7956L 13.9478 17.4936ZM 31 2.5C 39.6497 2.5 46.8533 8.99082 48.0522 17.4936L 53.0033 16.7956C 51.4687 5.91215 42.228 -2.5 31 -2.5L 31 2.5ZM 50.5711 19.6442C 50.6269 19.6432 50.6718 19.6428 50.7273 19.6429L 50.7273 14.6429C 50.6495 14.6429 50.5613 14.6437 50.4844 14.645L 50.5711 19.6442ZM 50.7273 19.6429C 55.5401 19.6429 59.5 23.6078 59.5 28.5714L 64.5 28.5714C 64.5 20.9113 58.366 14.6429 50.7273 14.6429L 50.7273 19.6429ZM 59.5 28.5714C 59.5 33.535 55.5401 37.5 50.7273 37.5L 50.7273 42.5C 58.366 42.5 64.5 36.2315 64.5 28.5714L 59.5 28.5714ZM 50.7273 37.5L 31 37.5L 31 42.5L 50.7273 42.5L 50.7273 37.5ZM 31 37.5L 11.2727 37.5L 11.2727 42.5L 31 42.5L 31 37.5Z"/>
<path id="path4_fill" d="M 13.0909 46C 5.86101 46 0 40.1158 0 32.8571C 0 25.5985 5.86101 19.7143 13.0909 19.7143C 13.1683 19.7143 13.2455 19.715 13.3226 19.7163C 14.9098 8.56921 24.4581 0 36 0C 47.5419 0 57.0902 8.56921 58.6774 19.7163C 58.7545 19.715 58.8317 19.7143 58.9091 19.7143C 66.139 19.7143 72 25.5985 72 32.8571C 72 40.1158 66.139 46 58.9091 46L 36 46L 13.0909 46Z"/>
<path id="path5_stroke" d="M 13.3226 19.7163L 13.2797 22.2159L 15.4865 22.2538L 15.7977 20.0687L 13.3226 19.7163ZM 58.6774 19.7163L 56.2023 20.0687L 56.5135 22.2538L 58.7203 22.2159L 58.6774 19.7163ZM 13.0909 43.5C 7.25104 43.5 2.5 38.7444 2.5 32.8571L -2.5 32.8571C -2.5 41.4871 4.47097 48.5 13.0909 48.5L 13.0909 43.5ZM 2.5 32.8571C 2.5 26.9699 7.25104 22.2143 13.0909 22.2143L 13.0909 17.2143C 4.47097 17.2143 -2.5 24.2272 -2.5 32.8571L 2.5 32.8571ZM 13.0909 22.2143C 13.1573 22.2143 13.213 22.2148 13.2797 22.2159L 13.3655 17.2167C 13.278 17.2152 13.1793 17.2143 13.0909 17.2143L 13.0909 22.2143ZM 15.7977 20.0687C 17.2129 10.1288 25.7277 2.5 36 2.5L 36 -2.5C 23.1885 -2.5 12.6066 7.00962 10.8476 19.3639L 15.7977 20.0687ZM 36 2.5C 46.2723 2.5 54.7871 10.1288 56.2023 20.0687L 61.1524 19.3639C 59.3934 7.00962 48.8115 -2.5 36 -2.5L 36 2.5ZM 58.7203 22.2159C 58.787 22.2148 58.8427 22.2143 58.9091 22.2143L 58.9091 17.2143C 58.8207 17.2143 58.722 17.2152 58.6345 17.2167L 58.7203 22.2159ZM 58.9091 22.2143C 64.749 22.2143 69.5 26.9699 69.5 32.8571L 74.5 32.8571C 74.5 24.2272 67.529 17.2143 58.9091 17.2143L 58.9091 22.2143ZM 69.5 32.8571C 69.5 38.7444 64.749 43.5 58.9091 43.5L 58.9091 48.5C 67.529 48.5 74.5 41.4871 74.5 32.8571L 69.5 32.8571ZM 58.9091 43.5L 36 43.5L 36 48.5L 58.9091 48.5L 58.9091 43.5ZM 36 43.5L 13.0909 43.5L 13.0909 48.5L 36 48.5L 36 43.5Z"/>
</defs>
</svg>
