<svg width="580" height="580" viewBox="0 0 580 580" version="1.1" xmlns="http://www.w3.org/2000/svg" xmlns:xlink="http://www.w3.org/1999/xlink" xmlns:figma="http://www.figma.com/figma/ns">
<title>consult-img</title>
<desc>Created using Figma</desc>
<g id="Canvas" transform="matrix(10 0 0 10 -27070 4640)" figma:type="canvas">
<g id="consult-img" figma:type="frame">
<g id="img" figma:type="frame">
<g id="bg" figma:type="rounded-rectangle">
<use xlink:href="#path0_fill" transform="translate(2707 -464)" fill="#FFFFFF"/>
<mask id="mask0_outline_ins">
<use xlink:href="#path0_fill" fill="white" transform="translate(2707 -464)"/>
</mask>
<g mask="url(#mask0_outline_ins)">
<use xlink:href="#path1_stroke_2x" transform="translate(2707 -464)" fill="#000000" fill-opacity="0.1"/>
</g>
</g>
</g>
<g id="Ellipse 4" figma:type="vector">
<use xlink:href="#path2_fill" transform="matrix(-1 0 0 1 2748 -437)" fill="#94CBFE"/>
<use xlink:href="#path3_stroke" transform="matrix(-1 0 0 1 2748 -437)" fill="#047AE9"/>
</g>
<g id="Ellipse 4" figma:type="vector">
<use xlink:href="#path4_fill" transform="translate(2723 -447)" fill="#FFFFFF"/>
<use xlink:href="#path5_stroke" transform="translate(2723 -447)" fill="#047AE9"/>
</g>
</g>
</g>
<defs>
<path id="path0_fill" d="M 0 10C 0 4.47715 4.47715 0 10 0L 48 0C 53.5228 0 58 4.47715 58 10L 58 48C 58 53.5228 53.5228 58 48 58L 10 58C 4.47715 58 0 53.5228 0 48L 0 10Z"/>
<path id="path1_stroke_2x" d="M 10 1L 48 1L 48 -1L 10 -1L 10 1ZM 57 10L 57 48L 59 48L 59 10L 57 10ZM 48 57L 10 57L 10 59L 48 59L 48 57ZM 1 48L 1 10L -1 10L -1 48L 1 48ZM 10 -1C 3.92487 -1 -1 3.92487 -1 10L 1 10C 1 5.02944 5.02944 1 10 1L 10 -1ZM 48 1C 52.9706 1 57 5.02944 57 10L 59 10C 59 3.92487 54.0751 -1 48 -1L 48 1ZM 57 48C 57 52.9706 52.9706 57 48 57L 48 59C 54.0751 59 59 54.0751 59 48L 57 48ZM 10 57C 5.02944 57 1 52.9706 1 48L -1 48C -1 54.0751 3.92487 59 10 59L 10 57Z"/>
<path id="path2_fill" d="M 18 6.61773C 18 10.2726 13.9706 13.2355 9 13.2355C 7.36071 13.2355 5.82378 12.9132 4.5 12.3501C 3.96237 12.1214 1.5849 14.2734 1.125 13.9708C 0.714278 13.7005 2.21252 10.9824 1.875 10.6614C 0.699451 9.5431 0 8.14048 0 6.61773C 0 2.96286 4.02944 0 9 0C 13.9706 0 18 2.96286 18 6.61773Z"/>
<path id="path3_stroke" d="M 4.5 12.3501L 4.30429 12.8102L 4.5 12.3501ZM 1.875 10.6614L 2.21962 10.2991L 1.875 10.6614ZM 1.125 13.9708L 0.850128 14.3884L 1.125 13.9708ZM 17.5 6.61773C 17.5 8.2482 16.6023 9.76601 15.0678 10.8943C 13.5335 12.0225 11.3898 12.7355 9 12.7355L 9 13.7355C 11.5807 13.7355 13.9371 12.967 15.6602 11.7C 17.383 10.4332 18.5 8.64213 18.5 6.61773L 17.5 6.61773ZM 0.5 6.61773C 0.5 4.98726 1.39772 3.46944 2.93224 2.34111C 4.46651 1.21295 6.61016 0.5 9 0.5L 9 -0.5C 6.41928 -0.5 4.06292 0.268476 2.33984 1.53546C 0.616996 2.80228 -0.5 4.59333 -0.5 6.61773L 0.5 6.61773ZM 9 0.5C 11.3898 0.5 13.5335 1.21295 15.0678 2.34111C 16.6023 3.46944 17.5 4.98726 17.5 6.61773L 18.5 6.61773C 18.5 4.59333 17.383 2.80228 15.6602 1.53546C 13.9371 0.268476 11.5807 -0.5 9 -0.5L 9 0.5ZM 9 12.7355C 7.41229 12.7381 5.97365 12.4362 4.69571 11.89L 4.30429 12.8102C 5.67391 13.3902 7.30913 13.7328 9 13.7355L 9 12.7355ZM 2.21962 10.2991C 1.12335 9.25626 0.5 7.97827 0.5 6.61773L -0.5 6.61773C -0.5 8.30269 0.275547 9.82995 1.53038 11.0236L 2.21962 10.2991ZM 4.69571 11.89C 4.45546 11.7878 4.20991 11.846 4.07149 11.8889C 3.92287 11.9361 3.73971 12.0198 3.57317 12.1094C 3.24853 12.285 2.86838 12.5345 2.50914 12.7701C 2.14991 13.0057 1.81328 13.2264 1.53807 13.3705C 1.40568 13.4405 1.3244 13.4775 1.25086 13.4956C 1.16572 13.5184 1.26678 13.4655 1.39987 13.5531L 0.850128 14.3884C 1.0982 14.5517 1.37415 14.4978 1.50916 14.4617C 1.65576 14.421 1.83987 14.3413 2.00345 14.2556C 2.32016 14.0885 2.69773 13.8423 3.05755 13.6063C 3.41737 13.3703 3.76115 13.1436 4.04786 12.9895C 4.187 12.9142 4.28138 12.8696 4.36748 12.8441C 4.46378 12.8143 4.41014 12.8552 4.30429 12.8102L 4.69571 11.89ZM 1.39987 13.5531C 1.57941 13.6713 1.55237 13.8447 1.55312 13.7691C 1.55191 13.7106 1.56595 13.6413 1.60029 13.5106C 1.67093 13.2365 1.80085 12.8856 1.94102 12.5098C 2.08119 12.1341 2.23062 11.737 2.32334 11.4128C 2.37063 11.2458 2.40973 11.0624 2.42145 10.9218C 2.42974 10.8105 2.44353 10.5121 2.21962 10.2991L 1.53038 11.0236C 1.39085 10.8909 1.43165 10.7477 1.42421 10.8475C 1.42021 10.918 1.40083 11.0019 1.36154 11.139C 1.28111 11.4232 1.14494 11.7827 1.00408 12.1604C 0.863215 12.538 0.716686 12.9374 0.632462 13.259C 0.589379 13.4261 0.556389 13.616 0.553172 13.7592C 0.551921 13.8852 0.567905 14.2027 0.850128 14.3884L 1.39987 13.5531Z"/>
<path id="path4_fill" d="M 24 9C 24 13.9706 18.6274 18 12 18C 9.81428 18 7.76504 17.5617 6 16.796C 5.28316 16.485 2.11319 19.4116 1.5 19C 0.95237 18.6324 2.95002 14.9359 2.5 14.4993C 0.932601 12.9785 0 11.0709 0 9C 0 4.02944 5.37258 0 12 0C 18.6274 0 24 4.02944 24 9Z"/>
<path id="path5_stroke" d="M 6 16.796L 5.801 17.2547L 6 16.796ZM 2.5 14.4993L 2.84818 14.1404L 2.5 14.4993ZM 1.5 19L 1.22133 19.4151L 1.5 19ZM 23.5 9C 23.5 11.2926 22.2621 13.4063 20.1853 14.964C 18.1083 16.5217 15.216 17.5 12 17.5L 12 18.5C 15.4114 18.5 18.5191 17.4636 20.7853 15.764C 23.0516 14.0642 24.5 11.6779 24.5 9L 23.5 9ZM 0.5 9C 0.5 6.70738 1.73786 4.59368 3.81472 3.03604C 5.89173 1.47828 8.78402 0.5 12 0.5L 12 -0.5C 8.58857 -0.5 5.48085 0.53644 3.21472 2.23604C 0.948433 3.93575 -0.5 6.32205 -0.5 9L 0.5 9ZM 12 0.5C 15.216 0.5 18.1083 1.47828 20.1853 3.03604C 22.2621 4.59368 23.5 6.70738 23.5 9L 24.5 9C 24.5 6.32205 23.0516 3.93575 20.7853 2.23604C 18.5191 0.53644 15.4114 -0.5 12 -0.5L 12 0.5ZM 12 17.5C 9.86685 17.5028 7.91758 17.0856 6.199 16.3373L 5.801 17.2547C 7.6125 18.0379 9.7617 18.4972 12 18.5L 12 17.5ZM 2.84818 14.1404C 1.35961 12.6961 0.5 10.9122 0.5 9L -0.5 9C -0.5 11.2296 0.505591 13.2608 2.15182 14.8581L 2.84818 14.1404ZM 6.199 16.3373C 5.93355 16.2221 5.65307 16.2853 5.47529 16.3415C 5.28716 16.4021 5.05728 16.5095 4.83969 16.6289C 4.41308 16.8642 3.91221 17.1996 3.43313 17.5201C 2.95405 17.8406 2.49847 18.1451 2.1247 18.3449C 1.94311 18.4426 1.81819 18.5 1.70846 18.5283C 1.58739 18.5614 1.66269 18.507 1.77867 18.5849L 1.22133 19.4151C 1.49061 19.5959 1.79911 19.5401 1.97157 19.4931C 2.15536 19.4414 2.38429 19.3401 2.59732 19.2262C 3.01278 19.0027 3.50947 18.6722 3.98913 18.3513C 4.4688 18.0304 4.93316 17.7183 5.32168 17.5051C 5.51166 17.4003 5.65183 17.3333 5.77666 17.295C 5.91185 17.2523 5.88724 17.2921 5.801 17.2547L 6.199 16.3373ZM 1.77867 18.5849C 1.93855 18.6922 1.90306 18.8386 1.90417 18.7238C 1.90338 18.6282 1.92561 18.5112 1.97301 18.3266C 2.06969 17.9449 2.24596 17.4587 2.43298 16.9473C 2.62 16.4358 2.81682 15.9028 2.93819 15.4694C 2.99977 15.2479 3.04825 15.0174 3.06245 14.8394C 3.07324 14.6916 3.08247 14.3678 2.84818 14.1404L 2.15182 14.8581C 2.03004 14.74 2.07528 14.6271 2.0651 14.7666C 2.05833 14.8757 2.02885 15.0085 1.97499 15.2007C 1.86549 15.5946 1.6815 16.0906 1.49381 16.6038C 1.30612 17.1171 1.11379 17.6512 1.00399 18.0796C 0.948162 18.3 0.907687 18.5355 0.904221 18.7141C 0.902669 18.8735 0.924543 19.2159 1.22133 19.4151L 1.77867 18.5849Z"/>
</defs>
</svg>
