<svg width="190" height="190" viewBox="0 0 190 190" version="1.1" xmlns="http://www.w3.org/2000/svg" xmlns:xlink="http://www.w3.org/1999/xlink" xmlns:figma="http://www.figma.com/figma/ns">
<title>Group</title>
<desc>Created using Figma</desc>
<g id="Canvas" transform="translate(-595 -1415)" figma:type="canvas">
<g id="Group" figma:type="frame">
<g id="img" figma:type="frame">
<g id="bg" figma:type="rounded-rectangle">
<use xlink:href="#path0_fill" transform="translate(595 1415)" fill="#FFFFFF"/>
<mask id="mask0_outline_ins">
<use xlink:href="#path0_fill" fill="white" transform="translate(595 1415)"/>
</mask>
<g mask="url(#mask0_outline_ins)">
<use xlink:href="#path1_stroke_2x" transform="translate(595 1415)" fill="#000000" fill-opacity="0.1"/>
</g>
</g>
</g>
<g id="Union" figma:type="vector">
<use xlink:href="#path2_fill" transform="translate(659 1495)" fill="#94CBFE"/>
<use xlink:href="#path3_stroke" transform="translate(659 1495)" fill="#047AE9"/>
</g>
<g id="Rectangle" figma:type="rounded-rectangle">
<use xlink:href="#path4_fill" transform="translate(659 1480)" fill="#FFFFFF"/>
<use xlink:href="#path5_stroke" transform="translate(659 1480)" fill="#047AE9"/>
</g>
<g id="$" figma:type="vector">
<use xlink:href="#path6_fill" transform="translate(680.934 1492.26)" fill="#047AE9"/>
<mask id="mask1_outline_out">
<rect id="mask1_outline_inv" fill="white" x="-1" y="-1" width="19" height="36" transform="translate(680.934 1492.26)"/>
<use xlink:href="#path6_fill" fill="black" transform="translate(680.934 1492.26)"/>
</mask>
<g mask="url(#mask1_outline_out)">
<use xlink:href="#path7_stroke_2x" transform="translate(680.934 1492.26)" fill="#047AE9"/>
</g>
</g>
</g>
</g>
<defs>
<path id="path0_fill" d="M 0 10C 0 4.47715 4.47715 0 10 0L 180 0C 185.523 0 190 4.47715 190 10L 190 180C 190 185.523 185.523 190 180 190L 10 190C 4.47715 190 0 185.523 0 180L 0 10Z"/>
<path id="path1_stroke_2x" d="M 10 1L 180 1L 180 -1L 10 -1L 10 1ZM 189 10L 189 180L 191 180L 191 10L 189 10ZM 180 189L 10 189L 10 191L 180 191L 180 189ZM 1 180L 1 10L -1 10L -1 180L 1 180ZM 10 -1C 3.92487 -1 -1 3.92487 -1 10L 1 10C 1 5.02944 5.02944 1 10 1L 10 -1ZM 180 1C 184.971 1 189 5.02944 189 10L 191 10C 191 3.92487 186.075 -1 180 -1L 180 1ZM 189 180C 189 184.971 184.971 189 180 189L 180 191C 186.075 191 191 186.075 191 180L 189 180ZM 10 189C 5.02944 189 1 184.971 1 180L -1 180C -1 186.075 3.92487 191 10 191L 10 189Z"/>
<path id="path2_fill" d="M 0 25L 0 15.039C 0 11.7038 2.70376 9 6.03902 9C 7.66148 9 9.19644 8.3244 10.4255 7.26524C 15.6795 2.73748 22.5201 0 30 0C 37.4799 1.19873e-16 44.3205 2.73748 49.5745 7.26524C 50.8035 8.3244 52.3385 9 53.961 9C 57.2962 9 60 11.7038 60 15.039L 60 25L 60 25.9917C 60 25.9963 59.9963 26 59.9917 26C 59.9872 26 59.9835 26.0036 59.9834 26.0081C 59.4517 42.1099 46.2312 55 30 55C 13.7688 55 0.548263 42.1099 0.0166232 26.0081C 0.0164752 26.0036 0.0127976 26 0.00831261 26C 0.00372168 26 0 25.9963 0 25.9917L 0 25Z"/>
<path id="path3_stroke" d="M 49.5745 7.26524L 51.2065 5.37144L 49.5745 7.26524ZM 0.0166232 26.0081L -2.48202 26.0906L 0.0166232 26.0081ZM 10.4255 7.26524L 8.79346 5.37144L 10.4255 7.26524ZM 59.9834 26.0081L 57.4847 25.9256L 59.9834 26.0081ZM 2.5 25L 2.5 15.039L -2.5 15.039L -2.5 25L 2.5 25ZM 12.0575 9.15904C 16.9776 4.87403 22.993 2.45485 30 2.5L 30 -2.5C 22.0471 -2.45485 14.3813 0.600927 8.79346 5.37144L 12.0575 9.15904ZM 30 2.5C 37.007 2.45485 43.0224 4.87403 47.9425 9.15904L 51.2065 5.37144C 45.6186 0.600927 37.9529 -2.45485 30 -2.5L 30 2.5ZM 57.5 15.039L 57.5 25L 62.5 25L 62.5 15.039L 57.5 15.039ZM 57.5 25L 57.5 25.9917L 62.5 25.9917L 62.5 25L 57.5 25ZM 57.4847 25.9256C 56.9974 40.6841 44.8781 52.5 30 52.5L 30 57.5C 47.5843 57.5 61.906 43.5358 62.482 26.0906L 57.4847 25.9256ZM 30 52.5C 15.1219 52.5 3.00255 40.6841 2.51526 25.9256L -2.48202 26.0906C -1.90602 43.5358 12.4157 57.5 30 57.5L 30 52.5ZM 2.5 25.9917L 2.5 25L -2.5 25L -2.5 25.9917L 2.5 25.9917ZM 2.5 15.039C 2.5 13.0845 4.08447 11.5 6.03902 11.5L 6.03902 6.5C 1.32305 6.5 -2.5 10.323 -2.5 15.039L 2.5 15.039ZM 6.03902 11.5C 8.36593 11.5 10.4614 10.5345 12.0575 9.15904L 8.79346 5.37144C 7.93145 6.1143 6.95702 6.5 6.03902 6.5L 6.03902 11.5ZM 47.9425 9.15904C 49.5385 10.5345 51.6341 11.5 53.961 11.5L 53.961 6.5C 53.043 6.5 52.0685 6.11429 51.2065 5.37144L 47.9425 9.15904ZM 53.961 11.5C 55.9155 11.5 57.5 13.0845 57.5 15.039L 62.5 15.039C 62.5 10.3231 58.6769 6.5 53.961 6.5L 53.961 11.5ZM 57.5 25.9917C 57.5 24.6156 58.6156 23.5 59.9917 23.5L 59.9917 28.5C 61.377 28.5 62.5 27.377 62.5 25.9917L 57.5 25.9917ZM 59.9917 23.5C 58.6223 23.5 57.5289 24.5896 57.4847 25.9256L 62.482 26.0906C 62.4382 27.4176 61.3521 28.5 59.9917 28.5L 59.9917 23.5ZM 2.51526 25.9256C 2.47117 24.5902 1.37832 23.5 0.00831261 23.5L 0.00831261 28.5C -1.35273 28.5 -2.43822 27.417 -2.48202 26.0906L 2.51526 25.9256ZM 0.00831261 23.5C 1.38428 23.5 2.5 24.6154 2.5 25.9917L -2.5 25.9917C -2.5 27.3771 -1.37684 28.5 0.00831261 28.5L 0.00831261 23.5Z"/>
<path id="path4_fill" d="M 0 30C 0 13.4315 13.4315 0 30 0C 46.5685 0 60 13.4315 60 30C 60 46.5685 46.5685 60 30 60C 13.4315 60 0 46.5685 0 30Z"/>
<path id="path5_stroke" d="M 30 -2.5C 12.0507 -2.5 -2.5 12.0507 -2.5 30L 2.5 30C 2.5 14.8122 14.8122 2.5 30 2.5L 30 -2.5ZM 30 2.5C 45.1878 2.5 57.5 14.8122 57.5 30L 62.5 30C 62.5 12.0507 47.9493 -2.5 30 -2.5L 30 2.5ZM 57.5 30C 57.5 45.1878 45.1878 57.5 30 57.5L 30 62.5C 47.9493 62.5 62.5 47.9493 62.5 30L 57.5 30ZM 30 57.5C 14.8122 57.5 2.5 45.1878 2.5 30L -2.5 30C -2.5 47.9493 12.0507 62.5 30 62.5L 30 57.5Z"/>
<path id="path6_fill" d="M 13.1133 23.1504C 13.1133 22.0723 12.7324 21.1641 11.9707 20.4258C 11.2207 19.6875 9.94922 19.0195 8.15625 18.4219C 5.66016 17.6602 3.83789 16.6699 2.68945 15.4512C 1.55273 14.2207 0.984375 12.6621 0.984375 10.7754C 0.984375 8.85352 1.54102 7.27734 2.6543 6.04688C 3.7793 4.81641 5.32031 4.08398 7.27734 3.84961L 7.27734 1.30957C 7.27734 0.586315 7.86366 0 8.58691 0C 9.31017 0 9.89648 0.586315 9.89648 1.30957L 9.89648 3.86719C 11.8652 4.13672 13.3945 4.96289 14.4844 6.3457C 15.3263 7.40254 15.8464 8.75713 16.0449 10.4095C 16.1514 11.2963 15.4127 12.0234 14.5195 12.0234C 13.6264 12.0234 12.9285 11.2918 12.7584 10.415C 12.5799 9.4949 12.2353 8.71854 11.7246 8.08594C 10.9395 7.11328 9.87891 6.62695 8.54297 6.62695C 7.14844 6.62695 6.08203 6.99023 5.34375 7.7168C 4.60547 8.43164 4.23633 9.43359 4.23633 10.7227C 4.23633 11.918 4.62305 12.873 5.39648 13.5879C 6.18164 14.291 7.46484 14.9355 9.24609 15.5215C 11.0391 16.0957 12.4336 16.7344 13.4297 17.4375C 14.4375 18.1289 15.1758 18.9375 15.6445 19.8633C 16.125 20.7891 16.3652 21.873 16.3652 23.1152C 16.3652 25.0957 15.7676 26.6895 14.5723 27.8965C 13.3887 29.1035 11.7246 29.8184 9.58008 30.041L 9.58008 32.0977C 9.58008 32.8161 8.9977 33.3984 8.2793 33.3984C 7.56089 33.3984 6.97852 32.8161 6.97852 32.0977L 6.97852 30.041C 4.79883 29.8418 3.08789 29.0684 1.8457 27.7207C 0.917099 26.6948 0.338893 25.3953 0.111083 23.8221C -0.0176139 22.9334 0.727975 22.2012 1.62598 22.2012C 2.52398 22.2012 3.21984 22.9397 3.41845 23.8155C 3.6156 24.6848 3.98784 25.4006 4.53516 25.9629C 5.39062 26.8418 6.60352 27.2812 8.17383 27.2812C 9.70898 27.2812 10.916 26.9121 11.7949 26.1738C 12.6738 25.4355 13.1133 24.4277 13.1133 23.1504Z"/>
<path id="path7_stroke_2x" d="M 11.9707 20.4258L 11.2692 21.1385L 11.2747 21.1438L 11.9707 20.4258ZM 8.15625 18.4219L 8.47248 17.4732L 8.46035 17.4692L 8.44813 17.4654L 8.15625 18.4219ZM 2.68945 15.4512L 1.95488 16.1298L 1.96166 16.137L 2.68945 15.4512ZM 2.6543 6.04688L 1.91626 5.3721L 1.91276 5.37596L 2.6543 6.04688ZM 7.27734 3.84961L 7.39625 4.84251L 8.27734 4.73699L 8.27734 3.84961L 7.27734 3.84961ZM 9.89648 3.86719L 8.89648 3.86719L 8.89648 4.73961L 9.76085 4.85795L 9.89648 3.86719ZM 14.4844 6.3457L 13.699 6.96471L 13.7022 6.96878L 14.4844 6.3457ZM 16.0449 10.4095L 17.0378 10.2902L 16.0449 10.4095ZM 5.34375 7.7168L 6.03938 8.43524L 6.04518 8.42954L 5.34375 7.7168ZM 5.39648 13.5879L 4.71774 14.3223L 4.72351 14.3276L 4.72936 14.3328L 5.39648 13.5879ZM 9.24609 15.5215L 8.93361 16.4714L 8.94109 16.4738L 9.24609 15.5215ZM 13.4297 17.4375L 12.853 18.2545L 12.864 18.2621L 13.4297 17.4375ZM 15.6445 19.8633L 14.7523 20.315L 14.7569 20.3239L 15.6445 19.8633ZM 14.5723 27.8965L 13.8617 27.1928L 13.8583 27.1963L 14.5723 27.8965ZM 9.58008 30.041L 9.47681 29.0464L 8.58008 29.1395L 8.58008 30.041L 9.58008 30.041ZM 6.97852 30.041L 7.97852 30.041L 7.97852 29.1282L 7.06953 29.0452L 6.97852 30.041ZM 1.8457 27.7207L 1.10429 28.3918L 1.11041 28.3985L 1.8457 27.7207ZM 4.53516 25.9629L 3.81856 26.6604L 4.53516 25.9629ZM 3.41845 23.8155L 2.44322 24.0366L 3.41845 23.8155ZM 14.1133 23.1504C 14.1133 21.8066 13.6263 20.6378 12.6667 19.7077L 11.2747 21.1438C 11.8386 21.6903 12.1133 22.3379 12.1133 23.1504L 14.1133 23.1504ZM 12.6722 19.7131C 11.7584 18.8135 10.3125 18.0865 8.47248 17.4732L 7.84002 19.3706C 9.58593 19.9525 10.683 20.5615 11.2692 21.1384L 12.6722 19.7131ZM 8.44813 17.4654C 6.03377 16.7286 4.39763 15.8058 3.41724 14.7654L 1.96166 16.137C 3.27815 17.5341 5.28655 18.5917 7.86437 19.3783L 8.44813 17.4654ZM 3.42399 14.7726C 2.47985 13.7506 1.98438 12.4448 1.98438 10.7754L -0.015625 10.7754C -0.015625 12.8794 0.625623 14.6908 1.95492 16.1297L 3.42399 14.7726ZM 1.98438 10.7754C 1.98438 9.05965 2.47497 7.73558 3.39583 6.71779L 1.91276 5.37596C 0.607059 6.81911 -0.015625 8.64738 -0.015625 10.7754L 1.98438 10.7754ZM 3.39233 6.72164C 4.32722 5.69911 5.63146 5.05387 7.39625 4.84251L 7.15843 2.8567C 5.00917 3.1141 3.23138 3.93371 1.91627 5.37211L 3.39233 6.72164ZM 8.27734 3.84961L 8.27734 1.30957L 6.27734 1.30957L 6.27734 3.84961L 8.27734 3.84961ZM 8.89648 1.30957L 8.89648 3.86719L 10.8965 3.86719L 10.8965 1.30957L 8.89648 1.30957ZM 9.76085 4.85795C 11.5088 5.09725 12.7905 5.81196 13.699 6.9647L 15.2698 5.72671C 13.9986 4.11382 12.2216 3.17618 10.0321 2.87643L 9.76085 4.85795ZM 13.7022 6.96878C 14.4583 7.89912 14.8758 8.99784 15.052 10.5287L 17.0378 10.2902C 16.817 8.51643 16.1943 6.90596 15.2665 5.72263L 13.7022 6.96878ZM 13.7401 10.2245C 13.5338 9.1949 13.0886 8.19719 12.5027 7.45782L 10.9465 8.71406C 11.3819 9.23989 11.6259 9.7949 11.7767 10.6055L 13.7401 10.2245ZM 12.5027 7.45782C 11.5132 6.23203 10.1573 5.62695 8.54297 5.62695L 8.54297 7.62695C 9.60052 7.62695 10.3657 7.99454 10.9465 8.71406L 12.5027 7.45782ZM 8.54297 5.62695C 6.97933 5.62695 5.62505 6.03693 4.64232 7.00406L 6.04518 8.42954C 6.53901 7.94354 7.31754 7.62695 8.54297 7.62695L 8.54297 5.62695ZM 4.64814 6.99838C 3.66842 7.94699 3.23633 9.23584 3.23633 10.7227L 5.23633 10.7227C 5.23633 9.63135 5.54251 8.91629 6.03936 8.43521L 4.64814 6.99838ZM 3.23633 10.7227C 3.23633 12.1554 3.7109 13.3917 4.71774 14.3223L 6.07523 12.8535C 5.5352 12.3544 5.23633 11.6806 5.23633 10.7227L 3.23633 10.7227ZM 4.72936 14.3328C 5.66843 15.1738 7.10767 15.8708 8.93362 16.4714L 9.55857 14.5716C 7.82202 14.0003 6.69485 13.4082 6.0636 12.8429L 4.72936 14.3328ZM 8.94109 16.4738C 10.6777 17.0281 11.9349 17.6012 12.853 18.2545L 14.0064 16.6205C 12.9323 15.8676 11.4004 15.1633 9.5511 14.5691L 8.94109 16.4738ZM 12.864 18.2621C 13.7811 18.8833 14.3529 19.5057 14.7524 20.315L 16.5367 19.4116C 15.9987 18.3693 15.0939 17.3745 13.9954 16.6129L 12.864 18.2621ZM 14.7569 20.3239C 15.1851 21.1305 15.3712 21.9819 15.3652 23.1152L 17.3652 23.1152C 17.3593 21.7642 17.0649 20.4477 16.5321 19.4026L 14.7569 20.3239ZM 15.3652 23.1152C 15.3652 24.8793 14.8409 26.2041 13.8617 27.1928L 15.2828 28.6001C 16.6943 27.1748 17.3652 25.3121 17.3652 23.1152L 15.3652 23.1152ZM 13.8583 27.1963C 12.8784 28.1957 11.4548 28.841 9.47681 29.0464L 9.68335 31.0357C 11.9944 30.7957 13.899 30.0114 15.2863 28.5966L 13.8583 27.1963ZM 8.58008 30.041L 8.58008 32.0977L 10.5801 32.0977L 10.5801 30.041L 8.58008 30.041ZM 7.97852 32.0977L 7.97852 30.041L 5.97852 30.041L 5.97852 32.0977L 7.97852 32.0977ZM 7.06953 29.0452C 5.086 28.8639 3.62374 28.1742 2.581 27.043L 1.11041 28.3985C 2.55205 29.9625 4.51165 30.8197 6.8875 31.0369L 7.06953 29.0452ZM 2.58709 27.0496C 1.75512 26.1492 1.29961 25.1178 1.10076 23.6788L -0.878594 23.9654C -0.621824 25.6728 0.0790783 27.2405 1.10432 28.3918L 2.58709 27.0496ZM 2.44322 24.0366C 2.67667 25.0289 3.17729 25.9862 3.81856 26.6604L 5.25175 25.2654C 4.79839 24.8149 4.55454 24.3407 4.39369 23.5943L 2.44322 24.0366ZM 3.81856 26.6604C 4.91138 27.7831 6.41323 28.2812 8.17383 28.2812L 8.17383 26.2812C 6.79381 26.2812 5.86987 25.9005 5.25175 25.2654L 3.81856 26.6604ZM 8.17383 28.2812C 9.86438 28.2812 11.3261 27.8736 12.4381 26.9395L 11.1517 25.4081C 10.5059 25.9506 9.55359 26.2812 8.17383 26.2812L 8.17383 28.2812ZM 12.4381 26.9395C 13.5705 25.9883 14.1133 24.6856 14.1133 23.1504L 12.1133 23.1504C 12.1133 24.1699 11.7772 24.8828 11.1517 25.4081L 12.4381 26.9395ZM 8.27734 1.30957C 8.27734 1.1386 8.41594 1 8.58691 1L 8.58691 -1C 7.31137 -1 6.27734 0.0340297 6.27734 1.30957L 8.27734 1.30957ZM 8.58691 1C 8.75788 1 8.89648 1.1386 8.89648 1.30957L 10.8965 1.30957C 10.8965 0.0340298 9.86245 -1 8.58691 -1L 8.58691 1ZM 15.052 10.5287C 15.0769 10.736 14.9012 11.0234 14.5195 11.0234L 14.5195 13.0234C 15.9241 13.0234 17.2259 11.8565 17.0378 10.2902L 15.052 10.5287ZM 14.5195 11.0234C 14.2226 11.0234 13.8434 10.7569 13.7401 10.2245L 11.7767 10.6055C 12.0137 11.8267 13.0302 13.0234 14.5195 13.0234L 14.5195 11.0234ZM 8.58008 32.0977C 8.58008 32.2638 8.44541 32.3984 8.2793 32.3984L 8.2793 34.3984C 9.54998 34.3984 10.5801 33.3683 10.5801 32.0977L 8.58008 32.0977ZM 8.2793 32.3984C 8.11318 32.3984 7.97852 32.2638 7.97852 32.0977L 5.97852 32.0977C 5.97852 33.3683 7.00861 34.3984 8.2793 34.3984L 8.2793 32.3984ZM 1.10076 23.6788C 1.07417 23.4952 1.2294 23.2012 1.62598 23.2012L 1.62598 21.2012C 0.226546 21.2012 -1.1094 22.3716 -0.878594 23.9654L 1.10076 23.6788ZM 1.62598 23.2012C 1.92201 23.2012 2.31478 23.4703 2.44322 24.0366L 4.39369 23.5943C 4.1249 22.4091 3.12595 21.2012 1.62598 21.2012L 1.62598 23.2012Z"/>
</defs>
</svg>
