<svg width="580" height="580" viewBox="0 0 580 580" version="1.1" xmlns="http://www.w3.org/2000/svg" xmlns:xlink="http://www.w3.org/1999/xlink" xmlns:figma="http://www.figma.com/figma/ns">
<title>database-sml-img</title>
<desc>Created using Figma</desc>
<g id="Canvas" transform="matrix(10 0 0 10 -27070 6430)" figma:type="canvas">
<g id="database-sml-img" figma:type="frame">
<g id="img" figma:type="frame">
<g id="bg" figma:type="rounded-rectangle">
<use xlink:href="#path0_fill" transform="translate(2707 -643)" fill="#FFFFFF"/>
<mask id="mask0_outline_ins">
<use xlink:href="#path0_fill" fill="white" transform="translate(2707 -643)"/>
</mask>
<g mask="url(#mask0_outline_ins)">
<use xlink:href="#path1_stroke_2x" transform="translate(2707 -643)" fill="#000000" fill-opacity="0.1"/>
</g>
</g>
</g>
<g id="Vector 2" figma:type="vector">
<use xlink:href="#path2_fill" transform="translate(2726.54 -609.421)" fill="#94CBFE"/>
</g>
<g id="Vector" figma:type="vector">
<use xlink:href="#path3_fill" transform="translate(2725.93 -624.99)"/>
<use xlink:href="#path4_stroke" transform="translate(2725.93 -624.99)" fill="#047AE9"/>
</g>
</g>
</g>
<defs>
<path id="path0_fill" d="M 0 10C 0 4.47715 4.47715 0 10 0L 48 0C 53.5228 0 58 4.47715 58 10L 58 48C 58 53.5228 53.5228 58 48 58L 10 58C 4.47715 58 0 53.5228 0 48L 0 10Z"/>
<path id="path1_stroke_2x" d="M 10 1L 48 1L 48 -1L 10 -1L 10 1ZM 57 10L 57 48L 59 48L 59 10L 57 10ZM 48 57L 10 57L 10 59L 48 59L 48 57ZM 1 48L 1 10L -1 10L -1 48L 1 48ZM 10 -1C 3.92487 -1 -1 3.92487 -1 10L 1 10C 1 5.02944 5.02944 1 10 1L 10 -1ZM 48 1C 52.9706 1 57 5.02944 57 10L 59 10C 59 3.92487 54.0751 -1 48 -1L 48 1ZM 57 48C 57 52.9706 52.9706 57 48 57L 48 59C 54.0751 59 59 54.0751 59 48L 57 48ZM 10 57C 5.02944 57 1 52.9706 1 48L -1 48C -1 54.0751 3.92487 59 10 59L 10 57Z"/>
<path id="path2_fill" d="M 0 3.81579L 0.152632 0.305263L 0.152632 0L 8.54737 1.67895L 18.9263 0L 18.9263 4.12105L 8.24211 6.71579L 0 3.81579Z"/>
<path id="path3_fill" d="M 20.0885 3.44798C 19.6219 1.70981 16.1489 0 10.0737 0C 3.99845 0 0.52504 1.70981 0.0588303 3.44798C 0.0249827 3.50753 0 3.57277 0 3.64651L 0 3.84909L 0 8.50852L 0 8.7111L 0 8.91368L 0 13.3705L 0 13.5731L 0 13.7757L 0 18.6377C 0 18.7033 0.0173268 18.7653 0.0471449 18.8204C 0.523026 20.8037 4.78057 22.2842 10.0737 22.2842C 15.3547 22.2842 19.6054 20.8098 20.097 18.8338C 20.1292 18.7759 20.1474 18.709 20.1474 18.6377L 20.1474 13.7757L 20.1474 13.5731L 20.1474 13.3705L 20.1474 8.91368L 20.1474 8.7111L 20.1474 8.50852L 20.1474 3.84909L 20.1474 3.64651C 20.1474 3.57277 20.1224 3.50753 20.0885 3.44798ZM 19.3096 13.7696C 19.2984 13.8186 19.2826 13.8673 19.2629 13.9167C 19.2468 13.9568 19.227 13.9969 19.2053 14.037C 19.1783 14.0869 19.1481 14.1367 19.1122 14.1865C 19.0856 14.2242 19.0554 14.2615 19.024 14.2988C 18.9792 14.3518 18.9317 14.4049 18.8777 14.4576C 18.845 14.4896 18.8092 14.5212 18.7729 14.5532C 18.7068 14.6111 18.6379 14.6687 18.561 14.7258C 18.5279 14.7505 18.4925 14.7744 18.4574 14.7987C 18.3663 14.8619 18.2712 14.9247 18.1669 14.9863C 18.1395 15.0029 18.1101 15.0187 18.0815 15.035C 17.9614 15.103 17.8361 15.1707 17.7007 15.2363C 17.6833 15.2448 17.6652 15.2529 17.6475 15.261C 17.4964 15.3328 17.3384 15.4033 17.1696 15.4713C 17.1648 15.4733 17.1599 15.475 17.1551 15.477C 16.24 15.8445 15.0694 16.1536 13.7054 16.3562C 13.6986 16.357 13.6917 16.3578 13.6849 16.359C 13.4198 16.3983 13.1478 16.4332 12.8685 16.464C 12.823 16.4688 12.775 16.4721 12.7291 16.4769C 12.4853 16.5025 12.2387 16.526 11.9849 16.5446C 11.8688 16.5531 11.7471 16.5572 11.6291 16.5645C 11.4381 16.5758 11.2491 16.5884 11.0532 16.5953C 10.7333 16.6054 10.4069 16.6119 10.0737 16.6119C 9.74045 16.6119 9.41406 16.6054 9.09372 16.594C 8.89788 16.5872 8.7089 16.5742 8.5179 16.5632C 8.39984 16.5564 8.27815 16.5519 8.1621 16.5434C 7.90825 16.5248 7.66164 16.5013 7.41786 16.4757C 7.37192 16.4709 7.32397 16.4676 7.27844 16.4628C 6.9992 16.432 6.72721 16.3967 6.46207 16.3578C 6.45522 16.357 6.44837 16.3562 6.44152 16.355C 5.07754 16.1524 3.90698 15.8433 2.99188 15.4758C 2.98705 15.4742 2.98221 15.4721 2.97738 15.4701C 2.80854 15.402 2.65018 15.3315 2.49948 15.2598C 2.48216 15.2513 2.46362 15.2432 2.44629 15.2351C 2.3109 15.1695 2.18559 15.1022 2.06551 15.0337C 2.0373 15.0175 2.00748 15.0017 1.98008 14.9851C 1.87572 14.9235 1.78062 14.8607 1.68956 14.7975C 1.6549 14.7732 1.61904 14.7493 1.586 14.7246C 1.50904 14.6675 1.44013 14.6099 1.37405 14.552C 1.33819 14.5204 1.30192 14.4888 1.26928 14.4564C 1.21529 14.4037 1.16774 14.351 1.12301 14.2975C 1.09158 14.2603 1.06136 14.223 1.03477 14.1853C 0.999309 14.1355 0.969088 14.0856 0.941688 14.0358C 0.919929 13.9957 0.900587 13.9556 0.884066 13.9155C 0.864322 13.8665 0.848607 13.8174 0.837325 13.7684C 0.822416 13.704 0.805895 13.6383 0.805895 13.5731C 0.805895 13.5273 0.811133 13.4815 0.818386 13.4362C 0.82846 13.375 0.822818 13.3138 0.805895 13.2559L 0.805895 10.2479C 0.817177 10.2584 0.83128 10.2686 0.842966 10.2791C 0.930808 10.3569 1.02026 10.4343 1.121 10.5088C 2.6389 11.6632 5.6743 12.5602 10.0737 12.5602C 14.4545 12.5602 17.4823 11.6704 19.0066 10.523C 19.1283 10.4339 19.2379 10.3419 19.3411 10.2483L 19.3415 10.2479L 19.3415 13.2559C 19.3245 13.3138 19.3189 13.375 19.329 13.4362C 19.3366 13.4815 19.3415 13.5273 19.3415 13.5731C 19.3415 13.6383 19.325 13.704 19.3096 13.7696ZM 19.3415 5.38589L 19.3415 8.39385C 19.3245 8.45179 19.3189 8.51297 19.329 8.57415C 19.3366 8.61953 19.3415 8.66532 19.3415 8.7111C 19.3415 8.77633 19.325 8.84197 19.3096 8.90761C 19.2984 8.95663 19.2826 9.00525 19.2629 9.05468C 19.2468 9.09479 19.227 9.13491 19.2053 9.17502C 19.1783 9.22485 19.1481 9.27469 19.1122 9.32452C 19.0856 9.3622 19.0554 9.39948 19.024 9.43676C 18.9792 9.48983 18.9317 9.54291 18.8777 9.59558C 18.845 9.62759 18.8092 9.65919 18.7729 9.6912C 18.7068 9.74914 18.6379 9.80667 18.561 9.8638C 18.5279 9.88852 18.4925 9.91242 18.4574 9.93673C 18.3663 9.99994 18.2712 10.0627 18.1669 10.1243C 18.1395 10.1409 18.1101 10.1567 18.0815 10.1729C 17.9614 10.241 17.8361 10.3087 17.7007 10.3743C 17.6833 10.3828 17.6652 10.3909 17.6475 10.399C 17.4964 10.4707 17.3384 10.5412 17.1696 10.6093C 17.1648 10.6113 17.1599 10.613 17.1551 10.615C 16.24 10.9825 15.0694 11.2916 13.7054 11.4942C 13.6986 11.495 13.6917 11.4958 13.6849 11.497C 13.4198 11.5363 13.1478 11.5712 12.8685 11.602C 12.823 11.6068 12.775 11.6101 12.7291 11.6149C 12.4853 11.6405 12.2387 11.664 11.9849 11.6826C 11.8688 11.6911 11.7471 11.6952 11.6291 11.7025C 11.4381 11.7138 11.2491 11.7264 11.0532 11.7332C 10.7333 11.7434 10.4069 11.7499 10.0737 11.7499C 9.74045 11.7499 9.41406 11.7434 9.09372 11.732C 8.89788 11.7251 8.7089 11.7122 8.5179 11.7012C 8.39984 11.6943 8.27815 11.6899 8.1621 11.6814C 7.90825 11.6627 7.66164 11.6392 7.41786 11.6137C 7.37192 11.6089 7.32397 11.6056 7.27844 11.6008C 6.9992 11.57 6.72721 11.5347 6.46207 11.4958C 6.45522 11.495 6.44837 11.4942 6.44152 11.493C 5.07754 11.2904 3.90698 10.9813 2.99188 10.6138C 2.98705 10.6121 2.98221 10.6101 2.97738 10.6081C 2.80854 10.54 2.65018 10.4695 2.49948 10.3978C 2.48216 10.3893 2.46362 10.3812 2.44629 10.3731C 2.3109 10.3075 2.18559 10.2402 2.06551 10.1717C 2.0373 10.1555 2.00748 10.1397 1.98008 10.1231C 1.87572 10.0615 1.78062 9.99872 1.68956 9.93552C 1.6549 9.91121 1.61904 9.8873 1.586 9.86259C 1.50904 9.80546 1.44013 9.74792 1.37405 9.68999C 1.33819 9.65838 1.30192 9.62678 1.26928 9.59437C 1.21529 9.54169 1.16774 9.48902 1.12301 9.43554C 1.09158 9.39826 1.06136 9.36099 1.03477 9.32331C 0.999309 9.27347 0.969088 9.22364 0.941688 9.1738C 0.919929 9.13369 0.900587 9.09358 0.884066 9.05347C 0.864322 9.00444 0.848607 8.95542 0.837325 8.90639C 0.822416 8.84197 0.805895 8.77633 0.805895 8.7111C 0.805895 8.66532 0.811133 8.61953 0.818386 8.57415C 0.82846 8.51297 0.822818 8.45179 0.805895 8.39385L 0.805895 5.38589C 0.854248 5.43005 0.909452 5.47341 0.961835 5.51717C 0.990848 5.54148 1.01785 5.56579 1.04847 5.5901C 1.16935 5.68571 1.29991 5.78012 1.44134 5.87209C 1.47076 5.89113 1.5038 5.90977 1.53442 5.92882C 1.65289 6.00296 1.77821 6.07549 1.90997 6.1468C 1.95873 6.17313 2.00748 6.19906 2.05785 6.22499C 2.20493 6.30035 2.35926 6.37369 2.52164 6.44459C 2.54824 6.45634 2.57242 6.4685 2.59941 6.47984C 2.7884 6.56047 2.98906 6.63745 3.19779 6.712C 3.25541 6.73267 3.31585 6.75212 3.37509 6.77237C 3.5411 6.82869 3.71276 6.88258 3.89046 6.93485C 3.95453 6.95348 4.01739 6.97293 4.08307 6.99076C 4.31879 7.0564 4.56217 7.11879 4.81764 7.17633C 4.85269 7.18443 4.89057 7.19091 4.92603 7.19861C 5.15128 7.24804 5.38499 7.29382 5.62514 7.33677C 5.70654 7.35136 5.78914 7.36513 5.87215 7.37891C 6.10062 7.41659 6.33594 7.45103 6.57731 7.48263C 6.63936 7.49074 6.6986 7.50006 6.76146 7.50775C 7.06125 7.54422 7.37152 7.57542 7.69025 7.60216C 7.76882 7.60864 7.85062 7.6135 7.93041 7.61917C 8.18547 7.63781 8.44618 7.65321 8.71293 7.66536C 8.81004 7.66982 8.90675 7.67428 9.00587 7.67792C 9.35321 7.68967 9.707 7.69818 10.0737 7.69818C 10.4404 7.69818 10.7942 7.68967 11.1415 7.67792C 11.2402 7.67428 11.3369 7.66982 11.4344 7.66536C 11.7012 7.65321 11.9619 7.63781 12.217 7.61917C 12.2967 7.6131 12.3781 7.60864 12.4571 7.60216C 12.7758 7.57582 13.0861 7.54422 13.3859 7.50775C 13.4488 7.50006 13.508 7.49074 13.5701 7.48263C 13.8114 7.45103 14.0463 7.41659 14.2752 7.37891C 14.3582 7.36513 14.4408 7.35136 14.5222 7.33677C 14.7624 7.29382 14.9961 7.24804 15.2213 7.19861C 15.2568 7.19091 15.2947 7.18402 15.3297 7.17633C 15.5852 7.11879 15.8286 7.05599 16.0643 6.99076C 16.13 6.97253 16.1928 6.95348 16.2569 6.93485C 16.4346 6.88258 16.6063 6.82869 16.7723 6.77237C 16.8315 6.75212 16.892 6.73267 16.9496 6.712C 17.1583 6.63745 17.3594 6.56047 17.548 6.47984C 17.575 6.4685 17.5991 6.45634 17.6257 6.44459C 17.7881 6.37328 17.9424 6.30035 18.0895 6.22499C 18.1399 6.19906 18.189 6.17313 18.2374 6.1468C 18.3692 6.07589 18.4945 6.00337 18.6129 5.92882C 18.6436 5.90977 18.6766 5.89113 18.706 5.87209C 18.8475 5.78012 18.978 5.68612 19.0989 5.5901C 19.1291 5.56579 19.1561 5.54148 19.1855 5.51717C 19.2379 5.47341 19.2931 5.43005 19.3415 5.38589ZM 10.0737 0.810335C 15.5356 0.810335 19.3415 2.41156 19.3415 3.84909C 19.3415 5.28662 15.5356 6.88785 10.0737 6.88785C 4.61173 6.88785 0.805895 5.28662 0.805895 3.84909C 0.805895 2.41156 4.61173 0.810335 10.0737 0.810335ZM 19.3415 18.5174C 19.3358 18.5352 19.3318 18.5534 19.3286 18.5721C 19.1001 19.9735 15.3265 21.4739 10.0737 21.4739C 4.82086 21.4739 1.04726 19.9735 0.818789 18.5721C 0.815565 18.5538 0.811133 18.536 0.805895 18.519L 0.805895 15.1099C 0.817177 15.1204 0.83128 15.1306 0.842966 15.1411C 0.930808 15.2189 1.02026 15.2963 1.121 15.3708C 2.6389 16.5252 5.6743 17.4222 10.0737 17.4222C 14.4545 17.4222 17.4823 16.5325 19.0066 15.385C 19.1283 15.2959 19.2379 15.2039 19.3411 15.1103L 19.3415 15.1099L 19.3415 18.5174Z"/>
<path id="path4_stroke" d="M 20.0885 3.44798L 19.6056 3.57761L 19.6222 3.6394L 19.6538 3.69502L 20.0885 3.44798ZM 0.0588303 3.44798L 0.493537 3.69502L 0.525173 3.63935L 0.541761 3.57751L 0.0588303 3.44798ZM 0.0471449 18.8204L 0.533345 18.7038L 0.518062 18.6401L 0.486889 18.5825L 0.0471449 18.8204ZM 20.097 18.8338L 19.6601 18.5907L 19.6278 18.6487L 19.6118 18.7131L 20.097 18.8338ZM 19.3096 13.7696L 18.8227 13.656L 18.8224 13.6575L 19.3096 13.7696ZM 19.2629 13.9167L 19.7268 14.1031L 19.7272 14.1022L 19.2629 13.9167ZM 19.2053 14.037L 18.7658 13.7986L 18.7656 13.7989L 19.2053 14.037ZM 19.1122 14.1865L 18.7063 13.8945L 18.7037 13.8982L 19.1122 14.1865ZM 19.024 14.2988L 18.6417 13.9765L 18.6416 13.9766L 19.024 14.2988ZM 18.8777 14.4576L 18.5285 14.0997L 18.5276 14.1006L 18.8777 14.4576ZM 18.7729 14.5532L 19.1025 14.9292L 19.1038 14.9281L 18.7729 14.5532ZM 18.561 14.7258L 18.2629 14.3243L 18.2615 14.3254L 18.561 14.7258ZM 18.4574 14.7987L 18.1725 14.3879L 18.1723 14.388L 18.4574 14.7987ZM 18.1669 14.9863L 17.9128 14.5557L 17.9077 14.5588L 18.1669 14.9863ZM 18.0815 15.035L 17.835 14.5999L 17.8349 14.6L 18.0815 15.035ZM 17.7007 15.2363L 17.4825 14.7864L 17.4803 14.7875L 17.7007 15.2363ZM 17.6475 15.261L 17.4396 14.8062L 17.4331 14.8093L 17.6475 15.261ZM 17.1696 15.4713L 16.9826 15.0075L 16.9764 15.0102L 17.1696 15.4713ZM 17.1551 15.477L 17.3414 15.941L 17.3483 15.9382L 17.1551 15.477ZM 13.7054 16.3562L 13.7642 16.8527L 13.7716 16.8519L 13.7789 16.8508L 13.7054 16.3562ZM 13.6849 16.359L 13.7582 16.8536L 13.7653 16.8526L 13.7723 16.8514L 13.6849 16.359ZM 12.8685 16.464L 12.9216 16.9612L 12.9233 16.961L 12.8685 16.464ZM 12.7291 16.4769L 12.7812 16.9742L 12.7817 16.9742L 12.7291 16.4769ZM 11.9849 16.5446L 12.0214 17.0433L 12.0215 17.0433L 11.9849 16.5446ZM 11.6291 16.5645L 11.6587 17.0636L 11.6599 17.0635L 11.6291 16.5645ZM 11.0532 16.5953L 11.0691 17.095L 11.0708 17.0949L 11.0532 16.5953ZM 9.09372 16.594L 9.11141 16.0944L 9.11129 16.0943L 9.09372 16.594ZM 8.5179 16.5632L 8.48878 17.0624L 8.48931 17.0624L 8.5179 16.5632ZM 8.1621 16.5434L 8.12549 17.0421L 8.12554 17.0421L 8.1621 16.5434ZM 7.41786 16.4757L 7.36523 16.973L 7.36579 16.973L 7.41786 16.4757ZM 7.27844 16.4628L 7.22363 16.9598L 7.22535 16.9599L 7.27844 16.4628ZM 6.46207 16.3578L 6.53467 15.8629L 6.5208 15.8613L 6.46207 16.3578ZM 6.44152 16.355L 6.52891 15.8625L 6.51497 15.8604L 6.44152 16.355ZM 2.99188 15.4758L 3.17821 15.0118L 3.16464 15.0063L 3.15078 15.0017L 2.99188 15.4758ZM 2.97738 15.4701L 3.1706 15.0089L 3.16434 15.0064L 2.97738 15.4701ZM 2.49948 15.2598L 2.27907 15.7087L 2.28463 15.7113L 2.49948 15.2598ZM 2.44629 15.2351L 2.22815 15.6851L 2.23447 15.688L 2.44629 15.2351ZM 2.06551 15.0337L 1.81641 15.4673L 1.81783 15.4681L 2.06551 15.0337ZM 1.98008 14.9851L 2.23932 14.5575L 2.23419 14.5545L 1.98008 14.9851ZM 1.68956 14.7975L 1.40241 15.2069L 1.40446 15.2083L 1.68956 14.7975ZM 1.586 14.7246L 1.88549 14.3242L 1.88402 14.3231L 1.586 14.7246ZM 1.37405 14.552L 1.04347 14.9271L 1.04442 14.928L 1.37405 14.552ZM 1.26928 14.4564L 1.62162 14.1016L 1.61843 14.0985L 1.26928 14.4564ZM 1.12301 14.2975L 1.50657 13.9768L 1.50527 13.9752L 1.12301 14.2975ZM 1.03477 14.1853L 1.44327 13.897L 1.44217 13.8954L 1.03477 14.1853ZM 0.941688 14.0358L 0.502182 14.2742L 0.503546 14.2767L 0.941688 14.0358ZM 0.884066 13.9155L 0.420253 14.1023L 0.421745 14.1059L 0.884066 13.9155ZM 0.837325 13.7684L 1.32459 13.6563L 1.32445 13.6557L 0.837325 13.7684ZM 0.818386 13.4362L 0.325024 13.3549L 0.324653 13.3572L 0.818386 13.4362ZM 0.805895 13.2559L 0.305895 13.2559L 0.305895 13.3274L 0.32595 13.3961L 0.805895 13.2559ZM 0.805895 10.2479L 1.14712 9.88244L 0.305895 9.09699L 0.305895 10.2479L 0.805895 10.2479ZM 0.842966 10.2791L 0.508164 10.6505L 0.511475 10.6534L 0.842966 10.2791ZM 1.121 10.5088L 1.42369 10.1108L 1.41844 10.1069L 1.121 10.5088ZM 19.0066 10.523L 18.7111 10.1196L 18.7059 10.1235L 19.0066 10.523ZM 19.3411 10.2483L 19.677 10.6186L 19.6867 10.6098L 19.6959 10.6005L 19.3411 10.2483ZM 19.3415 10.2479L 19.8415 10.2479L 19.8415 9.03445L 18.9866 9.89566L 19.3415 10.2479ZM 19.3415 13.2559L 19.8214 13.3961L 19.8415 13.3274L 19.8415 13.2559L 19.3415 13.2559ZM 19.329 13.4362L 18.8356 13.5174L 18.8359 13.5193L 19.329 13.4362ZM 19.3415 13.5731L 18.8415 13.5731L 19.3415 13.5731ZM 19.3415 5.38589L 19.8415 5.38589L 19.8415 4.25206L 19.0043 5.0167L 19.3415 5.38589ZM 19.3415 8.39385L 19.8214 8.53404L 19.8415 8.46538L 19.8415 8.39385L 19.3415 8.39385ZM 19.329 8.57415L 18.8356 8.65539L 18.8359 8.65734L 19.329 8.57415ZM 19.3096 8.90761L 18.8227 8.79401L 18.8224 8.79547L 19.3096 8.90761ZM 19.2629 9.05468L 19.7268 9.24111L 19.7272 9.24015L 19.2629 9.05468ZM 19.2053 9.17502L 18.7658 8.9366L 18.7656 8.93685L 19.2053 9.17502ZM 19.1122 9.32452L 18.7063 9.03246L 18.7037 9.03621L 19.1122 9.32452ZM 19.024 9.43676L 18.6417 9.11445L 18.6416 9.11456L 19.024 9.43676ZM 18.8777 9.59558L 18.5285 9.23767L 18.5276 9.2386L 18.8777 9.59558ZM 18.7729 9.6912L 19.1025 10.0672L 19.1038 10.0661L 18.7729 9.6912ZM 18.561 9.8638L 18.2629 9.46232L 18.2615 9.46342L 18.561 9.8638ZM 18.4574 9.93673L 18.1725 9.52586L 18.1723 9.52597L 18.4574 9.93673ZM 18.1669 10.1243L 17.9128 9.69368L 17.9077 9.69676L 18.1669 10.1243ZM 18.0815 10.1729L 17.835 9.7379L 17.8349 9.73797L 18.0815 10.1729ZM 17.7007 10.3743L 17.4825 9.92439L 17.4803 9.92551L 17.7007 10.3743ZM 17.6475 10.399L 17.4396 9.94423L 17.4331 9.94732L 17.6475 10.399ZM 17.1696 10.6093L 16.9826 10.1455L 16.9764 10.1481L 17.1696 10.6093ZM 17.1551 10.615L 17.3414 11.079L 17.3483 11.0761L 17.1551 10.615ZM 13.7054 11.4942L 13.7642 11.9907L 13.7716 11.9899L 13.7789 11.9888L 13.7054 11.4942ZM 13.6849 11.497L 13.7582 11.9916L 13.7653 11.9906L 13.7723 11.9893L 13.6849 11.497ZM 12.8685 11.602L 12.9216 12.0991L 12.9233 12.099L 12.8685 11.602ZM 12.7291 11.6149L 12.7812 12.1122L 12.7817 12.1122L 12.7291 11.6149ZM 11.9849 11.6826L 12.0214 12.1813L 12.0215 12.1813L 11.9849 11.6826ZM 11.6291 11.7025L 11.6587 12.2016L 11.6599 12.2015L 11.6291 11.7025ZM 11.0532 11.7332L 11.0691 12.233L 11.0708 12.2329L 11.0532 11.7332ZM 9.09372 11.732L 9.11141 11.2323L 9.11129 11.2323L 9.09372 11.732ZM 8.5179 11.7012L 8.48878 12.2004L 8.48931 12.2004L 8.5179 11.7012ZM 8.1621 11.6814L 8.12549 12.18L 8.12554 12.18L 8.1621 11.6814ZM 7.41786 11.6137L 7.36523 12.1109L 7.36579 12.111L 7.41786 11.6137ZM 7.27844 11.6008L 7.22363 12.0977L 7.22535 12.0979L 7.27844 11.6008ZM 6.46207 11.4958L 6.53467 11.0009L 6.5208 10.9993L 6.46207 11.4958ZM 6.44152 11.493L 6.52891 11.0005L 6.51497 10.9984L 6.44152 11.493ZM 2.99188 10.6138L 3.17821 10.1498L 3.16464 10.1443L 3.15078 10.1397L 2.99188 10.6138ZM 2.97738 10.6081L 3.1706 10.1469L 3.16434 10.1444L 2.97738 10.6081ZM 2.49948 10.3978L 2.27907 10.8467L 2.28463 10.8493L 2.49948 10.3978ZM 2.44629 10.3731L 2.22815 10.8231L 2.23447 10.826L 2.44629 10.3731ZM 2.06551 10.1717L 1.81641 10.6053L 1.81783 10.6061L 2.06551 10.1717ZM 1.98008 10.1231L 2.23932 9.69552L 2.23419 9.69249L 1.98008 10.1231ZM 1.68956 9.93552L 1.40241 10.3448L 1.40446 10.3463L 1.68956 9.93552ZM 1.586 9.86259L 1.88549 9.4622L 1.88402 9.4611L 1.586 9.86259ZM 1.37405 9.68999L 1.04347 10.0651L 1.04442 10.0659L 1.37405 9.68999ZM 1.26928 9.59437L 1.62162 9.23958L 1.61843 9.23645L 1.26928 9.59437ZM 1.12301 9.43554L 1.50657 9.11477L 1.50527 9.11323L 1.12301 9.43554ZM 1.03477 9.32331L 1.44327 9.03499L 1.44217 9.03343L 1.03477 9.32331ZM 0.941688 9.1738L 0.502182 9.41222L 0.503546 9.4147L 0.941688 9.1738ZM 0.884066 9.05347L 0.420253 9.24026L 0.421745 9.24388L 0.884066 9.05347ZM 0.837325 8.90639L 1.32459 8.79425L 1.32445 8.79366L 0.837325 8.90639ZM 0.818386 8.57415L 0.325024 8.49292L 0.324653 8.49524L 0.818386 8.57415ZM 0.805895 8.39385L 0.305895 8.39385L 0.305895 8.46538L 0.32595 8.53404L 0.805895 8.39385ZM 0.805895 5.38589L 1.14309 5.0167L 0.305895 4.25206L 0.305895 5.38589L 0.805895 5.38589ZM 0.961835 5.51717L 1.28297 5.13392L 1.28238 5.13343L 0.961835 5.51717ZM 1.04847 5.5901L 0.737598 5.98171L 0.738278 5.98225L 1.04847 5.5901ZM 1.44134 5.87209L 1.16876 6.29126L 1.16962 6.29181L 1.44134 5.87209ZM 1.53442 5.92882L 1.79969 5.50498L 1.79845 5.50421L 1.53442 5.92882ZM 1.90997 6.1468L 1.67199 6.58653L 1.67234 6.58672L 1.90997 6.1468ZM 2.05785 6.22499L 1.82899 6.66954L 1.82984 6.66998L 2.05785 6.22499ZM 2.52164 6.44459L 2.72371 5.98724L 2.72172 5.98637L 2.52164 6.44459ZM 2.59941 6.47984L 2.79563 6.01994L 2.79311 6.01889L 2.59941 6.47984ZM 3.19779 6.712L 3.36657 6.24135L 3.36597 6.24114L 3.19779 6.712ZM 3.37509 6.77237L 3.21328 7.24547L 3.21446 7.24587L 3.37509 6.77237ZM 3.89046 6.93485L 3.74937 7.41453L 3.75079 7.41494L 3.89046 6.93485ZM 4.08307 6.99076L 4.21719 6.50907L 4.21404 6.50822L 4.08307 6.99076ZM 4.81764 7.17633L 4.93025 6.68916L 4.92749 6.68854L 4.81764 7.17633ZM 4.92603 7.19861L 5.03321 6.71023L 5.03211 6.70999L 4.92603 7.19861ZM 5.62514 7.33677L 5.71334 6.84461L 5.71316 6.84458L 5.62514 7.33677ZM 5.87215 7.37891L 5.79029 7.87216L 5.79079 7.87225L 5.87215 7.37891ZM 6.57731 7.48263L 6.5124 7.9784L 6.51257 7.97842L 6.57731 7.48263ZM 6.76146 7.50775L 6.70068 8.00405L 6.70108 8.0041L 6.76146 7.50775ZM 7.69025 7.60216L 7.64845 8.10041L 7.64914 8.10046L 7.69025 7.60216ZM 7.93041 7.61917L 7.96684 7.1205L 7.96587 7.12043L 7.93041 7.61917ZM 8.71293 7.66536L 8.73585 7.16589L 8.73569 7.16588L 8.71293 7.66536ZM 9.00587 7.67792L 8.98749 8.17759L 8.98897 8.17764L 9.00587 7.67792ZM 11.1415 7.67792L 11.1584 8.17764L 11.16 8.17758L 11.1415 7.67792ZM 11.4344 7.66536L 11.4117 7.16588L 11.4116 7.16588L 11.4344 7.66536ZM 12.217 7.61917L 12.2534 8.11785L 12.2549 8.11773L 12.217 7.61917ZM 12.4571 7.60216L 12.498 8.10048L 12.4983 8.10046L 12.4571 7.60216ZM 13.3859 7.50775L 13.4463 8.0041L 13.4467 8.00405L 13.3859 7.50775ZM 13.5701 7.48263L 13.6348 7.97842L 13.635 7.9784L 13.5701 7.48263ZM 14.2752 7.37891L 14.3564 7.87227L 14.3571 7.87216L 14.2752 7.37891ZM 14.5222 7.33677L 14.4342 6.84458L 14.434 6.84461L 14.5222 7.33677ZM 15.2213 7.19861L 15.1153 6.70999L 15.1142 6.71023L 15.2213 7.19861ZM 15.3297 7.17633L 15.437 7.6647L 15.4396 7.66411L 15.3297 7.17633ZM 16.0643 6.99076L 16.1977 7.47265L 16.198 7.47254L 16.0643 6.99076ZM 16.2569 6.93485L 16.3966 7.41495L 16.398 7.41453L 16.2569 6.93485ZM 16.7723 6.77237L 16.9329 7.24587L 16.9341 7.24547L 16.7723 6.77237ZM 16.9496 6.712L 16.7814 6.24114L 16.7808 6.24135L 16.9496 6.712ZM 17.548 6.47984L 17.3542 6.01888L 17.3514 6.0201L 17.548 6.47984ZM 17.6257 6.44459L 17.4247 5.98679L 17.4237 5.98724L 17.6257 6.44459ZM 18.0895 6.22499L 18.3175 6.66998L 18.3184 6.66954L 18.0895 6.22499ZM 18.2374 6.1468L 18.0005 5.70649L 17.9982 5.7077L 18.2374 6.1468ZM 18.6129 5.92882L 18.3489 5.50421L 18.3466 5.50564L 18.6129 5.92882ZM 18.706 5.87209L 18.9777 6.29182L 18.9786 6.29126L 18.706 5.87209ZM 19.0989 5.5901L 19.4099 5.98161L 19.4123 5.97969L 19.0989 5.5901ZM 19.1855 5.51717L 19.5041 5.90258L 19.5061 5.9009L 19.1855 5.51717ZM 19.3286 18.5721L 18.8359 18.4868L 18.8351 18.4916L 19.3286 18.5721ZM 0.818789 18.5721L 1.31232 18.4916L 1.31115 18.485L 0.818789 18.5721ZM 0.805895 18.519L 0.305895 18.519L 0.305895 18.5942L 0.328023 18.6661L 0.805895 18.519ZM 0.805895 15.1099L 1.14712 14.7444L 0.305895 13.959L 0.305895 15.1099L 0.805895 15.1099ZM 0.842966 15.1411L 0.508164 15.5125L 0.511475 15.5154L 0.842966 15.1411ZM 1.121 15.3708L 1.42369 14.9728L 1.41844 14.9689L 1.121 15.3708ZM 19.0066 15.385L 18.7111 14.9816L 18.7059 14.9855L 19.0066 15.385ZM 19.3411 15.1103L 19.677 15.4806L 19.6865 15.472L 19.6956 15.4629L 19.3411 15.1103ZM 19.3415 15.1099L 19.8415 15.1099L 19.8415 13.8981L 18.9869 14.7573L 19.3415 15.1099ZM 20.5714 3.31834C 20.2729 2.20619 19.0853 1.26378 17.3629 0.605156C 15.6323 -0.0542709 13.1555 -0.498039 10.0737 -0.5L 10.0737 0.5C 13.0671 0.498039 15.3644 0.909174 17.0058 1.53919C 18.6554 2.17001 19.4376 2.95159 19.6056 3.57761L 20.5714 3.31834ZM 10.0737 -0.5C 6.99183 -0.498039 4.51496 -0.0542721 2.78429 0.605154C 1.06194 1.26376 -0.125773 2.20619 -0.4241 3.31844L 0.541761 3.57751C 0.709643 2.95159 1.49174 2.17003 3.14146 1.53919C 4.78285 0.909175 7.0803 0.498039 10.0737 0.5L 10.0737 -0.5ZM -0.375876 3.20093C -0.427123 3.29399 -0.491662 3.48184 -0.5 3.64651L 0.5 3.64651C 0.5 3.69018 0.484137 3.71156 0.493537 3.69502L -0.375876 3.20093ZM -0.5 3.64651L -0.5 3.84909L 0.5 3.84909L 0.5 3.64651L -0.5 3.64651ZM -0.5 3.84909L -0.5 8.50852L 0.5 8.50852L 0.5 3.84909L -0.5 3.84909ZM -0.5 8.50852L -0.5 8.7111L 0.5 8.7111L 0.5 8.50852L -0.5 8.50852ZM -0.5 8.7111L -0.5 8.91368L 0.5 8.91368L 0.5 8.7111L -0.5 8.7111ZM -0.5 8.91368L -0.5 13.3705L 0.5 13.3705L 0.5 8.91368L -0.5 8.91368ZM -0.5 13.3705L -0.5 13.5731L 0.5 13.5731L 0.5 13.3705L -0.5 13.3705ZM -0.5 13.5731L -0.5 13.7757L 0.5 13.7757L 0.5 13.5731L -0.5 13.5731ZM -0.5 13.7757L -0.5 18.6377L 0.5 18.6377L 0.5 13.7757L -0.5 13.7757ZM -0.5 18.6377C -0.495364 18.7713 -0.446207 18.9528 -0.392599 19.0584L 0.486889 18.5825C 0.493419 18.5945 0.5 18.6138 0.5 18.6377L -0.5 18.6377ZM -0.439055 18.9371C -0.283516 19.5853 0.166484 20.1388 0.767378 20.5962C 1.35463 21.0405 2.16723 21.4479 3.0904 21.7686C 4.91891 22.3993 7.38872 22.7827 10.0737 22.7842L 10.0737 21.7842C 7.46554 21.7857 5.16002 21.4288 3.4175 20.8236C 2.55516 20.5262 1.88333 20.1916 1.37304 19.8005C 0.876394 19.4225 0.615747 19.0472 0.533345 18.7038L -0.439055 18.9371ZM 10.0737 22.7842C 12.7525 22.7827 15.2174 22.4009 17.0445 21.7727C 17.9668 21.4533 18.7793 21.0477 19.3677 20.6053C 19.9696 20.1501 20.4218 19.5995 20.5822 18.9545L 19.6118 18.7131C 19.5264 19.0561 19.2629 19.4308 18.7645 19.8078C 18.2526 20.1976 17.5802 20.5311 16.7183 20.8273C 14.9769 21.4303 12.6759 21.7857 10.0737 21.7842L 10.0737 22.7842ZM 20.5339 19.0769C 20.5924 18.9642 20.643 18.775 20.6474 18.6377L 19.6474 18.6377C 19.6474 18.6233 19.6513 18.6065 19.6601 18.5907L 20.5339 19.0769ZM 20.6474 18.6377L 20.6474 13.7757L 19.6474 13.7757L 19.6474 18.6377L 20.6474 18.6377ZM 20.6474 13.7757L 20.6474 13.5731L 19.6474 13.5731L 19.6474 13.7757L 20.6474 13.7757ZM 20.6474 13.5731L 20.6474 13.3705L 19.6474 13.3705L 19.6474 13.5731L 20.6474 13.5731ZM 20.6474 13.3705L 20.6474 8.91368L 19.6474 8.91368L 19.6474 13.3705L 20.6474 13.3705ZM 20.6474 8.91368L 20.6474 8.7111L 19.6474 8.7111L 19.6474 8.91368L 20.6474 8.91368ZM 20.6474 8.7111L 20.6474 8.50852L 19.6474 8.50852L 19.6474 8.7111L 20.6474 8.7111ZM 20.6474 8.50852L 20.6474 3.84909L 19.6474 3.84909L 19.6474 8.50852L 20.6474 8.50852ZM 20.6474 3.84909L 20.6474 3.64651L 19.6474 3.64651L 19.6474 3.84909L 20.6474 3.84909ZM 20.6474 3.64651C 20.639 3.48184 20.5745 3.29399 20.5232 3.20093L 19.6538 3.69502C 19.6632 3.71156 19.6474 3.69018 19.6474 3.64651L 20.6474 3.64651ZM 18.8224 13.6575C 18.8164 13.6856 18.8123 13.6975 18.7986 13.7312L 19.7272 14.1022C 19.753 14.037 19.7803 13.9517 19.7969 13.8818L 18.8224 13.6575ZM 18.799 13.7303C 18.7902 13.753 18.7829 13.7673 18.7658 13.7986L 19.6448 14.2754C 19.6712 14.2266 19.7034 14.1606 19.7268 14.1031L 18.799 13.7303ZM 18.7656 13.7989C 18.7446 13.8381 18.731 13.8608 18.7064 13.8945L 19.518 14.4786C 19.5651 14.4126 19.612 14.3356 19.6449 14.2752L 18.7656 13.7989ZM 18.7037 13.8982C 18.6869 13.9224 18.67 13.9429 18.6417 13.9765L 19.4062 14.6211C 19.4407 14.5801 19.4843 14.526 19.5207 14.4748L 18.7037 13.8982ZM 18.6416 13.9766C 18.6018 14.0239 18.5707 14.059 18.5285 14.0997L 19.2268 14.8155C 19.2927 14.7509 19.3566 14.6798 19.4063 14.621L 18.6416 13.9766ZM 18.5276 14.1006C 18.5046 14.1234 18.4785 14.1462 18.442 14.1783L 19.1038 14.9281C 19.1399 14.8962 19.1855 14.8558 19.2278 14.8146L 18.5276 14.1006ZM 18.4433 14.1772C 18.3818 14.2312 18.3286 14.2759 18.2629 14.3243L 18.859 15.1273C 18.9473 15.0615 19.0319 14.9911 19.1025 14.9292L 18.4433 14.1772ZM 18.2615 14.3254C 18.2383 14.3429 18.2102 14.3617 18.1725 14.3879L 18.7423 15.2096C 18.7747 15.1872 18.8175 15.1581 18.8605 15.1262L 18.2615 14.3254ZM 18.1723 14.388C 18.086 14.4479 18.0063 14.5007 17.9128 14.5557L 18.421 15.4169C 18.5361 15.3488 18.6467 15.276 18.7425 15.2095L 18.1723 14.388ZM 17.9077 14.5588C 17.8915 14.5688 17.8685 14.581 17.835 14.5999L 18.3279 15.47C 18.3516 15.4565 18.3875 15.4371 18.4261 15.4139L 17.9077 14.5588ZM 17.8349 14.6C 17.7193 14.6655 17.6082 14.7256 17.4826 14.7864L 17.9188 15.6862C 18.064 15.6157 18.2035 15.5405 18.328 15.4699L 17.8349 14.6ZM 17.4803 14.7875C 17.4711 14.7921 17.4593 14.7973 17.4396 14.8063L 17.8553 15.7158C 17.8711 15.7086 17.8956 15.6976 17.9211 15.6851L 17.4803 14.7875ZM 17.4331 14.8093C 17.2873 14.8786 17.143 14.943 16.9826 15.0076L 17.3565 15.9351C 17.5338 15.8635 17.7055 15.7869 17.8619 15.7127L 17.4331 14.8093ZM 16.9764 15.0102C 16.9806 15.0084 16.9838 15.0072 16.9853 15.0066C 16.9866 15.0061 16.9875 15.0057 16.9859 15.0063C 16.9851 15.0066 16.9817 15.0079 16.978 15.0093C 16.9741 15.0109 16.9685 15.0131 16.9619 15.0158L 17.3483 15.9382C 17.3441 15.9399 17.3409 15.9412 17.3394 15.9417C 17.3381 15.9422 17.3372 15.9426 17.3387 15.942C 17.3396 15.9417 17.3429 15.9404 17.3466 15.939C 17.3506 15.9375 17.3562 15.9352 17.3628 15.9325L 16.9764 15.0102ZM 16.9688 15.013C 16.0827 15.3699 14.9687 15.6639 13.632 15.8616L 13.7789 16.8508C 15.1701 16.6434 16.3973 16.3191 17.3414 15.941L 16.9688 15.013ZM 13.6467 15.8597C 13.6399 15.8605 13.6187 15.8632 13.5975 15.8667L 13.7723 16.8514C 13.7664 16.8524 13.7623 16.8529 13.7611 16.8531C 13.7604 16.8532 13.7602 16.8532 13.7642 16.8527L 13.6467 15.8597ZM 13.6116 15.8644C 13.3513 15.903 13.0886 15.9367 12.8137 15.967L 12.9233 16.961C 13.2069 16.9297 13.4882 16.8936 13.7582 16.8536L 13.6116 15.8644ZM 12.8154 15.9668C 12.7796 15.9707 12.7319 15.974 12.6765 15.9797L 12.7817 16.9742C 12.8182 16.9702 12.8664 16.967 12.9216 16.9612L 12.8154 15.9668ZM 12.677 15.9797C 12.4356 16.005 12.1967 16.0277 11.9483 16.0459L 12.0215 17.0433C 12.2807 17.0242 12.5351 17 12.7812 16.9742L 12.677 15.9797ZM 11.9483 16.0459C 11.8422 16.0538 11.7234 16.0577 11.5982 16.0654L 11.6599 17.0635C 11.7709 17.0566 11.8954 17.0524 12.0214 17.0433L 11.9483 16.0459ZM 11.5994 16.0653C 11.4067 16.0768 11.2237 16.089 11.0357 16.0956L 11.0708 17.0949C 11.2745 17.0877 11.4695 17.0748 11.6587 17.0636L 11.5994 16.0653ZM 11.0374 16.0955C 10.7204 16.1055 10.402 16.1119 10.0737 16.1119L 10.0737 17.1119C 10.4119 17.1118 10.7462 17.1052 11.0691 17.095L 11.0374 16.0955ZM 10.0737 16.1119C 9.74541 16.1119 9.42787 16.1056 9.11141 16.0944L 9.07602 17.0937C 9.40025 17.1052 9.73548 17.1118 10.0737 17.1119L 10.0737 16.1119ZM 9.11129 16.0943C 8.92379 16.0878 8.74031 16.0752 8.5465 16.0641L 8.48931 17.0624C 8.67749 17.0732 8.87198 17.0865 9.07614 17.0937L 9.11129 16.0943ZM 8.54702 16.0641C 8.42355 16.0569 8.30559 16.0527 8.19866 16.0447L 8.12554 17.0421C 8.25072 17.0511 8.37613 17.0558 8.48878 17.0624L 8.54702 16.0641ZM 8.19871 16.0447C 7.95027 16.0265 7.71139 16.0037 7.46993 15.9784L 7.36579 16.973C 7.61189 16.9988 7.86622 17.023 8.12549 17.0421L 8.19871 16.0447ZM 7.47049 15.9785C 7.41511 15.9727 7.36739 15.9695 7.33153 15.9656L 7.22535 16.9599C 7.28055 16.9657 7.32874 16.969 7.36523 16.973L 7.47049 15.9785ZM 7.33324 15.9658C 7.05873 15.9355 6.79563 15.9014 6.53464 15.8631L 6.38949 16.8525C 6.65879 16.892 6.93966 16.9284 7.22363 16.9598L 7.33324 15.9658ZM 6.5208 15.8613C 6.51678 15.8608 6.51697 15.8608 6.51775 15.8609C 6.51895 15.8611 6.52306 15.8616 6.52887 15.8627L 6.35416 16.8473C 6.37529 16.8508 6.39648 16.8536 6.40333 16.8544L 6.5208 15.8613ZM 6.51497 15.8604C 5.17826 15.6627 4.06428 15.3687 3.17821 15.0118L 2.80556 15.9398C 3.74968 16.3179 4.97682 16.6422 6.36806 16.8496L 6.51497 15.8604ZM 3.15078 15.0017C 3.15993 15.0048 3.16667 15.0074 3.16953 15.0085C 3.17198 15.0095 3.17372 15.0103 3.17059 15.0089L 2.78417 15.9313C 2.78901 15.9333 2.81088 15.9421 2.83299 15.9499L 3.15078 15.0017ZM 3.16434 15.0064C 3.00373 14.9417 2.8593 14.8774 2.71433 14.8083L 2.28463 15.7113C 2.44107 15.7857 2.61336 15.8624 2.79042 15.9338L 3.16434 15.0064ZM 2.71987 14.811C 2.69253 14.7977 2.66968 14.7876 2.65811 14.7822L 2.23447 15.688C 2.25756 15.6988 2.27178 15.7049 2.27909 15.7086L 2.71987 14.811ZM 2.66441 14.7852C 2.53824 14.7241 2.42767 14.6647 2.31319 14.5994L 1.81783 15.4681C 1.9435 15.5397 2.08357 15.6148 2.22817 15.685L 2.66441 14.7852ZM 2.31461 14.6002C 2.27895 14.5798 2.25425 14.5669 2.2393 14.5576L 1.72087 15.4127C 1.76071 15.4366 1.79566 15.4553 1.81641 15.4673L 2.31461 14.6002ZM 2.23419 14.5545C 2.14063 14.4995 2.06096 14.4467 1.97465 14.3868L 1.40446 15.2083C 1.50029 15.2748 1.61081 15.3476 1.72598 15.4157L 2.23419 14.5545ZM 1.97671 14.3882C 1.93716 14.3605 1.90755 14.3409 1.88549 14.3242L 1.28651 15.125C 1.33053 15.1577 1.37265 15.1859 1.40241 15.2068L 1.97671 14.3882ZM 1.88402 14.3231C 1.8184 14.2747 1.7652 14.23 1.70368 14.176L 1.04442 14.928C 1.11506 14.9898 1.19967 15.0603 1.28799 15.1261L 1.88402 14.3231ZM 1.70463 14.1769C 1.66772 14.1444 1.64251 14.1227 1.62161 14.1016L 0.916958 14.8112C 0.961333 14.8548 1.00865 14.8964 1.04348 14.9271L 1.70463 14.1769ZM 1.61843 14.0985C 1.57562 14.0571 1.54516 14.0231 1.50656 13.9768L 0.739464 14.6183C 0.790325 14.679 0.854963 14.7504 0.920143 14.8143L 1.61843 14.0985ZM 1.50527 13.9752C 1.47692 13.9417 1.46003 13.9212 1.44327 13.897L 0.626267 14.4736C 0.662699 14.5248 0.706249 14.5789 0.740761 14.6199L 1.50527 13.9752ZM 1.44217 13.8954C 1.41706 13.8607 1.40202 13.8355 1.37983 13.7949L 0.503546 14.2767C 0.536153 14.3358 0.581562 14.4102 0.627371 14.4752L 1.44217 13.8954ZM 1.38119 13.7974C 1.36499 13.7678 1.35713 13.7517 1.34639 13.7251L 0.421745 14.1059C 0.444044 14.1595 0.474866 14.2236 0.502189 14.2742L 1.38119 13.7974ZM 1.34787 13.7287C 1.3346 13.6966 1.33073 13.6849 1.32459 13.6563L 0.350062 13.8805C 0.366482 13.9499 0.394043 14.0363 0.420267 14.1023L 1.34787 13.7287ZM 1.32445 13.6557C 1.31538 13.6165 1.31114 13.5989 1.30778 13.5807C 1.30491 13.565 1.30589 13.5647 1.30589 13.5731L 0.305895 13.5731C 0.30969 13.6998 0.336393 13.8214 0.3502 13.8811L 1.32445 13.6557ZM 1.30589 13.5731C 1.30508 13.5558 1.3065 13.5494 1.31212 13.5151L 0.324653 13.3572C 0.315764 13.4136 0.306706 13.4989 0.305895 13.5731L 1.30589 13.5731ZM 1.31174 13.5174C 1.32814 13.3928 1.314 13.2203 1.28584 13.1157L 0.32595 13.3961C 0.324738 13.3919 0.321384 13.3771 0.325029 13.3549L 1.31174 13.5174ZM 1.30589 13.2559L 1.30589 10.2479L 0.305895 10.2479L 0.305895 13.2559L 1.30589 13.2559ZM 0.464666 10.6134C 0.475955 10.6239 0.486035 10.6326 0.493286 10.6387C 0.499676 10.644 0.506559 10.6496 0.510132 10.6525C 0.513704 10.6554 0.515982 10.6572 0.515366 10.6567C 0.515277 10.6566 0.514559 10.6561 0.513411 10.6551C 0.51226 10.6541 0.510456 10.6525 0.508178 10.6505L 1.17775 9.90773C 1.16757 9.89855 1.15854 9.89096 1.15229 9.8858C 1.14663 9.88113 1.14125 9.87679 1.13843 9.87451C 1.13529 9.87198 1.1354 9.87205 1.13632 9.87282C 1.13739 9.87372 1.14148 9.87716 1.14712 9.88244L 0.464666 10.6134ZM 0.511475 10.6534C 0.601494 10.7331 0.707756 10.8246 0.823564 10.9107L 1.41844 10.1069C 1.33277 10.044 1.26012 9.98066 1.17446 9.90478L 0.511475 10.6534ZM 0.818339 10.9068C 2.46436 12.1586 5.6313 13.0602 10.0737 13.0602L 10.0737 12.0602C 5.71731 12.0602 2.81345 11.1677 1.42366 10.1108L 0.818339 10.9068ZM 10.0737 13.0602C 14.4978 13.0602 17.6557 12.1657 19.3073 10.9225L 18.7059 10.1235C 17.3089 11.1751 14.4112 12.0602 10.0737 12.0602L 10.0737 13.0602ZM 19.3021 10.9264C 19.4369 10.8273 19.5667 10.7186 19.677 10.6186L 19.0051 9.87801C 18.9092 9.96517 18.8197 10.0405 18.7112 10.1196L 19.3021 10.9264ZM 19.6959 10.6005L 19.6963 10.6001L 18.9866 9.89566L 18.9862 9.89606L 19.6959 10.6005ZM 18.8415 10.2479L 18.8415 13.2559L 19.8415 13.2559L 19.8415 10.2479L 18.8415 10.2479ZM 18.8615 13.1157C 18.8334 13.2203 18.8192 13.3928 18.8356 13.5174L 19.8223 13.3549C 19.826 13.3771 19.8226 13.3919 19.8214 13.3961L 18.8615 13.1157ZM 18.8359 13.5193C 18.8413 13.5494 18.8422 13.5536 18.8415 13.5731L 19.8415 13.5731C 19.8408 13.501 19.832 13.4137 19.822 13.353L 18.8359 13.5193ZM 18.8415 13.5731C 18.8415 13.5646 18.8425 13.5649 18.8396 13.5805C 18.8362 13.5987 18.8319 13.6167 18.8227 13.656L 19.7966 13.8832C 19.8109 13.8218 19.8377 13.6998 19.8415 13.5731L 18.8415 13.5731ZM 18.8415 5.38589L 18.8415 8.39385L 19.8415 8.39385L 19.8415 5.38589L 18.8415 5.38589ZM 18.8615 8.25366C 18.8334 8.35831 18.8192 8.53078 18.8356 8.65539L 19.8223 8.49292C 19.826 8.51505 19.8226 8.52989 19.8214 8.53404L 18.8615 8.25366ZM 18.8359 8.65734C 18.8413 8.68741 18.8422 8.69161 18.8415 8.7111L 19.8415 8.7111C 19.8408 8.63903 19.832 8.55166 19.822 8.49097L 18.8359 8.65734ZM 18.8415 8.7111C 18.8415 8.70259 18.8425 8.70287 18.8396 8.71851C 18.8362 8.73666 18.8319 8.75465 18.8227 8.79402L 19.7966 9.0212C 19.8109 8.95979 19.8377 8.83782 19.8415 8.7111L 18.8415 8.7111ZM 18.8224 8.79547C 18.8164 8.82355 18.8123 8.83553 18.7986 8.86921L 19.7272 9.24015C 19.753 9.17497 19.7803 9.08972 19.7969 9.01974L 18.8224 8.79547ZM 18.799 8.86826C 18.7902 8.89103 18.7829 8.90524 18.7658 8.9366L 19.6448 9.41343C 19.6712 9.36457 19.7034 9.29856 19.7268 9.24111L 18.799 8.86826ZM 18.7656 8.93685C 18.7446 8.97607 18.731 8.99882 18.7064 9.03248L 19.518 9.61657C 19.5651 9.55056 19.612 9.47364 19.6449 9.41318L 18.7656 8.93685ZM 18.7037 9.03621C 18.6869 9.06044 18.67 9.08087 18.6417 9.11445L 19.4062 9.75906C 19.4407 9.71809 19.4843 9.66397 19.5207 9.61284L 18.7037 9.03621ZM 18.6416 9.11456C 18.6018 9.16188 18.5707 9.19694 18.5285 9.23767L 19.2268 9.95349C 19.2927 9.88887 19.3566 9.81778 19.4063 9.75895L 18.6416 9.11456ZM 18.5276 9.2386C 18.5046 9.2614 18.4785 9.28419 18.442 9.31633L 19.1038 10.0661C 19.1399 10.0342 19.1855 9.99377 19.2278 9.95257L 18.5276 9.2386ZM 18.4433 9.31524C 18.3818 9.36923 18.3286 9.41387 18.2629 9.46232L 18.859 10.2653C 18.9473 10.1995 19.0319 10.129 19.1025 10.0672L 18.4433 9.31524ZM 18.2615 9.46342C 18.2383 9.48091 18.2102 9.49968 18.1725 9.52586L 18.7423 10.3476C 18.7747 10.3252 18.8175 10.2961 18.8605 10.2642L 18.2615 9.46342ZM 18.1723 9.52597C 18.086 9.58592 18.0063 9.63868 17.9128 9.69371L 18.421 10.5549C 18.5362 10.4868 18.6467 10.414 18.7425 10.3475L 18.1723 9.52597ZM 17.9077 9.69676C 17.8915 9.70677 17.8685 9.71895 17.835 9.7379L 18.3279 10.608C 18.3516 10.5945 18.3875 10.5751 18.4261 10.5519L 17.9077 9.69676ZM 17.8349 9.73797C 17.7193 9.80352 17.6082 9.86363 17.4826 9.9244L 17.9188 10.8242C 18.064 10.7537 18.2035 10.6785 18.328 10.6079L 17.8349 9.73797ZM 17.4803 9.92551C 17.4711 9.9301 17.4593 9.9353 17.4396 9.94427L 17.8553 10.8538C 17.8711 10.8465 17.8956 10.8355 17.9211 10.8231L 17.4803 9.92551ZM 17.4331 9.94732C 17.2873 10.0166 17.143 10.081 16.9826 10.1456L 17.3565 11.073C 17.5338 11.0015 17.7055 10.9249 17.8619 10.8507L 17.4331 9.94732ZM 16.9764 10.1481C 16.9806 10.1464 16.9838 10.1451 16.9853 10.1446C 16.9866 10.1441 16.9875 10.1437 16.9859 10.1443C 16.9851 10.1446 16.9817 10.1459 16.978 10.1473C 16.9741 10.1488 16.9685 10.1511 16.9619 10.1538L 17.3483 11.0761C 17.3441 11.0779 17.3409 11.0791 17.3394 11.0797C 17.3381 11.0802 17.3372 11.0806 17.3387 11.08C 17.3396 11.0797 17.3429 11.0784 17.3466 11.077C 17.3506 11.0755 17.3562 11.0732 17.3628 11.0705L 16.9764 10.1481ZM 16.9688 10.151C 16.0827 10.5079 14.9687 10.8019 13.632 10.9996L 13.7789 11.9888C 15.1701 11.7814 16.3973 11.4571 17.3414 11.079L 16.9688 10.151ZM 13.6467 10.9977C 13.6399 10.9985 13.6187 11.0012 13.5975 11.0047L 13.7723 11.9893C 13.7664 11.9904 13.7623 11.9909 13.7611 11.9911C 13.7604 11.9912 13.7602 11.9912 13.7642 11.9907L 13.6467 10.9977ZM 13.6116 11.0024C 13.3513 11.041 13.0886 11.0747 12.8137 11.105L 12.9233 12.099C 13.2069 12.0677 13.4882 12.0316 13.7582 11.9916L 13.6116 11.0024ZM 12.8154 11.1048C 12.7796 11.1087 12.7319 11.1119 12.6765 11.1177L 12.7817 12.1122C 12.8182 12.1082 12.8664 12.1049 12.9216 12.0991L 12.8154 11.1048ZM 12.677 11.1177C 12.4356 11.1429 12.1967 11.1657 11.9483 11.1839L 12.0215 12.1813C 12.2807 12.1622 12.5351 12.138 12.7812 12.1122L 12.677 11.1177ZM 11.9483 11.1839C 11.8422 11.1918 11.7234 11.1957 11.5982 11.2034L 11.6599 12.2015C 11.7709 12.1946 11.8954 12.1904 12.0214 12.1813L 11.9483 11.1839ZM 11.5994 11.2033C 11.4067 11.2148 11.2237 11.227 11.0357 11.2336L 11.0708 12.2329C 11.2745 12.2257 11.4695 12.2128 11.6587 12.2016L 11.5994 11.2033ZM 11.0374 11.2335C 10.7204 11.2435 10.402 11.2499 10.0737 11.2499L 10.0737 12.2499C 10.4119 12.2498 10.7462 12.2432 11.0691 12.233L 11.0374 11.2335ZM 10.0737 11.2499C 9.74541 11.2499 9.42787 11.2436 9.11141 11.2323L 9.07602 12.2317C 9.40025 12.2432 9.73548 12.2498 10.0737 12.2499L 10.0737 11.2499ZM 9.11129 11.2323C 8.92379 11.2258 8.74031 11.2132 8.5465 11.2021L 8.48931 12.2004C 8.67749 12.2112 8.87198 12.2245 9.07614 12.2317L 9.11129 11.2323ZM 8.54702 11.2021C 8.42355 11.1949 8.30559 11.1906 8.19866 11.1827L 8.12554 12.18C 8.25072 12.1891 8.37613 12.1938 8.48878 12.2004L 8.54702 11.2021ZM 8.19871 11.1827C 7.95027 11.1645 7.71139 11.1417 7.46993 11.1164L 7.36579 12.111C 7.61189 12.1368 7.86622 12.161 8.12549 12.18L 8.19871 11.1827ZM 7.47049 11.1165C 7.4151 11.1107 7.36738 11.1075 7.33153 11.1036L 7.22535 12.0979C 7.28056 12.1037 7.32874 12.107 7.36523 12.1109L 7.47049 11.1165ZM 7.33324 11.1038C 7.05873 11.0735 6.79563 11.0394 6.53464 11.0011L 6.38949 11.9905C 6.65879 12.03 6.93966 12.0664 7.22363 12.0977L 7.33324 11.1038ZM 6.5208 10.9993C 6.51678 10.9988 6.51697 10.9988 6.51775 10.9989C 6.51895 10.9991 6.52306 10.9996 6.52887 11.0007L 6.35416 11.9853C 6.37529 11.9888 6.39648 11.9915 6.40333 11.9924L 6.5208 10.9993ZM 6.51497 10.9984C 5.17826 10.8006 4.06428 10.5066 3.17821 10.1498L 2.80556 11.0778C 3.74968 11.4559 4.97682 11.7801 6.36806 11.9876L 6.51497 10.9984ZM 3.15078 10.1397C 3.15993 10.1428 3.16667 10.1454 3.16953 10.1465C 3.17198 10.1475 3.17372 10.1482 3.17059 10.1469L 2.78417 11.0693C 2.78901 11.0713 2.81088 11.0801 2.83299 11.0878L 3.15078 10.1397ZM 3.16434 10.1444C 3.00373 10.0797 2.8593 10.0154 2.71433 9.94633L 2.28463 10.8493C 2.44107 10.9237 2.61336 11.0004 2.79042 11.0718L 3.16434 10.1444ZM 2.71987 9.94901C 2.69255 9.93572 2.66969 9.92564 2.65811 9.92018L 2.23447 10.826C 2.25755 10.8368 2.27176 10.8429 2.27909 10.8466L 2.71987 9.94901ZM 2.66441 9.92318C 2.53823 9.86213 2.42767 9.80271 2.31319 9.73738L 1.81783 10.6061C 1.9435 10.6777 2.08357 10.7528 2.22817 10.823L 2.66441 9.92318ZM 2.31461 9.7382C 2.27895 9.71779 2.25425 9.70486 2.2393 9.69555L 1.72087 10.5507C 1.76071 10.5746 1.79566 10.5933 1.81641 10.6053L 2.31461 9.7382ZM 2.23419 9.69249C 2.14063 9.63747 2.06096 9.5847 1.97465 9.52476L 1.40446 10.3463C 1.50029 10.4127 1.61081 10.4856 1.72598 10.5537L 2.23419 9.69249ZM 1.97671 9.52619C 1.93716 9.49849 1.90755 9.47894 1.88549 9.4622L 1.28651 10.263C 1.33053 10.2957 1.37265 10.3239 1.40241 10.3448L 1.97671 9.52619ZM 1.88402 9.4611C 1.8184 9.41266 1.7652 9.36802 1.70368 9.31402L 1.04442 10.0659C 1.11506 10.1278 1.19967 10.1983 1.28799 10.2641L 1.88402 9.4611ZM 1.70463 9.31486C 1.66772 9.28234 1.64251 9.26072 1.62161 9.23959L 0.916958 9.94914C 0.961333 9.99284 1.00865 10.0344 1.04348 10.0651L 1.70463 9.31486ZM 1.61843 9.23645C 1.57561 9.19504 1.54516 9.16106 1.50656 9.11478L 0.739464 9.7563C 0.790326 9.81698 0.854965 9.88834 0.920143 9.95228L 1.61843 9.23645ZM 1.50527 9.11323C 1.47692 9.07965 1.46003 9.05922 1.44327 9.03499L 0.626267 9.61162C 0.662696 9.66276 0.706245 9.71688 0.740761 9.75785L 1.50527 9.11323ZM 1.44217 9.03343C 1.41705 8.99872 1.40202 8.9735 1.37983 8.9329L 0.503546 9.4147C 0.536154 9.47377 0.581564 9.54823 0.627371 9.61318L 1.44217 9.03343ZM 1.38119 8.93539C 1.36499 8.90584 1.35713 8.8897 1.34639 8.86305L 0.421745 9.24388C 0.444042 9.29746 0.474864 9.36154 0.502189 9.41221L 1.38119 8.93539ZM 1.34787 8.86668C 1.3346 8.83462 1.33073 8.82292 1.32459 8.79425L 0.350062 9.01853C 0.366482 9.08791 0.394044 9.17426 0.420267 9.24026L 1.34787 8.86668ZM 1.32445 8.79366C 1.31538 8.75446 1.31114 8.73692 1.30778 8.71868C 1.30491 8.70302 1.30589 8.70266 1.30589 8.7111L 0.305895 8.7111C 0.30969 8.83782 0.336392 8.95936 0.3502 9.01913L 1.32445 8.79366ZM 1.30589 8.7111C 1.30508 8.69378 1.3065 8.68743 1.31212 8.65307L 0.324653 8.49524C 0.315764 8.55164 0.306706 8.63685 0.305895 8.7111L 1.30589 8.7111ZM 1.31174 8.65539C 1.32814 8.53078 1.314 8.35831 1.28584 8.25366L 0.32595 8.53404C 0.324738 8.52989 0.321384 8.51506 0.325029 8.49292L 1.31174 8.65539ZM 1.30589 8.39385L 1.30589 5.38589L 0.305895 5.38589L 0.305895 8.39385L 1.30589 8.39385ZM 0.468701 5.75508C 0.53102 5.81153 0.594735 5.86193 0.641287 5.9009L 1.28238 5.13343C 1.22417 5.08488 1.17748 5.04858 1.14309 5.0167L 0.468701 5.75508ZM 0.640706 5.90041C 0.662943 5.91894 0.694966 5.94756 0.737599 5.98171L 1.35934 5.19848C 1.34072 5.18401 1.31875 5.16401 1.28296 5.13392L 0.640706 5.90041ZM 0.738278 5.98225C 0.867698 6.08447 1.01704 6.19241 1.16876 6.29126L 1.71392 5.45293C 1.58277 5.36782 1.47101 5.28696 1.35866 5.19795L 0.738278 5.98225ZM 1.16962 6.29181C 1.21195 6.31894 1.2489 6.33992 1.27039 6.35342L 1.79845 5.50421C 1.7587 5.47963 1.72956 5.46333 1.71306 5.45237L 1.16962 6.29181ZM 1.26916 6.35265C 1.39499 6.43132 1.53397 6.51177 1.67199 6.58653L 2.14795 5.70706C 2.02245 5.6392 1.91079 5.5746 1.79969 5.50498L 1.26916 6.35265ZM 1.67234 6.58672C 1.72252 6.61382 1.77566 6.64207 1.82899 6.66954L 2.28671 5.78045C 2.23931 5.75605 2.19493 5.73244 2.1476 5.70687L 1.67234 6.58672ZM 1.82984 6.66998C 1.9836 6.7487 2.15189 6.82866 2.32157 6.90282L 2.72172 5.98637C 2.56662 5.91872 2.42626 5.85201 2.28586 5.78001L 1.82984 6.66998ZM 2.31958 6.90194C 2.33485 6.90852 2.36315 6.9226 2.40571 6.9408L 2.79311 6.01889C 2.78168 6.0144 2.76163 6.00417 2.72371 5.98724L 2.31958 6.90194ZM 2.4032 6.93974C 2.60071 7.02391 2.81542 7.10633 3.02961 7.18287L 3.36597 6.24114C 3.16271 6.16857 2.97608 6.09703 2.79562 6.01995L 2.4032 6.93974ZM 3.02901 7.18266C 3.09443 7.20604 3.15837 7.22667 3.21328 7.24547L 3.53689 6.29928C 3.47334 6.27756 3.4164 6.25929 3.36657 6.24135L 3.02901 7.18266ZM 3.21446 7.24587C 3.3859 7.30399 3.56733 7.36096 3.74937 7.41453L 4.03154 6.45516C 3.85819 6.4042 3.6963 6.35339 3.53571 6.29888L 3.21446 7.24587ZM 3.75079 7.41494C 3.8108 7.43238 3.87799 7.45311 3.95209 7.4733L 4.21404 6.50822C 4.15679 6.49276 4.09825 6.47459 4.03012 6.45475L 3.75079 7.41494ZM 3.94894 7.47243C 4.18964 7.53943 4.44515 7.6049 4.70779 7.66411L 4.92749 6.68854C 4.67919 6.63268 4.44794 6.57336 4.21719 6.50908L 3.94894 7.47243ZM 4.70503 7.66348C 4.75418 7.67463 4.79533 7.68176 4.81995 7.68723L 5.03211 6.70999C 4.98581 6.70007 4.95121 6.69423 4.93025 6.68917L 4.70503 7.66348ZM 4.81886 7.68699C 5.04962 7.7376 5.29291 7.78527 5.53713 7.82896L 5.71316 6.84458C 5.47706 6.80238 5.25293 6.75848 5.03321 6.71023L 4.81886 7.68699ZM 5.53695 7.82893C 5.62132 7.84404 5.70709 7.85836 5.79029 7.87216L 5.95401 6.88566C 5.8712 6.87191 5.79176 6.85867 5.71334 6.84461L 5.53695 7.82893ZM 5.79079 7.87225C 6.02374 7.91064 6.26728 7.94629 6.5124 7.9784L 6.64222 6.98686C 6.4046 6.95577 6.17751 6.92254 5.95352 6.88557L 5.79079 7.87225ZM 6.51257 7.97842C 6.56813 7.98564 6.62934 7.99524 6.70068 8.00405L 6.82224 7.01146C 6.76785 7.00487 6.71059 6.99584 6.64205 6.98684L 6.51257 7.97842ZM 6.70108 8.0041C 7.00605 8.04116 7.3256 8.0733 7.64845 8.10041L 7.73205 7.10391C 7.41743 7.07753 7.11645 7.04727 6.82183 7.01141L 6.70108 8.0041ZM 7.64914 8.10046C 7.73343 8.10739 7.81806 8.11244 7.89495 8.11792L 7.96587 7.12043C 7.88319 7.11456 7.80422 7.10989 7.73136 7.10385L 7.64914 8.10046ZM 7.89397 8.11784C 8.15251 8.13672 8.42006 8.15253 8.69017 8.16485L 8.73569 7.16588C 8.4723 7.15389 8.21843 7.1389 7.96684 7.1205L 7.89397 8.11784ZM 8.69001 8.16484C 8.78707 8.16929 8.88605 8.17385 8.98749 8.17759L 9.02425 7.17826C 8.92745 7.17471 8.83301 7.17035 8.73585 7.16589L 8.69001 8.16484ZM 8.98897 8.17764C 9.33875 8.18946 9.70099 8.19815 10.0737 8.19818L 10.0737 7.19818C 9.71301 7.19822 9.36768 7.18988 9.02278 7.17821L 8.98897 8.17764ZM 10.0737 8.19818C 10.4464 8.19815 10.8086 8.18946 11.1584 8.17764L 11.1246 7.17821C 10.7797 7.18988 10.4344 7.19822 10.0737 7.19818L 10.0737 8.19818ZM 11.16 8.17758C 11.261 8.17385 11.3598 8.16929 11.4573 8.16484L 11.4116 7.16588C 11.314 7.17035 11.2195 7.17471 11.123 7.17826L 11.16 8.17758ZM 11.4572 8.16485C 11.7273 8.15253 11.9949 8.13672 12.2534 8.11784L 12.1805 7.1205C 11.9289 7.1389 11.6751 7.15389 11.4117 7.16588L 11.4572 8.16485ZM 12.2549 8.11773C 12.3294 8.11203 12.4123 8.10747 12.498 8.10048L 12.4162 7.10383C 12.344 7.10981 12.2641 7.11416 12.179 7.12062L 12.2549 8.11773ZM 12.4983 8.10046C 12.8218 8.07371 13.1416 8.04113 13.4463 8.0041L 13.3255 7.01141C 13.0306 7.04731 12.7299 7.07793 12.4159 7.10386L 12.4983 8.10046ZM 13.4467 8.00405C 13.518 7.99524 13.5792 7.98564 13.6348 7.97842L 13.5053 6.98684C 13.4368 6.99584 13.3795 7.00487 13.3251 7.01146L 13.4467 8.00405ZM 13.635 7.9784C 13.8801 7.94628 14.1232 7.91064 14.3564 7.87227L 14.194 6.88555C 13.9695 6.92254 13.7427 6.95577 13.5051 6.98686L 13.635 7.9784ZM 14.3571 7.87216C 14.4403 7.85836 14.526 7.84404 14.6104 7.82893L 14.434 6.84461C 14.3556 6.85867 14.2762 6.87191 14.1934 6.88566L 14.3571 7.87216ZM 14.6102 7.82896C 14.8545 7.78527 15.0977 7.7376 15.3285 7.68699L 15.1142 6.71023C 14.8944 6.75848 14.6703 6.80238 14.4342 6.84458L 14.6102 7.82896ZM 15.3274 7.68723C 15.3546 7.68126 15.393 7.67425 15.437 7.66469L 15.2225 6.68796C 15.1963 6.6938 15.159 6.70057 15.1153 6.70999L 15.3274 7.68723ZM 15.4396 7.66411C 15.7026 7.60481 15.9577 7.53902 16.1977 7.47265L 15.9309 6.50887C 15.6994 6.57296 15.4678 6.63277 15.2199 6.68854L 15.4396 7.66411ZM 16.198 7.47254C 16.2693 7.45271 16.3352 7.4328 16.3966 7.41494L 16.1173 6.45475C 16.0505 6.47416 15.9906 6.49234 15.9306 6.50898L 16.198 7.47254ZM 16.398 7.41453C 16.58 7.36096 16.7615 7.30399 16.9329 7.24587L 16.6117 6.29888C 16.4511 6.35339 16.2892 6.4042 16.1158 6.45516L 16.398 7.41453ZM 16.9341 7.24547C 16.989 7.22667 17.0529 7.20604 17.1184 7.18266L 16.7808 6.24135C 16.731 6.25929 16.674 6.27756 16.6105 6.29928L 16.9341 7.24547ZM 17.1178 7.18287C 17.3318 7.10639 17.5471 7.0239 17.7445 6.93958L 17.3514 6.0201C 17.1717 6.09704 16.9848 6.16852 16.7814 6.24114L 17.1178 7.18287ZM 17.7417 6.9408C 17.7842 6.9226 17.8125 6.90852 17.8278 6.90194L 17.4237 5.98724C 17.3857 6.00417 17.3657 6.0144 17.3543 6.01889L 17.7417 6.9408ZM 17.8268 6.9024C 17.9955 6.82826 18.1633 6.74894 18.3175 6.66998L 17.8615 5.78001C 17.7216 5.85177 17.5808 5.91831 17.4247 5.98679L 17.8268 6.9024ZM 18.3184 6.66954C 18.371 6.64246 18.4253 6.61381 18.4766 6.58589L 17.9982 5.7077C 17.9528 5.73245 17.9088 5.75566 17.8607 5.78045L 18.3184 6.66954ZM 18.4743 6.58709C 18.6129 6.51247 18.7529 6.43141 18.8793 6.35199L 18.3466 5.50564C 18.2361 5.57533 18.1254 5.63931 18.0005 5.7065L 18.4743 6.58709ZM 18.877 6.35342C 18.8985 6.33992 18.9354 6.31894 18.9777 6.29181L 18.4343 5.45237C 18.4178 5.46333 18.3887 5.47963 18.3489 5.50421L 18.877 6.35342ZM 18.9786 6.29126C 19.1299 6.1927 19.2797 6.08487 19.4099 5.98161L 18.7879 5.19858C 18.6764 5.28737 18.565 5.36754 18.4334 5.45293L 18.9786 6.29126ZM 19.4123 5.97969C 19.4532 5.94651 19.4827 5.92005 19.5041 5.90258L 18.867 5.13175C 18.8295 5.1629 18.805 5.18506 18.7855 5.2005L 19.4123 5.97969ZM 19.5061 5.9009C 19.5526 5.86193 19.6163 5.81153 19.6787 5.75508L 19.0043 5.0167C 18.9699 5.04858 18.9232 5.08488 18.865 5.13343L 19.5061 5.9009ZM 10.0737 1.31033C 12.7619 1.30851 14.995 1.69434 16.5886 2.26184C 17.3738 2.53929 17.9472 2.83505 18.3499 3.15888C 18.7473 3.47554 18.8415 3.71674 18.8415 3.84909L 19.8415 3.84909C 19.8415 3.26267 19.4599 2.76464 18.973 2.37677C 18.4914 1.99607 17.772 1.62198 16.923 1.31943C 15.2482 0.726943 12.8474 0.312163 10.0737 0.310335L 10.0737 1.31033ZM 18.8415 3.84909C 18.8415 3.98144 18.7473 4.22264 18.3499 4.5393C 17.9472 4.86313 17.3738 5.15889 16.5886 5.43634C 14.995 6.00384 12.7619 6.38968 10.0737 6.38785L 10.0737 7.38785C 12.8474 7.38602 15.2482 6.97124 16.923 6.37875C 17.772 6.0762 18.4914 5.70211 18.973 5.32141C 19.4599 4.93354 19.8415 4.43551 19.8415 3.84909L 18.8415 3.84909ZM 10.0737 6.38785C 7.38543 6.38968 5.1524 6.00384 3.55879 5.43634C 2.77355 5.15889 2.20012 4.86313 1.79747 4.5393C 1.40002 4.22264 1.30589 3.98144 1.30589 3.84909L 0.305895 3.84909C 0.305895 4.43551 0.687499 4.93354 1.17433 5.32141C 1.65596 5.70211 2.37536 6.0762 3.22432 6.37875C 4.89912 6.97124 7.29999 7.38602 10.0737 7.38785L 10.0737 6.38785ZM 1.30589 3.84909C 1.30589 3.71674 1.40002 3.47554 1.79747 3.15888C 2.20012 2.83505 2.77355 2.53929 3.55879 2.26184C 5.1524 1.69434 7.38543 1.30851 10.0737 1.31033L 10.0737 0.310335C 7.29999 0.312163 4.89912 0.726943 3.22432 1.31943C 2.37536 1.62198 1.65596 1.99607 1.17433 2.37677C 0.687499 2.76464 0.305895 3.26267 0.305895 3.84909L 1.30589 3.84909ZM 18.8648 18.3665C 18.8529 18.4057 18.8412 18.4568 18.8359 18.4869L 19.8213 18.6573C 19.822 18.6531 19.8213 18.6582 19.8182 18.6682L 18.8648 18.3665ZM 18.8351 18.4916C 18.8098 18.6467 18.6613 18.9016 18.2322 19.2113C 17.8004 19.5252 17.21 19.8107 16.4252 20.0748C 14.8353 20.6138 12.659 20.9756 10.0737 20.9739L 10.0737 21.9739C 12.7412 21.9722 15.0781 21.5838 16.7453 21.0222C 17.5891 20.7361 18.3132 20.3837 18.8174 20.0222C 19.3242 19.6564 19.7331 19.1982 19.8221 18.6525L 18.8351 18.4916ZM 10.0737 20.9739C 7.4884 20.9756 5.31208 20.6138 3.72216 20.0748C 2.93736 19.8107 2.34696 19.5252 1.91518 19.2113C 1.48607 18.9016 1.33755 18.6467 1.31227 18.4916L 0.325304 18.6525C 0.414265 19.1982 0.823121 19.6564 1.32997 20.0222C 1.83415 20.3837 2.55828 20.7361 3.40205 21.0222C 5.06925 21.5838 7.40614 21.9722 10.0737 21.9739L 10.0737 20.9739ZM 1.31115 18.485C 1.30465 18.4499 1.29286 18.4021 1.28377 18.3719L 0.328023 18.6661C 0.327773 18.6653 0.327115 18.663 0.326425 18.6591L 1.31115 18.485ZM 1.30589 18.519L 1.30589 15.1099L 0.305895 15.1099L 0.305895 18.519L 1.30589 18.519ZM 0.464666 15.4754C 0.475957 15.4859 0.486039 15.4946 0.493291 15.5007C 0.499682 15.506 0.506566 15.5116 0.51014 15.5145C 0.513712 15.5174 0.515987 15.5193 0.515371 15.5187C 0.515282 15.5187 0.514563 15.5181 0.513414 15.5171C 0.512263 15.5161 0.510458 15.5145 0.508178 15.5125L 1.17775 14.7697C 1.16757 14.7606 1.15854 14.753 1.15229 14.7478C 1.14662 14.7431 1.14124 14.7388 1.13842 14.7365C 1.13529 14.734 1.13539 14.7341 1.13632 14.7348C 1.13739 14.7357 1.14147 14.7392 1.14712 14.7444L 0.464666 15.4754ZM 0.511475 15.5154C 0.601493 15.5951 0.707755 15.6866 0.823564 15.7727L 1.41844 14.9689C 1.33277 14.906 1.26012 14.8427 1.17446 14.7668L 0.511475 15.5154ZM 0.818339 15.7688C 2.46436 17.0206 5.6313 17.9222 10.0737 17.9222L 10.0737 16.9222C 5.71731 16.9222 2.81345 16.0297 1.42366 14.9728L 0.818339 15.7688ZM 10.0737 17.9222C 14.4978 17.9222 17.6557 17.0277 19.3073 15.7845L 18.7059 14.9855C 17.3089 16.0372 14.4112 16.9222 10.0737 16.9222L 10.0737 17.9222ZM 19.3021 15.7884C 19.4369 15.6893 19.5667 15.5806 19.677 15.4806L 19.0051 14.74C 18.9092 14.8272 18.8197 14.9025 18.7112 14.9817L 19.3021 15.7884ZM 19.6956 15.4629L 19.696 15.4625L 18.9869 14.7573L 18.9865 14.7577L 19.6956 15.4629ZM 18.8415 15.1099L 18.8415 18.5174L 19.8415 18.5174L 19.8415 15.1099L 18.8415 15.1099Z"/>
</defs>
</svg>
