<svg width="190" height="190" viewBox="0 0 190 190" version="1.1" xmlns="http://www.w3.org/2000/svg" xmlns:xlink="http://www.w3.org/1999/xlink" xmlns:figma="http://www.figma.com/figma/ns">
<title>database-img</title>
<desc>Created using Figma</desc>
<g id="Canvas" transform="translate(0 -596)" figma:type="canvas">
<g id="database-img" figma:type="frame">
<g id="img" figma:type="frame">
<g id="bg" figma:type="rounded-rectangle">
<use xlink:href="#path0_fill" transform="translate(0 596)" fill="#FFFFFF"/>
<mask id="mask0_outline_ins">
<use xlink:href="#path0_fill" fill="white" transform="translate(0 596)"/>
</mask>
<g mask="url(#mask0_outline_ins)">
<use xlink:href="#path1_stroke_2x" transform="translate(0 596)" fill="#000000" fill-opacity="0.1"/>
</g>
</g>
</g>
<g id="Vector 2" figma:type="vector">
<use xlink:href="#path2_fill" transform="translate(64 706)" fill="#94CBFE"/>
</g>
<g id="Vector" figma:type="vector">
<use xlink:href="#path3_fill" transform="translate(62 655)"/>
<use xlink:href="#path4_stroke" transform="translate(62 655)" fill="#047AE9"/>
</g>
</g>
</g>
<defs>
<path id="path0_fill" d="M 0 10C 0 4.47715 4.47715 0 10 0L 180 0C 185.523 0 190 4.47715 190 10L 190 180C 190 185.523 185.523 190 180 190L 10 190C 4.47715 190 0 185.523 0 180L 0 10Z"/>
<path id="path1_stroke_2x" d="M 10 1L 180 1L 180 -1L 10 -1L 10 1ZM 189 10L 189 180L 191 180L 191 10L 189 10ZM 180 189L 10 189L 10 191L 180 191L 180 189ZM 1 180L 1 10L -1 10L -1 180L 1 180ZM 10 -1C 3.92487 -1 -1 3.92487 -1 10L 1 10C 1 5.02944 5.02944 1 10 1L 10 -1ZM 180 1C 184.971 1 189 5.02944 189 10L 191 10C 191 3.92487 186.075 -1 180 -1L 180 1ZM 189 180C 189 184.971 184.971 189 180 189L 180 191C 186.075 191 191 186.075 191 180L 189 180ZM 10 189C 5.02944 189 1 184.971 1 180L -1 180C -1 186.075 3.92487 191 10 191L 10 189Z"/>
<path id="path2_fill" d="M 0 12.5L 0.5 1L 0.5 0L 28 5.5L 62 0L 62 13.5L 27 22L 0 12.5Z"/>
<path id="path3_fill" d="M 65.8073 11.2951C 64.2787 5.60109 52.9016 0 33 0C 13.0984 0 1.71996 5.60109 0.19272 11.2951C 0.0818399 11.4902 0 11.7039 0 11.9455L 0 12.6091L 0 27.8727L 0 28.5364L 0 29.2L 0 43.8L 0 44.4636L 0 45.1273L 0 61.0545C 0 61.2696 0.0567601 61.4726 0.15444 61.6531C 1.71336 68.1501 15.6605 73 33 73C 50.2999 73 64.2246 68.1701 65.835 61.6969C 65.9406 61.5071 66 61.2881 66 61.0545L 66 45.1273L 66 44.4636L 66 43.8L 66 29.2L 66 28.5364L 66 27.8727L 66 12.6091L 66 11.9455C 66 11.7039 65.9182 11.4902 65.8073 11.2951ZM 63.2557 45.1074C 63.2188 45.268 63.1673 45.4272 63.1026 45.5892C 63.0498 45.7206 62.9851 45.852 62.9138 45.9834C 62.8254 46.1466 62.7264 46.3099 62.6089 46.4731C 62.5218 46.5966 62.4228 46.7187 62.3198 46.8408C 62.1733 47.0147 62.0176 47.1885 61.8407 47.3611C 61.7338 47.4659 61.6163 47.5695 61.4975 47.6743C 61.281 47.8641 61.0553 48.0526 60.8032 48.2397C 60.6949 48.3207 60.5788 48.399 60.4639 48.4786C 60.1656 48.6857 59.8541 48.8914 59.5122 49.0932C 59.4224 49.1476 59.3261 49.1993 59.2324 49.2524C 58.839 49.4754 58.4285 49.6971 57.985 49.9121C 57.9282 49.94 57.8688 49.9665 57.8107 49.9931C 57.3157 50.228 56.7983 50.4589 56.2452 50.6819C 56.2294 50.6885 56.2135 50.6939 56.1977 50.7005C 53.2 51.9043 49.3654 52.917 44.8972 53.5807C 44.8747 53.5833 44.8523 53.586 44.8298 53.59C 43.9613 53.7187 43.0703 53.8329 42.1555 53.9337C 42.0064 53.9497 41.8493 53.9603 41.6988 53.9762C 40.9002 54.0598 40.0924 54.1368 39.2608 54.1979C 38.8806 54.2257 38.482 54.239 38.0952 54.2629C 37.4695 54.3001 36.8504 54.3412 36.2089 54.3638C 35.1608 54.3969 34.0916 54.4182 33 54.4182C 31.9084 54.4182 30.8392 54.3969 29.7898 54.3598C 29.1482 54.3372 28.5292 54.2947 27.9035 54.2589C 27.5167 54.2363 27.1181 54.2217 26.7379 54.1939C 25.9063 54.1328 25.0985 54.0558 24.2999 53.9722C 24.1494 53.9563 23.9923 53.9457 23.8432 53.9297C 22.9284 53.8289 22.0374 53.7134 21.1688 53.586C 21.1464 53.5833 21.124 53.5807 21.1015 53.5767C 16.6333 52.9131 12.7987 51.9003 9.801 50.6965C 9.78516 50.6912 9.76932 50.6846 9.75348 50.6779C 9.2004 50.4549 8.68164 50.224 8.18796 49.9891C 8.1312 49.9612 8.07048 49.9347 8.01372 49.9081C 7.5702 49.6931 7.15968 49.4728 6.76632 49.2485C 6.67392 49.1954 6.57624 49.1436 6.48648 49.0892C 6.1446 48.8874 5.83308 48.6817 5.53476 48.4747C 5.42124 48.395 5.30376 48.3167 5.19552 48.2357C 4.9434 48.0486 4.71768 47.8601 4.5012 47.6703C 4.38372 47.5668 4.26492 47.4633 4.158 47.3571C 3.98112 47.1845 3.82536 47.012 3.67884 46.8368C 3.57588 46.7147 3.47688 46.5926 3.38976 46.4691C 3.2736 46.3059 3.1746 46.1426 3.08484 45.9794C 3.01356 45.848 2.9502 45.7166 2.89608 45.5852C 2.8314 45.4246 2.77992 45.264 2.74296 45.1034C 2.69412 44.8923 2.64 44.6773 2.64 44.4636C 2.64 44.3137 2.65716 44.1637 2.68092 44.015C 2.71392 43.8146 2.69544 43.6142 2.64 43.4244L 2.64 33.5707C 2.67696 33.6052 2.72316 33.6384 2.76144 33.6729C 3.0492 33.9277 3.34224 34.1813 3.67224 34.4255C 8.64468 38.2069 18.5882 41.1455 33 41.1455C 47.351 41.1455 57.2695 38.2308 62.2631 34.4719C 62.6617 34.1799 63.0208 33.8786 63.3587 33.572L 63.36 33.5707L 63.36 43.4244C 63.3046 43.6142 63.2861 43.8146 63.3191 44.015C 63.3442 44.1637 63.36 44.3137 63.36 44.4636C 63.36 44.6773 63.3059 44.8923 63.2557 45.1074ZM 63.36 17.6434L 63.36 27.4971C 63.3046 27.6869 63.2861 27.8873 63.3191 28.0877C 63.3442 28.2364 63.36 28.3864 63.36 28.5364C 63.36 28.7501 63.3059 28.9651 63.2557 29.1801C 63.2188 29.3407 63.1673 29.5 63.1026 29.6619C 63.0498 29.7933 62.9851 29.9247 62.9138 30.0561C 62.8254 30.2193 62.7264 30.3826 62.6089 30.5459C 62.5218 30.6693 62.4228 30.7914 62.3198 30.9135C 62.1733 31.0874 62.0176 31.2613 61.8407 31.4338C 61.7338 31.5387 61.6163 31.6422 61.4975 31.747C 61.281 31.9368 61.0553 32.1253 60.8032 32.3125C 60.6949 32.3934 60.5788 32.4717 60.4639 32.5514C 60.1656 32.7584 59.8541 32.9641 59.5122 33.1659C 59.4224 33.2203 59.3261 33.2721 59.2324 33.3252C 58.839 33.5481 58.4285 33.7698 57.985 33.9848C 57.9282 34.0127 57.8688 34.0392 57.8107 34.0658C 57.3157 34.3007 56.7983 34.5317 56.2452 34.7546C 56.2294 34.7613 56.2135 34.7666 56.1977 34.7732C 53.2 35.9771 49.3654 36.9898 44.8972 37.6534C 44.8747 37.6561 44.8523 37.6587 44.8298 37.6627C 43.9613 37.7914 43.0703 37.9056 42.1555 38.0065C 42.0064 38.0224 41.8493 38.033 41.6988 38.0489C 40.9002 38.1325 40.0924 38.2095 39.2608 38.2706C 38.8806 38.2985 38.482 38.3117 38.0952 38.3356C 37.4695 38.3728 36.8504 38.4139 36.2089 38.4365C 35.1608 38.4697 34.0916 38.4909 33 38.4909C 31.9084 38.4909 30.8392 38.4697 29.7898 38.4325C 29.1482 38.4099 28.5292 38.3675 27.9035 38.3316C 27.5167 38.3091 27.1181 38.2945 26.7379 38.2666C 25.9063 38.2055 25.0985 38.1286 24.2999 38.0449C 24.1494 38.029 23.9923 38.0184 23.8432 38.0025C 22.9284 37.9016 22.0374 37.7861 21.1688 37.6587C 21.1464 37.6561 21.124 37.6534 21.1015 37.6494C 16.6333 36.9858 12.7987 35.9731 9.801 34.7692C 9.78516 34.7639 9.76932 34.7573 9.75348 34.7507C 9.2004 34.5277 8.68164 34.2967 8.18796 34.0618C 8.1312 34.0339 8.07048 34.0074 8.01372 33.9808C 7.5702 33.7658 7.15968 33.5455 6.76632 33.3212C 6.67392 33.2681 6.57624 33.2163 6.48648 33.1619C 6.1446 32.9602 5.83308 32.7544 5.53476 32.5474C 5.42124 32.4677 5.30376 32.3894 5.19552 32.3085C 4.9434 32.1213 4.71768 31.9329 4.5012 31.7431C 4.38372 31.6395 4.26492 31.536 4.158 31.4298C 3.98112 31.2573 3.82536 31.0847 3.67884 30.9095C 3.57588 30.7874 3.47688 30.6653 3.38976 30.5419C 3.2736 30.3786 3.1746 30.2154 3.08484 30.0521C 3.01356 29.9207 2.9502 29.7893 2.89608 29.6579C 2.8314 29.4973 2.77992 29.3367 2.74296 29.1761C 2.69412 28.9651 2.64 28.7501 2.64 28.5364C 2.64 28.3864 2.65716 28.2364 2.68092 28.0877C 2.71392 27.8873 2.69544 27.6869 2.64 27.4971L 2.64 17.6434C 2.7984 17.7881 2.97924 17.9301 3.15084 18.0735C 3.24588 18.1531 3.33432 18.2327 3.43464 18.3124C 3.83064 18.6256 4.25832 18.9349 4.72164 19.2362C 4.818 19.2985 4.92624 19.3596 5.02656 19.422C 5.41464 19.6649 5.82516 19.9025 6.2568 20.1361C 6.41652 20.2223 6.57624 20.3073 6.74124 20.3922C 7.22304 20.6391 7.7286 20.8793 8.26056 21.1116C 8.34768 21.1501 8.42688 21.1899 8.51532 21.2271C 9.1344 21.4912 9.79176 21.7434 10.4755 21.9876C 10.6643 22.0553 10.8623 22.119 11.0563 22.1854C 11.6002 22.3699 12.1625 22.5464 12.7446 22.7176C 12.9545 22.7787 13.1604 22.8424 13.3756 22.9008C 14.1478 23.1158 14.945 23.3202 15.7819 23.5087C 15.8968 23.5352 16.0208 23.5564 16.137 23.5817C 16.8749 23.7436 17.6405 23.8936 18.4272 24.0343C 18.6938 24.082 18.9644 24.1272 19.2364 24.1723C 19.9848 24.2957 20.7557 24.4085 21.5464 24.5121C 21.7496 24.5386 21.9437 24.5691 22.1496 24.5944C 23.1317 24.7138 24.1481 24.816 25.1922 24.9036C 25.4496 24.9249 25.7176 24.9408 25.9789 24.9594C 26.8145 25.0204 27.6685 25.0709 28.5424 25.1107C 28.8605 25.1253 29.1773 25.1399 29.502 25.1518C 30.6398 25.1903 31.7988 25.2182 33 25.2182C 34.2012 25.2182 35.3602 25.1903 36.498 25.1518C 36.8214 25.1399 37.1382 25.1253 37.4576 25.1107C 38.3315 25.0709 39.1855 25.0204 40.0211 24.9594C 40.2824 24.9395 40.5491 24.9249 40.8078 24.9036C 41.8519 24.8173 42.8683 24.7138 43.8504 24.5944C 44.0563 24.5691 44.2504 24.5386 44.4536 24.5121C 45.2443 24.4085 46.0139 24.2957 46.7636 24.1723C 47.0356 24.1272 47.3062 24.082 47.5728 24.0343C 48.3595 23.8936 49.1251 23.7436 49.863 23.5817C 49.9792 23.5564 50.1032 23.5339 50.2181 23.5087C 51.055 23.3202 51.8522 23.1145 52.6244 22.9008C 52.8396 22.841 53.0455 22.7787 53.2554 22.7176C 53.8375 22.5464 54.3998 22.3699 54.9437 22.1854C 55.1377 22.119 55.3357 22.0553 55.5245 21.9876C 56.2082 21.7434 56.8669 21.4912 57.4847 21.2271C 57.5731 21.1899 57.6523 21.1501 57.7394 21.1116C 58.2714 20.878 58.777 20.6391 59.2588 20.3922C 59.4238 20.3073 59.5848 20.2223 59.7432 20.1361C 60.1748 19.9038 60.5854 19.6662 60.9734 19.422C 61.0738 19.3596 61.182 19.2985 61.2784 19.2362C 61.7417 18.9349 62.1694 18.6269 62.5654 18.3124C 62.6644 18.2327 62.7528 18.1531 62.8492 18.0735C 63.0208 17.9301 63.2016 17.7881 63.36 17.6434ZM 33 2.65455C 50.8926 2.65455 63.36 7.89993 63.36 12.6091C 63.36 17.3183 50.8926 22.5636 33 22.5636C 15.1074 22.5636 2.64 17.3183 2.64 12.6091C 2.64 7.89993 15.1074 2.65455 33 2.65455ZM 63.36 60.6603C 63.3415 60.7187 63.3283 60.7785 63.3178 60.8395C 62.5693 65.4306 50.2075 70.3455 33 70.3455C 15.7925 70.3455 3.43068 65.4306 2.68224 60.8395C 2.67168 60.7798 2.65716 60.7214 2.64 60.6657L 2.64 49.498C 2.67696 49.5325 2.72316 49.5657 2.76144 49.6002C 3.0492 49.855 3.34224 50.1085 3.67224 50.3527C 8.64468 54.1341 18.5882 57.0727 33 57.0727C 47.351 57.0727 57.2695 54.158 62.2631 50.3992C 62.6617 50.1072 63.0208 49.8059 63.3587 49.4993L 63.36 49.498L 63.36 60.6603Z"/>
<path id="path4_stroke" d="M 65.8073 11.2951L 64.3586 11.684L 64.4083 11.8694L 64.5032 12.0362L 65.8073 11.2951ZM 0.19272 11.2951L 1.49684 12.0362L 1.59175 11.8692L 1.64151 11.6837L 0.19272 11.2951ZM 0.15444 61.6531L 1.61304 61.3032L 1.56719 61.1121L 1.47367 60.9393L 0.15444 61.6531ZM 65.835 61.6969L 64.5242 60.9677L 64.4274 61.1416L 64.3794 61.3348L 65.835 61.6969ZM 63.2557 45.1074L 61.7949 44.7666L 61.7939 44.771L 63.2557 45.1074ZM 63.1026 45.5892L 64.4944 46.1484L 64.4956 46.1456L 63.1026 45.5892ZM 62.9138 45.9834L 61.5953 45.2681L 61.5949 45.2689L 62.9138 45.9834ZM 62.6089 46.4731L 61.3913 45.5969L 61.3834 45.6082L 62.6089 46.4731ZM 62.3198 46.8408L 61.1731 45.8739L 61.1728 45.8742L 62.3198 46.8408ZM 61.8407 47.3611L 60.7933 46.2873L 60.7904 46.2901L 61.8407 47.3611ZM 61.4975 47.6743L 62.4864 48.8022L 62.4901 48.7989L 61.4975 47.6743ZM 60.8032 48.2397L 59.9091 47.0353L 59.9047 47.0386L 60.8032 48.2397ZM 60.4639 48.4786L 59.6091 47.246L 59.6086 47.2464L 60.4639 48.4786ZM 59.5122 49.0932L 58.7499 47.8013L 58.7422 47.8059L 58.7346 47.8105L 59.5122 49.0932ZM 59.2324 49.2524L 58.493 47.9473L 58.4926 47.9475L 59.2324 49.2524ZM 57.985 49.9121L 57.3306 48.5623L 57.3238 48.5657L 57.985 49.9121ZM 57.8107 49.9931L 57.1872 48.6288L 57.1773 48.6333L 57.1676 48.6379L 57.8107 49.9931ZM 56.2452 50.6819L 55.6843 49.2907L 55.6749 49.2945L 55.6656 49.2984L 56.2452 50.6819ZM 56.1977 50.7005L 56.7567 52.0924L 56.767 52.0883L 56.7773 52.084L 56.1977 50.7005ZM 44.8972 53.5807L 45.0734 55.0703L 45.0955 55.0677L 45.1175 55.0644L 44.8972 53.5807ZM 44.8298 53.59L 45.0498 55.0737L 45.0709 55.0706L 45.0919 55.0669L 44.8298 53.59ZM 42.1555 53.9337L 42.3148 55.4253L 42.3199 55.4247L 42.1555 53.9337ZM 41.6988 53.9762L 41.855 55.468L 41.8567 55.4679L 41.6988 53.9762ZM 39.2608 54.1979L 39.3704 55.6938L 39.3706 55.6938L 39.2608 54.1979ZM 38.0952 54.2629L 38.1841 55.7603L 38.1877 55.76L 38.0952 54.2629ZM 36.2089 54.3638L 36.2564 55.863L 36.2616 55.8628L 36.2089 54.3638ZM 29.7898 54.3598L 29.8428 52.8607L 29.8425 52.8607L 29.7898 54.3598ZM 27.9035 54.2589L 27.8161 55.7564L 27.8177 55.7565L 27.9035 54.2589ZM 26.7379 54.1939L 26.6281 55.6898L 26.6282 55.6899L 26.7379 54.1939ZM 24.2999 53.9722L 24.142 55.4639L 24.1437 55.4641L 24.2999 53.9722ZM 23.8432 53.9297L 23.6787 55.4207L 23.6839 55.4213L 23.8432 53.9297ZM 21.1688 53.586L 21.3866 52.1019L 21.3658 52.0988L 21.3451 52.0964L 21.1688 53.586ZM 21.1015 53.5767L 21.3636 52.0998L 21.3428 52.0961L 21.3219 52.093L 21.1015 53.5767ZM 9.801 50.6965L 10.36 49.3046L 10.3193 49.2882L 10.2777 49.2743L 9.801 50.6965ZM 9.75348 50.6779L 10.3331 49.2944L 10.3238 49.2905L 10.3144 49.2867L 9.75348 50.6779ZM 8.18796 49.9891L 7.52678 51.3355L 7.53507 51.3396L 7.54341 51.3435L 8.18796 49.9891ZM 8.01372 49.9081L 7.35936 51.2579L 7.36878 51.2624L 7.37826 51.2669L 8.01372 49.9081ZM 6.76632 49.2485L 6.01902 50.5491L 6.02328 50.5515L 6.76632 49.2485ZM 6.48648 49.0892L 7.26412 47.8065L 7.25649 47.8019L 7.24881 47.7973L 6.48648 49.0892ZM 5.53476 48.4747L 4.6733 49.7026L 4.67948 49.7069L 5.53476 48.4747ZM 5.19552 48.2357L 6.09399 47.0346L 6.08956 47.0313L 5.19552 48.2357ZM 4.5012 47.6703L 3.50947 48.7957L 3.51232 48.7982L 4.5012 47.6703ZM 4.158 47.3571L 5.21502 46.2927L 5.20542 46.2834L 4.158 47.3571ZM 3.67884 46.8368L 4.8295 45.8745L 4.8256 45.8699L 3.67884 46.8368ZM 3.38976 46.4691L 4.61527 45.6042L 4.61195 45.5995L 3.38976 46.4691ZM 3.08484 45.9794L 1.76632 46.6946L 1.77041 46.7021L 3.08484 45.9794ZM 2.89608 45.5852L 1.50464 46.1456L 1.50911 46.1564L 2.89608 45.5852ZM 2.74296 45.1034L 4.20475 44.767L 4.20434 44.7652L 2.74296 45.1034ZM 2.68092 44.015L 1.20083 43.7713L 1.19972 43.7783L 2.68092 44.015ZM 2.64 43.4244L 1.14 43.4244L 1.14 43.639L 1.20017 43.845L 2.64 43.4244ZM 2.64 33.5707L 3.66368 32.4743L 1.14 30.118L 1.14 33.5707L 2.64 33.5707ZM 2.76144 33.6729L 1.75704 34.7871L 1.76697 34.7959L 2.76144 33.6729ZM 3.67224 34.4255L 4.58022 33.2315L 4.57242 33.2256L 4.56455 33.2197L 3.67224 34.4255ZM 62.2631 34.4719L 61.3767 33.2618L 61.3688 33.2676L 61.361 33.2735L 62.2631 34.4719ZM 63.3587 33.572L 64.3666 34.6829L 64.3956 34.6566L 64.4233 34.6288L 63.3587 33.572ZM 63.36 33.5707L 64.86 33.5707L 64.86 29.9304L 62.2954 32.514L 63.36 33.5707ZM 63.36 43.4244L 64.7998 43.845L 64.86 43.639L 64.86 43.4244L 63.36 43.4244ZM 63.3191 44.015L 61.839 44.2587L 61.84 44.2646L 63.3191 44.015ZM 63.36 44.4636L 61.86 44.4636L 63.36 44.4636ZM 63.36 17.6434L 64.86 17.6434L 64.86 14.2419L 62.3484 16.5359L 63.36 17.6434ZM 63.36 27.4971L 64.7998 27.9177L 64.86 27.7117L 64.86 27.4971L 63.36 27.4971ZM 63.3191 28.0877L 61.839 28.3314L 61.84 28.3373L 63.3191 28.0877ZM 63.2557 29.1801L 61.7949 28.8393L 61.7939 28.8437L 63.2557 29.1801ZM 63.1026 29.6619L 64.4944 30.2212L 64.4956 30.2183L 63.1026 29.6619ZM 62.9138 30.0561L 61.5953 29.3409L 61.5949 29.3416L 62.9138 30.0561ZM 62.6089 30.5459L 61.3913 29.6697L 61.3834 29.6809L 62.6089 30.5459ZM 62.3198 30.9135L 61.1731 29.9466L 61.1728 29.9469L 62.3198 30.9135ZM 61.8407 31.4338L 60.7933 30.3601L 60.7904 30.3628L 61.8407 31.4338ZM 61.4975 31.747L 62.4864 32.8749L 62.4901 32.8716L 61.4975 31.747ZM 60.8032 32.3125L 59.9091 31.108L 59.9047 31.1113L 60.8032 32.3125ZM 60.4639 32.5514L 59.6091 31.3187L 59.6086 31.3191L 60.4639 32.5514ZM 59.5122 33.1659L 58.7499 31.874L 58.7422 31.8786L 58.7346 31.8832L 59.5122 33.1659ZM 59.2324 33.3252L 58.493 32.02L 58.4926 32.0202L 59.2324 33.3252ZM 57.985 33.9848L 57.3306 32.6351L 57.3238 32.6384L 57.985 33.9848ZM 57.8107 34.0658L 57.1872 32.7015L 57.1773 32.706L 57.1676 32.7107L 57.8107 34.0658ZM 56.2452 34.7546L 55.6843 33.3634L 55.6749 33.3672L 55.6656 33.3712L 56.2452 34.7546ZM 56.1977 34.7732L 56.7567 36.1652L 56.767 36.161L 56.7773 36.1567L 56.1977 34.7732ZM 44.8972 37.6534L 45.0734 39.143L 45.0955 39.1404L 45.1175 39.1371L 44.8972 37.6534ZM 44.8298 37.6627L 45.0498 39.1465L 45.0709 39.1433L 45.0919 39.1396L 44.8298 37.6627ZM 42.1555 38.0065L 42.3148 39.498L 42.3199 39.4974L 42.1555 38.0065ZM 41.6988 38.0489L 41.855 39.5408L 41.8567 39.5406L 41.6988 38.0489ZM 39.2608 38.2706L 39.3704 39.7666L 39.3706 39.7666L 39.2608 38.2706ZM 38.0952 38.3356L 38.1841 39.833L 38.1877 39.8328L 38.0952 38.3356ZM 36.2089 38.4365L 36.2564 39.9357L 36.2616 39.9356L 36.2089 38.4365ZM 29.7898 38.4325L 29.8428 36.9334L 29.8425 36.9334L 29.7898 38.4325ZM 27.9035 38.3316L 27.8161 39.8291L 27.8177 39.8292L 27.9035 38.3316ZM 26.7379 38.2666L 26.6281 39.7626L 26.6282 39.7626L 26.7379 38.2666ZM 24.2999 38.0449L 24.142 39.5366L 24.1437 39.5368L 24.2999 38.0449ZM 23.8432 38.0025L 23.6787 39.4934L 23.6839 39.494L 23.8432 38.0025ZM 21.1688 37.6587L 21.3866 36.1746L 21.3658 36.1716L 21.3451 36.1691L 21.1688 37.6587ZM 21.1015 37.6494L 21.3636 36.1725L 21.3428 36.1688L 21.3219 36.1657L 21.1015 37.6494ZM 9.801 34.7692L 10.36 33.3773L 10.3193 33.3609L 10.2777 33.347L 9.801 34.7692ZM 9.75348 34.7507L 10.3331 33.3672L 10.3238 33.3633L 10.3144 33.3595L 9.75348 34.7507ZM 8.18796 34.0618L 7.52678 35.4082L 7.53507 35.4123L 7.54341 35.4163L 8.18796 34.0618ZM 8.01372 33.9808L 7.35936 35.3306L 7.36878 35.3351L 7.37826 35.3396L 8.01372 33.9808ZM 6.76632 33.3212L 6.01902 34.6218L 6.02328 34.6242L 6.76632 33.3212ZM 6.48648 33.1619L 7.26412 31.8792L 7.25649 31.8746L 7.24881 31.8701L 6.48648 33.1619ZM 5.53476 32.5474L 4.6733 33.7754L 4.67948 33.7797L 5.53476 32.5474ZM 5.19552 32.3085L 6.09399 31.1073L 6.08956 31.104L 5.19552 32.3085ZM 4.5012 31.7431L 3.50947 32.8684L 3.51232 32.8709L 4.5012 31.7431ZM 4.158 31.4298L 5.21502 30.3654L 5.20542 30.3561L 4.158 31.4298ZM 3.67884 30.9095L 4.8295 29.9472L 4.8256 29.9426L 3.67884 30.9095ZM 3.38976 30.5419L 4.61527 29.6769L 4.61195 29.6722L 3.38976 30.5419ZM 3.08484 30.0521L 1.76632 30.7674L 1.77041 30.7748L 3.08484 30.0521ZM 2.89608 29.6579L 1.50464 30.2183L 1.50911 30.2292L 2.89608 29.6579ZM 2.74296 29.1761L 4.20475 28.8397L 4.20434 28.8379L 2.74296 29.1761ZM 2.68092 28.0877L 1.20083 27.844L 1.19972 27.851L 2.68092 28.0877ZM 2.64 27.4971L 1.14 27.4971L 1.14 27.7117L 1.20017 27.9177L 2.64 27.4971ZM 2.64 17.6434L 3.65158 16.5359L 1.14 14.2419L 1.14 17.6434L 2.64 17.6434ZM 3.15084 18.0735L 4.11423 16.9237L 4.11248 16.9223L 3.15084 18.0735ZM 3.43464 18.3124L 2.50203 19.4872L 2.50407 19.4888L 3.43464 18.3124ZM 4.72164 19.2362L 3.9039 20.4937L 3.90648 20.4953L 4.72164 19.2362ZM 5.02656 19.422L 5.82236 18.1505L 5.81865 18.1482L 5.02656 19.422ZM 6.2568 20.1361L 5.54286 21.4553L 5.54392 21.4558L 6.2568 20.1361ZM 6.74124 20.3922L 6.05465 21.7259L 6.05721 21.7272L 6.74124 20.3922ZM 8.26056 21.1116L 8.86676 19.7395L 8.86079 19.7369L 8.26056 21.1116ZM 8.51532 21.2271L 9.10396 19.8474L 9.09642 19.8442L 8.51532 21.2271ZM 10.4755 21.9876L 10.9819 20.5756L 10.9801 20.575L 10.4755 21.9876ZM 11.0563 22.1854L 10.5709 23.6047L 10.5744 23.6059L 11.0563 22.1854ZM 12.7446 22.7176L 12.3213 24.1566L 12.3256 24.1579L 12.7446 22.7176ZM 13.3756 22.9008L 13.7779 21.4557L 13.7685 21.4531L 13.3756 22.9008ZM 15.7819 23.5087L 16.1197 22.0472L 16.1115 22.0453L 15.7819 23.5087ZM 16.137 23.5817L 16.4585 22.1165L 16.4552 22.1158L 16.137 23.5817ZM 18.4272 24.0343L 18.6918 22.5578L 18.6913 22.5577L 18.4272 24.0343ZM 19.2364 24.1723L 18.9908 25.6521L 18.9923 25.6523L 19.2364 24.1723ZM 21.5464 24.5121L 21.3516 25.9994L 21.3521 25.9994L 21.5464 24.5121ZM 22.1496 24.5944L 21.9673 26.0832L 21.9685 26.0834L 22.1496 24.5944ZM 25.1922 24.9036L 25.0668 26.3984L 25.0689 26.3985L 25.1922 24.9036ZM 25.9789 24.9594L 26.0882 23.4634L 26.0853 23.4631L 25.9789 24.9594ZM 28.5424 25.1107L 28.6111 23.6123L 28.6106 23.6122L 28.5424 25.1107ZM 29.502 25.1518L 29.4469 26.6508L 29.4513 26.651L 29.502 25.1518ZM 36.498 25.1518L 36.5487 26.651L 36.5534 26.6508L 36.498 25.1518ZM 37.4576 25.1107L 37.3894 23.6122L 37.3892 23.6122L 37.4576 25.1107ZM 40.0211 24.9594L 40.1304 26.4554L 40.135 26.455L 40.0211 24.9594ZM 40.8078 24.9036L 40.9305 26.3986L 40.9313 26.3985L 40.8078 24.9036ZM 43.8504 24.5944L 44.0315 26.0834L 44.0327 26.0832L 43.8504 24.5944ZM 44.4536 24.5121L 44.6479 25.9994L 44.6484 25.9994L 44.4536 24.5121ZM 46.7636 24.1723L 47.0073 25.6524L 47.0092 25.6521L 46.7636 24.1723ZM 47.5728 24.0343L 47.3087 22.5577L 47.3082 22.5578L 47.5728 24.0343ZM 49.863 23.5817L 49.5448 22.1158L 49.5415 22.1165L 49.863 23.5817ZM 50.2181 23.5087L 50.5398 24.9738L 50.5476 24.972L 50.2181 23.5087ZM 52.6244 22.9008L 53.0245 24.3464L 53.0257 24.3461L 52.6244 22.9008ZM 53.2554 22.7176L 53.6744 24.1579L 53.6787 24.1566L 53.2554 22.7176ZM 54.9437 22.1854L 55.4256 23.6059L 55.4291 23.6047L 54.9437 22.1854ZM 55.5245 21.9876L 55.0199 20.575L 55.0181 20.5756L 55.5245 21.9876ZM 57.4847 21.2271L 56.9036 19.8442L 56.895 19.8478L 57.4847 21.2271ZM 57.7394 21.1116L 57.1363 19.7382L 57.1332 19.7395L 57.7394 21.1116ZM 59.2588 20.3922L 59.9428 21.7272L 59.9453 21.7259L 59.2588 20.3922ZM 59.7432 20.1361L 59.0324 18.8151L 59.0257 18.8188L 59.7432 20.1361ZM 60.9734 19.422L 60.1813 18.1482L 60.1745 18.1524L 60.9734 19.422ZM 61.2784 19.2362L 62.0935 20.4953L 62.0961 20.4937L 61.2784 19.2362ZM 62.5654 18.3124L 63.4984 19.4869L 63.5055 19.4812L 62.5654 18.3124ZM 62.8492 18.0735L 63.8047 19.2297L 63.8108 19.2247L 62.8492 18.0735ZM 63.3178 60.8395L 61.8397 60.5839L 61.8385 60.591L 61.8373 60.5982L 63.3178 60.8395ZM 2.68224 60.8395L 4.1627 60.5982L 4.16108 60.5883L 4.15933 60.5784L 2.68224 60.8395ZM 2.64 60.6657L 1.14 60.6657L 1.14 60.8913L 1.20639 61.107L 2.64 60.6657ZM 2.64 49.498L 3.66368 48.4016L 1.14 46.0453L 1.14 49.498L 2.64 49.498ZM 2.76144 49.6002L 1.75704 50.7143L 1.76697 50.7231L 2.76144 49.6002ZM 3.67224 50.3527L 4.58022 49.1588L 4.57242 49.1528L 4.56455 49.147L 3.67224 50.3527ZM 62.2631 50.3992L 61.3767 49.1891L 61.3688 49.1949L 61.361 49.2008L 62.2631 50.3992ZM 63.3587 49.4993L 64.3666 50.6102L 64.3951 50.5843L 64.4222 50.557L 63.3587 49.4993ZM 63.36 49.498L 64.86 49.498L 64.86 45.8625L 62.2964 48.4402L 63.36 49.498ZM 67.256 10.9062C 66.296 7.32999 62.4614 4.26497 56.8293 2.11124C 51.1724 -0.044895 43.0835 -1.49412 33 -1.5L 33 1.5C 42.8181 1.49412 50.3686 2.84544 55.7578 4.91335C 61.1718 6.98366 63.79 9.56619 64.3586 11.684L 67.256 10.9062ZM 33 -1.5C 22.9165 -1.49412 14.8273 -0.0448985 9.17021 2.11124C 3.53805 4.26492 -0.296784 7.32999 -1.25607 10.9065L 1.64151 11.6837C 2.20946 9.56619 4.82745 6.98372 10.2417 4.91336C 15.631 2.84544 23.1819 1.49412 33 1.5L 33 -1.5ZM -1.1114 10.554C -1.27448 10.8496 -1.47499 11.4311 -1.5 11.9455L 1.5 11.9455C 1.5 11.9975 1.49067 12.0372 1.48434 12.0571C 1.47904 12.0738 1.47833 12.0688 1.49684 12.0362L -1.1114 10.554ZM -1.5 11.9455L -1.5 12.6091L 1.5 12.6091L 1.5 11.9455L -1.5 11.9455ZM -1.5 12.6091L -1.5 27.8727L 1.5 27.8727L 1.5 12.6091L -1.5 12.6091ZM -1.5 27.8727L -1.5 28.5364L 1.5 28.5364L 1.5 27.8727L -1.5 27.8727ZM -1.5 28.5364L -1.5 29.2L 1.5 29.2L 1.5 28.5364L -1.5 28.5364ZM -1.5 29.2L -1.5 43.8L 1.5 43.8L 1.5 29.2L -1.5 29.2ZM -1.5 43.8L -1.5 44.4636L 1.5 44.4636L 1.5 43.8L -1.5 43.8ZM -1.5 44.4636L -1.5 45.1273L 1.5 45.1273L 1.5 44.4636L -1.5 44.4636ZM -1.5 45.1273L -1.5 61.0545L 1.5 61.0545L 1.5 45.1273L -1.5 45.1273ZM -1.5 61.0545C -1.48609 61.4733 -1.33384 62.035 -1.16479 62.367L 1.47367 60.9393C 1.48504 60.9603 1.5 61.0009 1.5 61.0545L -1.5 61.0545ZM -1.30416 62.0031C -0.804724 64.0846 0.643297 65.8733 2.59736 67.3606C 4.51051 68.8085 7.15307 70.1332 10.1688 71.1804C 16.1469 73.2433 24.215 74.4956 33 74.5L 33 71.5C 24.4455 71.5044 16.8702 70.3318 11.1501 68.3455C 8.31684 67.3681 6.0966 66.2621 4.41435 64.9734C 2.77303 63.7241 1.89306 62.4702 1.61304 61.3032L -1.30416 62.0031ZM 33 74.5C 41.7649 74.4956 49.8168 73.2485 55.7903 71.1939C 58.8036 70.1509 61.4458 68.8321 63.3628 67.3902C 65.3202 65.9098 66.7754 64.1303 67.2906 62.0591L 64.3794 61.3348C 64.0894 62.5002 63.2001 63.7518 61.5531 64.9975C 59.8657 66.2819 57.6435 67.3843 54.8118 68.3579C 49.0954 70.3365 41.535 71.5044 33 71.5L 33 74.5ZM 67.1458 62.4262C 67.3301 62.0723 67.4869 61.4862 67.5 61.0545L 64.5 61.0545C 64.5 61.0309 64.5067 60.9991 64.5242 60.9677L 67.1458 62.4262ZM 67.5 61.0545L 67.5 45.1273L 64.5 45.1273L 64.5 61.0545L 67.5 61.0545ZM 67.5 45.1273L 67.5 44.4636L 64.5 44.4636L 64.5 45.1273L 67.5 45.1273ZM 67.5 44.4636L 67.5 43.8L 64.5 43.8L 64.5 44.4636L 67.5 44.4636ZM 67.5 43.8L 67.5 29.2L 64.5 29.2L 64.5 43.8L 67.5 43.8ZM 67.5 29.2L 67.5 28.5364L 64.5 28.5364L 64.5 29.2L 67.5 29.2ZM 67.5 28.5364L 67.5 27.8727L 64.5 27.8727L 64.5 28.5364L 67.5 28.5364ZM 67.5 27.8727L 67.5 12.6091L 64.5 12.6091L 64.5 27.8727L 67.5 27.8727ZM 67.5 12.6091L 67.5 11.9455L 64.5 11.9455L 64.5 12.6091L 67.5 12.6091ZM 67.5 11.9455C 67.475 11.4311 67.2745 10.8496 67.1114 10.554L 64.5032 12.0362C 64.5217 12.0688 64.521 12.0738 64.5157 12.0571C 64.5093 12.0372 64.5 11.9975 64.5 11.9455L 67.5 11.9455ZM 61.7939 44.771C 61.7729 44.8687 61.7563 44.9181 61.7096 45.0328L 64.4956 46.1456C 64.5782 45.9364 64.6646 45.6672 64.7175 45.4438L 61.7939 44.771ZM 61.7108 45.0299C 61.68 45.1093 61.6527 45.163 61.5953 45.2681L 64.2323 46.6986C 64.3175 46.541 64.4196 46.3319 64.4944 46.1484L 61.7108 45.0299ZM 61.5949 45.2689C 61.5243 45.4003 61.4754 45.4823 61.3914 45.597L 63.8264 47.3493C 63.9774 47.1375 64.1265 46.893 64.2327 46.6979L 61.5949 45.2689ZM 61.3834 45.6082C 61.3258 45.6913 61.2668 45.7628 61.1731 45.8739L 63.4666 47.8077C 63.5788 47.6745 63.7178 47.5019 63.8344 47.3381L 61.3834 45.6082ZM 61.1728 45.8742C 61.0411 46.0308 60.9346 46.1506 60.7933 46.2873L 62.8881 48.4348C 63.1005 48.2264 63.3056 47.9985 63.4669 47.8074L 61.1728 45.8742ZM 60.7904 46.2901C 60.7124 46.3674 60.6241 46.4445 60.5049 46.5497L 62.4901 48.7989C 62.6084 48.6944 62.7551 48.5645 62.8909 48.432L 60.7904 46.2901ZM 60.5086 46.5464C 60.3058 46.7244 60.1272 46.8742 59.9091 47.0353L 61.6972 49.4442C 61.9834 49.231 62.2562 49.0038 62.4864 48.8022L 60.5086 46.5464ZM 59.9047 47.0386C 59.8262 47.0979 59.7321 47.1608 59.6091 47.246L 61.3187 49.7113C 61.4254 49.6372 61.5637 49.5435 61.7016 49.4409L 59.9047 47.0386ZM 59.6086 47.2464C 59.3246 47.4436 59.0594 47.6192 58.7499 47.8013L 60.2745 50.385C 60.6488 50.1636 61.0066 49.9278 61.3192 49.7109L 59.6086 47.2464ZM 58.7346 47.8105C 58.6784 47.8451 58.6014 47.886 58.493 47.9473L 59.9717 50.5576C 60.0507 50.5127 60.1665 50.4501 60.2898 50.3758L 58.7346 47.8105ZM 58.4926 47.9475C 58.1128 48.1629 57.7448 48.3619 57.3306 48.5623L 58.6393 51.2618C 59.1121 51.0322 59.5652 50.7879 59.9721 50.5574L 58.4926 47.9475ZM 57.3238 48.5657C 57.2915 48.5818 57.251 48.5996 57.1872 48.6288L 58.4343 51.3573C 58.4866 51.3334 58.5649 51.2981 58.6461 51.2585L 57.3238 48.5657ZM 57.1676 48.6379C 56.6884 48.8654 56.2121 49.0782 55.6843 49.2907L 56.8061 52.0731C 57.3845 51.8396 57.943 51.5905 58.4539 51.3482L 57.1676 48.6379ZM 55.6656 49.2984C 55.6778 49.2933 55.687 49.2897 55.6913 49.288C 55.6948 49.2867 55.6972 49.2858 55.6922 49.2877C 55.6893 49.2888 55.6789 49.2927 55.6675 49.2971C 55.6554 49.3018 55.6382 49.3086 55.6181 49.317L 56.7773 52.084C 56.7651 52.0891 56.7558 52.0927 56.7516 52.0944C 56.7481 52.0957 56.7457 52.0966 56.7507 52.0947C 56.7536 52.0936 56.764 52.0897 56.7754 52.0853C 56.7875 52.0806 56.8047 52.0738 56.8248 52.0654L 55.6656 49.2984ZM 55.6387 49.3085C 52.7281 50.4805 49.0632 51.4478 44.6768 52.0969L 45.1175 55.0644C 49.6675 54.3863 53.6719 53.3282 56.7567 52.0924L 55.6387 49.3085ZM 44.7209 52.0911C 44.6985 52.0937 44.633 52.1021 44.5678 52.113L 45.0919 55.0669C 45.0754 55.0698 45.064 55.0714 45.0614 55.0717C 45.0599 55.0719 45.0598 55.0719 45.062 55.0716C 45.0644 55.0713 45.0673 55.071 45.0734 55.0703L 44.7209 52.0911ZM 44.6099 52.1062C 43.756 52.2328 42.8928 52.3434 41.9911 52.4428L 42.3199 55.4247C 43.2478 55.3223 44.1666 55.2046 45.0498 55.0737L 44.6099 52.1062ZM 41.9963 52.4422C 41.8761 52.4553 41.7197 52.4659 41.5409 52.4845L 41.8567 55.4679C 41.9788 55.4547 42.1366 55.444 42.3148 55.4252L 41.9963 52.4422ZM 41.5426 52.4844C 40.7509 52.5673 39.9663 52.6421 39.1509 52.7019L 39.3706 55.6938C 40.2184 55.6315 41.0494 55.5524 41.855 55.468L 41.5426 52.4844ZM 39.1511 52.7019C 38.8008 52.7279 38.4108 52.7407 38.0027 52.7657L 38.1877 55.76C 38.5532 55.7373 38.9604 55.7236 39.3704 55.6938L 39.1511 52.7019ZM 38.0063 52.7655C 37.3753 52.803 36.7743 52.8431 36.1562 52.8647L 36.2616 55.8628C 36.9265 55.8393 37.5637 55.7971 38.1841 55.7603L 38.0063 52.7655ZM 36.1615 52.8645C 35.1222 52.8974 34.0767 52.9183 33 52.9182L 33 55.9182C 34.1065 55.9181 35.1995 55.8964 36.2564 55.863L 36.1615 52.8645ZM 33 52.9182C 31.9233 52.9183 30.8806 52.8975 29.8428 52.8607L 29.7367 55.8588C 30.7977 55.8964 31.8935 55.9181 33 55.9182L 33 52.9182ZM 29.8425 52.8607C 29.2259 52.8392 28.6234 52.7977 27.9893 52.7614L 27.8177 55.7565C 28.4349 55.7918 29.0705 55.8352 29.737 55.8589L 29.8425 52.8607ZM 27.9908 52.7615C 27.5879 52.738 27.2004 52.724 26.8476 52.6979L 26.6282 55.6899C 27.0358 55.7195 27.4456 55.7347 27.8161 55.7564L 27.9908 52.7615ZM 26.8478 52.6979C 26.0324 52.6381 25.2477 52.5633 24.4561 52.4804L 24.1437 55.4641C 24.9492 55.5484 25.7803 55.6275 26.6281 55.6898L 26.8478 52.6979ZM 24.4578 52.4806C 24.279 52.4619 24.1226 52.4513 24.0024 52.4382L 23.6839 55.4213C 23.8621 55.44 24.0198 55.4507 24.142 55.4639L 24.4578 52.4806ZM 24.0076 52.4388C 23.107 52.3395 22.2427 52.2275 21.3866 52.1019L 20.9511 55.0701C 21.8321 55.1993 22.7498 55.3182 23.6787 55.4207L 24.0076 52.4388ZM 21.3451 52.0964C 21.339 52.0957 21.3361 52.0953 21.3336 52.095C 21.3315 52.0947 21.3316 52.0948 21.3331 52.0949C 21.3357 52.0953 21.3471 52.0968 21.3636 52.0998L 20.8394 55.0536C 20.9047 55.0646 20.9702 55.0729 20.9926 55.0756L 21.3451 52.0964ZM 21.3219 52.093C 16.9355 51.4438 13.2706 50.4765 10.36 49.3046L 9.24201 52.0885C 12.3268 53.3242 16.3312 54.3823 20.8812 55.0604L 21.3219 52.093ZM 10.2777 49.2743C 10.3045 49.2832 10.324 49.2909 10.3319 49.294C 10.3386 49.2967 10.3432 49.2987 10.3331 49.2944L 9.17385 52.0614C 9.1897 52.0681 9.25665 52.095 9.32431 52.1187L 10.2777 49.2743ZM 10.3144 49.2867C 9.78596 49.074 9.30899 48.8615 8.83251 48.6346L 7.54341 51.3435C 8.05429 51.5865 8.61484 51.8359 9.1926 52.0691L 10.3144 49.2867ZM 8.84914 48.6427C 8.76233 48.6004 8.68865 48.568 8.64918 48.5494L 7.37826 51.2669C 7.45231 51.3014 7.50007 51.322 7.52678 51.3355L 8.84914 48.6427ZM 8.66808 48.5584C 8.2522 48.3571 7.88594 48.1603 7.50936 47.9454L 6.02328 50.5515C 6.43342 50.7852 6.8882 51.0291 7.35936 51.2579L 8.66808 48.5584ZM 7.51361 47.9479C 7.39885 47.8822 7.31655 47.839 7.26412 47.8065L 5.70884 50.3719C 5.83593 50.4482 5.94899 50.5086 6.01903 50.549L 7.51361 47.9479ZM 7.24881 47.7973C 6.93932 47.6153 6.67408 47.4396 6.39004 47.2424L 4.67948 49.7069C 4.99208 49.9238 5.34988 50.1596 5.72415 50.381L 7.24881 47.7973ZM 6.3962 47.2467C 6.26801 47.1569 6.1693 47.0916 6.09398 47.0346L 4.29706 49.4369C 4.43822 49.5418 4.57447 49.6332 4.67332 49.7026L 6.3962 47.2467ZM 6.08956 47.0313C 5.8715 46.8702 5.69289 46.7204 5.49008 46.5424L 3.51232 48.7982C 3.74247 48.9999 4.0153 49.227 4.30148 49.4402L 6.08956 47.0313ZM 5.49292 46.5449C 5.37232 46.4387 5.28669 46.3651 5.21498 46.2928L 3.10102 48.4214C 3.24315 48.5614 3.39512 48.6949 3.50948 48.7957L 5.49292 46.5449ZM 5.20542 46.2834C 5.0621 46.1446 4.95761 46.0281 4.82949 45.8745L 2.52819 47.7991C 2.69311 47.9959 2.90014 48.2245 3.11058 48.4308L 5.20542 46.2834ZM 4.8256 45.8699C 4.73189 45.7588 4.67287 45.6873 4.61527 45.6042L 2.16425 47.3341C 2.28089 47.4979 2.41987 47.6705 2.53208 47.8037L 4.8256 45.8699ZM 4.61195 45.5995C 4.52684 45.4816 4.47341 45.3922 4.39927 45.2567L 1.77041 46.7021C 1.87579 46.893 2.02036 47.1301 2.16757 47.3388L 4.61195 45.5995ZM 4.40334 45.2641C 4.34875 45.1644 4.31983 45.1049 4.28304 45.0139L 1.50911 46.1564C 1.58057 46.3282 1.67837 46.5316 1.76634 46.6946L 4.40334 45.2641ZM 4.28748 45.0248C 4.24224 44.9151 4.2263 44.8665 4.20475 44.767L 1.28117 45.4398C 1.33354 45.6615 1.42056 45.934 1.50468 46.1456L 4.28748 45.0248ZM 4.20434 44.7652C 4.17507 44.6387 4.16017 44.5771 4.14846 44.5134C 4.13586 44.4481 4.14296 44.4509 4.14 44.4636L 1.14 44.4636C 1.15139 44.8618 1.23605 45.2445 1.28158 45.4416L 4.20434 44.7652ZM 4.14 44.4636C 4.13757 44.399 4.14327 44.3673 4.16212 44.2518L 1.19972 43.7783C 1.17105 43.96 1.14243 44.2283 1.14 44.4636L 4.14 44.4636ZM 4.16099 44.2587C 4.21297 43.868 4.16899 43.3337 4.07983 43.0038L 1.20017 43.845C 1.2012 43.8485 1.19269 43.8209 1.20085 43.7713L 4.16099 44.2587ZM 4.14 43.4244L 4.14 33.5707L 1.14 33.5707L 1.14 43.4244L 4.14 43.4244ZM 1.61632 34.6671C 1.67983 34.7264 1.74115 34.7753 1.75778 34.7888C 1.76938 34.7981 1.77341 34.8013 1.77612 34.8036C 1.77709 34.8044 1.76928 34.798 1.75708 34.787L 3.7658 32.5588C 3.73446 32.5305 3.70652 32.5071 3.68691 32.4909C 3.66904 32.4761 3.65202 32.4624 3.64267 32.4548C 3.63331 32.4473 3.63351 32.4474 3.63374 32.4476C 3.63609 32.4496 3.64752 32.4592 3.66368 32.4743L 1.61632 34.6671ZM 1.76697 34.7959C 2.06126 35.0564 2.40472 35.3522 2.77993 35.6312L 4.56455 33.2197C 4.27976 33.0103 4.03714 32.799 3.75591 32.55L 1.76697 34.7959ZM 2.76426 35.6194C 8.12105 39.6931 18.4592 42.6455 33 42.6455L 33 39.6455C 18.7173 39.6455 9.16831 36.7206 4.58022 33.2315L 2.76426 35.6194ZM 33 42.6455C 47.4809 42.6455 57.7897 39.7166 63.1652 35.6704L 61.361 33.2735C 56.7493 36.7449 47.2212 39.6455 33 39.6455L 33 42.6455ZM 63.1495 35.682C 63.5875 35.3601 64.007 35.0088 64.3666 34.6829L 62.3508 32.4611C 62.0345 32.7485 61.7359 32.9997 61.3767 33.2618L 63.1495 35.682ZM 64.4233 34.6288L 64.4246 34.6274L 62.2954 32.514L 62.2941 32.5153L 64.4233 34.6288ZM 61.86 33.5707L 61.86 43.4244L 64.86 43.4244L 64.86 33.5707L 61.86 33.5707ZM 61.9202 43.0038C 61.831 43.3337 61.787 43.868 61.839 44.2587L 64.7992 43.7713C 64.8073 43.8208 64.7988 43.8485 64.7998 43.845L 61.9202 43.0038ZM 61.84 44.2646C 61.858 44.3673 61.8621 44.3925 61.86 44.4636L 64.86 44.4636C 64.8579 44.2348 64.8303 43.96 64.7982 43.7655L 61.84 44.2646ZM 61.86 44.4636C 61.857 44.4509 61.8642 44.4476 61.8516 44.5129C 61.8398 44.5764 61.8246 44.6394 61.7949 44.7666L 64.7165 45.4481C 64.7636 45.2458 64.8486 44.8618 64.86 44.4636L 61.86 44.4636ZM 61.86 17.6434L 61.86 27.4971L 64.86 27.4971L 64.86 17.6434L 61.86 17.6434ZM 61.9202 27.0765C 61.831 27.4065 61.787 27.9408 61.839 28.3314L 64.7992 27.844C 64.8073 27.8936 64.7988 27.9212 64.7998 27.9177L 61.9202 27.0765ZM 61.84 28.3373C 61.858 28.44 61.8621 28.4653 61.86 28.5364L 64.86 28.5364C 64.8579 28.3075 64.8303 28.0328 64.7982 27.8382L 61.84 28.3373ZM 61.86 28.5364C 61.857 28.5236 61.8642 28.5203 61.8516 28.5856C 61.8398 28.6492 61.8246 28.7122 61.7949 28.8393L 64.7165 29.5209C 64.7636 29.3185 64.8486 28.9345 64.86 28.5364L 61.86 28.5364ZM 61.7939 28.8437C 61.7729 28.9414 61.7563 28.9908 61.7096 29.1055L 64.4956 30.2183C 64.5782 30.0091 64.6646 29.7399 64.7175 29.5165L 61.7939 28.8437ZM 61.7108 29.1026C 61.68 29.182 61.6527 29.2357 61.5953 29.3409L 64.2323 30.7713C 64.3175 30.6137 64.4196 30.4046 64.4944 30.2212L 61.7108 29.1026ZM 61.5949 29.3416C 61.5243 29.473 61.4754 29.555 61.3914 29.6697L 63.8264 31.422C 63.9774 31.2102 64.1265 30.9657 64.2327 30.7706L 61.5949 29.3416ZM 61.3834 29.6809C 61.3258 29.764 61.2668 29.8356 61.1731 29.9466L 63.4666 31.8804C 63.5788 31.7472 63.7178 31.5746 63.8344 31.4108L 61.3834 29.6809ZM 61.1728 29.9469C 61.041 30.1035 60.9346 30.2234 60.7933 30.3601L 62.8881 32.5075C 63.1005 32.2992 63.3056 32.0712 63.4669 31.8801L 61.1728 29.9469ZM 60.7904 30.3628C 60.7124 30.4401 60.6241 30.5172 60.5049 30.6224L 62.4901 32.8716C 62.6084 32.7672 62.7551 32.6372 62.8909 32.5048L 60.7904 30.3628ZM 60.5086 30.6192C 60.3058 30.7971 60.1272 30.9469 59.9091 31.108L 61.6972 33.5169C 61.9834 33.3037 62.2562 33.0766 62.4864 32.8749L 60.5086 30.6192ZM 59.9047 31.1113C 59.8262 31.1706 59.7321 31.2335 59.6091 31.3187L 61.3187 33.784C 61.4254 33.7099 61.5637 33.6162 61.7016 33.5136L 59.9047 31.1113ZM 59.6086 31.3191C 59.3246 31.5164 59.0594 31.692 58.7499 31.874L 60.2745 34.4577C 60.6488 34.2363 61.0066 34.0005 61.3192 33.7836L 59.6086 31.3191ZM 58.7346 31.8832C 58.6784 31.9178 58.6014 31.9587 58.493 32.02L 59.9717 34.6303C 60.0507 34.5854 60.1664 34.5228 60.2898 34.4486L 58.7346 31.8832ZM 58.4926 32.0202C 58.1128 32.2357 57.7448 32.4347 57.3306 32.6351L 58.6393 35.3346C 59.1122 35.1049 59.5652 34.8606 59.9721 34.6301L 58.4926 32.0202ZM 57.3238 32.6384C 57.2915 32.6545 57.251 32.6724 57.1872 32.7015L 58.4343 35.43C 58.4866 35.4061 58.5649 35.3709 58.6461 35.3312L 57.3238 32.6384ZM 57.1676 32.7107C 56.6884 32.9382 56.2121 33.1509 55.6843 33.3634L 56.8061 36.1458C 57.3845 35.9124 57.943 35.6632 58.4539 35.4209L 57.1676 32.7107ZM 55.6656 33.3712C 55.6778 33.366 55.687 33.3624 55.6913 33.3608C 55.6948 33.3594 55.6972 33.3585 55.6922 33.3604C 55.6893 33.3615 55.6789 33.3654 55.6675 33.3698C 55.6554 33.3745 55.6382 33.3813 55.6181 33.3897L 56.7773 36.1567C 56.7651 36.1618 56.7558 36.1654 56.7516 36.1671C 56.7481 36.1684 56.7457 36.1693 56.7507 36.1675C 56.7536 36.1664 56.764 36.1625 56.7754 36.158C 56.7875 36.1533 56.8047 36.1465 56.8248 36.1381L 55.6656 33.3712ZM 55.6387 33.3813C 52.7281 34.5532 49.0632 35.5205 44.6768 36.1697L 45.1175 39.1371C 49.6675 38.459 53.6719 37.4009 56.7567 36.1652L 55.6387 33.3813ZM 44.7209 36.1638C 44.6985 36.1664 44.633 36.1748 44.5678 36.1858L 45.0919 39.1396C 45.0754 39.1425 45.064 39.1441 45.0614 39.1444C 45.0599 39.1446 45.0598 39.1446 45.062 39.1444C 45.0644 39.1441 45.0673 39.1437 45.0734 39.143L 44.7209 36.1638ZM 44.6099 36.1789C 43.756 36.3055 42.8928 36.4161 41.9911 36.5155L 42.3199 39.4974C 43.2478 39.395 44.1666 39.2773 45.0498 39.1465L 44.6099 36.1789ZM 41.9963 36.5149C 41.8761 36.528 41.7197 36.5386 41.5409 36.5573L 41.8567 39.5406C 41.9788 39.5274 42.1366 39.5167 42.3148 39.498L 41.9963 36.5149ZM 41.5426 36.5571C 40.7509 36.64 39.9663 36.7148 39.1509 36.7746L 39.3706 39.7666C 40.2184 39.7042 41.0494 39.6251 41.855 39.5408L 41.5426 36.5571ZM 39.1511 36.7746C 38.8008 36.8006 38.4108 36.8134 38.0027 36.8385L 38.1877 39.8328C 38.5532 39.81 38.9604 39.7963 39.3704 39.7666L 39.1511 36.7746ZM 38.0063 36.8383C 37.3753 36.8757 36.7743 36.9159 36.1562 36.9374L 36.2616 39.9356C 36.9265 39.912 37.5637 39.8698 38.1841 39.833L 38.0063 36.8383ZM 36.1615 36.9372C 35.1222 36.9702 34.0767 36.991 33 36.9909L 33 39.9909C 34.1065 39.9908 35.1995 39.9692 36.2564 39.9357L 36.1615 36.9372ZM 33 36.9909C 31.9233 36.991 30.8806 36.9702 29.8428 36.9334L 29.7367 39.9316C 30.7977 39.9691 31.8935 39.9908 33 39.9909L 33 36.9909ZM 29.8425 36.9334C 29.2259 36.912 28.6234 36.8704 27.9893 36.8341L 27.8177 39.8292C 28.4349 39.8645 29.0705 39.9079 29.737 39.9316L 29.8425 36.9334ZM 27.9908 36.8342C 27.5879 36.8108 27.2004 36.7967 26.8476 36.7706L 26.6282 39.7626C 27.0358 39.7922 27.4456 39.8074 27.8161 39.8291L 27.9908 36.8342ZM 26.8478 36.7706C 26.0324 36.7109 25.2477 36.636 24.4561 36.5531L 24.1437 39.5368C 24.9492 39.6211 25.7803 39.7002 26.6281 39.7626L 26.8478 36.7706ZM 24.4578 36.5533C 24.2789 36.5346 24.1226 36.5241 24.0024 36.511L 23.6839 39.494C 23.8621 39.5127 24.0199 39.5234 24.142 39.5366L 24.4578 36.5533ZM 24.0076 36.5115C 23.107 36.4123 22.2427 36.3002 21.3866 36.1746L 20.9511 39.1428C 21.8321 39.272 22.7498 39.3909 23.6787 39.4934L 24.0076 36.5115ZM 21.3451 36.1691C 21.339 36.1684 21.3361 36.168 21.3336 36.1677C 21.3315 36.1675 21.3316 36.1675 21.3331 36.1677C 21.3357 36.168 21.3471 36.1696 21.3636 36.1725L 20.8394 39.1263C 20.9047 39.1373 20.9702 39.1457 20.9926 39.1483L 21.3451 36.1691ZM 21.3219 36.1657C 16.9355 35.5165 13.2706 34.5492 10.36 33.3773L 9.24201 36.1612C 12.3268 37.3969 16.3312 38.455 20.8812 39.1331L 21.3219 36.1657ZM 10.2777 33.347C 10.3045 33.356 10.324 33.3636 10.3319 33.3668C 10.3386 33.3694 10.3432 33.3714 10.3331 33.3672L 9.17385 36.1341C 9.1897 36.1408 9.25665 36.1677 9.32431 36.1915L 10.2777 33.347ZM 10.3144 33.3595C 9.78596 33.1467 9.30899 32.9342 8.83251 32.7073L 7.54341 35.4163C 8.05429 35.6592 8.61484 35.9087 9.1926 36.1418L 10.3144 33.3595ZM 8.84914 32.7154C 8.76238 32.6732 8.6887 32.6407 8.64918 32.6221L 7.37826 35.3396C 7.45226 35.3741 7.50002 35.3947 7.52678 35.4082L 8.84914 32.7154ZM 8.66808 32.6311C 8.2522 32.4298 7.88593 32.233 7.50936 32.0182L 6.02328 34.6242C 6.43343 34.858 6.8882 35.1018 7.35936 35.3306L 8.66808 32.6311ZM 7.51361 32.0206C 7.39885 31.9549 7.31655 31.9117 7.26412 31.8792L 5.70884 34.4446C 5.83593 34.5209 5.94899 34.5813 6.01903 34.6218L 7.51361 32.0206ZM 7.24881 31.8701C 6.93932 31.688 6.67408 31.5124 6.39004 31.3151L 4.67948 33.7797C 4.99208 33.9965 5.34988 34.2323 5.72415 34.4538L 7.24881 31.8701ZM 6.3962 31.3194C 6.26801 31.2296 6.1693 31.1643 6.09398 31.1073L 4.29706 33.5096C 4.43822 33.6145 4.57447 33.7059 4.67332 33.7754L 6.3962 31.3194ZM 6.08956 31.104C 5.8715 30.9429 5.69289 30.7931 5.49008 30.6152L 3.51232 32.8709C 3.74247 33.0726 4.0153 33.2997 4.30148 33.5129L 6.08956 31.104ZM 5.49292 30.6177C 5.37232 30.5114 5.28669 30.4378 5.21498 30.3655L 3.10102 32.4941C 3.24315 32.6342 3.39512 32.7677 3.50948 32.8684L 5.49292 30.6177ZM 5.20542 30.3561C 5.06209 30.2173 4.95761 30.1008 4.82949 29.9472L 2.52819 31.8718C 2.69311 32.0686 2.90015 32.2972 3.11058 32.5036L 5.20542 30.3561ZM 4.8256 29.9426C 4.7319 29.8316 4.67288 29.76 4.61527 29.6769L 2.16425 31.4068C 2.28088 31.5706 2.41986 31.7433 2.53208 31.8765L 4.8256 29.9426ZM 4.61195 29.6722C 4.52683 29.5544 4.4734 29.465 4.39927 29.3294L 1.77041 30.7748C 1.8758 30.9658 2.02036 31.2029 2.16757 31.4115L 4.61195 29.6722ZM 4.40334 29.3369C 4.34875 29.2371 4.31983 29.1777 4.28304 29.0867L 1.50911 30.2292C 1.58057 30.4009 1.67837 30.6043 1.76634 30.7673L 4.40334 29.3369ZM 4.28748 29.0975C 4.24223 28.9879 4.22629 28.9392 4.20475 28.8397L 1.28117 29.5125C 1.33355 29.7342 1.42057 30.0068 1.50468 30.2183L 4.28748 29.0975ZM 4.20434 28.8379C 4.17507 28.7114 4.16017 28.6498 4.14846 28.5861C 4.13586 28.5208 4.14296 28.5236 4.14 28.5364L 1.14 28.5364C 1.15139 28.9345 1.23605 29.3173 1.28158 29.5143L 4.20434 28.8379ZM 4.14 28.5364C 4.13757 28.4718 4.14327 28.4401 4.16212 28.3245L 1.19972 27.851C 1.17105 28.0327 1.14243 28.301 1.14 28.5364L 4.14 28.5364ZM 4.16099 28.3314C 4.21297 27.9408 4.16899 27.4065 4.07983 27.0765L 1.20017 27.9177C 1.2012 27.9212 1.19269 27.8936 1.20085 27.844L 4.16099 28.3314ZM 4.14 27.4971L 4.14 17.6434L 1.14 17.6434L 1.14 27.4971L 4.14 27.4971ZM 1.62842 18.751C 1.82872 18.9325 2.03509 19.0957 2.1892 19.2247L 4.11248 16.9223C 3.92339 16.7645 3.76808 16.6437 3.65158 16.5359L 1.62842 18.751ZM 2.18745 19.2232C 2.26217 19.2855 2.36568 19.3781 2.50203 19.4872L 4.36725 17.1375C 4.30296 17.0874 4.2296 17.0207 4.11423 16.9237L 2.18745 19.2232ZM 2.50407 19.4888C 2.92568 19.8219 3.40972 20.1718 3.9039 20.4937L 5.53938 17.9787C 5.10692 17.698 4.73561 17.4294 4.36521 17.1359L 2.50407 19.4888ZM 3.90648 20.4953C 4.04158 20.582 4.16154 20.65 4.23447 20.6958L 5.81865 18.1482C 5.69094 18.0692 5.59442 18.0151 5.5368 17.977L 3.90648 20.4953ZM 4.23076 20.6935C 4.64095 20.9499 5.09244 21.2113 5.54286 21.4553L 6.97074 18.8169C 6.55788 18.5936 6.18833 18.3798 5.82236 18.1505L 4.23076 20.6935ZM 5.54392 21.4558C 5.7079 21.5444 5.88076 21.6363 6.05465 21.7259L 7.42783 19.0586C 7.27172 18.9783 7.12514 18.9003 6.96968 18.8163L 5.54392 21.4558ZM 6.05721 21.7272C 6.55906 21.9841 7.10651 22.2442 7.66033 22.4863L 8.86079 19.7369C 8.35069 19.5144 7.88702 19.2941 7.42527 19.0573L 6.05721 21.7272ZM 7.65437 22.4837C 7.7075 22.5066 7.79908 22.5522 7.93422 22.6099L 9.09642 19.8442C 9.05468 19.8276 8.98786 19.7936 8.86675 19.7395L 7.65437 22.4837ZM 7.92669 22.6068C 8.57136 22.8815 9.27082 23.15 9.97098 23.4002L 10.9801 20.575C 10.3127 20.3367 9.69744 20.1009 9.10395 19.8474L 7.92669 22.6068ZM 9.96918 23.3996C 10.1813 23.4754 10.3898 23.5427 10.5709 23.6047L 11.5417 20.7661C 11.3347 20.6953 11.1472 20.6352 10.9819 20.5756L 9.96918 23.3996ZM 10.5744 23.6059C 11.1346 23.7958 11.7262 23.9815 12.3213 24.1566L 13.1679 21.2786C 12.5988 21.1112 12.0658 20.9439 11.5382 20.7649L 10.5744 23.6059ZM 12.3256 24.1579C 12.5233 24.2153 12.7422 24.2829 12.9826 24.3484L 13.7685 21.4531C 13.5786 21.4018 13.3857 21.342 13.1636 21.2773L 12.3256 24.1579ZM 12.9732 24.3458C 13.7603 24.5649 14.594 24.7785 15.4524 24.972L 16.1115 22.0453C 15.2961 21.8618 14.5352 21.6667 13.7779 21.4557L 12.9732 24.3458ZM 15.4441 24.9701C 15.6012 25.0058 15.7351 25.029 15.8188 25.0475L 16.4552 22.1158C 16.3066 22.0839 16.1923 22.0646 16.1197 22.0472L 15.4441 24.9701ZM 15.8155 25.0468C 16.5699 25.2123 17.3643 25.3679 18.1631 25.5108L 18.6913 22.5577C 17.9167 22.4192 17.1798 22.2749 16.4585 22.1165L 15.8155 25.0468ZM 18.1626 25.5107C 18.4382 25.5601 18.7183 25.6068 18.9908 25.6521L 19.4819 22.6925C 19.2106 22.6475 18.9495 22.604 18.6918 22.5578L 18.1626 25.5107ZM 18.9923 25.6523C 19.7541 25.7779 20.5497 25.8943 21.3516 25.9994L 21.7411 23.0248C 20.9617 22.9228 20.2155 22.8136 19.4804 22.6923L 18.9923 25.6523ZM 21.3521 25.9994C 21.5359 26.0233 21.7359 26.0547 21.9673 26.0832L 22.3319 23.1055C 22.1514 23.0836 21.9633 23.0539 21.7406 23.0247L 21.3521 25.9994ZM 21.9685 26.0834C 22.9661 26.2046 24.0103 26.3097 25.0668 26.3984L 25.3176 23.4089C 24.2858 23.3224 23.2973 23.223 22.3307 23.1053L 21.9685 26.0834ZM 25.0689 26.3985C 25.3434 26.4211 25.6199 26.4376 25.8725 26.4556L 26.0853 23.4631C 25.8152 23.444 25.5558 23.4286 25.3155 23.4087L 25.0689 26.3985ZM 25.8696 26.4554C 26.7156 26.5172 27.5902 26.5688 28.4741 26.6091L 28.6106 23.6122C 27.7469 23.5729 26.9134 23.5237 26.0882 23.4634L 25.8696 26.4554ZM 28.4736 26.6091C 28.7916 26.6237 29.1152 26.6386 29.4469 26.6508L 29.5571 23.6528C 29.2394 23.6412 28.9294 23.6269 28.6111 23.6123L 28.4736 26.6091ZM 29.4513 26.651C 30.5965 26.6897 31.7808 26.7181 33 26.7182L 33 23.7182C 31.8168 23.7183 30.6832 23.6909 29.5527 23.6527L 29.4513 26.651ZM 33 26.7182C 34.2192 26.7181 35.4035 26.6897 36.5487 26.651L 36.4473 23.6527C 35.3168 23.6909 34.1832 23.7183 33 23.7182L 33 26.7182ZM 36.5534 26.6508C 36.8836 26.6386 37.207 26.6237 37.5261 26.6091L 37.3892 23.6122C 37.0694 23.6269 36.7592 23.6412 36.4426 23.6528L 36.5534 26.6508ZM 37.5259 26.6091C 38.4098 26.5688 39.2844 26.5172 40.1304 26.4554L 39.9118 23.4634C 39.0866 23.5237 38.2531 23.5729 37.3894 23.6122L 37.5259 26.6091ZM 40.135 26.455C 40.3804 26.4363 40.6515 26.4214 40.9305 26.3986L 40.6851 23.4086C 40.4467 23.4284 40.1845 23.4427 39.9071 23.4637L 40.135 26.455ZM 40.9313 26.3985C 41.9897 26.311 43.0349 26.2045 44.0315 26.0834L 43.6693 23.1053C 42.7018 23.2231 41.7142 23.3237 40.6843 23.4087L 40.9313 26.3985ZM 44.0327 26.0832C 44.2641 26.0547 44.4641 26.0233 44.6479 25.9994L 44.2594 23.0247C 44.0367 23.0539 43.8486 23.0836 43.6681 23.1055L 44.0327 26.0832ZM 44.6484 25.9994C 45.4505 25.8943 46.2445 25.7779 47.0073 25.6524L 46.52 22.6922C 45.7832 22.8136 45.0382 22.9228 44.2589 23.0248L 44.6484 25.9994ZM 47.0092 25.6521C 47.2817 25.6068 47.5618 25.5601 47.8374 25.5107L 47.3082 22.5578C 47.0505 22.604 46.7894 22.6475 46.5181 22.6925L 47.0092 25.6521ZM 47.8369 25.5108C 48.6357 25.3679 49.4301 25.2123 50.1845 25.0468L 49.5415 22.1165C 48.8202 22.2749 48.0833 22.4192 47.3087 22.5577L 47.8369 25.5108ZM 50.1812 25.0475C 50.2725 25.0275 50.3983 25.0046 50.5398 24.9737L 49.8964 22.0436C 49.8081 22.0632 49.6858 22.0854 49.5448 22.1158L 50.1812 25.0475ZM 50.5476 24.972C 51.4072 24.7782 52.2397 24.5636 53.0245 24.3464L 52.2244 21.4551C 51.4648 21.6654 50.7027 21.8621 49.8885 22.0453L 50.5476 24.972ZM 53.0257 24.3461C 53.2577 24.2816 53.4725 24.2166 53.6744 24.1579L 52.8364 21.2773C 52.6186 21.3407 52.4215 21.4005 52.2232 21.4554L 53.0257 24.3461ZM 53.6787 24.1566C 54.2738 23.9815 54.8654 23.7958 55.4256 23.6059L 54.4618 20.7649C 53.9342 20.9439 53.4012 21.1112 52.8321 21.2786L 53.6787 24.1566ZM 55.4291 23.6047C 55.6102 23.5427 55.8187 23.4754 56.0308 23.3996L 55.0181 20.5756C 54.8528 20.6352 54.6653 20.6953 54.4583 20.7661L 55.4291 23.6047ZM 56.029 23.4002C 56.7287 23.1502 57.43 22.8815 58.0744 22.6063L 56.895 19.8478C 56.3038 20.1009 55.6878 20.3366 55.0199 20.575L 56.029 23.4002ZM 58.0658 22.6099C 58.2009 22.5522 58.2925 22.5066 58.3456 22.4837L 57.1332 19.7395C 57.0121 19.7936 56.9453 19.8276 56.9036 19.8442L 58.0658 22.6099ZM 58.3425 22.485C 58.8935 22.2429 59.4395 21.9848 59.9428 21.7272L 58.5747 19.0573C 58.1144 19.2933 57.6493 19.5131 57.1363 19.7382L 58.3425 22.485ZM 59.9453 21.7259C 60.117 21.6375 60.2935 21.5444 60.4607 21.4533L 59.0257 18.8188C 58.8761 18.9003 58.7305 18.9771 58.5722 19.0586L 59.9453 21.7259ZM 60.454 21.457C 60.906 21.2135 61.3606 20.9503 61.7724 20.6915L 60.1745 18.1524C 59.8101 18.3821 59.4437 18.594 59.0324 18.8152L 60.454 21.457ZM 61.7655 20.6958C 61.8385 20.65 61.9584 20.582 62.0935 20.4953L 60.4632 17.977C 60.4056 18.0151 60.3091 18.0692 60.1814 18.1482L 61.7655 20.6958ZM 62.0961 20.4937C 62.589 20.1726 63.0743 19.8232 63.4984 19.4869L 61.6324 17.1378C 61.2644 17.4307 60.8943 17.6971 60.4606 17.9787L 62.0961 20.4937ZM 63.5055 19.4812C 63.6367 19.3749 63.7327 19.2888 63.8047 19.2297L 61.8936 16.9172C 61.7729 17.0174 61.692 17.0906 61.6252 17.1436L 63.5055 19.4812ZM 63.8108 19.2247C 63.9649 19.0957 64.1713 18.9325 64.3716 18.751L 62.3484 16.5359C 62.2319 16.6437 62.0766 16.7645 61.8875 16.9223L 63.8108 19.2247ZM 33 4.15455C 41.8181 4.14906 49.1564 5.41698 54.388 7.27949C 56.9692 8.19183 58.8678 9.1715 60.1977 10.2402C 61.512 11.2873 61.86 12.1129 61.86 12.6091L 64.86 12.6091C 64.86 10.7507 63.6496 9.15465 62.0671 7.89384C 60.5003 6.65457 58.1637 5.43992 55.3914 4.45227C 49.9162 2.5148 42.0745 1.16003 33 1.15455L 33 4.15455ZM 61.86 12.6091C 61.86 13.1053 61.512 13.9308 60.1977 14.978C 58.8678 16.0467 56.9692 17.0264 54.388 17.9387C 49.1564 19.8012 41.8181 21.0691 33 21.0636L 33 24.0636C 42.0745 24.0582 49.9162 22.7034 55.3914 20.7659C 58.1637 19.7783 60.5003 18.5636 62.0671 17.3243C 63.6496 16.0635 64.86 14.4675 64.86 12.6091L 61.86 12.6091ZM 33 21.0636C 24.1819 21.0691 16.8436 19.8012 11.612 17.9387C 9.03085 17.0264 7.13224 16.0467 5.80231 14.978C 4.488 13.9308 4.14 13.1053 4.14 12.6091L 1.14 12.6091C 1.14 14.4675 2.35043 16.0635 3.9329 17.3243C 5.49975 18.5636 7.83628 19.7783 10.6086 20.7659C 16.0838 22.7034 23.9255 24.0582 33 24.0636L 33 21.0636ZM 4.14 12.6091C 4.14 12.1129 4.488 11.2873 5.80231 10.2402C 7.13224 9.1715 9.03085 8.19183 11.612 7.27949C 16.8436 5.41698 24.1819 4.14906 33 4.15455L 33 1.15455C 23.9255 1.16003 16.0838 2.5148 10.6086 4.45227C 7.83628 5.43992 5.49975 6.65457 3.9329 7.89384C 2.35043 9.15465 1.14 10.7507 1.14 12.6091L 4.14 12.6091ZM 61.9299 60.2078C 61.8927 60.3302 61.8566 60.4887 61.8397 60.5839L 64.7958 61.0952C 64.7972 61.0869 64.7978 61.0851 64.7971 61.088C 64.7964 61.0911 64.7942 61.0999 64.7901 61.1129L 61.9299 60.2078ZM 61.8373 60.5982C 61.7457 61.1599 61.2233 62.0231 59.8069 63.0453C 58.3824 64.0803 56.4299 65.0248 53.8509 65.8931C 48.6319 67.6616 41.4804 68.8505 33 68.8455L 33 71.8455C 41.7272 71.8404 49.3603 70.5718 54.8112 68.7352C 57.5671 67.8009 59.9208 66.6558 61.5625 65.478C 63.2121 64.2875 64.5156 62.8146 64.7982 61.0809L 61.8373 60.5982ZM 33 68.8455C 24.5196 68.8505 17.3681 67.6616 12.1491 65.8931C 9.57012 65.0248 7.61758 64.0803 6.19315 63.0453C 4.77672 62.0231 4.25428 61.1599 4.1627 60.5982L 1.20178 61.0809C 1.48442 62.8146 2.78787 64.2875 4.43752 65.478C 6.07915 66.6558 8.43287 67.8009 11.1888 68.7352C 16.6397 70.5718 24.2728 71.8404 33 71.8455L 33 68.8455ZM 4.15933 60.5784C 4.13893 60.4681 4.10235 60.3196 4.07361 60.2243L 1.20639 61.107C 1.20708 61.1092 1.20633 61.1074 1.20515 61.1007L 4.15933 60.5784ZM 4.14 60.6657L 4.14 49.498L 1.14 49.498L 1.14 60.6657L 4.14 60.6657ZM 1.61632 50.5944C 1.67985 50.6537 1.74117 50.7026 1.75781 50.7161C 1.7694 50.7254 1.77342 50.7286 1.77614 50.7309C 1.7771 50.7317 1.76929 50.7253 1.75708 50.7143L 3.7658 48.4861C 3.73445 48.4578 3.70651 48.4343 3.68689 48.4181C 3.66902 48.4034 3.652 48.3897 3.64264 48.3821C 3.63329 48.3745 3.63349 48.3746 3.63372 48.3749C 3.63608 48.3769 3.64751 48.3865 3.66368 48.4016L 1.61632 50.5944ZM 1.76697 50.7231C 2.06125 50.9837 2.40472 51.2794 2.77993 51.5585L 4.56455 49.147C 4.27976 48.9376 4.03715 48.7263 3.75591 48.4772L 1.76697 50.7231ZM 2.76426 51.5467C 8.12105 55.6204 18.4592 58.5727 33 58.5727L 33 55.5727C 18.7173 55.5727 9.16831 52.6479 4.58022 49.1588L 2.76426 51.5467ZM 33 58.5727C 47.4809 58.5727 57.7897 55.6439 63.1652 51.5976L 61.361 49.2008C 56.7493 52.6722 47.2212 55.5727 33 55.5727L 33 58.5727ZM 63.1495 51.6093C 63.5875 51.2874 64.007 50.9361 64.3666 50.6102L 62.3508 48.3884C 62.0345 48.6757 61.7359 48.927 61.3767 49.1891L 63.1495 51.6093ZM 64.4222 50.557L 64.4236 50.5557L 62.2964 48.4402L 62.2951 48.4416L 64.4222 50.557ZM 61.86 49.498L 61.86 60.6603L 64.86 60.6603L 64.86 49.498L 61.86 49.498Z"/>
</defs>
</svg>
