<svg width="190" height="190" viewBox="0 0 190 190" version="1.1" xmlns="http://www.w3.org/2000/svg" xmlns:xlink="http://www.w3.org/1999/xlink" xmlns:figma="http://www.figma.com/figma/ns">
<title>experts-img</title>
<desc>Created using Figma</desc>
<g id="Canvas" transform="translate(-917 212)" figma:type="canvas">
<g id="experts-img" figma:type="frame">
<g id="Group" figma:type="frame">
<g id="img" figma:type="frame">
<g id="bg" figma:type="rounded-rectangle">
<use xlink:href="#path0_fill" transform="translate(917 -212)" fill="#FFFFFF"/>
<mask id="mask0_outline_ins">
<use xlink:href="#path0_fill" fill="white" transform="translate(917 -212)"/>
</mask>
<g mask="url(#mask0_outline_ins)">
<use xlink:href="#path1_stroke_2x" transform="translate(917 -212)" fill="#000000" fill-opacity="0.1"/>
</g>
</g>
</g>
</g>
<g id="Star" figma:type="vector">
<use xlink:href="#path2_fill" transform="translate(972 -133)" fill="#FFFFFF"/>
<use xlink:href="#path3_stroke" transform="translate(972 -133)" fill="#047AE9"/>
</g>
<g id="Star" figma:type="vector">
<use xlink:href="#path4_fill" transform="translate(1016 -161)" fill="#94CBFE"/>
<use xlink:href="#path5_stroke" transform="translate(1016 -161)" fill="#047AE9"/>
</g>
</g>
</g>
<defs>
<path id="path0_fill" d="M 0 10C 0 4.47715 4.47715 0 10 0L 180 0C 185.523 0 190 4.47715 190 10L 190 180C 190 185.523 185.523 190 180 190L 10 190C 4.47715 190 0 185.523 0 180L 0 10Z"/>
<path id="path1_stroke_2x" d="M 10 1L 180 1L 180 -1L 10 -1L 10 1ZM 189 10L 189 180L 191 180L 191 10L 189 10ZM 180 189L 10 189L 10 191L 180 191L 180 189ZM 1 180L 1 10L -1 10L -1 180L 1 180ZM 10 -1C 3.92487 -1 -1 3.92487 -1 10L 1 10C 1 5.02944 5.02944 1 10 1L 10 -1ZM 180 1C 184.971 1 189 5.02944 189 10L 191 10C 191 3.92487 186.075 -1 180 -1L 180 1ZM 189 180C 189 184.971 184.971 189 180 189L 180 191C 186.075 191 191 186.075 191 180L 189 180ZM 10 189C 5.02944 189 1 184.971 1 180L -1 180C -1 186.075 3.92487 191 10 191L 10 189Z"/>
<path id="path2_fill" d="M 29.8856 0.822257C 30.2364 -0.274086 31.7636 -0.274086 32.1144 0.822257L 38.6292 21.1846C 38.7861 21.6749 39.236 22.0068 39.7436 22.0068L 60.826 22.0068C 61.9611 22.0068 62.4331 23.482 61.5147 24.1595L 44.4587 36.7441C 44.0481 37.0472 43.8762 37.5843 44.0331 38.0746L 50.5479 58.4369C 50.8987 59.5332 49.6631 60.4449 48.7447 59.7673L 31.6887 47.1827C 31.2781 46.8797 30.7219 46.8797 30.3113 47.1827L 13.2553 59.7673C 12.3369 60.4449 11.1013 59.5332 11.4521 58.4369L 17.9669 38.0746C 18.1238 37.5843 17.9519 37.0472 17.5413 36.7441L 0.485263 24.1595C -0.433061 23.482 0.0388947 22.0068 1.17401 22.0068L 22.2564 22.0068C 22.764 22.0068 23.2139 21.6749 23.3708 21.1846L 29.8856 0.822257Z"/>
<path id="path3_stroke" d="M 32.1144 0.822257L 34.4955 0.0604381L 32.1144 0.822257ZM 38.6292 21.1846L 36.2481 21.9464L 38.6292 21.1846ZM 60.826 22.0068L 60.826 19.5068L 60.826 22.0068ZM 44.4587 36.7441L 45.943 38.7558L 44.4587 36.7441ZM 50.5479 58.4369L 52.929 57.6751L 50.5479 58.4369ZM 31.6887 47.1827L 33.173 45.1711L 31.6887 47.1827ZM 13.2553 59.7673L 11.771 57.7557L 13.2553 59.7673ZM 17.9669 38.0746L 20.348 38.8364L 17.9669 38.0746ZM 0.485263 24.1595L 1.96956 22.1479L 1.96956 22.1479L 0.485263 24.1595ZM 22.2564 22.0068L 22.2564 24.5068L 22.2564 22.0068ZM 29.8856 0.822257L 32.2667 1.58408L 32.2667 1.58408L 29.8856 0.822257ZM 39.7436 22.0068L 39.7436 24.5068L 39.7436 22.0068ZM 61.5147 24.1595L 60.0304 22.1479L 60.0304 22.1479L 61.5147 24.1595ZM 44.0331 38.0746L 41.652 38.8364L 44.0331 38.0746ZM 48.7447 59.7673L 47.2604 61.779L 48.7447 59.7673ZM 30.3113 47.1827L 28.827 45.1711L 30.3113 47.1827ZM 11.4521 58.4369L 9.07101 57.6751L 11.4521 58.4369ZM 17.5413 36.7441L 16.057 38.7558L 17.5413 36.7441ZM 1.17401 22.0068L 1.17401 19.5068L 1.17401 22.0068ZM 23.3708 21.1846L 20.9897 20.4228L 23.3708 21.1846ZM 29.7333 1.58408L 36.2481 21.9464L 41.0103 20.4228L 34.4955 0.0604381L 29.7333 1.58408ZM 39.7436 24.5068L 60.826 24.5068L 60.826 19.5068L 39.7436 19.5068L 39.7436 24.5068ZM 60.0304 22.1479L 42.9744 34.7325L 45.943 38.7558L 62.999 26.1712L 60.0304 22.1479ZM 41.652 38.8364L 48.1668 59.1987L 52.929 57.6751L 46.4142 37.3128L 41.652 38.8364ZM 50.229 57.7557L 33.173 45.1711L 30.2044 49.1944L 47.2604 61.779L 50.229 57.7557ZM 28.827 45.1711L 11.771 57.7557L 14.7396 61.779L 31.7956 49.1944L 28.827 45.1711ZM 13.8332 59.1987L 20.348 38.8364L 15.5858 37.3128L 9.07101 57.6751L 13.8332 59.1987ZM 19.0256 34.7325L 1.96956 22.1479L -0.999037 26.1712L 16.057 38.7558L 19.0256 34.7325ZM 1.17401 24.5068L 22.2564 24.5068L 22.2564 19.5068L 1.17401 19.5068L 1.17401 24.5068ZM 25.7519 21.9464L 32.2667 1.58408L 27.5045 0.0604379L 20.9897 20.4228L 25.7519 21.9464ZM 34.4955 0.0604381C 33.4032 -3.35348 28.5968 -3.35348 27.5045 0.0604381L 32.2667 1.58408C 31.876 2.80531 30.124 2.80531 29.7333 1.58408L 34.4955 0.0604381ZM 36.2481 21.9464C 36.7299 23.4521 38.1278 24.5068 39.7436 24.5068L 39.7436 19.5068C 40.3442 19.5068 40.8423 19.8977 41.0103 20.4228L 36.2481 21.9464ZM 60.826 24.5068C 59.4615 24.5068 59.0779 22.8507 60.0304 22.1479L 62.999 26.1712C 65.7882 24.1132 64.4608 19.5068 60.826 19.5068L 60.826 24.5068ZM 42.9744 34.7325C 41.6909 35.6795 41.1723 37.337 41.652 38.8364L 46.4142 37.3128C 46.5802 37.8315 46.4052 38.4148 45.943 38.7558L 42.9744 34.7325ZM 48.1668 59.1987C 47.8224 58.1224 49.0801 56.9079 50.229 57.7557L 47.2604 61.779C 50.246 63.9819 53.9749 60.9441 52.929 57.6751L 48.1668 59.1987ZM 33.173 45.1711C 31.8799 44.2169 30.1201 44.2169 28.827 45.1711L 31.7956 49.1944C 31.3238 49.5425 30.6762 49.5425 30.2044 49.1944L 33.173 45.1711ZM 11.771 57.7557C 12.9199 56.9079 14.1776 58.1224 13.8332 59.1987L 9.07101 57.6751C 8.02511 60.9441 11.754 63.9819 14.7396 61.779L 11.771 57.7557ZM 20.348 38.8364C 20.8277 37.337 20.3091 35.6795 19.0256 34.7325L 16.057 38.7558C 15.5948 38.4148 15.4198 37.8315 15.5858 37.3128L 20.348 38.8364ZM 1.96956 22.1479C 2.92213 22.8507 2.53853 24.5068 1.17401 24.5068L 1.17401 19.5068C -2.46074 19.5068 -3.78825 24.1132 -0.999037 26.1712L 1.96956 22.1479ZM 22.2564 24.5068C 23.8722 24.5068 25.2701 23.4521 25.7519 21.9464L 20.9897 20.4228C 21.1577 19.8977 21.6558 19.5068 22.2564 19.5068L 22.2564 24.5068Z"/>
<path id="path4_fill" d="M 17.3529 0.47965C 17.5566 -0.159883 18.4434 -0.159883 18.6471 0.47965L 22.4299 12.3577C 22.521 12.6437 22.7822 12.8373 23.0769 12.8373L 35.3183 12.8373C 35.9774 12.8373 36.2515 13.6978 35.7182 14.0931L 25.8148 21.4341C 25.5763 21.6108 25.4765 21.9242 25.5676 22.2102L 29.3504 34.0882C 29.5541 34.7277 28.8366 35.2595 28.3034 34.8643L 18.3999 27.5233C 18.1615 27.3465 17.8385 27.3465 17.6001 27.5233L 7.69661 34.8643C 7.16338 35.2595 6.44594 34.7277 6.64961 34.0882L 10.4324 22.2102C 10.5235 21.9242 10.4237 21.6108 10.1852 21.4341L 0.281766 14.0931C -0.251455 13.6978 0.022584 12.8373 0.681681 12.8373L 12.9231 12.8373C 13.2178 12.8373 13.479 12.6437 13.5701 12.3577L 17.3529 0.47965Z"/>
<path id="path5_stroke" d="M 18.6471 0.47965L 21.0292 -0.278982L 18.6471 0.47965ZM 22.4299 12.3577L 20.0478 13.1163L 22.4299 12.3577ZM 35.3183 12.8373L 35.3183 10.3373L 35.3183 12.8373ZM 25.8148 21.4341L 27.3035 23.4425L 27.3035 23.4425L 25.8148 21.4341ZM 29.3504 34.0882L 31.7325 33.3296L 29.3504 34.0882ZM 18.3999 27.5233L 19.8887 25.5149L 18.3999 27.5233ZM 7.69661 34.8643L 6.20787 32.8559L 7.69661 34.8643ZM 10.4324 22.2102L 12.8145 22.9688L 10.4324 22.2102ZM 0.281766 14.0931L 1.7705 12.0847L 1.7705 12.0847L 0.281766 14.0931ZM 12.9231 12.8373L 12.9231 15.3373L 12.9231 12.8373ZM 17.3529 0.47965L 19.735 1.23828L 19.735 1.23828L 17.3529 0.47965ZM 23.0769 12.8373L 23.0769 15.3373L 23.0769 12.8373ZM 35.7182 14.0931L 34.2295 12.0847L 35.7182 14.0931ZM 25.5676 22.2102L 23.1855 22.9688L 25.5676 22.2102ZM 28.3034 34.8643L 26.8147 36.8727L 28.3034 34.8643ZM 17.6001 27.5233L 16.1113 25.5149L 17.6001 27.5233ZM 6.64961 34.0882L 4.2675 33.3296L 6.64961 34.0882ZM 10.1852 21.4341L 8.69651 23.4425L 8.69651 23.4425L 10.1852 21.4341ZM 0.681681 12.8373L 0.681681 10.3373L 0.681681 12.8373ZM 13.5701 12.3577L 11.188 11.599L 13.5701 12.3577ZM 16.265 1.23828L 20.0478 13.1163L 24.812 11.599L 21.0292 -0.278982L 16.265 1.23828ZM 23.0769 15.3373L 35.3183 15.3373L 35.3183 10.3373L 23.0769 10.3373L 23.0769 15.3373ZM 34.2295 12.0847L 24.326 19.4257L 27.3035 23.4425L 37.207 16.1015L 34.2295 12.0847ZM 23.1855 22.9688L 26.9683 34.8468L 31.7325 33.3296L 27.9497 21.4515L 23.1855 22.9688ZM 29.7921 32.8559L 19.8887 25.5149L 16.9112 29.5317L 26.8147 36.8727L 29.7921 32.8559ZM 16.1113 25.5149L 6.20787 32.8559L 9.18534 36.8727L 19.0888 29.5317L 16.1113 25.5149ZM 9.03173 34.8468L 12.8145 22.9688L 8.05029 21.4515L 4.2675 33.3296L 9.03173 34.8468ZM 11.674 19.4257L 1.7705 12.0847L -1.20697 16.1015L 8.69651 23.4425L 11.674 19.4257ZM 0.681681 15.3373L 12.9231 15.3373L 12.9231 10.3373L 0.681681 10.3373L 0.681681 15.3373ZM 15.9522 13.1163L 19.735 1.23828L 14.9708 -0.278982L 11.188 11.599L 15.9522 13.1163ZM 21.0292 -0.278982C 20.0861 -3.24034 15.9139 -3.24034 14.9708 -0.278982L 19.735 1.23828C 19.1993 2.92057 16.8007 2.92057 16.265 1.23828L 21.0292 -0.278982ZM 20.0478 13.1163C 20.4608 14.4132 21.6664 15.3373 23.0769 15.3373L 23.0769 10.3373C 23.8979 10.3373 24.5811 10.8742 24.812 11.599L 20.0478 13.1163ZM 35.3183 15.3373C 33.455 15.3373 32.9178 13.0569 34.2295 12.0847L 37.207 16.1015C 39.5851 14.3387 38.4999 10.3373 35.3183 10.3373L 35.3183 15.3373ZM 24.326 19.4257C 23.2158 20.2487 22.775 21.6799 23.1855 22.9688L 27.9497 21.4515C 28.178 22.1684 27.9368 22.973 27.3035 23.4425L 24.326 19.4257ZM 26.9683 34.8468C 26.4926 33.3532 28.2259 31.6949 29.7921 32.8559L 26.8147 36.8727C 29.4473 38.8242 32.6155 36.1022 31.7325 33.3296L 26.9683 34.8468ZM 19.8887 25.5149C 18.7659 24.6826 17.2341 24.6826 16.1113 25.5149L 19.0888 29.5317C 18.443 30.0104 17.557 30.0104 16.9112 29.5317L 19.8887 25.5149ZM 6.20787 32.8559C 7.77411 31.6949 9.5074 33.3532 9.03173 34.8468L 4.2675 33.3296C 3.38449 36.1022 6.55266 38.8242 9.18534 36.8727L 6.20787 32.8559ZM 12.8145 22.9688C 13.225 21.6799 12.7842 20.2487 11.674 19.4257L 8.69651 23.4425C 8.06319 22.973 7.82199 22.1684 8.05029 21.4515L 12.8145 22.9688ZM 1.7705 12.0847C 3.08219 13.057 2.54501 15.3373 0.681681 15.3373L 0.681681 10.3373C -2.49984 10.3373 -3.5851 14.3387 -1.20697 16.1015L 1.7705 12.0847ZM 12.9231 15.3373C 14.3336 15.3373 15.5392 14.4132 15.9522 13.1163L 11.188 11.599C 11.4189 10.8742 12.1021 10.3373 12.9231 10.3373L 12.9231 15.3373Z"/>
</defs>
</svg>
