<svg width="68" height="42" viewBox="0 0 68 42" version="1.1" xmlns="http://www.w3.org/2000/svg" xmlns:xlink="http://www.w3.org/1999/xlink" xmlns:figma="http://www.figma.com/figma/ns">
<title>logo</title>
<desc>Created using Figma</desc>
<g id="Canvas" transform="translate(1 -2443)" figma:type="canvas">
<g id="logo" opacity="0.5" figma:type="vector">
<use xlink:href="#path0_fill" transform="translate(0 2444)" fill="#FFFFFF"/>
<use xlink:href="#path1_fill" transform="translate(0 2444)" fill="#FFFFFF"/>
<use xlink:href="#path2_fill" transform="translate(0 2444)" fill="#FFFFFF"/>
<use xlink:href="#path3_fill" transform="translate(0 2444)" fill="#FFFFFF"/>
<use xlink:href="#path4_fill" transform="translate(0 2444)" fill="#FFFFFF"/>
<use xlink:href="#path5_fill" transform="translate(0 2444)" fill="#FFFFFF"/>
<use xlink:href="#path6_fill" transform="translate(0 2444)" fill="#FFFFFF"/>
<use xlink:href="#path7_fill" transform="translate(0 2444)" fill="#FFFFFF"/>
<use xlink:href="#path8_fill" transform="translate(0 2444)" fill="#FFFFFF"/>
<use xlink:href="#path9_fill" transform="translate(0 2444)" fill="#FFFFFF"/>
<use xlink:href="#path10_fill" transform="translate(0 2444)" fill="#FFFFFF"/>
<use xlink:href="#path11_fill" transform="translate(0 2444)" fill="#FFFFFF"/>
<use xlink:href="#path12_fill" transform="translate(0 2444)" fill="#FFFFFF"/>
<use xlink:href="#path13_fill" transform="translate(0 2444)" fill="#FFFFFF"/>
<use xlink:href="#path14_fill" transform="translate(0 2444)" fill="#FFFFFF"/>
<use xlink:href="#path15_fill" transform="translate(0 2444)" fill="#FFFFFF"/>
<use xlink:href="#path16_fill" transform="translate(0 2444)" fill="#FFFFFF"/>
<use xlink:href="#path17_fill" transform="translate(0 2444)" fill="#FFFFFF"/>
<use xlink:href="#path18_stroke" transform="translate(0 2444)" fill="#313A4A"/>
</g>
</g>
<defs>
<path id="path0_fill" d="M 35.3086 9.36273e-06C 34.479 0.0216822 33.6631 0.0977974 32.8642 0.224846L 32.8642 25.2492C 32.8642 25.5203 32.6431 25.74 32.3704 25.74L 1.06351 25.74C 0.672679 26.5052 0.379963 27.3287 0.201586 28.1944L 18.6171 28.1944L 18.6175 28.1944L 23.4563 28.1944L 23.4573 28.1944L 28.3946 28.1944L 28.3955 28.1944L 31.9362 28.1944C 32.1395 27.6225 32.6883 27.2127 33.3333 27.2127C 34.1515 27.2127 34.8148 27.872 34.8148 28.6853C 34.8148 28.9126 34.763 29.128 34.6704 29.3202L 41.485 36.094C 41.5776 36.1861 41.6296 36.311 41.6296 36.4412L 41.6296 40L 54.321 40C 56.9169 40 59.3265 39.2023 61.315 37.8401L 44.716 37.8401C 44.4433 37.8401 44.2222 37.6204 44.2222 37.3493C 44.2222 37.0782 44.4433 36.8584 44.716 36.8584L 62.5675 36.8584C 63.331 36.1765 64.0086 35.4014 64.5821 34.5513L 43.6049 34.5513C 43.474 34.5513 43.3484 34.4996 43.2557 34.4075L 35.4533 26.6516C 35.3607 26.5596 35.3086 26.4347 35.3086 26.3045L 35.3086 26.3042L 35.3086 26.3028L 35.3086 26.2943L 35.3086 26.2391L 35.3086 25.8451L 35.3086 22.8868L 35.3086 21.7292L 35.3086 21.7288L 35.3086 21.7279L 35.3086 21.7228L 35.3086 21.6867L 35.3086 21.5658L 35.3086 21.4954L 35.3086 21.4653L 35.3086 21.4326L 35.3086 21.4235L 35.3086 21.4211L 35.3086 21.4203L 35.3086 20.457L 35.3086 16.5116L 35.3086 1.88336L 35.3086 0.0181113L 35.3086 9.36273e-06Z"/>
<path id="path1_fill" d="M 65.1795 33.5695C 65.832 32.3744 66.2905 31.0596 66.5132 29.6671L 48.2222 29.6671C 47.9495 29.6671 47.7284 29.4473 47.7284 29.1762C 47.7284 28.9051 47.9495 28.6853 48.2222 28.6853L 66.6296 28.6853C 66.6542 28.3694 66.6667 28.0502 66.6667 27.7281C 66.6667 26.6688 66.5314 25.6408 66.2772 24.6601L 52.7552 24.6601C 52.5518 25.2321 52.0031 25.6419 51.358 25.6419C 50.5398 25.6419 49.8765 24.9825 49.8765 24.1692C 49.8765 23.3559 50.5398 22.6966 51.358 22.6966C 52.0031 22.6966 52.5518 23.1064 52.7552 23.6784L 65.9778 23.6784C 65.481 22.2668 64.732 20.9727 63.7845 19.8495L 43.6049 19.8495C 43.474 19.8495 43.3484 19.7978 43.2557 19.7057L 36.2963 12.7879L 36.2963 16.3082L 43.8095 23.7765L 47.1852 23.7765C 47.4579 23.7765 47.679 23.9963 47.679 24.2674C 47.679 24.5385 47.4579 24.7583 47.1852 24.7583L 43.6049 24.7583C 43.474 24.7583 43.3484 24.7066 43.2557 24.6145L 36.2963 17.6966L 36.2963 20.457L 36.2963 21.217L 42.9662 27.8471C 43.1596 27.7551 43.3762 27.7035 43.6049 27.7035C 44.4231 27.7035 45.0864 28.3629 45.0864 29.1762C 45.0864 29.9895 44.4231 30.6488 43.6049 30.6488C 42.7867 30.6488 42.1235 29.9895 42.1235 29.1762C 42.1235 28.9488 42.1753 28.7335 42.2678 28.5413L 36.2963 22.6054L 36.2963 22.8868L 36.2963 25.8451L 36.2963 26.1012L 43.8095 33.5695L 65.1795 33.5695Z"/>
<path id="path2_fill" d="M 62.8602 18.8678C 60.6422 16.7549 57.6332 15.4562 54.321 15.4562L 54.0741 15.4562C 54.0463 15.2836 54.0162 15.1117 53.9837 14.9408L 43.6049 14.9408C 43.474 14.9408 43.3484 14.889 43.2557 14.797L 36.2963 7.87911L 36.2963 11.3995L 43.8095 18.8678L 62.8602 18.8678Z"/>
<path id="path3_fill" d="M 53.7685 13.959C 53.4333 12.6098 52.9479 11.3192 52.3309 10.1056L 45.0021 10.1056C 44.7987 10.6776 44.25 11.0874 43.6049 11.0874C 42.7867 11.0874 42.1235 10.4281 42.1235 9.61475C 42.1235 9.38823 42.1749 9.17366 42.2668 8.98195L 38.5787 5.32744C 38.5337 5.29568 38.4942 5.2566 38.4621 5.21196L 36.2963 3.06587L 36.2963 6.4907L 43.8095 13.959L 53.7685 13.959Z"/>
<path id="path4_fill" d="M 51.7934 9.12387C 50.9966 7.76865 50.0301 6.5237 48.923 5.41775L 40.0688 5.41775L 42.9641 8.28664C 43.158 8.19401 43.3754 8.14212 43.6049 8.14212C 44.25 8.14212 44.7987 8.5519 45.0021 9.12387L 51.7934 9.12387Z"/>
<path id="path5_fill" d="M 47.8606 4.436C 44.7366 1.76675 40.7068 0.115059 36.2963 0L 36.2963 0.0181113L 36.2963 1.67966L 39.078 4.436L 47.8606 4.436Z"/>
<path id="path6_fill" d="M 40.642 40L 40.642 36.6445L 33.9721 30.0144C 33.7787 30.1064 33.562 30.1579 33.3333 30.1579C 32.6883 30.1579 32.1395 29.7481 31.9362 29.1762L 29.5873 29.1762L 36.5467 36.094C 36.6393 36.1861 36.6914 36.311 36.6914 36.4412L 36.6914 40L 40.642 40Z"/>
<path id="path7_fill" d="M 35.7037 40L 35.7037 36.6445L 28.1905 29.1762L 24.649 29.1762L 31.6084 36.094C 31.7011 36.1861 31.7531 36.311 31.7531 36.4412L 31.7531 40L 35.7037 40Z"/>
<path id="path8_fill" d="M 30.7654 40L 30.7654 36.6445L 23.2522 29.1762L 19.8068 29.1762L 24.5582 33.9141C 24.622 33.9539 24.6761 34.0078 24.7159 34.0714L 26.7448 36.0946C 26.8371 36.1866 26.8889 36.3112 26.8889 36.4412L 26.8889 40L 30.7654 40Z"/>
<path id="path9_fill" d="M 25.9012 40L 25.9012 36.644L 24.0733 34.8213L 1.16893 34.8213C 2.834 37.9045 6.10796 40 9.87654 40L 25.9012 40Z"/>
<path id="path10_fill" d="M 0.707337 33.8395L 23.0888 33.8395L 18.4123 29.1762L 0.0509417 29.1762C 0.0172518 29.5069 0 29.8426 0 30.1825C 0 30.497 0.014867 30.8082 0.0439378 31.1151L 15.1213 31.1151C 15.3247 30.5432 15.8735 30.1334 16.5185 30.1334C 17.3367 30.1334 18 30.7927 18 31.606C 18 32.4193 17.3367 33.0786 16.5185 33.0786C 15.8735 33.0786 15.3247 32.6689 15.1213 32.0969L 0.187476 32.0969C 0.307173 32.6994 0.482291 33.2821 0.707337 33.8395Z"/>
<path id="path11_fill" d="M 1.63965 24.7583L 7.37533 24.7583L 10.006 21.899C 10.0995 21.7973 10.2317 21.7394 10.3704 21.7394L 18.4374 21.7394L 19.1568 21.0243C 19.0488 20.82 18.9877 20.5873 18.9877 20.3404C 18.9877 20.1131 19.0395 19.8977 19.132 19.7055L 18.4374 19.015L 7.80053 19.015C 7.83899 19.535 7.92501 20.0422 8.04938 20.5367C 5.37477 21.037 3.08538 22.5945 1.63965 24.7583Z"/>
<path id="path12_fill" d="M 7.78561 18.0333L 18.642 18.0333C 18.7729 18.0333 18.8986 18.085 18.9912 18.1771L 19.8304 19.0113C 20.0238 18.9193 20.2404 18.8678 20.4691 18.8678C 21.1142 18.8678 21.6629 19.2776 21.8663 19.8495L 26.0349 19.8495C 26.1808 19.4393 26.5043 19.1125 26.9136 18.9605L 26.9136 14.7444C 26.9136 14.7308 26.9141 14.7173 26.9152 14.7039L 25.5732 13.37L 18.1661 13.37L 16.2192 15.1993C 16.1275 15.2855 16.0061 15.3335 15.8799 15.3335L 8.34727 15.3335C 8.02141 16.1778 7.82598 17.086 7.78561 18.0333Z"/>
<path id="path13_fill" d="M 8.79965 14.3517L 15.6835 14.3517L 17.6304 12.5223C 17.7221 12.4362 17.8435 12.3882 17.9697 12.3882L 25.0864 12.3882L 25.0864 3.39441C 22.5939 5.1567 20.557 7.51449 19.1852 10.2529C 18.321 9.95836 17.3827 9.8111 16.4198 9.8111C 13.1265 9.8111 10.2578 11.6513 8.79965 14.3517Z"/>
<path id="path14_fill" d="M 26.0741 2.74213L 26.0741 12.4794L 27.7566 14.1519C 27.8847 14.2792 27.9277 14.459 27.8857 14.6216C 27.8958 14.6609 27.9012 14.702 27.9012 14.7444L 27.9012 16.685L 31.8765 12.5318L 31.8765 9.08097L 30.0436 11.0749C 29.8596 11.275 29.5472 11.289 29.3459 11.1061C 29.1446 10.9233 29.1305 10.6128 29.3145 10.4126L 31.8765 7.6256L 31.8765 4.1722L 30.0436 6.16613C 29.8596 6.36626 29.5472 6.38024 29.3459 6.19737C 29.1446 6.01449 29.1305 5.704 29.3145 5.50387L 31.8765 2.71683L 31.8765 0.409541C 29.7899 0.858766 27.8343 1.65835 26.0741 2.74213Z"/>
<path id="path15_fill" d="M 43.6049 10.1056C 43.4776 10.1056 43.3554 10.0568 43.2636 9.96945C 43.3522 10.0538 43.4725 10.1056 43.6049 10.1056Z"/>
<path id="path16_fill" d="M 27.4321 21.813C 26.7871 21.813 26.2383 21.4032 26.0349 20.8313L 21.8663 20.8313C 21.6629 21.4032 21.1142 21.813 20.4691 21.813C 20.2603 21.813 20.0615 21.7701 19.8813 21.6926L 18.9912 22.5774C 18.8986 22.6694 18.7729 22.7211 18.642 22.7211L 10.5879 22.7211L 8.71373 24.7583L 31.8765 24.7583L 31.8765 13.9561L 27.9012 18.1093L 27.9012 18.9431C 28.4895 19.1382 28.9136 19.6901 28.9136 20.3404C 28.9136 21.1537 28.2503 21.813 27.4321 21.813Z"/>
<path id="path17_fill" d="M 33.3333 28.1944C 33.4606 28.1944 33.5829 28.2433 33.6747 28.3306C 33.586 28.2462 33.4658 28.1944 33.3333 28.1944Z"/>
<path id="path18_stroke" d="M 35.3086 9.36273e-06L 35.5586 9.36273e-06L 35.5586 -0.256607L 35.3021 -0.249905L 35.3086 9.36273e-06ZM 32.8642 0.224846L 32.8249 -0.0220514L 32.6142 0.0114624L 32.6142 0.224846L 32.8642 0.224846ZM 1.06351 25.74L 1.06351 25.49L 0.910482 25.49L 0.840873 25.6263L 1.06351 25.74ZM 0.201586 28.1944L -0.0432714 28.144L -0.105174 28.4444L 0.201586 28.4444L 0.201586 28.1944ZM 31.9362 28.1944L 31.9362 28.4444L 32.1126 28.4444L 32.1717 28.2782L 31.9362 28.1944ZM 34.6704 29.3202L 34.4452 29.2118L 34.368 29.3721L 34.4942 29.4975L 34.6704 29.3202ZM 41.485 36.094L 41.3087 36.2714L 41.3088 36.2714L 41.485 36.094ZM 41.6296 40L 41.3796 40L 41.3796 40.25L 41.6296 40.25L 41.6296 40ZM 61.315 37.8401L 61.4563 38.0464L 62.1224 37.5901L 61.315 37.5901L 61.315 37.8401ZM 62.5675 36.8584L 62.5675 37.1084L 62.6629 37.1084L 62.7341 37.0448L 62.5675 36.8584ZM 64.5821 34.5513L 64.7893 34.6911L 65.0523 34.3013L 64.5821 34.3013L 64.5821 34.5513ZM 43.2557 34.4075L 43.432 34.2302L 43.432 34.2302L 43.2557 34.4075ZM 35.4533 26.6516L 35.277 26.829L 35.4533 26.6516ZM 65.1795 33.5695L 65.1795 33.8195L 65.3278 33.8195L 65.3989 33.6893L 65.1795 33.5695ZM 66.5132 29.6671L 66.7601 29.7065L 66.8064 29.4171L 66.5132 29.4171L 66.5132 29.6671ZM 66.6296 28.6853L 66.6296 28.9353L 66.8609 28.9353L 66.8789 28.7047L 66.6296 28.6853ZM 66.2772 24.6601L 66.5192 24.5974L 66.4707 24.4101L 66.2772 24.4101L 66.2772 24.6601ZM 52.7552 24.6601L 52.7552 24.4101L 52.5788 24.4101L 52.5197 24.5764L 52.7552 24.6601ZM 52.7552 23.6784L 52.5196 23.7621L 52.5788 23.9284L 52.7552 23.9284L 52.7552 23.6784ZM 65.9778 23.6784L 65.9778 23.9284L 66.3308 23.9284L 66.2136 23.5954L 65.9778 23.6784ZM 63.7845 19.8495L 63.9756 19.6883L 63.9007 19.5995L 63.7845 19.5995L 63.7845 19.8495ZM 43.2557 19.7057L 43.0795 19.8831L 43.2557 19.7057ZM 36.2963 12.7879L 36.4725 12.6106L 36.0463 12.1869L 36.0463 12.7879L 36.2963 12.7879ZM 36.2963 16.3082L 36.0463 16.3082L 36.0463 16.4122L 36.12 16.4855L 36.2963 16.3082ZM 43.8095 23.7765L 43.6332 23.9538L 43.7064 24.0265L 43.8095 24.0265L 43.8095 23.7765ZM 43.2557 24.6145L 43.0795 24.7918L 43.0795 24.7918L 43.2557 24.6145ZM 36.2963 17.6966L 36.4725 17.5193L 36.0463 17.0956L 36.0463 17.6966L 36.2963 17.6966ZM 36.2963 21.217L 36.0463 21.217L 36.0463 21.321L 36.12 21.3943L 36.2963 21.217ZM 42.9662 27.8471L 42.79 28.0244L 42.9147 28.1484L 43.0736 28.0728L 42.9662 27.8471ZM 42.2678 28.5413L 42.4931 28.6497L 42.5703 28.4894L 42.4441 28.364L 42.2678 28.5413ZM 36.2963 22.6054L 36.4725 22.4281L 36.0463 22.0044L 36.0463 22.6054L 36.2963 22.6054ZM 36.2963 26.1012L 36.0463 26.1012L 36.0463 26.2052L 36.12 26.2785L 36.2963 26.1012ZM 43.8095 33.5695L 43.6332 33.7468L 43.7064 33.8195L 43.8095 33.8195L 43.8095 33.5695ZM 62.8602 18.8678L 62.8602 19.1178L 63.4851 19.1178L 63.0326 18.6868L 62.8602 18.8678ZM 54.0741 15.4562L 53.8272 15.4958L 53.861 15.7062L 54.0741 15.7062L 54.0741 15.4562ZM 53.9837 14.9408L 54.2293 14.894L 54.1906 14.6908L 53.9837 14.6908L 53.9837 14.9408ZM 43.2557 14.797L 43.0795 14.9743L 43.2557 14.797ZM 36.2963 7.87911L 36.4725 7.70181L 36.0463 7.27811L 36.0463 7.87911L 36.2963 7.87911ZM 36.2963 11.3995L 36.0463 11.3995L 36.0463 11.5035L 36.12 11.5768L 36.2963 11.3995ZM 43.8095 18.8678L 43.6332 19.0451L 43.7064 19.1178L 43.8095 19.1178L 43.8095 18.8678ZM 53.7685 13.959L 53.7685 14.209L 54.0882 14.209L 54.0111 13.8987L 53.7685 13.959ZM 52.3309 10.1056L 52.5538 9.99232L 52.4843 9.85562L 52.3309 9.85562L 52.3309 10.1056ZM 45.0021 10.1056L 45.0021 9.85562L 44.8257 9.85562L 44.7666 10.0219L 45.0021 10.1056ZM 42.2668 8.98195L 42.4923 9.09003L 42.5692 8.92959L 42.4428 8.80436L 42.2668 8.98195ZM 38.5787 5.32744L 38.7546 5.14986L 38.7398 5.13518L 38.7228 5.12317L 38.5787 5.32744ZM 38.4621 5.21196L 38.6651 5.06603L 38.6529 5.04907L 38.6381 5.03437L 38.4621 5.21196ZM 36.2963 3.06587L 36.4723 2.88829L 36.0463 2.46621L 36.0463 3.06587L 36.2963 3.06587ZM 36.2963 6.4907L 36.0463 6.4907L 36.0463 6.59469L 36.12 6.66801L 36.2963 6.4907ZM 43.8095 13.959L 43.6332 14.1363L 43.7064 14.209L 43.8095 14.209L 43.8095 13.959ZM 51.7934 9.12387L 51.7934 9.37387L 52.2304 9.37387L 52.0089 8.99716L 51.7934 9.12387ZM 48.923 5.41775L 49.0997 5.24089L 49.0265 5.16775L 48.923 5.16775L 48.923 5.41775ZM 40.0688 5.41775L 40.0688 5.16775L 39.4613 5.16775L 39.8928 5.59534L 40.0688 5.41775ZM 42.9641 8.28664L 42.7881 8.46423L 42.9131 8.58806L 43.0718 8.51223L 42.9641 8.28664ZM 45.0021 9.12387L 44.7666 9.20763L 44.8257 9.37387L 45.0021 9.37387L 45.0021 9.12387ZM 47.8606 4.436L 47.8606 4.686L 48.5381 4.686L 48.023 4.24593L 47.8606 4.436ZM 36.2963 0L 36.3028 -0.249915L 36.0463 -0.256607L 36.0463 0L 36.2963 0ZM 36.2963 1.67966L 36.0463 1.67966L 36.0463 1.78388L 36.1203 1.85724L 36.2963 1.67966ZM 39.078 4.436L 38.902 4.61358L 38.9751 4.686L 39.078 4.686L 39.078 4.436ZM 40.642 36.6445L 40.892 36.6445L 40.892 36.5405L 40.8182 36.4672L 40.642 36.6445ZM 40.642 40L 40.642 40.25L 40.892 40.25L 40.892 40L 40.642 40ZM 33.9721 30.0144L 34.1483 29.8371L 34.0235 29.7131L 33.8647 29.7887L 33.9721 30.0144ZM 31.9362 29.1762L 32.1717 29.0924L 32.1126 28.9262L 31.9362 28.9262L 31.9362 29.1762ZM 29.5873 29.1762L 29.5873 28.9262L 28.9811 28.9262L 29.411 29.3535L 29.5873 29.1762ZM 36.5467 36.094L 36.3705 36.2714L 36.5467 36.094ZM 36.6914 40L 36.4414 40L 36.4414 40.25L 36.6914 40.25L 36.6914 40ZM 35.7037 36.6445L 35.9537 36.6445L 35.9537 36.5405L 35.88 36.4672L 35.7037 36.6445ZM 35.7037 40L 35.7037 40.25L 35.9537 40.25L 35.9537 40L 35.7037 40ZM 28.1905 29.1762L 28.3668 28.9989L 28.2936 28.9262L 28.1905 28.9262L 28.1905 29.1762ZM 24.649 29.1762L 24.649 28.9262L 24.0429 28.9262L 24.4727 29.3535L 24.649 29.1762ZM 31.6084 36.094L 31.4322 36.2714L 31.4322 36.2714L 31.6084 36.094ZM 31.7531 40L 31.5031 40L 31.5031 40.25L 31.7531 40.25L 31.7531 40ZM 30.7654 36.6445L 31.0154 36.6445L 31.0154 36.5405L 30.9417 36.4672L 30.7654 36.6445ZM 30.7654 40L 30.7654 40.25L 31.0154 40.25L 31.0154 40L 30.7654 40ZM 23.2522 29.1762L 23.4285 28.9989L 23.3554 28.9262L 23.2522 28.9262L 23.2522 29.1762ZM 19.8068 29.1762L 19.8068 28.9262L 19.2021 28.9262L 19.6303 29.3532L 19.8068 29.1762ZM 24.5582 33.9141L 24.3816 34.0911L 24.4018 34.1113L 24.426 34.1263L 24.5582 33.9141ZM 24.7159 34.0714L 24.504 34.2041L 24.5191 34.2283L 24.5394 34.2484L 24.7159 34.0714ZM 26.7448 36.0946L 26.5683 36.2716L 26.5683 36.2716L 26.7448 36.0946ZM 26.8889 40L 26.6389 40L 26.6389 40.25L 26.8889 40.25L 26.8889 40ZM 25.9012 36.644L 26.1512 36.644L 26.1512 36.5403L 26.0778 36.467L 25.9012 36.644ZM 25.9012 40L 25.9012 40.25L 26.1512 40.25L 26.1512 40L 25.9012 40ZM 24.0733 34.8213L 24.2498 34.6442L 24.1767 34.5713L 24.0733 34.5713L 24.0733 34.8213ZM 1.16893 34.8213L 1.16893 34.5713L 0.749797 34.5713L 0.948955 34.94L 1.16893 34.8213ZM 23.0888 33.8395L 23.0888 34.0895L 23.6935 34.0895L 23.2653 33.6625L 23.0888 33.8395ZM 0.707337 33.8395L 0.47552 33.9331L 0.538669 34.0895L 0.707337 34.0895L 0.707337 33.8395ZM 18.4123 29.1762L 18.5888 28.9991L 18.5156 28.9262L 18.4123 28.9262L 18.4123 29.1762ZM 0.0509417 29.1762L 0.0509417 28.9262L -0.174886 28.9262L -0.197771 29.1508L 0.0509417 29.1762ZM 0.0439378 31.1151L -0.204949 31.1387L -0.183506 31.3651L 0.0439378 31.3651L 0.0439378 31.1151ZM 15.1213 31.1151L 15.1213 31.3651L 15.2978 31.3651L 15.3569 31.1989L 15.1213 31.1151ZM 15.1213 32.0969L 15.3569 32.0131L 15.2978 31.8469L 15.1213 31.8469L 15.1213 32.0969ZM 0.187476 32.0969L 0.187476 31.8469L -0.117072 31.8469L -0.0577326 32.1456L 0.187476 32.0969ZM 1.63965 24.7583L 1.43178 24.6194L 1.17194 25.0083L 1.63965 25.0083L 1.63965 24.7583ZM 7.37533 24.7583L 7.37533 25.0083L 7.48503 25.0083L 7.55931 24.9276L 7.37533 24.7583ZM 10.006 21.899L 10.1899 22.0683L 10.1899 22.0683L 10.006 21.899ZM 18.4374 21.7394L 18.4374 21.9894L 18.5405 21.9894L 18.6137 21.9167L 18.4374 21.7394ZM 19.1568 21.0243L 19.333 21.2016L 19.4643 21.0712L 19.3778 20.9075L 19.1568 21.0243ZM 19.132 19.7055L 19.3573 19.8139L 19.4345 19.6536L 19.3083 19.5282L 19.132 19.7055ZM 18.4374 19.015L 18.6137 18.8377L 18.5405 18.765L 18.4374 18.765L 18.4374 19.015ZM 7.80053 19.015L 7.80053 18.765L 7.53135 18.765L 7.55121 19.0335L 7.80053 19.015ZM 8.04938 20.5367L 8.09535 20.7825L 8.35668 20.7336L 8.29183 20.4758L 8.04938 20.5367ZM 7.78561 18.0333L 7.53583 18.0226L 7.52473 18.2833L 7.78561 18.2833L 7.78561 18.0333ZM 18.9912 18.1771L 18.8149 18.3544L 18.9912 18.1771ZM 19.8304 19.0113L 19.6542 19.1886L 19.7789 19.3126L 19.9378 19.237L 19.8304 19.0113ZM 21.8663 19.8495L 21.6308 19.9333L 21.6899 20.0995L 21.8663 20.0995L 21.8663 19.8495ZM 26.0349 19.8495L 26.0349 20.0995L 26.2114 20.0995L 26.2705 19.9333L 26.0349 19.8495ZM 26.9136 18.9605L 27.0006 19.1948L 27.1636 19.1343L 27.1636 18.9605L 26.9136 18.9605ZM 26.9152 14.7039L 27.1644 14.7244L 27.1739 14.6086L 27.0915 14.5266L 26.9152 14.7039ZM 25.5732 13.37L 25.7495 13.1926L 25.6763 13.12L 25.5732 13.12L 25.5732 13.37ZM 18.1661 13.37L 18.1661 13.12L 18.0671 13.12L 17.9949 13.1878L 18.1661 13.37ZM 16.2192 15.1993L 16.048 15.0171L 16.048 15.0171L 16.2192 15.1993ZM 8.34727 15.3335L 8.34727 15.0835L 8.17577 15.0835L 8.11403 15.2435L 8.34727 15.3335ZM 8.79965 14.3517L 8.57968 14.2329L 8.38053 14.6017L 8.79965 14.6017L 8.79965 14.3517ZM 15.6835 14.3517L 15.6835 14.6017L 15.7825 14.6017L 15.8547 14.5339L 15.6835 14.3517ZM 17.6304 12.5223L 17.8016 12.7045L 17.8016 12.7045L 17.6304 12.5223ZM 25.0864 12.3882L 25.0864 12.6382L 25.3364 12.6382L 25.3364 12.3882L 25.0864 12.3882ZM 25.0864 3.39441L 25.3364 3.39441L 25.3364 2.91147L 24.9421 3.19027L 25.0864 3.39441ZM 19.1852 10.2529L 19.1045 10.4895L 19.311 10.5599L 19.4087 10.3649L 19.1852 10.2529ZM 26.0741 2.74213L 25.943 2.52924L 25.8241 2.60247L 25.8241 2.74213L 26.0741 2.74213ZM 26.0741 12.4794L 25.8241 12.4794L 25.8241 12.5834L 25.8978 12.6567L 26.0741 12.4794ZM 27.7566 14.1519L 27.5803 14.3292L 27.5803 14.3292L 27.7566 14.1519ZM 27.8857 14.6216L 27.6436 14.559L 27.6274 14.6217L 27.6436 14.6843L 27.8857 14.6216ZM 27.9012 16.685L 27.6512 16.685L 27.6512 17.3077L 28.0818 16.8579L 27.9012 16.685ZM 31.8765 12.5318L 32.0571 12.7047L 32.1265 12.6322L 32.1265 12.5318L 31.8765 12.5318ZM 31.8765 9.08097L 32.1265 9.08097L 32.1265 8.43962L 31.6925 8.91178L 31.8765 9.08097ZM 30.0436 11.0749L 29.8595 10.9057L 30.0436 11.0749ZM 29.3459 11.1061L 29.1778 11.2912L 29.1778 11.2912L 29.3459 11.1061ZM 29.3145 10.4126L 29.1304 10.2434L 29.1304 10.2434L 29.3145 10.4126ZM 31.8765 7.6256L 32.0606 7.79479L 32.1265 7.72305L 32.1265 7.6256L 31.8765 7.6256ZM 31.8765 4.1722L 32.1265 4.1722L 32.1265 3.53085L 31.6925 4.00301L 31.8765 4.1722ZM 30.0436 6.16613L 29.8595 5.99693L 30.0436 6.16613ZM 29.3459 6.19737L 29.1778 6.38242L 29.3459 6.19737ZM 29.3145 5.50387L 29.4985 5.67306L 29.3145 5.50387ZM 31.8765 2.71683L 32.0606 2.88603L 32.1265 2.81428L 32.1265 2.71683L 31.8765 2.71683ZM 31.8765 0.409541L 32.1265 0.409541L 32.1265 0.0999906L 31.8239 0.16514L 31.8765 0.409541ZM 43.2636 9.96945L 43.4358 9.78829L 43.0913 10.1506L 43.2636 9.96945ZM 26.0349 20.8313L 26.2705 20.7475L 26.2114 20.5813L 26.0349 20.5813L 26.0349 20.8313ZM 21.8663 20.8313L 21.8663 20.5813L 21.6899 20.5813L 21.6308 20.7475L 21.8663 20.8313ZM 19.8813 21.6926L 19.9801 21.4629L 19.8249 21.3961L 19.7051 21.5152L 19.8813 21.6926ZM 18.9912 22.5774L 18.8149 22.4001L 18.9912 22.5774ZM 10.5879 22.7211L 10.5879 22.4711L 10.4782 22.4711L 10.404 22.5519L 10.5879 22.7211ZM 8.71373 24.7583L 8.52975 24.589L 8.14401 25.0083L 8.71373 25.0083L 8.71373 24.7583ZM 31.8765 24.7583L 31.8765 25.0083L 32.1265 25.0083L 32.1265 24.7583L 31.8765 24.7583ZM 31.8765 13.9561L 32.1265 13.9561L 32.1265 13.3334L 31.6959 13.7832L 31.8765 13.9561ZM 27.9012 18.1093L 27.7206 17.9364L 27.6512 18.0089L 27.6512 18.1093L 27.9012 18.1093ZM 27.9012 18.9431L 27.6512 18.9431L 27.6512 19.1236L 27.8225 19.1804L 27.9012 18.9431ZM 33.6747 28.3306L 33.5024 28.5117L 33.847 28.1494L 33.6747 28.3306ZM 35.3021 -0.249905C 34.4641 -0.227874 33.6318 -0.150241 32.8249 -0.0220514L 32.9035 0.471743C 33.6943 0.345836 34.4939 0.271239 35.3152 0.249924L 35.3021 -0.249905ZM 32.6142 0.224846L 32.6142 25.2492L 33.1142 25.2492L 33.1142 0.224846L 32.6142 0.224846ZM 32.6142 25.2492C 32.6142 25.3808 32.5064 25.49 32.3704 25.49L 32.3704 25.99C 32.7798 25.99 33.1142 25.6597 33.1142 25.2492L 32.6142 25.2492ZM 32.3704 25.49L 1.06351 25.49L 1.06351 25.99L 32.3704 25.99L 32.3704 25.49ZM 0.840873 25.6263C 0.44309 26.4063 0.139179 27.2614 -0.0432714 28.144L 0.446443 28.2449C 0.620747 27.3959 0.902268 26.6041 1.28615 25.8538L 0.840873 25.6263ZM 18.6171 27.9444L 0.201586 27.9444L 0.201586 28.4444L 18.6171 28.4444L 18.6171 27.9444ZM 18.6175 27.9444L 18.6171 27.9444L 18.6171 28.4444L 18.6175 28.4444L 18.6175 27.9444ZM 23.4563 27.9444L 18.6175 27.9444L 18.6175 28.4444L 23.4563 28.4444L 23.4563 27.9444ZM 23.4573 27.9444L 23.4563 27.9444L 23.4563 28.4444L 23.4573 28.4444L 23.4573 27.9444ZM 28.3946 27.9444L 23.4573 27.9444L 23.4573 28.4444L 28.3946 28.4444L 28.3946 27.9444ZM 28.3955 27.9444L 28.3946 27.9444L 28.3946 28.4444L 28.3955 28.4444L 28.3955 27.9444ZM 31.9362 27.9444L 28.3955 27.9444L 28.3955 28.4444L 31.9362 28.4444L 31.9362 27.9444ZM 33.3333 26.9627C 32.58 26.9627 31.9386 27.4414 31.7006 28.1107L 32.1717 28.2782C 32.3405 27.8035 32.7966 27.4627 33.3333 27.4627L 33.3333 26.9627ZM 35.0648 28.6853C 35.0648 27.7325 34.2882 26.9627 33.3333 26.9627L 33.3333 27.4627C 34.0149 27.4627 34.5648 28.0115 34.5648 28.6853L 35.0648 28.6853ZM 34.8957 29.4286C 34.9985 29.2119 35.0631 28.9421 35.0648 28.6853L 34.5648 28.6853C 34.5666 28.8832 34.5275 29.044 34.4452 29.2118L 34.8957 29.4286ZM 41.6612 35.9167L 34.8467 29.1429L 34.4942 29.4975L 41.3087 36.2714L 41.6612 35.9167ZM 41.8796 36.4412C 41.8796 36.2442 41.8009 36.0556 41.6612 35.9167L 41.3088 36.2714C 41.3543 36.3166 41.3796 36.3777 41.3796 36.4412L 41.8796 36.4412ZM 41.8796 40L 41.8796 36.4412L 41.3796 36.4412L 41.3796 40L 41.8796 40ZM 41.6296 40.25L 54.321 40.25L 54.321 39.75L 41.6296 39.75L 41.6296 40.25ZM 54.321 40.25C 56.9567 40.2468 59.4375 39.4263 61.4563 38.0464L 61.1737 37.6339C 59.2154 38.9783 56.8771 39.7532 54.321 39.75L 54.321 40.25ZM 61.315 37.5901L 44.716 37.5901L 44.716 38.0901L 61.315 38.0901L 61.315 37.5901ZM 44.716 37.5901C 44.58 37.5901 44.4722 37.4809 44.4722 37.3493L 43.9722 37.3493C 43.9722 37.7599 44.3067 38.0901 44.716 38.0901L 44.716 37.5901ZM 44.4722 37.3493C 44.4722 37.2176 44.58 37.1084 44.716 37.1084L 44.716 36.6084C 44.3067 36.6084 43.9722 36.9387 43.9722 37.3493L 44.4722 37.3493ZM 44.716 37.1084L 62.5675 37.1084L 62.5675 36.6084L 44.716 36.6084L 44.716 37.1084ZM 62.7341 37.0448C 63.5087 36.3523 64.2067 35.5539 64.7893 34.6911L 64.3748 34.4115C 63.8105 35.249 63.1533 36.0007 62.401 36.6719L 62.7341 37.0448ZM 64.5821 34.3013L 43.6049 34.3013L 43.6049 34.8013L 64.5821 34.8013L 64.5821 34.3013ZM 43.6049 34.3013C 43.5398 34.3013 43.4776 34.2755 43.432 34.2302L 43.0795 34.5848C 43.2191 34.7236 43.4081 34.8013 43.6049 34.8013L 43.6049 34.3013ZM 43.432 34.2302L 35.6295 26.4743L 35.277 26.829L 43.0795 34.5848L 43.432 34.2302ZM 35.6295 26.4743C 35.584 26.4291 35.5586 26.3679 35.5586 26.3045L 35.0586 26.3045C 35.0586 26.5014 35.1373 26.6901 35.277 26.829L 35.6295 26.4743ZM 35.5586 26.3045L 35.5586 26.3042L 35.0586 26.3042L 35.0586 26.3045L 35.5586 26.3045ZM 35.5586 26.3042L 35.5586 26.3028L 35.0586 26.3028L 35.0586 26.3042L 35.5586 26.3042ZM 35.5586 26.3028L 35.5586 26.2943L 35.0586 26.2943L 35.0586 26.3028L 35.5586 26.3028ZM 35.5586 26.2943L 35.5586 26.2391L 35.0586 26.2391L 35.0586 26.2943L 35.5586 26.2943ZM 35.5586 26.2391L 35.5586 25.8451L 35.0586 25.8451L 35.0586 26.2391L 35.5586 26.2391ZM 35.5586 25.8451L 35.5586 22.8868L 35.0586 22.8868L 35.0586 25.8451L 35.5586 25.8451ZM 35.5586 22.8868L 35.5586 21.7292L 35.0586 21.7292L 35.0586 22.8868L 35.5586 22.8868ZM 35.5586 21.7292L 35.5586 21.7288L 35.0586 21.7288L 35.0586 21.7292L 35.5586 21.7292ZM 35.5586 21.7288L 35.5586 21.7279L 35.0586 21.7279L 35.0586 21.7288L 35.5586 21.7288ZM 35.5586 21.7279L 35.5586 21.7228L 35.0586 21.7228L 35.0586 21.7279L 35.5586 21.7279ZM 35.5586 21.7228L 35.5586 21.6867L 35.0586 21.6867L 35.0586 21.7228L 35.5586 21.7228ZM 35.5586 21.6867L 35.5586 21.5658L 35.0586 21.5658L 35.0586 21.6867L 35.5586 21.6867ZM 35.5586 21.5658L 35.5586 21.4954L 35.0586 21.4954L 35.0586 21.5658L 35.5586 21.5658ZM 35.5586 21.4954L 35.5586 21.4653L 35.0586 21.4653L 35.0586 21.4954L 35.5586 21.4954ZM 35.5586 21.4653L 35.5586 21.4326L 35.0586 21.4326L 35.0586 21.4653L 35.5586 21.4653ZM 35.5586 21.4326L 35.5586 21.4235L 35.0586 21.4235L 35.0586 21.4326L 35.5586 21.4326ZM 35.5586 21.4235L 35.5586 21.4211L 35.0586 21.4211L 35.0586 21.4235L 35.5586 21.4235ZM 35.5586 21.4211L 35.5586 21.4203L 35.0586 21.4203L 35.0586 21.4211L 35.5586 21.4211ZM 35.5586 21.4203L 35.5586 20.457L 35.0586 20.457L 35.0586 21.4203L 35.5586 21.4203ZM 35.5586 20.457L 35.5586 16.5116L 35.0586 16.5116L 35.0586 20.457L 35.5586 20.457ZM 35.5586 16.5116L 35.5586 1.88336L 35.0586 1.88336L 35.0586 16.5116L 35.5586 16.5116ZM 35.5586 1.88336L 35.5586 0.0181113L 35.0586 0.0181113L 35.0586 1.88336L 35.5586 1.88336ZM 35.5586 0.0181113L 35.5586 9.36273e-06L 35.0586 9.36273e-06L 35.0586 0.0181113L 35.5586 0.0181113ZM 65.3989 33.6893C 66.0605 32.4758 66.533 31.1207 66.7601 29.7065L 66.2663 29.6276C 66.0481 30.9985 65.6034 32.2729 64.96 33.4497L 65.3989 33.6893ZM 48.2222 29.9171L 66.5132 29.9171L 66.5132 29.4171L 48.2222 29.4171L 48.2222 29.9171ZM 47.4784 29.1762C 47.4784 29.5868 47.8128 29.9171 48.2222 29.9171L 48.2222 29.4171C 48.0861 29.4171 47.9784 29.3078 47.9784 29.1762L 47.4784 29.1762ZM 48.2222 28.4353C 47.8128 28.4353 47.4784 28.7656 47.4784 29.1762L 47.9784 29.1762C 47.9784 29.0446 48.0861 28.9353 48.2222 28.9353L 48.2222 28.4353ZM 66.6296 28.4353L 48.2222 28.4353L 48.2222 28.9353L 66.6296 28.9353L 66.6296 28.4353ZM 66.8789 28.7047C 66.9037 28.384 66.9166 28.0551 66.9167 27.7281L 66.4167 27.7281C 66.4167 28.0453 66.4046 28.3548 66.3804 28.6659L 66.8789 28.7047ZM 66.9167 27.7281C 66.9161 26.6525 66.7768 25.593 66.5192 24.5974L 66.0352 24.7228C 66.286 25.6886 66.4172 26.6852 66.4167 27.7281L 66.9167 27.7281ZM 52.7552 24.9101L 66.2772 24.9101L 66.2772 24.4101L 52.7552 24.4101L 52.7552 24.9101ZM 51.358 25.8919C 52.1114 25.8919 52.7528 25.4131 52.9908 24.7439L 52.5197 24.5764C 52.3509 25.051 51.8948 25.3919 51.358 25.3919L 51.358 25.8919ZM 49.6265 24.1692C 49.6265 25.122 50.4032 25.8919 51.358 25.8919L 51.358 25.3919C 50.6765 25.3919 50.1265 24.8431 50.1265 24.1692L 49.6265 24.1692ZM 51.358 22.4466C 50.4032 22.4466 49.6265 23.2164 49.6265 24.1692L 50.1265 24.1692C 50.1265 23.4954 50.6765 22.9466 51.358 22.9466L 51.358 22.4466ZM 52.9908 23.5946C 52.7528 22.9254 52.1114 22.4466 51.358 22.4466L 51.358 22.9466C 51.8948 22.9466 52.3509 23.2874 52.5196 23.7621L 52.9908 23.5946ZM 65.9778 23.4284L 52.7552 23.4284L 52.7552 23.9284L 65.9778 23.9284L 65.9778 23.4284ZM 66.2136 23.5954C 65.7081 22.1622 64.9365 20.8289 63.9756 19.6883L 63.5934 20.0107C 64.5275 21.1165 65.254 22.3714 65.742 23.7613L 66.2136 23.5954ZM 63.7845 19.5995L 43.6049 19.5995L 43.6049 20.0995L 63.7845 20.0995L 63.7845 19.5995ZM 43.6049 19.5995C 43.5398 19.5995 43.4776 19.5738 43.432 19.5284L 43.0795 19.8831C 43.2191 20.0218 43.4081 20.0995 43.6049 20.0995L 43.6049 19.5995ZM 43.432 19.5284L 36.4725 12.6106L 36.12 12.9652L 43.0795 19.8831L 43.432 19.5284ZM 36.0463 12.7879L 36.0463 16.3082L 36.5463 16.3082L 36.5463 12.7879L 36.0463 12.7879ZM 36.12 16.4855L 43.6332 23.9538L 43.9857 23.5992L 36.4725 16.1309L 36.12 16.4855ZM 43.8095 24.0265L 47.1852 24.0265L 47.1852 23.5265L 43.8095 23.5265L 43.8095 24.0265ZM 47.1852 24.0265C 47.3213 24.0265 47.429 24.1358 47.429 24.2674L 47.929 24.2674C 47.929 23.8568 47.5946 23.5265 47.1852 23.5265L 47.1852 24.0265ZM 47.429 24.2674C 47.429 24.399 47.3213 24.5083 47.1852 24.5083L 47.1852 25.0083C 47.5946 25.0083 47.929 24.678 47.929 24.2674L 47.429 24.2674ZM 47.1852 24.5083L 43.6049 24.5083L 43.6049 25.0083L 47.1852 25.0083L 47.1852 24.5083ZM 43.6049 24.5083C 43.5398 24.5083 43.4776 24.4825 43.432 24.4372L 43.0795 24.7918C 43.2191 24.9306 43.4081 25.0083 43.6049 25.0083L 43.6049 24.5083ZM 43.432 24.4372L 36.4725 17.5193L 36.12 17.8739L 43.0795 24.7918L 43.432 24.4372ZM 36.0463 17.6966L 36.0463 20.457L 36.5463 20.457L 36.5463 17.6966L 36.0463 17.6966ZM 36.0463 20.457L 36.0463 21.217L 36.5463 21.217L 36.5463 20.457L 36.0463 20.457ZM 36.12 21.3943L 42.79 28.0244L 43.1425 27.6698L 36.4725 21.0397L 36.12 21.3943ZM 43.0736 28.0728C 43.2427 27.9909 43.4053 27.9518 43.6049 27.9535L 43.6049 27.4535C 43.3471 27.4552 43.0765 27.5193 42.8588 27.6213L 43.0736 28.0728ZM 43.6049 27.9535C 44.2865 27.9535 44.8364 28.5023 44.8364 29.1762L 45.3364 29.1762C 45.3364 28.2234 44.5598 27.4535 43.6049 27.4535L 43.6049 27.9535ZM 44.8364 29.1762C 44.8364 29.85 44.2865 30.3988 43.6049 30.3988L 43.6049 30.8988C 44.5598 30.8988 45.3364 30.129 45.3364 29.1762L 44.8364 29.1762ZM 43.6049 30.3988C 42.9234 30.3988 42.3735 29.85 42.3735 29.1762L 41.8735 29.1762C 41.8735 30.129 42.6501 30.8988 43.6049 30.8988L 43.6049 30.3988ZM 42.3735 29.1762C 42.3717 28.9783 42.4108 28.8175 42.4931 28.6497L 42.0426 28.4328C 41.9398 28.6496 41.8752 28.9194 41.8735 29.1762L 42.3735 29.1762ZM 42.4441 28.364L 36.4725 22.4281L 36.12 22.7827L 42.0916 28.7186L 42.4441 28.364ZM 36.0463 22.6054L 36.0463 22.8868L 36.5463 22.8868L 36.5463 22.6054L 36.0463 22.6054ZM 36.0463 22.8868L 36.0463 25.8451L 36.5463 25.8451L 36.5463 22.8868L 36.0463 22.8868ZM 36.0463 25.8451L 36.0463 26.1012L 36.5463 26.1012L 36.5463 25.8451L 36.0463 25.8451ZM 36.12 26.2785L 43.6332 33.7468L 43.9857 33.3922L 36.4725 25.9239L 36.12 26.2785ZM 43.8095 33.8195L 65.1795 33.8195L 65.1795 33.3195L 43.8095 33.3195L 43.8095 33.8195ZM 63.0326 18.6868C 60.7699 16.5313 57.6998 15.2062 54.321 15.2062L 54.321 15.7062C 57.5666 15.7062 60.5145 16.9786 62.6878 19.0488L 63.0326 18.6868ZM 54.321 15.2062L 54.0741 15.2062L 54.0741 15.7062L 54.321 15.7062L 54.321 15.2062ZM 54.3209 15.4165C 54.2929 15.2421 54.2621 15.0668 54.2293 14.894L 53.7381 14.9875C 53.7703 15.1567 53.7998 15.325 53.8272 15.4958L 54.3209 15.4165ZM 53.9837 14.6908L 43.6049 14.6908L 43.6049 15.1908L 53.9837 15.1908L 53.9837 14.6908ZM 43.6049 14.6908C 43.5398 14.6908 43.4776 14.665 43.432 14.6197L 43.0795 14.9743C 43.2191 15.1131 43.4081 15.1908 43.6049 15.1908L 43.6049 14.6908ZM 43.432 14.6197L 36.4725 7.70181L 36.12 8.05642L 43.0795 14.9743L 43.432 14.6197ZM 36.0463 7.87911L 36.0463 11.3995L 36.5463 11.3995L 36.5463 7.87911L 36.0463 7.87911ZM 36.12 11.5768L 43.6332 19.0451L 43.9857 18.6905L 36.4725 11.2222L 36.12 11.5768ZM 43.8095 19.1178L 62.8602 19.1178L 62.8602 18.6178L 43.8095 18.6178L 43.8095 19.1178ZM 54.0111 13.8987C 53.672 12.5355 53.1767 11.2184 52.5538 9.99232L 52.1081 10.2189C 52.7191 11.42 53.1946 12.6841 53.5259 14.0193L 54.0111 13.8987ZM 52.3309 9.85562L 45.0021 9.85562L 45.0021 10.3556L 52.3309 10.3556L 52.3309 9.85562ZM 44.7666 10.0219C 44.5978 10.4966 44.1417 10.8374 43.6049 10.8374L 43.6049 11.3374C 44.3583 11.3374 44.9997 10.8586 45.2377 10.1894L 44.7666 10.0219ZM 43.6049 10.8374C 42.9234 10.8374 42.3735 10.2886 42.3735 9.61475L 41.8735 9.61475C 41.8735 10.5675 42.6501 11.3374 43.6049 11.3374L 43.6049 10.8374ZM 42.3735 9.61475C 42.3717 9.41758 42.4105 9.25731 42.4923 9.09003L 42.0414 8.87386C 41.9393 9.09 41.8752 9.35888 41.8735 9.61475L 42.3735 9.61475ZM 42.4428 8.80436L 38.7546 5.14986L 38.4027 5.50503L 42.0909 9.15953L 42.4428 8.80436ZM 38.7228 5.12317C 38.6943 5.10409 38.6844 5.09429 38.6651 5.06603L 38.2591 5.35788C 38.3041 5.41892 38.3731 5.48727 38.4346 5.53171L 38.7228 5.12317ZM 38.6381 5.03437L 36.4723 2.88829L 36.1203 3.24346L 38.2862 5.38954L 38.6381 5.03437ZM 36.0463 3.06587L 36.0463 6.4907L 36.5463 6.4907L 36.5463 3.06587L 36.0463 3.06587ZM 36.12 6.66801L 43.6332 14.1363L 43.9857 13.7817L 36.4725 6.3134L 36.12 6.66801ZM 43.8095 14.209L 53.7685 14.209L 53.7685 13.709L 43.8095 13.709L 43.8095 14.209ZM 52.0089 8.99716C 51.2035 7.62836 50.2175 6.35828 49.0997 5.24089L 48.7463 5.59462C 49.8426 6.68911 50.7896 7.90895 51.5779 9.25058L 52.0089 8.99716ZM 48.923 5.16775L 40.0688 5.16775L 40.0688 5.66775L 48.923 5.66775L 48.923 5.16775ZM 39.8928 5.59534L 42.7881 8.46423L 43.1401 8.10906L 40.2448 5.24017L 39.8928 5.59534ZM 43.0718 8.51223C 43.2414 8.4297 43.4046 8.3904 43.6049 8.39212L 43.6049 7.89212C 43.3462 7.89383 43.0747 7.95832 42.8563 8.06106L 43.0718 8.51223ZM 43.6049 8.39212C 44.1417 8.39212 44.5978 8.73293 44.7666 9.20763L 45.2377 9.04011C 44.9997 8.37088 44.3583 7.89212 43.6049 7.89212L 43.6049 8.39212ZM 45.0021 9.37387L 51.7934 9.37387L 51.7934 8.87387L 45.0021 8.87387L 45.0021 9.37387ZM 48.023 4.24593C 44.8668 1.55337 40.7583 -0.129577 36.3028 -0.249915L 36.2898 0.249915C 40.6553 0.359694 44.6063 1.98014 47.6982 4.62607L 48.023 4.24593ZM 36.0463 0L 36.0463 0.0181113L 36.5463 0.0181113L 36.5463 0L 36.0463 0ZM 36.0463 0.0181113L 36.0463 1.67966L 36.5463 1.67966L 36.5463 0.0181113L 36.0463 0.0181113ZM 36.1203 1.85724L 38.902 4.61358L 39.254 4.25842L 36.4723 1.50207L 36.1203 1.85724ZM 39.078 4.686L 47.8606 4.686L 47.8606 4.186L 39.078 4.186L 39.078 4.686ZM 40.392 36.6445L 40.392 40L 40.892 40L 40.892 36.6445L 40.392 36.6445ZM 33.7958 30.1917L 40.4657 36.8218L 40.8182 36.4672L 34.1483 29.8371L 33.7958 30.1917ZM 33.3333 30.4079C 33.5912 30.4062 33.8617 30.3422 34.0794 30.2402L 33.8647 29.7887C 33.6956 29.8706 33.5329 29.9096 33.3333 29.9079L 33.3333 30.4079ZM 31.7006 29.2599C 31.9386 29.9292 32.58 30.4079 33.3333 30.4079L 33.3333 29.9079C 32.7966 29.9079 32.3405 29.5671 32.1717 29.0924L 31.7006 29.2599ZM 29.5873 29.4262L 31.9362 29.4262L 31.9362 28.9262L 29.5873 28.9262L 29.5873 29.4262ZM 36.723 35.9167L 29.7635 28.9989L 29.411 29.3535L 36.3705 36.2714L 36.723 35.9167ZM 36.9414 36.4412C 36.9414 36.2442 36.8626 36.0556 36.723 35.9167L 36.3705 36.2714C 36.416 36.3166 36.4414 36.3778 36.4414 36.4412L 36.9414 36.4412ZM 36.9414 40L 36.9414 36.4412L 36.4414 36.4412L 36.4414 40L 36.9414 40ZM 36.6914 40.25L 40.642 40.25L 40.642 39.75L 36.6914 39.75L 36.6914 40.25ZM 35.4537 36.6445L 35.4537 40L 35.9537 40L 35.9537 36.6445L 35.4537 36.6445ZM 28.0143 29.3535L 35.5275 36.8218L 35.88 36.4672L 28.3668 28.9989L 28.0143 29.3535ZM 24.649 29.4262L 28.1905 29.4262L 28.1905 28.9262L 24.649 28.9262L 24.649 29.4262ZM 31.7847 35.9167L 24.8252 28.9989L 24.4727 29.3535L 31.4322 36.2714L 31.7847 35.9167ZM 32.0031 36.4412C 32.0031 36.2442 31.9244 36.0556 31.7847 35.9167L 31.4322 36.2714C 31.4778 36.3166 31.5031 36.3778 31.5031 36.4412L 32.0031 36.4412ZM 32.0031 40L 32.0031 36.4412L 31.5031 36.4412L 31.5031 40L 32.0031 40ZM 31.7531 40.25L 35.7037 40.25L 35.7037 39.75L 31.7531 39.75L 31.7531 40.25ZM 30.5154 36.6445L 30.5154 40L 31.0154 40L 31.0154 36.6445L 30.5154 36.6445ZM 23.076 29.3535L 30.5892 36.8218L 30.9417 36.4672L 23.4285 28.9989L 23.076 29.3535ZM 19.8068 29.4262L 23.2522 29.4262L 23.2522 28.9262L 19.8068 28.9262L 19.8068 29.4262ZM 24.7347 33.7371L 19.9833 28.9991L 19.6303 29.3532L 24.3816 34.0911L 24.7347 33.7371ZM 24.9278 33.9388C 24.8715 33.8519 24.7774 33.758 24.6903 33.7019L 24.426 34.1263C 24.4667 34.1498 24.4806 34.1636 24.504 34.2041L 24.9278 33.9388ZM 26.9213 35.9176L 24.8924 33.8944L 24.5394 34.2484L 26.5683 36.2716L 26.9213 35.9176ZM 27.1389 36.4412C 27.1389 36.2446 27.0605 36.0563 26.9213 35.9176L 26.5683 36.2716C 26.6137 36.3169 26.6389 36.3779 26.6389 36.4412L 27.1389 36.4412ZM 27.1389 40L 27.1389 36.4412L 26.6389 36.4412L 26.6389 40L 27.1389 40ZM 26.8889 40.25L 30.7654 40.25L 30.7654 39.75L 26.8889 39.75L 26.8889 40.25ZM 25.6512 36.644L 25.6512 40L 26.1512 40L 26.1512 36.644L 25.6512 36.644ZM 23.8968 34.9983L 25.7247 36.821L 26.0778 36.467L 24.2498 34.6442L 23.8968 34.9983ZM 1.16893 35.0713L 24.0733 35.0713L 24.0733 34.5713L 1.16893 34.5713L 1.16893 35.0713ZM 0.948955 34.94C 2.65622 38.1015 6.01308 40.25 9.87654 40.25L 9.87654 39.75C 6.20283 39.75 3.01177 37.7076 1.3889 34.7025L 0.948955 34.94ZM 9.87654 40.25L 25.9012 40.25L 25.9012 39.75L 9.87654 39.75L 9.87654 40.25ZM 23.0888 33.5895L 0.707337 33.5895L 0.707337 34.0895L 23.0888 34.0895L 23.0888 33.5895ZM 18.2357 29.3532L 22.9123 34.0165L 23.2653 33.6625L 18.5888 28.9991L 18.2357 29.3532ZM 0.0509417 29.4262L 18.4123 29.4262L 18.4123 28.9262L 0.0509417 28.9262L 0.0509417 29.4262ZM -0.197771 29.1508C -0.232018 29.4878 -0.249918 29.8362 -0.25 30.1825L 0.25 30.1825C 0.249918 29.849 0.266522 29.526 0.299655 29.2015L -0.197771 29.1508ZM -0.25 30.1825C -0.249929 30.503 -0.234502 30.8259 -0.204949 31.1387L 0.292824 31.0916C 0.264236 30.7904 0.249929 30.4911 0.25 30.1825L -0.25 30.1825ZM 15.1213 30.8651L 0.0439378 30.8651L 0.0439378 31.3651L 15.1213 31.3651L 15.1213 30.8651ZM 16.5185 29.8834C 15.7652 29.8834 15.1237 30.3621 14.8858 31.0314L 15.3569 31.1989C 15.5257 30.7242 15.9818 30.3834 16.5185 30.3834L 16.5185 29.8834ZM 18.25 31.606C 18.25 30.6532 17.4734 29.8834 16.5185 29.8834L 16.5185 30.3834C 17.2001 30.3834 17.75 30.9322 17.75 31.606L 18.25 31.606ZM 16.5185 33.3286C 17.4734 33.3286 18.25 32.5588 18.25 31.606L 17.75 31.606C 17.75 32.2798 17.2001 32.8286 16.5185 32.8286L 16.5185 33.3286ZM 14.8858 32.1806C 15.1237 32.8499 15.7652 33.3286 16.5185 33.3286L 16.5185 32.8286C 15.9818 32.8286 15.5257 32.4878 15.3569 32.0131L 14.8858 32.1806ZM 0.187476 32.3469L 15.1213 32.3469L 15.1213 31.8469L 0.187476 31.8469L 0.187476 32.3469ZM -0.0577326 32.1456C 0.0645791 32.7598 0.246423 33.365 0.47552 33.9331L 0.939154 33.7459C 0.718158 33.1993 0.549766 32.639 0.432684 32.0482L -0.0577326 32.1456ZM 1.63965 25.0083L 7.37533 25.0083L 7.37533 24.5083L 1.63965 24.5083L 1.63965 25.0083ZM 7.55931 24.9276L 10.1899 22.0683L 9.82198 21.7297L 7.19135 24.589L 7.55931 24.9276ZM 10.1899 22.0683C 10.236 22.0182 10.3014 21.9894 10.3704 21.9894L 10.3704 21.4894C 10.1621 21.4894 9.96304 21.5764 9.82198 21.7297L 10.1899 22.0683ZM 10.3704 21.9894L 18.4374 21.9894L 18.4374 21.4894L 10.3704 21.4894L 10.3704 21.9894ZM 18.6137 21.9167L 19.333 21.2016L 18.9805 20.847L 18.2612 21.5621L 18.6137 21.9167ZM 19.3778 20.9075C 19.2817 20.7292 19.2356 20.5553 19.2377 20.3404L 18.7377 20.3404C 18.7397 20.6193 18.8158 20.9107 18.9358 21.1412L 19.3778 20.9075ZM 19.2377 20.3404C 19.2359 20.1425 19.275 19.9817 19.3573 19.8139L 18.9068 19.597C 18.804 19.8138 18.7394 20.0836 18.7377 20.3404L 19.2377 20.3404ZM 19.3083 19.5282L 18.6137 18.8377L 18.2612 19.1923L 18.9558 19.8828L 19.3083 19.5282ZM 18.4374 18.765L 7.80053 18.765L 7.80053 19.265L 18.4374 19.265L 18.4374 18.765ZM 7.55121 19.0335C 7.59081 19.5651 7.68035 20.0936 7.80693 20.5977L 8.29183 20.4758C 8.16966 19.9908 8.08716 19.5048 8.04985 18.9966L 7.55121 19.0335ZM 8.00342 20.291C 5.26158 20.8039 2.91429 22.4006 1.43178 24.6194L 1.84752 24.8972C 3.25648 22.7884 5.48797 21.2702 8.09535 20.7825L 8.00342 20.291ZM 7.78561 18.2833L 18.642 18.2833L 18.642 17.7833L 7.78561 17.7833L 7.78561 18.2833ZM 18.642 18.2833C 18.7071 18.2833 18.7693 18.309 18.8149 18.3544L 19.1674 17.9997C 19.0278 17.861 18.8388 17.7833 18.642 17.7833L 18.642 18.2833ZM 18.8149 18.3544L 19.6542 19.1886L 20.0067 18.834L 19.1674 17.9997L 18.8149 18.3544ZM 19.9378 19.237C 20.1069 19.1551 20.2695 19.1161 20.4691 19.1178L 20.4691 18.6178C 20.2113 18.6195 19.9407 18.6835 19.723 18.7855L 19.9378 19.237ZM 20.4691 19.1178C 21.0059 19.1178 21.462 19.4586 21.6308 19.9333L 22.1019 19.7658C 21.8639 19.0965 21.2225 18.6178 20.4691 18.6178L 20.4691 19.1178ZM 21.8663 20.0995L 26.0349 20.0995L 26.0349 19.5995L 21.8663 19.5995L 21.8663 20.0995ZM 26.2705 19.9333C 26.3914 19.5932 26.6602 19.3213 27.0006 19.1948L 26.8265 18.7261C 26.3484 18.9037 25.9702 19.2854 25.7994 19.7658L 26.2705 19.9333ZM 27.1636 18.9605L 27.1636 14.7444L 26.6636 14.7444L 26.6636 18.9605L 27.1636 18.9605ZM 27.1636 14.7444C 27.1635 14.7359 27.1637 14.7327 27.1644 14.7244L 26.6661 14.6835C 26.6646 14.7019 26.6636 14.7256 26.6636 14.7444L 27.1636 14.7444ZM 27.0915 14.5266L 25.7495 13.1926L 25.397 13.5473L 26.739 14.8812L 27.0915 14.5266ZM 25.5732 13.12L 18.1661 13.12L 18.1661 13.62L 25.5732 13.62L 25.5732 13.12ZM 17.9949 13.1878L 16.048 15.0171L 16.3904 15.3815L 18.3373 13.5521L 17.9949 13.1878ZM 16.048 15.0171C 15.9935 15.0744 15.9593 15.0879 15.8799 15.0835L 15.8799 15.5835C 16.0529 15.579 16.2614 15.4965 16.3904 15.3815L 16.048 15.0171ZM 15.8799 15.0835L 8.34727 15.0835L 8.34727 15.5835L 15.8799 15.5835L 15.8799 15.0835ZM 8.11403 15.2435C 7.78186 16.1063 7.578 17.0542 7.53583 18.0226L 8.03538 18.0439C 8.07396 17.1177 8.26097 16.2494 8.5805 15.4235L 8.11403 15.2435ZM 8.79965 14.6017L 15.6835 14.6017L 15.6835 14.1017L 8.79965 14.1017L 8.79965 14.6017ZM 15.8547 14.5339L 17.8016 12.7045L 17.4592 12.3402L 15.5123 14.1695L 15.8547 14.5339ZM 17.8016 12.7045C 17.8561 12.6473 17.8903 12.6338 17.9697 12.6382L 17.9697 12.1382C 17.7967 12.1426 17.5882 12.2251 17.4592 12.3402L 17.8016 12.7045ZM 17.9697 12.6382L 25.0864 12.6382L 25.0864 12.1382L 17.9697 12.1382L 17.9697 12.6382ZM 25.3364 12.3882L 25.3364 3.39441L 24.8364 3.39441L 24.8364 12.3882L 25.3364 12.3882ZM 24.9421 3.19027C 22.4259 4.97155 20.3491 7.37572 18.9617 10.1409L 19.4087 10.3649C 20.765 7.65326 22.7619 5.34184 25.2307 3.59854L 24.9421 3.19027ZM 19.2658 10.0162C 18.3809 9.71565 17.4022 9.56185 16.4198 9.5611L 16.4198 10.0611C 17.3633 10.0603 18.2611 10.2011 19.1045 10.4895L 19.2658 10.0162ZM 16.4198 9.5611C 13.0313 9.5611 10.0799 11.4547 8.57968 14.2329L 9.01963 14.4705C 10.4358 11.848 13.2218 10.0611 16.4198 10.0611L 16.4198 9.5611ZM 25.8241 2.74213L 25.8241 12.4794L 26.3241 12.4794L 26.3241 2.74213L 25.8241 2.74213ZM 25.8978 12.6567L 27.5803 14.3292L 27.9328 13.9746L 26.2503 12.3021L 25.8978 12.6567ZM 27.5803 14.3292C 27.6431 14.3915 27.6643 14.4791 27.6436 14.559L 28.1277 14.6842C 28.1911 14.4389 28.1263 14.1668 27.9328 13.9746L 27.5803 14.3292ZM 27.6436 14.6843C 27.6504 14.7086 27.6518 14.7183 27.6512 14.7444L 28.1512 14.7444C 28.1507 14.6857 28.1412 14.6131 28.1277 14.5589L 27.6436 14.6843ZM 27.6512 14.7444L 27.6512 16.685L 28.1512 16.685L 28.1512 14.7444L 27.6512 14.7444ZM 28.0818 16.8579L 32.0571 12.7047L 31.6959 12.359L 27.7206 16.5121L 28.0818 16.8579ZM 32.1265 12.5318L 32.1265 9.08097L 31.6265 9.08097L 31.6265 12.5318L 32.1265 12.5318ZM 31.6925 8.91178L 29.8595 10.9057L 30.2276 11.2441L 32.0606 9.25016L 31.6925 8.91178ZM 29.8595 10.9057C 29.7687 11.0045 29.6136 11.0116 29.514 10.9211L 29.1778 11.2912C 29.4808 11.5664 29.9505 11.5455 30.2276 11.2441L 29.8595 10.9057ZM 29.514 10.9211C 29.4152 10.8313 29.4085 10.6798 29.4985 10.5818L 29.1304 10.2434C 28.8525 10.5457 28.8739 11.0152 29.1778 11.2912L 29.514 10.9211ZM 29.4985 10.5818L 32.0606 7.79479L 31.6925 7.45641L 29.1304 10.2434L 29.4985 10.5818ZM 32.1265 7.6256L 32.1265 4.1722L 31.6265 4.1722L 31.6265 7.6256L 32.1265 7.6256ZM 31.6925 4.00301L 29.8595 5.99693L 30.2276 6.33532L 32.0606 4.3414L 31.6925 4.00301ZM 29.8595 5.99693C 29.7687 6.09575 29.6136 6.10283 29.514 6.01231L 29.1778 6.38242C 29.4808 6.65766 29.9505 6.63676 30.2276 6.33532L 29.8595 5.99693ZM 29.514 6.01231C 29.4152 5.92257 29.4085 5.77102 29.4985 5.67306L 29.1304 5.33467C 28.8525 5.63697 28.8739 6.1064 29.1778 6.38242L 29.514 6.01231ZM 29.4985 5.67306L 32.0606 2.88603L 31.6925 2.54764L 29.1304 5.33467L 29.4985 5.67306ZM 32.1265 2.71683L 32.1265 0.409541L 31.6265 0.409541L 31.6265 2.71683L 32.1265 2.71683ZM 31.8239 0.16514C 29.716 0.619938 27.721 1.43546 25.943 2.52924L 26.2051 2.95501C 27.9475 1.88124 29.8638 1.09759 31.9292 0.653941L 31.8239 0.16514ZM 43.6049 9.85562C 43.5416 9.85562 43.4811 9.8313 43.4358 9.78829L 43.0913 10.1506C 43.2297 10.2822 43.4136 10.3556 43.6049 10.3556L 43.6049 9.85562ZM 43.0913 10.1506C 43.2247 10.2775 43.406 10.3556 43.6049 10.3556L 43.6049 9.85562C 43.539 9.85562 43.4798 9.83009 43.4359 9.78831L 43.0913 10.1506ZM 25.7994 20.915C 26.0373 21.5843 26.6787 22.063 27.4321 22.063L 27.4321 21.563C 26.8954 21.563 26.4393 21.2222 26.2705 20.7475L 25.7994 20.915ZM 21.8663 21.0813L 26.0349 21.0813L 26.0349 20.5813L 21.8663 20.5813L 21.8663 21.0813ZM 20.4691 22.063C 21.2225 22.063 21.8639 21.5843 22.1019 20.915L 21.6308 20.7475C 21.462 21.2222 21.0059 21.563 20.4691 21.563L 20.4691 22.063ZM 19.7825 21.9222C 19.9854 22.0082 20.2337 22.0616 20.4691 22.063L 20.4691 21.563C 20.2868 21.5644 20.1377 21.5319 19.9801 21.4629L 19.7825 21.9222ZM 19.1674 22.7547L 20.0576 21.8699L 19.7051 21.5152L 18.8149 22.4001L 19.1674 22.7547ZM 18.642 22.9711C 18.8388 22.9711 19.0278 22.8935 19.1674 22.7547L 18.8149 22.4001C 18.7693 22.4454 18.7071 22.4711 18.642 22.4711L 18.642 22.9711ZM 10.5879 22.9711L 18.642 22.9711L 18.642 22.4711L 10.5879 22.4711L 10.5879 22.9711ZM 8.89771 24.9276L 10.7719 22.8904L 10.404 22.5519L 8.52975 24.589L 8.89771 24.9276ZM 31.8765 24.5083L 8.71373 24.5083L 8.71373 25.0083L 31.8765 25.0083L 31.8765 24.5083ZM 31.6265 13.9561L 31.6265 24.7583L 32.1265 24.7583L 32.1265 13.9561L 31.6265 13.9561ZM 28.0818 18.2821L 32.0571 14.129L 31.6959 13.7832L 27.7206 17.9364L 28.0818 18.2821ZM 28.1512 18.9431L 28.1512 18.1093L 27.6512 18.1093L 27.6512 18.9431L 28.1512 18.9431ZM 29.1636 20.3404C 29.1636 19.5783 28.6666 18.9335 27.9799 18.7058L 27.8225 19.1804C 28.3124 19.3429 28.6636 19.8018 28.6636 20.3404L 29.1636 20.3404ZM 27.4321 22.063C 28.387 22.063 29.1636 21.2932 29.1636 20.3404L 28.6636 20.3404C 28.6636 21.0142 28.1136 21.563 27.4321 21.563L 27.4321 22.063ZM 33.3333 28.4444C 33.3966 28.4444 33.4572 28.4687 33.5024 28.5117L 33.847 28.1494C 33.7086 28.0178 33.5246 27.9444 33.3333 27.9444L 33.3333 28.4444ZM 33.847 28.1494C 33.7135 28.0225 33.5322 27.9444 33.3333 27.9444L 33.3333 28.4444C 33.3993 28.4444 33.4585 28.47 33.5024 28.5117L 33.847 28.1494Z"/>
</defs>
</svg>
