<svg width="190" height="190" viewBox="0 0 190 190" version="1.1" xmlns="http://www.w3.org/2000/svg" xmlns:xlink="http://www.w3.org/1999/xlink" xmlns:figma="http://www.figma.com/figma/ns">
<title>gogreen-img</title>
<desc>Created using Figma</desc>
<g id="Canvas" transform="translate(-596 -826)" figma:type="canvas">
<g id="gogreen-img" figma:type="frame">
<g id="img" figma:type="frame">
<g id="bg" figma:type="rounded-rectangle">
<use xlink:href="#path0_fill" transform="translate(596 826)" fill="#FFFFFF"/>
<mask id="mask0_outline_ins">
<use xlink:href="#path0_fill" fill="white" transform="translate(596 826)"/>
</mask>
<g mask="url(#mask0_outline_ins)">
<use xlink:href="#path1_stroke_2x" transform="translate(596 826)" fill="#000000" fill-opacity="0.1"/>
</g>
</g>
</g>
<g id="Vector" figma:type="vector">
<use xlink:href="#path2_fill" transform="translate(653 891)" fill="#94CBFE"/>
<use xlink:href="#path3_stroke" transform="translate(653 891)" fill="#047AE9"/>
</g>
</g>
</g>
<defs>
<path id="path0_fill" d="M 0 10C 0 4.47715 4.47715 0 10 0L 180 0C 185.523 0 190 4.47715 190 10L 190 180C 190 185.523 185.523 190 180 190L 10 190C 4.47715 190 0 185.523 0 180L 0 10Z"/>
<path id="path1_stroke_2x" d="M 10 1L 180 1L 180 -1L 10 -1L 10 1ZM 189 10L 189 180L 191 180L 191 10L 189 10ZM 180 189L 10 189L 10 191L 180 191L 180 189ZM 1 180L 1 10L -1 10L -1 180L 1 180ZM 10 -1C 3.92487 -1 -1 3.92487 -1 10L 1 10C 1 5.02944 5.02944 1 10 1L 10 -1ZM 180 1C 184.971 1 189 5.02944 189 10L 191 10C 191 3.92487 186.075 -1 180 -1L 180 1ZM 189 180C 189 184.971 184.971 189 180 189L 180 191C 186.075 191 191 186.075 191 180L 189 180ZM 10 189C 5.02944 189 1 184.971 1 180L -1 180C -1 186.075 3.92487 191 10 191L 10 189Z"/>
<path id="path2_fill" d="M 19.0829 6.0966C 3.63129 15.0877 4.51824 29.7326 5.05024 35.1513C 25.0078 11.4431 54.86 12.5928 54.86 12.5928C 54.86 12.5928 12.5436 27.1494 0.115028 56.3395C -0.866518 58.6438 4.72037 61.6406 5.99541 58.9163C 9.80112 50.7984 15.1042 44.71 15.1042 44.71C 22.9283 47.6297 36.4629 51.0514 46.056 44.2819C 58.7983 35.2892 57.4958 15.3545 75.6859 5.64822C 79.9347 3.382 40.0309 -6.09399 19.0829 6.0966Z"/>
<path id="path3_stroke" d="M 19.0829 6.0966L 20.3403 8.25741L 20.3404 8.25735L 19.0829 6.0966ZM 5.05024 35.1513L 2.56221 35.3956L 3.14193 41.3003L 6.96281 36.7613L 5.05024 35.1513ZM 54.86 12.5928L 55.6732 14.9569L 54.9562 10.0947L 54.86 12.5928ZM 0.115028 56.3395L 2.41506 57.3192L 2.41521 57.3189L 0.115028 56.3395ZM 5.99541 58.9163L 3.73181 57.8551L 3.73112 57.8565L 5.99541 58.9163ZM 15.1042 44.71L 15.9783 42.3678L 14.3562 41.7625L 13.2191 43.068L 15.1042 44.71ZM 46.056 44.2819L 47.4974 46.3245L 47.4976 46.3244L 46.056 44.2819ZM 75.6859 5.64822L 74.5094 3.44238L 74.509 3.44258L 75.6859 5.64822ZM 17.8256 3.9358C 0.999885 13.7265 2.01404 29.8123 2.56221 35.3956L 7.53828 34.907C 7.02244 29.653 6.26269 16.449 20.3403 8.25741L 17.8256 3.9358ZM 6.96281 36.7613C 16.5383 25.2902 28.3244 20.0112 38.0881 17.3958C 42.9133 16.0939 47.0484 15.5311 50.0941 15.2748C 51.5921 15.1476 52.7527 15.1036 53.5818 15.0894C 53.9848 15.0822 54.2787 15.083 54.4905 15.0855C 54.5908 15.0867 54.6587 15.0881 54.7102 15.0895C 54.7333 15.09 54.7466 15.0904 54.7583 15.0908C 54.7628 15.091 54.7641 15.091 54.7664 15.0911C 54.7669 15.0911 54.7667 15.0911 54.7665 15.0911C 54.7662 15.0911 54.7656 15.0911 54.7655 15.0911C 54.7647 15.091 54.7638 15.091 54.86 12.5928C 54.9562 10.0947 54.9551 10.0947 54.9539 10.0946C 54.9533 10.0946 54.952 10.0945 54.9509 10.0945C 54.9493 10.0944 54.9459 10.0943 54.9428 10.0942C 54.9378 10.094 54.9283 10.0937 54.9184 10.0934C 54.9012 10.0928 54.8714 10.092 54.8373 10.0911C 54.7746 10.0895 54.6726 10.0874 54.5493 10.0859C 54.314 10.0831 53.9472 10.0824 53.4949 10.0901C 52.6135 10.1056 51.2859 10.157 49.6734 10.2925C 46.4982 10.5615 41.9229 11.193 36.7904 12.5672C 26.6386 15.304 13.5197 21.3042 3.13768 33.5413L 6.96281 36.7613ZM 54.86 12.5928C 54.0468 10.2288 54.046 10.2291 54.0451 10.2294C 54.0446 10.2296 54.0435 10.2299 54.0424 10.2303C 54.0408 10.2309 54.0376 10.232 54.0342 10.2332C 54.0283 10.2352 54.0181 10.2387 54.0063 10.2429C 53.9842 10.2506 53.9487 10.263 53.9052 10.2784C 53.8213 10.308 53.6913 10.3544 53.5278 10.4138C 53.2076 10.5302 52.7247 10.7091 52.1189 10.9424C 50.9214 11.4037 49.168 12.1074 47.0518 13.033C 42.8494 14.8722 37.0277 17.6756 30.8609 21.3768C 18.5882 28.7488 4.34302 40.0279 -2.18515 55.3601L 2.41521 57.3189C 8.31564 43.461 21.4429 32.8667 33.4356 25.663C 39.4015 22.0762 44.9357 19.4161 49.056 17.6138C 51.1012 16.7186 52.7509 16.057 53.9161 15.6083C 54.4916 15.3865 54.9299 15.2242 55.2357 15.1131C 55.3852 15.0587 55.4943 15.0198 55.5714 14.9926C 55.6082 14.9796 55.6336 14.9707 55.6524 14.9641C 55.6609 14.9612 55.6661 14.9594 55.6704 14.9579C 55.6722 14.9573 55.6729 14.957 55.6737 14.9567C 55.674 14.9566 55.6739 14.9567 55.674 14.9566C 55.6737 14.9567 55.6732 14.9569 54.86 12.5928ZM -2.18501 55.3598C -2.90061 57.0398 -2.28152 58.5972 -1.58717 59.5598C -0.95577 60.3928 0.168299 61.2859 1.11615 61.7621C 2.10857 62.2445 3.3629 62.5984 4.64004 62.4755C 6.02479 62.3423 7.49419 61.6116 8.25969 59.976L 3.73112 57.8565C 3.76722 57.7794 3.85389 57.6627 3.99072 57.5753C 4.11175 57.498 4.18969 57.4958 4.16128 57.4985C 4.06295 57.508 3.74284 57.4795 3.30185 57.2652C 2.86907 57.0548 2.58058 56.7909 2.46806 56.6349C 2.41823 56.5658 2.45577 56.5912 2.48201 56.7183C 2.51346 56.8708 2.51059 57.095 2.41506 57.3192L -2.18501 55.3598ZM 8.259 59.9775C 10.0871 56.0653 12.2475 52.7046 14.0153 50.2164C 14.8874 48.9874 15.6269 48.0284 16.1703 47.3474C 16.4364 47.0137 16.6403 46.7663 16.7869 46.591C 16.8575 46.5065 16.9079 46.4471 16.9449 46.4038C 16.9621 46.3837 16.9732 46.3708 16.982 46.3606C 16.9857 46.3562 16.9875 46.3541 16.9894 46.3519C 16.9901 46.3512 16.9907 46.3505 16.9904 46.3509C 16.9904 46.3508 16.9901 46.3512 16.9901 46.3512C 16.99 46.3512 16.9898 46.3515 16.9898 46.3515C 16.9896 46.3517 16.9894 46.352 15.1042 44.71C 13.2191 43.068 13.2188 43.0683 13.2185 43.0686C 13.2184 43.0688 13.2181 43.0691 13.2178 43.0694C 13.2175 43.0698 13.2168 43.0706 13.2161 43.0714C 13.2151 43.0725 13.2132 43.0747 13.2113 43.077C 13.208 43.0807 13.2022 43.0874 13.1958 43.0948C 13.1843 43.1082 13.1651 43.1305 13.1425 43.1569C 13.1 43.2067 13.0328 43.2861 12.9509 43.3839C 12.7926 43.5733 12.5525 43.8649 12.262 44.2289C 11.6922 44.9432 10.868 46.0136 9.93862 47.3214C 8.10344 49.9069 5.70944 53.6494 3.73181 57.8551L 8.259 59.9775ZM 14.2302 47.0522C 18.223 48.5407 23.9135 50.2158 29.7489 50.6238C 35.6396 51.0201 42.0661 50.1572 47.4974 46.3245L 44.6146 42.2393C 40.4529 45.176 35.3155 45.987 30.0846 45.635C 24.7983 45.2947 19.8095 43.7991 15.9783 42.3678L 14.2302 47.0522ZM 47.4976 46.3244C 54.5308 41.3608 57.6826 33.3427 61.0786 26.3211C 64.5816 19.0753 68.334 12.2934 76.8629 7.85386L 74.509 3.44258C 64.8478 8.70926 60.1563 16.7479 56.5775 24.1441C 52.8917 31.7646 50.3236 38.2102 44.6145 42.2393L 47.4976 46.3244ZM 76.8625 7.85406C 77.2135 7.66682 77.7503 7.30968 78.1224 6.66467C 78.5538 5.91684 78.5942 5.07697 78.351 4.35142C 77.9807 3.24654 77.0375 2.63348 76.6553 2.39526C 75.6246 1.75277 74.056 1.16809 72.2827 0.64871C 68.6989 -0.39811 63.2195 -1.45939 57.0661 -2.03803C 44.8772 -3.17822 29.0007 -2.5675 17.8255 3.93585L 20.3404 8.25735C 30.1132 2.57012 44.6625 1.82353 56.6004 2.94024C 62.5103 3.49006 67.5194 4.46078 70.8773 5.44712C 72.5748 5.94433 73.5902 6.37652 74.0104 6.6384C 74.3536 6.85236 73.8525 6.66336 73.6102 5.94031C 73.431 5.40568 73.4568 4.74616 73.7913 4.16637C 74.0664 3.68941 74.4239 3.48799 74.5094 3.44238L 76.8625 7.85406Z"/>
</defs>
</svg>
