<svg width="66" height="47" viewBox="0 0 66 47" version="1.1" xmlns="http://www.w3.org/2000/svg" xmlns:xlink="http://www.w3.org/1999/xlink" xmlns:figma="http://www.figma.com/figma/ns">
<title>Union</title>
<desc>Created using Figma</desc>
<g id="Canvas" transform="translate(-225 1441)" figma:type="canvas">
<g id="Union" figma:type="vector-operation">
<use xlink:href="#path0_fill" transform="translate(225 -1441)" fill="#FFFFFF"/>
</g>
</g>
<defs>
<path id="path0_fill" fill-rule="evenodd" d="M 0.568527 32.5C 0.199783 31.4005 0 30.2236 0 29C 0 24.3082 2.93741 20.3024 7.07352 18.7214C 7.66916 13.5756 11.8161 9.51196 17 9.0448L 17 16.0448L 17 20.0709L 17 27.5L 17.062 27.5C 15.8323 28.1824 15 29.494 15 31C 15 33.2091 16.7909 35 19 35C 21.2091 35 23 33.2091 23 31C 23 29.494 22.1677 28.1824 20.938 27.5L 21 27.5L 21 20.5487L 21 19.5L 23.7064 19.5L 30.8773 19.5C 31.1876 19.887 31.5683 20.2151 32 20.4648L 32 27.5352C 30.8044 28.2268 30 29.5194 30 31C 30 33.2091 31.7909 35 34 35C 35.4806 35 36.7733 34.1956 37.4649 33L 51.5351 33C 52.2267 34.1956 53.5194 35 55 35C 57.2091 35 59 33.2091 59 31C 59 29.494 58.1677 28.1824 56.938 27.5L 57 27.5L 57 26.7517L 57 22.4966L 57 15.4966C 62.2 17.0103 66 21.8114 66 27.5C 66 28.715 65.8267 29.8894 65.5034 31C 65.8267 32.1106 66 33.285 66 34.5C 66 41.4036 60.4036 47 53.5 47L 11 47C 4.92487 47 0 42.0751 0 36C 0 34.7764 0.199783 33.5995 0.568527 32.5ZM 4.19365 37.642C 4.9325 40.7158 7.69951 43 11 43L 53.5 43C 57.3252 43 60.5603 40.4733 61.6271 36.9977C 59.4418 38.8694 56.6029 40 53.5 40L 11 40C 8.43015 40 6.06613 39.1188 4.19365 37.642ZM 21 9L 20.9962 9C 23.8579 3.64429 29.5034 0 36 0C 44.7173 0 51.9021 6.5614 52.8853 15.0149C 52.9235 15.0131 52.9617 15.0114 53 15.0099L 53 22.0099L 53 26.014L 53 27.5L 53.062 27.5C 52.4272 27.8523 51.8983 28.3722 51.5351 29L 37.4649 29C 37.1136 28.3927 36.6072 27.8865 36 27.5352L 36 20.4648C 37.1956 19.7732 38 18.4806 38 17C 38 14.7909 36.2091 13 34 13C 32.3213 13 30.8842 14.0341 30.2908 15.5L 26.1628 15.5L 21.2743 15.5L 21 15.5L 21 9Z"/>
</defs>
</svg>
