<svg width="67" height="40" viewBox="0 0 67 40" version="1.1" xmlns="http://www.w3.org/2000/svg" xmlns:xlink="http://www.w3.org/1999/xlink" xmlns:figma="http://www.figma.com/figma/ns">
<title>logo</title>
<desc>Created using Figma</desc>
<g id="Canvas" transform="translate(0 1200)" figma:type="canvas">
<g id="logo" figma:type="vector">
<use xlink:href="#path0_fill" transform="translate(0 -1200)" fill="#FFFFFF"/>
<use xlink:href="#path1_fill" transform="translate(0 -1200)" fill="#FFFFFF"/>
<use xlink:href="#path2_fill" transform="translate(0 -1200)" fill="#FFFFFF"/>
<use xlink:href="#path3_fill" transform="translate(0 -1200)" fill="#FFFFFF"/>
<use xlink:href="#path4_fill" transform="translate(0 -1200)" fill="#FFFFFF"/>
<use xlink:href="#path5_fill" transform="translate(0 -1200)" fill="#FFFFFF"/>
<use xlink:href="#path6_fill" transform="translate(0 -1200)" fill="#FFFFFF"/>
<use xlink:href="#path7_fill" transform="translate(0 -1200)" fill="#FFFFFF"/>
<use xlink:href="#path8_fill" transform="translate(0 -1200)" fill="#FFFFFF"/>
<use xlink:href="#path9_fill" transform="translate(0 -1200)" fill="#FFFFFF"/>
<use xlink:href="#path10_fill" transform="translate(0 -1200)" fill="#FFFFFF"/>
<use xlink:href="#path11_fill" transform="translate(0 -1200)" fill="#FFFFFF"/>
<use xlink:href="#path12_fill" transform="translate(0 -1200)" fill="#FFFFFF"/>
<use xlink:href="#path13_fill" transform="translate(0 -1200)" fill="#FFFFFF"/>
<use xlink:href="#path14_fill" transform="translate(0 -1200)" fill="#FFFFFF"/>
<use xlink:href="#path15_fill" transform="translate(0 -1200)" fill="#FFFFFF"/>
<use xlink:href="#path16_fill" transform="translate(0 -1200)" fill="#FFFFFF"/>
<use xlink:href="#path17_fill" transform="translate(0 -1200)" fill="#FFFFFF"/>
</g>
</g>
<defs>
<path id="path0_fill" d="M 35.3086 9.36273e-06C 34.479 0.0216822 33.6631 0.0977974 32.8642 0.224846L 32.8642 25.2492C 32.8642 25.5203 32.6431 25.74 32.3704 25.74L 1.06351 25.74C 0.672679 26.5052 0.379963 27.3287 0.201586 28.1944L 18.6171 28.1944L 18.6175 28.1944L 23.4563 28.1944L 23.4573 28.1944L 28.3946 28.1944L 28.3955 28.1944L 31.9362 28.1944C 32.1395 27.6225 32.6883 27.2127 33.3333 27.2127C 34.1515 27.2127 34.8148 27.872 34.8148 28.6853C 34.8148 28.9126 34.763 29.128 34.6704 29.3202L 41.485 36.094C 41.5776 36.1861 41.6296 36.311 41.6296 36.4412L 41.6296 40L 54.321 40C 56.9169 40 59.3265 39.2023 61.315 37.8401L 44.716 37.8401C 44.4433 37.8401 44.2222 37.6204 44.2222 37.3493C 44.2222 37.0782 44.4433 36.8584 44.716 36.8584L 62.5675 36.8584C 63.331 36.1765 64.0086 35.4014 64.5821 34.5513L 43.6049 34.5513C 43.474 34.5513 43.3484 34.4996 43.2557 34.4075L 35.4533 26.6516C 35.3607 26.5596 35.3086 26.4347 35.3086 26.3045L 35.3086 26.3042L 35.3086 26.3028L 35.3086 26.2943L 35.3086 26.2391L 35.3086 25.8451L 35.3086 22.8868L 35.3086 21.7292L 35.3086 21.7288L 35.3086 21.7279L 35.3086 21.7228L 35.3086 21.6867L 35.3086 21.5658L 35.3086 21.4954L 35.3086 21.4653L 35.3086 21.4326L 35.3086 21.4235L 35.3086 21.4211L 35.3086 21.4203L 35.3086 20.457L 35.3086 16.5116L 35.3086 1.88336L 35.3086 0.0181113L 35.3086 9.36273e-06Z"/>
<path id="path1_fill" d="M 65.1795 33.5695C 65.8319 32.3744 66.2905 31.0596 66.5132 29.6671L 48.2222 29.6671C 47.9495 29.6671 47.7284 29.4473 47.7284 29.1762C 47.7284 28.9051 47.9495 28.6853 48.2222 28.6853L 66.6296 28.6853C 66.6542 28.3694 66.6667 28.0502 66.6667 27.7281C 66.6667 26.6688 66.5314 25.6408 66.2772 24.6601L 52.7552 24.6601C 52.5518 25.2321 52.0031 25.6419 51.358 25.6419C 50.5398 25.6419 49.8765 24.9825 49.8765 24.1692C 49.8765 23.3559 50.5398 22.6966 51.358 22.6966C 52.0031 22.6966 52.5518 23.1064 52.7552 23.6784L 65.9778 23.6784C 65.481 22.2668 64.732 20.9727 63.7845 19.8495L 43.6049 19.8495C 43.474 19.8495 43.3484 19.7978 43.2557 19.7057L 36.2963 12.7879L 36.2963 16.3082L 43.8095 23.7765L 47.1852 23.7765C 47.4579 23.7765 47.679 23.9963 47.679 24.2674C 47.679 24.5385 47.4579 24.7583 47.1852 24.7583L 43.6049 24.7583C 43.474 24.7583 43.3484 24.7066 43.2557 24.6145L 36.2963 17.6966L 36.2963 20.457L 36.2963 21.217L 42.9662 27.8471C 43.1596 27.7551 43.3762 27.7035 43.6049 27.7035C 44.4231 27.7035 45.0864 28.3629 45.0864 29.1762C 45.0864 29.9895 44.4231 30.6488 43.6049 30.6488C 42.7867 30.6488 42.1235 29.9895 42.1235 29.1762C 42.1235 28.9488 42.1753 28.7335 42.2678 28.5413L 36.2963 22.6054L 36.2963 22.8868L 36.2963 25.8451L 36.2963 26.1012L 43.8095 33.5695L 65.1795 33.5695Z"/>
<path id="path2_fill" d="M 62.8602 18.8678C 60.6422 16.7549 57.6332 15.4562 54.321 15.4562L 54.0741 15.4562C 54.0463 15.2836 54.0162 15.1117 53.9837 14.9408L 43.6049 14.9408C 43.474 14.9408 43.3484 14.889 43.2557 14.797L 36.2963 7.87911L 36.2963 11.3995L 43.8095 18.8678L 62.8602 18.8678Z"/>
<path id="path3_fill" d="M 53.7685 13.959C 53.4333 12.6098 52.9479 11.3192 52.3309 10.1056L 45.0021 10.1056C 44.7987 10.6776 44.25 11.0874 43.6049 11.0874C 42.7867 11.0874 42.1235 10.4281 42.1235 9.61475C 42.1235 9.38823 42.1749 9.17366 42.2668 8.98195L 38.5787 5.32744C 38.5337 5.29568 38.4942 5.2566 38.4621 5.21196L 36.2963 3.06587L 36.2963 6.4907L 43.8095 13.959L 53.7685 13.959Z"/>
<path id="path4_fill" d="M 51.7934 9.12387C 50.9965 7.76865 50.0301 6.5237 48.923 5.41775L 40.0688 5.41775L 42.9641 8.28664C 43.158 8.19401 43.3754 8.14212 43.6049 8.14212C 44.25 8.14212 44.7987 8.5519 45.0021 9.12387L 51.7934 9.12387Z"/>
<path id="path5_fill" d="M 47.8606 4.436C 44.7366 1.76675 40.7068 0.115059 36.2963 0L 36.2963 0.0181113L 36.2963 1.67966L 39.078 4.436L 47.8606 4.436Z"/>
<path id="path6_fill" d="M 40.642 40L 40.642 36.6445L 33.9721 30.0144C 33.7787 30.1064 33.562 30.1579 33.3333 30.1579C 32.6883 30.1579 32.1395 29.7481 31.9362 29.1762L 29.5873 29.1762L 36.5467 36.094C 36.6393 36.1861 36.6914 36.311 36.6914 36.4412L 36.6914 40L 40.642 40Z"/>
<path id="path7_fill" d="M 35.7037 40L 35.7037 36.6445L 28.1905 29.1762L 24.649 29.1762L 31.6084 36.094C 31.7011 36.1861 31.7531 36.311 31.7531 36.4412L 31.7531 40L 35.7037 40Z"/>
<path id="path8_fill" d="M 30.7654 40L 30.7654 36.6445L 23.2522 29.1762L 19.8068 29.1762L 24.5582 33.9141C 24.622 33.9539 24.6761 34.0078 24.7159 34.0714L 26.7448 36.0946C 26.8371 36.1866 26.8889 36.3112 26.8889 36.4412L 26.8889 40L 30.7654 40Z"/>
<path id="path9_fill" d="M 25.9012 40L 25.9012 36.644L 24.0733 34.8213L 1.16893 34.8213C 2.834 37.9045 6.10796 40 9.87654 40L 25.9012 40Z"/>
<path id="path10_fill" d="M 0.707337 33.8395L 23.0888 33.8395L 18.4123 29.1762L 0.0509417 29.1762C 0.0172518 29.5069 0 29.8426 0 30.1825C 0 30.497 0.014867 30.8082 0.0439378 31.1151L 15.1213 31.1151C 15.3247 30.5432 15.8735 30.1334 16.5185 30.1334C 17.3367 30.1334 18 30.7927 18 31.606C 18 32.4193 17.3367 33.0786 16.5185 33.0786C 15.8735 33.0786 15.3247 32.6689 15.1213 32.0969L 0.187476 32.0969C 0.307173 32.6994 0.482291 33.2821 0.707337 33.8395Z"/>
<path id="path11_fill" d="M 1.63965 24.7583L 7.37533 24.7583L 10.006 21.899C 10.0995 21.7973 10.2317 21.7394 10.3704 21.7394L 18.4374 21.7394L 19.1568 21.0243C 19.0488 20.82 18.9877 20.5873 18.9877 20.3404C 18.9877 20.1131 19.0395 19.8977 19.132 19.7055L 18.4374 19.015L 7.80053 19.015C 7.83899 19.535 7.92501 20.0422 8.04938 20.5367C 5.37477 21.037 3.08538 22.5945 1.63965 24.7583Z"/>
<path id="path12_fill" d="M 7.78561 18.0333L 18.642 18.0333C 18.7729 18.0333 18.8986 18.085 18.9912 18.1771L 19.8304 19.0113C 20.0238 18.9193 20.2404 18.8678 20.4691 18.8678C 21.1142 18.8678 21.6629 19.2776 21.8663 19.8495L 26.0349 19.8495C 26.1808 19.4393 26.5043 19.1125 26.9136 18.9605L 26.9136 14.7444C 26.9136 14.7308 26.9141 14.7173 26.9152 14.7039L 25.5732 13.37L 18.1661 13.37L 16.2192 15.1993C 16.1275 15.2855 16.0061 15.3335 15.8799 15.3335L 8.34727 15.3335C 8.02141 16.1778 7.82598 17.086 7.78561 18.0333Z"/>
<path id="path13_fill" d="M 8.79965 14.3517L 15.6835 14.3517L 17.6304 12.5223C 17.7221 12.4362 17.8435 12.3882 17.9697 12.3882L 25.0864 12.3882L 25.0864 3.39441C 22.5939 5.1567 20.557 7.51449 19.1852 10.2529C 18.321 9.95836 17.3827 9.8111 16.4198 9.8111C 13.1265 9.8111 10.2578 11.6513 8.79965 14.3517Z"/>
<path id="path14_fill" d="M 26.0741 2.74213L 26.0741 12.4794L 27.7566 14.1519C 27.8847 14.2792 27.9277 14.459 27.8857 14.6216C 27.8958 14.6609 27.9012 14.702 27.9012 14.7444L 27.9012 16.685L 31.8765 12.5318L 31.8765 9.08097L 30.0436 11.0749C 29.8596 11.275 29.5472 11.289 29.3459 11.1061C 29.1446 10.9233 29.1305 10.6128 29.3145 10.4126L 31.8765 7.6256L 31.8765 4.1722L 30.0436 6.16613C 29.8596 6.36626 29.5472 6.38024 29.3459 6.19737C 29.1446 6.01449 29.1305 5.704 29.3145 5.50387L 31.8765 2.71683L 31.8765 0.409541C 29.7899 0.858766 27.8343 1.65835 26.0741 2.74213Z"/>
<path id="path15_fill" d="M 43.6049 10.1056C 43.4776 10.1056 43.3554 10.0568 43.2636 9.96945C 43.3522 10.0538 43.4725 10.1056 43.6049 10.1056Z"/>
<path id="path16_fill" d="M 27.4321 21.813C 26.7871 21.813 26.2383 21.4032 26.0349 20.8313L 21.8663 20.8313C 21.6629 21.4032 21.1142 21.813 20.4691 21.813C 20.2603 21.813 20.0615 21.7701 19.8813 21.6926L 18.9912 22.5774C 18.8986 22.6694 18.7729 22.7211 18.642 22.7211L 10.5879 22.7211L 8.71373 24.7583L 31.8765 24.7583L 31.8765 13.9561L 27.9012 18.1093L 27.9012 18.9431C 28.4895 19.1382 28.9136 19.6901 28.9136 20.3404C 28.9136 21.1537 28.2503 21.813 27.4321 21.813Z"/>
<path id="path17_fill" d="M 33.3333 28.1944C 33.4606 28.1944 33.5829 28.2433 33.6747 28.3306C 33.586 28.2462 33.4658 28.1944 33.3333 28.1944Z"/>
</defs>
</svg>
