<svg width="580" height="580" viewBox="0 0 580 580" version="1.1" xmlns="http://www.w3.org/2000/svg" xmlns:xlink="http://www.w3.org/1999/xlink" xmlns:figma="http://www.figma.com/figma/ns">
<title>operations-img</title>
<desc>Created using Figma</desc>
<g id="Canvas" transform="matrix(10 0 0 10 -27070 780)" figma:type="canvas">
<g id="operations-img" figma:type="frame">
<g id="img" figma:type="frame">
<g id="bg" figma:type="rounded-rectangle">
<use xlink:href="#path0_fill" transform="translate(2707 -78)" fill="#FFFFFF"/>
<mask id="mask0_outline_ins">
<use xlink:href="#path0_fill" fill="white" transform="translate(2707 -78)"/>
</mask>
<g mask="url(#mask0_outline_ins)">
<use xlink:href="#path1_stroke_2x" transform="translate(2707 -78)" fill="#000000" fill-opacity="0.1"/>
</g>
</g>
</g>
<g id="settings-icon" figma:type="vector">
<use xlink:href="#path2_fill" transform="translate(2722 -63)" fill="#FFFFFF"/>
<use xlink:href="#path3_stroke" transform="translate(2722 -63)" fill="#047AE9"/>
</g>
<g id="settings-icon" figma:type="vector">
<use xlink:href="#path4_fill" transform="translate(2729 -56)" fill="#94CBFE"/>
<use xlink:href="#path5_stroke" transform="translate(2729 -56)" fill="#047AE9"/>
</g>
</g>
</g>
<defs>
<path id="path0_fill" d="M 0 10C 0 4.47715 4.47715 0 10 0L 48 0C 53.5228 0 58 4.47715 58 10L 58 48C 58 53.5228 53.5228 58 48 58L 10 58C 4.47715 58 0 53.5228 0 48L 0 10Z"/>
<path id="path1_stroke_2x" d="M 10 1L 48 1L 48 -1L 10 -1L 10 1ZM 57 10L 57 48L 59 48L 59 10L 57 10ZM 48 57L 10 57L 10 59L 48 59L 48 57ZM 1 48L 1 10L -1 10L -1 48L 1 48ZM 10 -1C 3.92487 -1 -1 3.92487 -1 10L 1 10C 1 5.02944 5.02944 1 10 1L 10 -1ZM 48 1C 52.9706 1 57 5.02944 57 10L 59 10C 59 3.92487 54.0751 -1 48 -1L 48 1ZM 57 48C 57 52.9706 52.9706 57 48 57L 48 59C 54.0751 59 59 54.0751 59 48L 57 48ZM 10 57C 5.02944 57 1 52.9706 1 48L -1 48C -1 54.0751 3.92487 59 10 59L 10 57Z"/>
<path id="path2_fill" fill-rule="evenodd" d="M 12.6 0C 11.8269 0 11.2 0.626813 11.2 1.4L 11.2 4.6058C 10.5485 4.79977 9.9251 5.0597 9.33789 5.37787L 7.07041 3.11057C 6.52354 2.56382 5.63691 2.56382 5.09004 3.11057L 3.11035 5.09047C 2.56348 5.63717 2.56348 6.52362 3.11035 7.07032L 5.37783 9.33785C 5.05996 9.92501 4.8002 10.5483 4.60605 11.2L 1.4 11.2C 0.626855 11.2 0 11.8268 0 12.6L 0 15.4C 0 16.1732 0.626855 16.8 1.4 16.8L 4.60605 16.8C 4.8002 17.4517 5.05996 18.075 5.37783 18.6622L 3.11035 20.9296C 2.56416 21.4764 2.56416 22.3628 3.11035 22.9095L 5.09072 24.8894C 5.6376 25.4362 6.52354 25.4362 7.07041 24.8894L 9.33789 22.6221C 9.9251 22.9403 10.5485 23.2002 11.2 23.3942L 11.2 26.6C 11.2 27.3732 11.8269 28 12.6 28L 15.4 28C 16.1731 28 16.8 27.3732 16.8 26.6L 16.8 23.3942C 17.4515 23.2002 18.0749 22.9403 18.6621 22.6221L 20.9296 24.8894C 21.4765 25.4362 22.3624 25.4362 22.9093 24.8894L 24.8896 22.9095C 25.4358 22.3628 25.4358 21.4764 24.8896 20.9296L 22.6222 18.6622C 22.94 18.075 23.1998 17.4517 23.3939 16.8L 26.6 16.8C 27.3731 16.8 28 16.1732 28 15.4L 28 12.6C 28 11.8268 27.3731 11.2 26.6 11.2L 23.3939 11.2C 23.1998 10.5483 22.94 9.92501 22.6222 9.33785L 24.8896 7.07032C 25.4365 6.52362 25.4365 5.63717 24.8896 5.09047L 22.91 3.11057C 22.3631 2.56382 21.4765 2.56382 20.9296 3.11057L 18.6621 5.37787C 18.0749 5.0597 17.4515 4.79977 16.8 4.6058L 16.8 1.4C 16.8 0.626813 16.1731 0 15.4 0L 12.6 0ZM 14 18.2C 16.3194 18.2 18.2 16.3196 18.2 14C 18.2 11.6804 16.3194 9.8 14 9.8C 11.6806 9.8 9.8 11.6804 9.8 14C 9.8 16.3196 11.6806 18.2 14 18.2Z"/>
<path id="path3_stroke" d="M 11.2 4.6058L 11.3427 5.08501L 11.7 4.97862L 11.7 4.6058L 11.2 4.6058ZM 9.33789 5.37787L 8.98435 5.73144L 9.24812 5.99519L 9.57609 5.81749L 9.33789 5.37787ZM 7.07041 3.11057L 7.42395 2.757L 7.42392 2.75697L 7.07041 3.11057ZM 5.09004 3.11057L 4.73653 2.75697L 4.73647 2.75703L 5.09004 3.11057ZM 3.11035 5.09047L 3.46385 5.44408L 3.46392 5.444L 3.11035 5.09047ZM 3.11035 7.07032L 3.46391 6.71677L 3.46385 6.71672L 3.11035 7.07032ZM 5.37783 9.33785L 5.81753 9.57589L 5.99506 9.24797L 5.73139 8.9843L 5.37783 9.33785ZM 4.60605 11.2L 4.60605 11.7L 4.97882 11.7L 5.08525 11.3427L 4.60605 11.2ZM 4.60605 16.8L 5.08525 16.6573L 4.97882 16.3L 4.60605 16.3L 4.60605 16.8ZM 5.37783 18.6622L 5.73139 19.0157L 5.99506 18.752L 5.81753 18.4241L 5.37783 18.6622ZM 3.11035 20.9296L 2.7568 20.5761L 2.75662 20.5763L 3.11035 20.9296ZM 3.11035 22.9095L 2.75662 23.2629L 2.75684 23.2631L 3.11035 22.9095ZM 5.09072 24.8894L 5.44423 24.5358L 5.44423 24.5358L 5.09072 24.8894ZM 7.07041 24.8894L 7.42392 25.243L 7.42395 25.243L 7.07041 24.8894ZM 9.33789 22.6221L 9.57609 22.1825L 9.24812 22.0048L 8.98435 22.2686L 9.33789 22.6221ZM 11.2 23.3942L 11.7 23.3942L 11.7 23.0214L 11.3427 22.915L 11.2 23.3942ZM 16.8 23.3942L 16.6573 22.915L 16.3 23.0214L 16.3 23.3942L 16.8 23.3942ZM 18.6621 22.6221L 19.0156 22.2686L 18.7519 22.0048L 18.4239 22.1825L 18.6621 22.6221ZM 20.9296 24.8894L 20.576 25.243L 20.5761 25.243L 20.9296 24.8894ZM 22.9093 24.8894L 22.5558 24.5358L 22.9093 24.8894ZM 24.8896 22.9095L 25.2432 23.2631L 25.2434 23.2629L 24.8896 22.9095ZM 24.8896 20.9296L 25.2434 20.5763L 25.2432 20.5761L 24.8896 20.9296ZM 22.6222 18.6622L 22.1825 18.4241L 22.0049 18.752L 22.2686 19.0157L 22.6222 18.6622ZM 23.3939 16.8L 23.3939 16.3L 23.0212 16.3L 22.9148 16.6573L 23.3939 16.8ZM 23.3939 11.2L 22.9148 11.3427L 23.0212 11.7L 23.3939 11.7L 23.3939 11.2ZM 22.6222 9.33785L 22.2686 8.9843L 22.0049 9.24797L 22.1825 9.57589L 22.6222 9.33785ZM 24.8896 7.07032L 24.5361 6.71672L 24.5361 6.71677L 24.8896 7.07032ZM 24.8896 5.09047L 24.5361 5.444L 24.5361 5.44408L 24.8896 5.09047ZM 22.91 3.11057L 23.2635 2.75703L 23.2635 2.75697L 22.91 3.11057ZM 20.9296 3.11057L 20.5761 2.75697L 20.576 2.757L 20.9296 3.11057ZM 18.6621 5.37787L 18.4239 5.81749L 18.7519 5.99519L 19.0156 5.73144L 18.6621 5.37787ZM 16.8 4.6058L 16.3 4.6058L 16.3 4.97862L 16.6573 5.08501L 16.8 4.6058ZM 11.7 1.4C 11.7 0.902965 12.103 0.5 12.6 0.5L 12.6 -0.5C 11.5507 -0.5 10.7 0.35066 10.7 1.4L 11.7 1.4ZM 11.7 4.6058L 11.7 1.4L 10.7 1.4L 10.7 4.6058L 11.7 4.6058ZM 9.57609 5.81749C 10.1407 5.51084 10.7163 5.27078 11.3427 5.08501L 11.0573 4.12659C 10.3808 4.32876 9.70951 4.60857 9.09969 4.93826L 9.57609 5.81749ZM 6.71687 3.46413L 8.98435 5.73144L 9.69143 5.02431L 7.42395 2.757L 6.71687 3.46413ZM 5.44355 3.46416C 5.79517 3.11262 6.36528 3.11262 6.7169 3.46416L 7.42392 2.75697C 6.68179 2.01502 5.47865 2.01502 4.73653 2.75697L 5.44355 3.46416ZM 3.46392 5.444L 5.44361 3.4641L 4.73647 2.75703L 2.75678 4.73693L 3.46392 5.444ZM 3.46385 6.71672C 3.11231 6.36529 3.11231 5.7955 3.46385 5.44408L 2.75685 4.73686C 2.01464 5.47884 2.01464 6.68195 2.75685 7.42393L 3.46385 6.71672ZM 5.73139 8.9843L 3.46391 6.71677L 2.75679 7.42387L 5.02428 9.6914L 5.73139 8.9843ZM 5.08525 11.3427C 5.2712 10.7161 5.51115 10.1405 5.81753 9.57589L 4.93813 9.09981C 4.60877 9.70954 4.32919 10.3805 4.12686 11.0573L 5.08525 11.3427ZM 1.4 11.7L 4.60605 11.7L 4.60605 10.7L 1.4 10.7L 1.4 11.7ZM 0.5 12.6C 0.5 12.103 0.902988 11.7 1.4 11.7L 1.4 10.7C 0.350723 10.7 -0.5 11.5507 -0.5 12.6L 0.5 12.6ZM 0.5 15.4L 0.5 12.6L -0.5 12.6L -0.5 15.4L 0.5 15.4ZM 1.4 16.3C 0.902988 16.3 0.5 15.897 0.5 15.4L -0.5 15.4C -0.5 16.4493 0.350723 17.3 1.4 17.3L 1.4 16.3ZM 4.60605 16.3L 1.4 16.3L 1.4 17.3L 4.60605 17.3L 4.60605 16.3ZM 5.81753 18.4241C 5.51115 17.8595 5.2712 17.2839 5.08525 16.6573L 4.12686 16.9427C 4.32919 17.6195 4.60877 18.2905 4.93813 18.9002L 5.81753 18.4241ZM 3.46391 21.2832L 5.73139 19.0157L 5.02428 18.3086L 2.7568 20.5761L 3.46391 21.2832ZM 3.46408 22.5562C 3.11292 22.2046 3.11292 21.6345 3.46408 21.283L 2.75662 20.5763C 2.0154 21.3182 2.0154 22.5209 2.75662 23.2629L 3.46408 22.5562ZM 5.44423 24.5358L 3.46386 22.5559L 2.75684 23.2631L 4.73721 25.243L 5.44423 24.5358ZM 6.7169 24.5358C 6.36528 24.8874 5.79586 24.8874 5.44423 24.5358L 4.73721 25.243C 5.47934 25.985 6.68179 25.985 7.42392 25.243L 6.7169 24.5358ZM 8.98435 22.2686L 6.71687 24.5359L 7.42395 25.243L 9.69143 22.9757L 8.98435 22.2686ZM 11.3427 22.915C 10.7163 22.7292 10.1407 22.4892 9.57609 22.1825L 9.09969 23.0617C 9.70951 23.3914 10.3808 23.6712 11.0573 23.8734L 11.3427 22.915ZM 11.7 26.6L 11.7 23.3942L 10.7 23.3942L 10.7 26.6L 11.7 26.6ZM 12.6 27.5C 12.103 27.5 11.7 27.097 11.7 26.6L 10.7 26.6C 10.7 27.6493 11.5507 28.5 12.6 28.5L 12.6 27.5ZM 15.4 27.5L 12.6 27.5L 12.6 28.5L 15.4 28.5L 15.4 27.5ZM 16.3 26.6C 16.3 27.097 15.897 27.5 15.4 27.5L 15.4 28.5C 16.4493 28.5 17.3 27.6493 17.3 26.6L 16.3 26.6ZM 16.3 23.3942L 16.3 26.6L 17.3 26.6L 17.3 23.3942L 16.3 23.3942ZM 18.4239 22.1825C 17.8593 22.4892 17.2837 22.7292 16.6573 22.915L 16.9427 23.8734C 17.6192 23.6712 18.2905 23.3914 18.9003 23.0617L 18.4239 22.1825ZM 21.2831 24.5359L 19.0156 22.2686L 18.3086 22.9757L 20.576 25.243L 21.2831 24.5359ZM 22.5558 24.5358C 22.2041 24.8874 21.6347 24.8874 21.2831 24.5358L 20.5761 25.243C 21.3182 25.985 22.5207 25.985 23.2628 25.243L 22.5558 24.5358ZM 24.5361 22.5559L 22.5558 24.5358L 23.2628 25.243L 25.2432 23.2631L 24.5361 22.5559ZM 24.5359 21.283C 24.8871 21.6345 24.8871 22.2046 24.5359 22.5562L 25.2434 23.2629C 25.9846 22.5209 25.9846 21.3182 25.2434 20.5763L 24.5359 21.283ZM 22.2686 19.0157L 24.5361 21.2832L 25.2432 20.5761L 22.9757 18.3086L 22.2686 19.0157ZM 22.9148 16.6573C 22.7288 17.2839 22.4888 17.8595 22.1825 18.4241L 23.0619 18.9002C 23.3912 18.2905 23.6708 17.6195 23.8731 16.9427L 22.9148 16.6573ZM 26.6 16.3L 23.3939 16.3L 23.3939 17.3L 26.6 17.3L 26.6 16.3ZM 27.5 15.4C 27.5 15.897 27.097 16.3 26.6 16.3L 26.6 17.3C 27.6493 17.3 28.5 16.4493 28.5 15.4L 27.5 15.4ZM 27.5 12.6L 27.5 15.4L 28.5 15.4L 28.5 12.6L 27.5 12.6ZM 26.6 11.7C 27.097 11.7 27.5 12.103 27.5 12.6L 28.5 12.6C 28.5 11.5507 27.6493 10.7 26.6 10.7L 26.6 11.7ZM 23.3939 11.7L 26.6 11.7L 26.6 10.7L 23.3939 10.7L 23.3939 11.7ZM 22.1825 9.57589C 22.4888 10.1405 22.7288 10.7161 22.9148 11.3427L 23.8731 11.0573C 23.6708 10.3805 23.3912 9.70954 23.0619 9.09981L 22.1825 9.57589ZM 24.5361 6.71677L 22.2686 8.9843L 22.9757 9.6914L 25.2432 7.42387L 24.5361 6.71677ZM 24.5361 5.44408C 24.8877 5.7955 24.8877 6.36529 24.5361 6.71672L 25.2431 7.42393C 25.9854 6.68195 25.9854 5.47884 25.2431 4.73686L 24.5361 5.44408ZM 22.5564 3.4641L 24.5361 5.444L 25.2432 4.73693L 23.2635 2.75703L 22.5564 3.4641ZM 21.2831 3.46416C 21.6347 3.11262 22.2048 3.11262 22.5564 3.46416L 23.2635 2.75697C 22.5213 2.01502 21.3182 2.01502 20.5761 2.75697L 21.2831 3.46416ZM 19.0156 5.73144L 21.2831 3.46413L 20.576 2.757L 18.3086 5.02431L 19.0156 5.73144ZM 16.6573 5.08501C 17.2837 5.27078 17.8593 5.51084 18.4239 5.81749L 18.9003 4.93826C 18.2905 4.60857 17.6192 4.32876 16.9427 4.12659L 16.6573 5.08501ZM 16.3 1.4L 16.3 4.6058L 17.3 4.6058L 17.3 1.4L 16.3 1.4ZM 15.4 0.5C 15.897 0.5 16.3 0.902965 16.3 1.4L 17.3 1.4C 17.3 0.350661 16.4493 -0.5 15.4 -0.5L 15.4 0.5ZM 12.6 0.5L 15.4 0.5L 15.4 -0.5L 12.6 -0.5L 12.6 0.5ZM 17.7 14C 17.7 16.0434 16.0433 17.7 14 17.7L 14 18.7C 16.5956 18.7 18.7 16.5958 18.7 14L 17.7 14ZM 14 10.3C 16.0433 10.3 17.7 11.9566 17.7 14L 18.7 14C 18.7 11.4042 16.5956 9.3 14 9.3L 14 10.3ZM 10.3 14C 10.3 11.9566 11.9567 10.3 14 10.3L 14 9.3C 11.4044 9.3 9.3 11.4042 9.3 14L 10.3 14ZM 14 17.7C 11.9567 17.7 10.3 16.0434 10.3 14L 9.3 14C 9.3 16.5958 11.4044 18.7 14 18.7L 14 17.7Z"/>
<path id="path4_fill" fill-rule="evenodd" d="M 6.3 0C 5.91343 0 5.6 0.313406 5.6 0.7L 5.6 2.3029C 5.27427 2.39988 4.96255 2.52985 4.66895 2.68894L 3.53521 1.55528C 3.26177 1.28191 2.81846 1.28191 2.54502 1.55528L 1.55518 2.54523C 1.28174 2.81859 1.28174 3.26181 1.55518 3.53516L 2.68892 4.66892C 2.52998 4.96251 2.4001 5.27414 2.30303 5.6L 0.7 5.6C 0.313428 5.6 0 5.91341 0 6.3L 0 7.7C 0 8.08659 0.313428 8.4 0.7 8.4L 2.30303 8.4C 2.4001 8.72586 2.52998 9.03749 2.68892 9.33108L 1.55518 10.4648C 1.28208 10.7382 1.28208 11.1814 1.55518 11.4548L 2.54536 12.4447C 2.8188 12.7181 3.26177 12.7181 3.53521 12.4447L 4.66895 11.3111C 4.96255 11.4701 5.27427 11.6001 5.6 11.6971L 5.6 13.3C 5.6 13.6866 5.91343 14 6.3 14L 7.7 14C 8.08657 14 8.4 13.6866 8.4 13.3L 8.4 11.6971C 8.72573 11.6001 9.03745 11.4701 9.33105 11.3111L 10.4648 12.4447C 10.7382 12.7181 11.1812 12.7181 11.4546 12.4447L 12.4448 11.4548C 12.7179 11.1814 12.7179 10.7382 12.4448 10.4648L 11.3111 9.33108C 11.47 9.03749 11.5999 8.72586 11.697 8.4L 13.3 8.4C 13.6866 8.4 14 8.08659 14 7.7L 14 6.3C 14 5.91341 13.6866 5.6 13.3 5.6L 11.697 5.6C 11.5999 5.27414 11.47 4.96251 11.3111 4.66892L 12.4448 3.53516C 12.7183 3.26181 12.7183 2.81859 12.4448 2.54523L 11.455 1.55528C 11.1815 1.28191 10.7382 1.28191 10.4648 1.55528L 9.33105 2.68894C 9.03745 2.52985 8.72573 2.39988 8.4 2.3029L 8.4 0.7C 8.4 0.313406 8.08657 0 7.7 0L 6.3 0ZM 7 9.1C 8.15972 9.1 9.1 8.1598 9.1 7C 9.1 5.8402 8.15972 4.9 7 4.9C 5.84028 4.9 4.9 5.8402 4.9 7C 4.9 8.1598 5.84028 9.1 7 9.1Z"/>
<path id="path5_stroke" d="M 5.6 2.3029L 5.74268 2.78211L 6.1 2.67572L 6.1 2.3029L 5.6 2.3029ZM 4.66895 2.68894L 4.31541 3.0425L 4.57918 3.30626L 4.90714 3.12855L 4.66895 2.68894ZM 3.53521 1.55528L 3.88875 1.20172L 3.88872 1.20169L 3.53521 1.55528ZM 2.54502 1.55528L 2.19151 1.20169L 2.19145 1.20175L 2.54502 1.55528ZM 1.55518 2.54523L 1.90867 2.89884L 1.90875 2.89877L 1.55518 2.54523ZM 1.55518 3.53516L 1.90873 3.18161L 1.90867 3.18155L 1.55518 3.53516ZM 2.68892 4.66892L 3.12862 4.90696L 3.30614 4.57905L 3.04247 4.31537L 2.68892 4.66892ZM 2.30303 5.6L 2.30303 6.1L 2.6758 6.1L 2.78222 5.74275L 2.30303 5.6ZM 2.30303 8.4L 2.78222 8.25725L 2.6758 7.9L 2.30303 7.9L 2.30303 8.4ZM 2.68892 9.33108L 3.04247 9.68463L 3.30614 9.42096L 3.12862 9.09304L 2.68892 9.33108ZM 1.55518 10.4648L 1.20162 10.1113L 1.20144 10.1114L 1.55518 10.4648ZM 1.55518 11.4548L 1.20144 11.8081L 1.20166 11.8084L 1.55518 11.4548ZM 2.54536 12.4447L 2.89887 12.0911L 2.89887 12.0911L 2.54536 12.4447ZM 3.53521 12.4447L 3.88872 12.7983L 3.88875 12.7983L 3.53521 12.4447ZM 4.66895 11.3111L 4.90714 10.8714L 4.57918 10.6937L 4.31541 10.9575L 4.66895 11.3111ZM 5.6 11.6971L 6.1 11.6971L 6.1 11.3243L 5.74268 11.2179L 5.6 11.6971ZM 8.4 11.6971L 8.25732 11.2179L 7.9 11.3243L 7.9 11.6971L 8.4 11.6971ZM 9.33105 11.3111L 9.6846 10.9575L 9.42082 10.6937L 9.09286 10.8714L 9.33105 11.3111ZM 10.4648 12.4447L 10.1113 12.7983L 10.1113 12.7983L 10.4648 12.4447ZM 11.4546 12.4447L 11.1011 12.0911L 11.1011 12.0911L 11.4546 12.4447ZM 12.4448 11.4548L 12.7983 11.8084L 12.7986 11.8081L 12.4448 11.4548ZM 12.4448 10.4648L 12.7986 10.1114L 12.7984 10.1113L 12.4448 10.4648ZM 11.3111 9.33108L 10.8714 9.09304L 10.6939 9.42096L 10.9575 9.68463L 11.3111 9.33108ZM 11.697 8.4L 11.697 7.9L 11.3242 7.9L 11.2178 8.25725L 11.697 8.4ZM 11.697 5.6L 11.2178 5.74275L 11.3242 6.1L 11.697 6.1L 11.697 5.6ZM 11.3111 4.66892L 10.9575 4.31537L 10.6939 4.57905L 10.8714 4.90696L 11.3111 4.66892ZM 12.4448 3.53516L 12.0913 3.18155L 12.0913 3.18161L 12.4448 3.53516ZM 12.4448 2.54523L 12.0913 2.89877L 12.0913 2.89884L 12.4448 2.54523ZM 11.455 1.55528L 11.8086 1.20175L 11.8085 1.20169L 11.455 1.55528ZM 10.4648 1.55528L 10.1113 1.20169L 10.1113 1.20172L 10.4648 1.55528ZM 9.33105 2.68894L 9.09286 3.12855L 9.42082 3.30626L 9.6846 3.0425L 9.33105 2.68894ZM 8.4 2.3029L 7.9 2.3029L 7.9 2.67572L 8.25732 2.78211L 8.4 2.3029ZM 6.1 0.7C 6.1 0.589559 6.18956 0.5 6.3 0.5L 6.3 -0.5C 5.6373 -0.5 5.1 0.0372538 5.1 0.7L 6.1 0.7ZM 6.1 2.3029L 6.1 0.7L 5.1 0.7L 5.1 2.3029L 6.1 2.3029ZM 4.90714 3.12855C 5.17813 2.98099 5.44205 2.87089 5.74268 2.78211L 5.45732 1.82369C 5.10648 1.92888 4.74696 2.07872 4.43075 2.24932L 4.90714 3.12855ZM 3.18166 1.90885L 4.31541 3.0425L 5.02249 2.33537L 3.88875 1.20172L 3.18166 1.90885ZM 2.89853 1.90888C 2.97672 1.83071 3.10351 1.83071 3.18169 1.90888L 3.88872 1.20169C 3.42003 0.733107 2.6602 0.733107 2.19151 1.20169L 2.89853 1.90888ZM 1.90875 2.89877L 2.89859 1.90882L 2.19145 1.20175L 1.2016 2.1917L 1.90875 2.89877ZM 1.90867 3.18155C 1.83057 3.10348 1.83057 2.97692 1.90867 2.89884L 1.20168 2.19162C 0.732904 2.66025 0.732904 3.42014 1.20168 3.88877L 1.90867 3.18155ZM 3.04247 4.31537L 1.90873 3.18161L 1.20162 3.88871L 2.33536 5.02247L 3.04247 4.31537ZM 2.78222 5.74275C 2.87111 5.44192 2.98117 5.17798 3.12862 4.90696L 2.24921 4.43088C 2.07879 4.74703 1.92909 5.10636 1.82384 5.45725L 2.78222 5.74275ZM 0.7 6.1L 2.30303 6.1L 2.30303 5.1L 0.7 5.1L 0.7 6.1ZM 0.5 6.3C 0.5 6.18956 0.58956 6.1 0.7 6.1L 0.7 5.1C 0.037295 5.1 -0.5 5.63725 -0.5 6.3L 0.5 6.3ZM 0.5 7.7L 0.5 6.3L -0.5 6.3L -0.5 7.7L 0.5 7.7ZM 0.7 7.9C 0.58956 7.9 0.5 7.81044 0.5 7.7L -0.5 7.7C -0.5 8.36275 0.0372954 8.9 0.7 8.9L 0.7 7.9ZM 2.30303 7.9L 0.7 7.9L 0.7 8.9L 2.30303 8.9L 2.30303 7.9ZM 3.12862 9.09304C 2.98117 8.82202 2.87111 8.55808 2.78222 8.25725L 1.82384 8.54275C 1.92909 8.89364 2.07879 9.25297 2.24921 9.56912L 3.12862 9.09304ZM 1.90873 10.8184L 3.04247 9.68463L 2.33536 8.97752L 1.20162 10.1113L 1.90873 10.8184ZM 1.90891 11.1014C 1.83084 11.0232 1.83084 10.8963 1.90891 10.8182L 1.20144 10.1114C 0.733324 10.58 0.733324 11.3395 1.20144 11.8081L 1.90891 11.1014ZM 2.89887 12.0911L 1.90869 11.1012L 1.20166 11.8084L 2.19185 12.7983L 2.89887 12.0911ZM 3.18169 12.0911C 3.10351 12.1693 2.97706 12.1693 2.89887 12.0911L 2.19185 12.7983C 2.66054 13.2669 3.42003 13.2669 3.88872 12.7983L 3.18169 12.0911ZM 4.31541 10.9575L 3.18167 12.0912L 3.88875 12.7983L 5.02249 11.6646L 4.31541 10.9575ZM 5.74268 11.2179C 5.44205 11.1291 5.17813 11.019 4.90714 10.8714L 4.43075 11.7507C 4.74696 11.9213 5.10648 12.0711 5.45732 12.1763L 5.74268 11.2179ZM 6.1 13.3L 6.1 11.6971L 5.1 11.6971L 5.1 13.3L 6.1 13.3ZM 6.3 13.5C 6.18956 13.5 6.1 13.4104 6.1 13.3L 5.1 13.3C 5.1 13.9627 5.6373 14.5 6.3 14.5L 6.3 13.5ZM 7.7 13.5L 6.3 13.5L 6.3 14.5L 7.7 14.5L 7.7 13.5ZM 7.9 13.3C 7.9 13.4104 7.81044 13.5 7.7 13.5L 7.7 14.5C 8.3627 14.5 8.9 13.9627 8.9 13.3L 7.9 13.3ZM 7.9 11.6971L 7.9 13.3L 8.9 13.3L 8.9 11.6971L 7.9 11.6971ZM 9.09286 10.8714C 8.82187 11.019 8.55795 11.1291 8.25732 11.2179L 8.54268 12.1763C 8.89351 12.0711 9.25304 11.9213 9.56925 11.7507L 9.09286 10.8714ZM 10.8183 12.0912L 9.6846 10.9575L 8.97751 11.6646L 10.1113 12.7983L 10.8183 12.0912ZM 11.1011 12.0911C 11.0229 12.1693 10.8965 12.1693 10.8183 12.0911L 10.1113 12.7983C 10.58 13.2669 11.3395 13.2669 11.8082 12.7983L 11.1011 12.0911ZM 12.0913 11.1012L 11.1011 12.0911L 11.8081 12.7983L 12.7983 11.8084L 12.0913 11.1012ZM 12.0911 10.8182C 12.1692 10.8963 12.1692 11.0232 12.0911 11.1014L 12.7986 11.8081C 13.2667 11.3395 13.2667 10.58 12.7986 10.1114L 12.0911 10.8182ZM 10.9575 9.68463L 12.0913 10.8184L 12.7984 10.1113L 11.6646 8.97752L 10.9575 9.68463ZM 11.2178 8.25725C 11.1289 8.55808 11.0188 8.82202 10.8714 9.09304L 11.7508 9.56912C 11.9212 9.25297 12.0709 8.89364 12.1762 8.54275L 11.2178 8.25725ZM 13.3 7.9L 11.697 7.9L 11.697 8.9L 13.3 8.9L 13.3 7.9ZM 13.5 7.7C 13.5 7.81044 13.4104 7.9 13.3 7.9L 13.3 8.9C 13.9627 8.9 14.5 8.36275 14.5 7.7L 13.5 7.7ZM 13.5 6.3L 13.5 7.7L 14.5 7.7L 14.5 6.3L 13.5 6.3ZM 13.3 6.1C 13.4104 6.1 13.5 6.18956 13.5 6.3L 14.5 6.3C 14.5 5.63725 13.9627 5.1 13.3 5.1L 13.3 6.1ZM 11.697 6.1L 13.3 6.1L 13.3 5.1L 11.697 5.1L 11.697 6.1ZM 10.8714 4.90696C 11.0188 5.17798 11.1289 5.44192 11.2178 5.74275L 12.1762 5.45725C 12.0709 5.10636 11.9212 4.74703 11.7508 4.43088L 10.8714 4.90696ZM 12.0913 3.18161L 10.9575 4.31537L 11.6646 5.02247L 12.7984 3.88871L 12.0913 3.18161ZM 12.0913 2.89884C 12.1694 2.97692 12.1694 3.10348 12.0913 3.18155L 12.7983 3.88877C 13.2671 3.42014 13.2671 2.66025 12.7983 2.19162L 12.0913 2.89884ZM 11.1014 1.90882L 12.0913 2.89877L 12.7984 2.1917L 11.8086 1.20175L 11.1014 1.90882ZM 10.8183 1.90888C 10.8965 1.83071 11.0233 1.83071 11.1015 1.90888L 11.8085 1.20169C 11.3398 0.733107 10.58 0.733107 10.1113 1.20169L 10.8183 1.90888ZM 9.6846 3.0425L 10.8183 1.90885L 10.1113 1.20172L 8.97751 2.33537L 9.6846 3.0425ZM 8.25732 2.78211C 8.55795 2.87089 8.82187 2.98099 9.09286 3.12855L 9.56925 2.24932C 9.25304 2.07872 8.89351 1.92888 8.54268 1.82369L 8.25732 2.78211ZM 7.9 0.7L 7.9 2.3029L 8.9 2.3029L 8.9 0.7L 7.9 0.7ZM 7.7 0.5C 7.81044 0.5 7.9 0.589558 7.9 0.7L 8.9 0.7C 8.9 0.0372542 8.3627 -0.5 7.7 -0.5L 7.7 0.5ZM 6.3 0.5L 7.7 0.5L 7.7 -0.5L 6.3 -0.5L 6.3 0.5ZM 8.6 7C 8.6 7.88365 7.88359 8.6 7 8.6L 7 9.6C 8.43585 9.6 9.6 8.43596 9.6 7L 8.6 7ZM 7 5.4C 7.88359 5.4 8.6 6.11635 8.6 7L 9.6 7C 9.6 5.56404 8.43585 4.4 7 4.4L 7 5.4ZM 5.4 7C 5.4 6.11635 6.11641 5.4 7 5.4L 7 4.4C 5.56415 4.4 4.4 5.56404 4.4 7L 5.4 7ZM 7 8.6C 6.11641 8.6 5.4 7.88365 5.4 7L 4.4 7C 4.4 8.43596 5.56415 9.6 7 9.6L 7 8.6Z"/>
</defs>
</svg>
