<svg width="181" height="60" viewBox="0 0 181 60" version="1.1" xmlns="http://www.w3.org/2000/svg" xmlns:xlink="http://www.w3.org/1999/xlink" xmlns:figma="http://www.figma.com/figma/ns">
<title>samsung</title>
<desc>Created using Figma</desc>
<g id="Canvas" transform="translate(-624 -2234)" figma:type="canvas">
<g id="samsung" figma:type="vector">
<use xlink:href="#path0_fill" transform="translate(624.229 2234)" fill="#000000" fill-opacity="0.2"/>
</g>
</g>
<defs>
<path id="path0_fill" fill-rule="evenodd" d="M 154.251 38.3432C 171.589 30.5067 181.81 21.7797 180.503 14.2852C 178.05 0.174074 135.681 -4.2312 85.8654 4.45429C 64.1278 8.24182 44.5647 13.8935 29.6217 20.2335C 30.4118 20.0486 31.2819 19.9651 32.1982 19.9651C 34.8432 19.9651 38.4941 20.6003 38.4941 24.6701L 38.4941 25.9824L 33.8372 25.9824L 33.8372 24.829C 33.8372 23.8085 33.1923 23.1335 32.101 23.1335C 30.9323 23.1335 30.5235 23.7907 30.3946 24.3862C 30.3509 24.5987 30.3251 24.9957 30.4144 25.3709C 30.6387 26.3007 32.0477 27.0461 33.6545 27.8961C 35.8285 29.0463 38.3646 30.3881 38.8176 32.637C 38.895 33.0359 39.0636 34.0921 38.8374 35.7061C 38.3949 38.819 35.6131 39.9744 32.2359 39.9744C 28.7239 39.9744 25.4459 38.7178 25.4459 34.5527L 25.4499 33.1055L 30.4581 33.1055L 30.4581 34.914C 30.4581 35.9404 31.1684 36.6114 32.3391 36.6114C 33.5812 36.6114 34.0019 35.9781 34.1586 35.3568C 34.244 35.0054 34.2995 34.4236 34.117 33.971C 33.7056 32.9354 32.2536 32.1404 30.6637 31.27C 28.5417 30.1083 26.1741 28.8121 25.7078 26.6296C 25.5114 25.6925 25.5313 24.9441 25.6662 24.1043C 25.8793 22.7977 26.5018 21.8499 27.406 21.1936C 9.43945 29.1462 -1.21819 38.0687 0.111421 45.7117C 2.56788 59.825 44.9448 64.2302 94.7586 55.5487C 117 51.673 136.962 45.8454 152.029 39.3259C 151.241 39.5169 150.384 39.6032 149.501 39.6032C 146.186 39.6032 143.243 38.3902 142.928 34.9915C 142.874 34.3681 142.866 34.11 142.86 33.7606L 142.864 25.8931C 142.864 25.5615 142.906 24.9739 142.941 24.6622C 143.356 21.1702 146.186 20.0465 149.501 20.0465C 152.813 20.0465 155.712 21.1642 156.055 24.6622C 156.117 25.2578 156.097 25.8931 156.097 25.8931L 156.097 26.5164L 151.388 26.5164L 151.388 25.4702C 151.392 25.4722 151.382 25.0255 151.327 24.7595C 151.247 24.3466 150.888 23.3976 149.466 23.3976C 148.104 23.3976 147.706 24.2949 147.606 24.7595C 147.549 25.0057 147.527 25.3392 147.527 25.6409L 147.527 34.1855C 147.523 34.4217 147.537 34.6818 147.575 34.8962C 147.656 35.3965 148.126 36.2501 149.477 36.2501C 150.831 36.2501 151.303 35.3945 151.39 34.8962C 151.424 34.6818 151.434 34.4217 151.432 34.1855L 151.432 31.4736L 149.515 31.4736L 149.515 28.7459L 156.136 28.7459L 156.136 33.7606C 156.132 34.11 156.125 34.3681 156.069 34.9915C 155.929 36.5227 155.253 37.6103 154.251 38.3432ZM 49.58 22.2899L 47.0223 39.2419L 41.9804 39.2419L 45.4429 20.5587L 53.7488 20.5587L 57.1954 39.2419L 52.1733 39.2419L 49.6851 22.2899L 49.58 22.2899ZM 133.362 20.5587L 133.618 35.2277L 133.514 35.2277L 129.223 20.5587L 122.288 20.5587L 122.288 39.0474L 126.881 39.0474L 126.625 23.8741L 126.724 23.8741L 131.338 39.0474L 137.985 39.0474L 137.985 20.5587L 133.362 20.5587ZM 73.6644 20.5587L 71.3568 34.8406L 71.2576 34.8406L 68.9519 20.5587L 61.3325 20.5587L 60.9198 39.2419L 65.5966 39.2419L 65.7136 22.4447L 65.8148 22.4447L 68.938 39.2419L 73.6763 39.2419L 76.7975 22.4447L 76.8947 22.4447L 77.0177 39.2419L 81.6846 39.2419L 81.2798 20.5587L 73.6644 20.5587ZM 94.838 33.9372C 95.0225 34.3859 94.963 34.9517 94.8797 35.303C 94.7269 35.9224 94.3102 36.5458 93.076 36.5458C 91.9212 36.5458 91.2168 35.8748 91.2168 34.8723L 91.2128 33.0796L 86.2562 33.0796L 86.2503 34.507C 86.2503 38.6303 89.4985 39.8751 92.9748 39.8751C 96.3162 39.8751 99.0723 38.7355 99.5069 35.6505C 99.733 34.0484 99.5723 33.0061 99.491 32.6151C 99.0403 30.3866 96.5286 29.0576 94.3761 27.9185C 92.7855 27.0768 91.3909 26.3389 91.1692 25.4185C 91.0799 25.0453 91.1057 24.6522 91.1513 24.4517C 91.2842 23.8521 91.6851 23.2109 92.8419 23.2109C 93.9233 23.2109 94.5542 23.87 94.5542 24.8824L 94.5542 26.024L 99.1755 26.024L 99.1755 24.7256C 99.1755 20.6995 95.5543 20.0682 92.9351 20.0682C 89.6512 20.0682 86.9587 21.1522 86.4725 24.1718C 86.3376 24.9996 86.3237 25.7341 86.5162 26.6672C 86.9756 28.827 89.3188 30.1108 91.4195 31.2618C 92.9933 32.124 94.4309 32.9117 94.838 33.9372ZM 110.523 36.4465C 111.819 36.4465 112.224 35.5493 112.313 35.0906C 112.351 34.8881 112.361 34.6182 112.357 34.3759L 112.357 20.5507L 117.079 20.5507L 117.079 33.9531C 117.089 34.2965 117.055 35.0033 117.039 35.18C 116.708 38.668 113.952 39.7996 110.521 39.7996C 107.087 39.7996 104.329 38.668 104.001 35.18C 103.985 35.0033 103.952 34.2965 103.961 33.9531L 103.961 20.5507L 108.68 20.5507L 108.68 34.3759C 108.68 34.6182 108.688 34.8901 108.724 35.0906C 108.825 35.5493 109.218 36.4465 110.523 36.4465Z"/>
</defs>
</svg>
