<svg width="190" height="190" viewBox="0 0 190 190" version="1.1" xmlns="http://www.w3.org/2000/svg" xmlns:xlink="http://www.w3.org/1999/xlink" xmlns:figma="http://www.figma.com/figma/ns">
<title>Group</title>
<desc>Created using Figma</desc>
<g id="Canvas" transform="translate(0 -826)" figma:type="canvas">
<g id="Group" figma:type="frame">
<g id="img" figma:type="frame">
<g id="bg" figma:type="rounded-rectangle">
<use xlink:href="#path0_fill" transform="translate(0 826)" fill="#FFFFFF"/>
<mask id="mask0_outline_ins">
<use xlink:href="#path0_fill" fill="white" transform="translate(0 826)"/>
</mask>
<g mask="url(#mask0_outline_ins)">
<use xlink:href="#path1_stroke_2x" transform="translate(0 826)" fill="#000000" fill-opacity="0.1"/>
</g>
</g>
</g>
<g id="Vector 4" figma:type="vector">
<use xlink:href="#path2_fill" transform="translate(60 898)" fill="#94CBFE"/>
</g>
<g id="Subtract" figma:type="vector">
<use xlink:href="#path3_fill" transform="translate(57 879)" fill="#047AE9"/>
<use xlink:href="#path4_fill" transform="translate(57 879)" fill="#047AE9"/>
<use xlink:href="#path5_stroke" transform="translate(57 879)" fill="#047AE9"/>
</g>
</g>
</g>
<defs>
<path id="path0_fill" d="M 0 10C 0 4.47715 4.47715 0 10 0L 180 0C 185.523 0 190 4.47715 190 10L 190 180C 190 185.523 185.523 190 180 190L 10 190C 4.47715 190 0 185.523 0 180L 0 10Z"/>
<path id="path1_stroke_2x" d="M 10 1L 180 1L 180 -1L 10 -1L 10 1ZM 189 10L 189 180L 191 180L 191 10L 189 10ZM 180 189L 10 189L 10 191L 180 191L 180 189ZM 1 180L 1 10L -1 10L -1 180L 1 180ZM 10 -1C 3.92487 -1 -1 3.92487 -1 10L 1 10C 1 5.02944 5.02944 1 10 1L 10 -1ZM 180 1C 184.971 1 189 5.02944 189 10L 191 10C 191 3.92487 186.075 -1 180 -1L 180 1ZM 189 180C 189 184.971 184.971 189 180 189L 180 191C 186.075 191 191 186.075 191 180L 189 180ZM 10 189C 5.02944 189 1 184.971 1 180L -1 180C -1 186.075 3.92487 191 10 191L 10 189Z"/>
<path id="path2_fill" d="M 0 43.5L 0 26.5L 0 24L 6.5 23L 11 12.5L 8 5.5L 16 6.5L 28.5 0L 32.5 5.5L 40.5 3.5L 50.5 0L 61.5 5.5L 73 26.5L 69 43.5L 56.5 53L 56.5 62L 48 62L 48 58.5L 42.5 58.5L 28.5 57L 28.5 62L 20.5 62L 19 53L 13 48L 6.5 45.5L 0 43.5Z"/>
<path id="path3_fill" d="M 20.0954 45.4369C 21.6183 45.4369 22.853 44.2079 22.853 42.6919C 22.853 41.1759 21.6183 39.9469 20.0954 39.9469C 18.5725 39.9469 17.3379 41.1759 17.3379 42.6919C 17.3379 44.2079 18.5725 45.4369 20.0954 45.4369Z"/>
<path id="path4_fill" fill-rule="evenodd" d="M 75.4032 40.5771C 75.8042 42.245 75.8042 42.245 75.4032 40.5771C 72.5345 30.6131 64.149 22.3383 52.9448 18.854C 53.7635 17.1402 54.2341 15.233 54.2341 13.2106C 54.2341 5.92738 48.2796 0 40.9613 0C 33.6448 0 27.692 5.92738 27.692 13.2106C 27.692 15.3056 28.1973 17.2788 29.0707 19.0404C 25.2673 20.2941 21.6779 22.1039 18.5723 24.4216C 15.044 22.5888 11.191 22.6168 8.58258 24.5553L 7.25354 25.5417L 11.6354 31.3849C 9.45953 34.3773 7.90155 37.6406 6.99182 41.113L 5.14069 41.113C 2.30682 41.1133 0 43.4096 0 46.2321L 0 60.9735C 0 63.7961 2.30682 66.0924 5.14069 66.0924L 12.4739 66.0924C 14.6234 68.7896 17.2316 71.1537 20.2496 73.1381L 20.2496 80.0337C 20.2496 82.1221 21.7744 83.8214 23.6484 83.8214L 29.9642 83.8214C 31.8386 83.8214 33.363 82.1221 33.363 80.0337L 33.363 78.5113C 38.2053 79.5029 43.1405 79.5935 48.1984 78.6797L 48.1984 80.2139C 48.1984 82.3023 49.7231 84 51.5972 84L 57.913 84C 59.7873 84 61.3118 82.3025 61.3118 80.2139L 61.3118 73.767C 70.8325 67.9387 76.4836 58.4431 76.4836 48.1855C 76.4836 46.1631 76.2351 44.1802 75.8042 42.245C 75.202 42.5949 75.9941 42.1288 75.8042 42.245C 75.6804 41.6725 75.8042 42.245 75.4032 40.5771ZM 50.9196 13.2121C 50.9196 7.74677 46.4535 3.30098 40.9613 3.30098C 35.471 3.30098 31.0065 7.74677 31.001 13.2134C 31.001 15.2558 31.624 17.153 32.6913 18.7316L 32.7808 18.8538C 32.8068 18.8899 32.8342 18.9255 32.8616 18.9612C 32.8881 18.9957 32.9146 19.0302 32.9399 19.065C 33.1487 19.3489 33.3707 19.6195 33.6077 19.8751L 33.6351 19.9061C 33.6529 19.9263 33.6702 19.9459 33.689 19.9657C 34.7413 21.0841 36.0339 21.9404 37.4509 22.4782L 37.4882 22.4914C 37.5184 22.502 37.5492 22.5128 37.5785 22.5244C 37.8817 22.635 38.1917 22.7256 38.5032 22.8065C 38.5286 22.8128 38.5539 22.8196 38.5794 22.8264C 38.6204 22.8373 38.6617 22.8484 38.7038 22.8576C 39.0003 22.9269 39.2986 22.9795 39.6003 23.0208C 39.636 23.0253 39.6711 23.0311 39.7061 23.0369C 39.7487 23.0439 39.7911 23.0509 39.834 23.0555C 40.2068 23.0986 40.5815 23.1232 40.9593 23.1232C 41.3406 23.1232 41.7169 23.0968 42.0912 23.0555C 42.147 23.0494 42.201 23.0404 42.2555 23.0314C 42.2915 23.0254 42.3277 23.0194 42.3646 23.0141C 42.6514 22.971 42.9378 22.9217 43.2197 22.8573C 43.2803 22.8429 43.3397 22.8272 43.399 22.8114C 43.4286 22.8036 43.4583 22.7957 43.4881 22.788C 43.7764 22.7123 44.0598 22.6263 44.3383 22.5241C 44.3651 22.5142 44.3918 22.5048 44.4185 22.4953C 44.4628 22.4797 44.507 22.4641 44.5505 22.4466C 44.8702 22.3229 45.1835 22.1845 45.4901 22.0277L 45.5133 22.0165C 45.5287 22.0091 45.5443 22.0018 45.5597 21.9931C 46.2343 21.645 46.864 21.2143 47.4457 20.7178C 47.472 20.695 47.498 20.6713 47.524 20.6476C 47.5486 20.6252 47.5731 20.6027 47.5981 20.581C 47.825 20.3783 48.0439 20.1637 48.2543 19.9393C 48.274 19.9174 48.294 19.8957 48.3139 19.874C 48.3525 19.8319 48.3912 19.7898 48.4284 19.7463C 48.6406 19.507 48.8428 19.2547 49.0333 18.9924C 49.0533 18.9646 49.0743 18.9378 49.0952 18.9109C 49.1228 18.8756 49.1504 18.8402 49.1759 18.8027L 49.2324 18.7236C 50.2966 17.1481 50.9196 15.2512 50.9196 13.2121ZM 57.913 71.9258L 58.7964 71.416C 67.7967 66.2361 73.1676 57.5506 73.1733 48.1829C 73.1733 36.1634 64.1513 25.4175 51.1042 21.7271C 51.0765 21.7603 51.0468 21.7902 51.0174 21.8199C 50.9939 21.8436 50.9705 21.8672 50.9484 21.8922C 50.7066 22.1694 50.4547 22.4366 50.1911 22.6923C 50.1265 22.7533 50.0605 22.8116 49.994 22.8702C 49.9581 22.9019 49.9221 22.9337 49.886 22.9661C 49.6458 23.1853 49.3987 23.3966 49.1419 23.5979C 49.0715 23.6519 48.9993 23.7052 48.9268 23.7587C 48.8863 23.7885 48.8458 23.8185 48.8054 23.8486C 48.7649 23.8774 48.7253 23.9074 48.6856 23.9374C 48.6457 23.9676 48.6058 23.9978 48.5651 24.0268C 51.1437 24.6338 53.6212 25.5576 55.9182 26.7915C 56.7219 27.2235 57.0233 28.2251 56.5875 29.0267C 56.2877 29.5794 55.716 29.8913 55.1276 29.8913C 54.8607 29.8913 54.5905 29.8286 54.3403 29.6934C 50.4227 27.5867 45.9017 26.4732 41.2731 26.4732C 36.8799 26.4732 32.558 27.4828 28.7811 29.393C 27.9658 29.8073 26.9681 29.4839 26.5538 28.6689C 26.1393 27.8573 26.4627 26.8642 27.2796 26.4517C 29.2484 25.4568 31.3497 24.6898 33.5239 24.142C 33.4409 24.0864 33.3617 24.0256 33.2828 23.9649C 33.2374 23.93 33.1921 23.8952 33.1462 23.8615C 33.1066 23.8322 33.0676 23.803 33.0286 23.7737L 32.934 23.7031C 32.639 23.4787 32.3556 23.2429 32.0804 22.9954C 32.0555 22.9728 32.0303 22.9504 32.0051 22.928C 31.9584 22.8866 31.9119 22.8452 31.8666 22.8024C 31.59 22.5434 31.3265 22.2713 31.0745 21.9907C 31.0563 21.9695 31.0358 21.9494 31.0153 21.9294C 30.9944 21.909 30.9734 21.8886 30.9551 21.867C 26.8271 23.1109 22.9724 25.1102 19.7491 27.6886L 18.8278 28.4261L 17.8268 27.7975C 15.8763 26.5736 13.7351 26.0903 12.0995 26.4861L 15.7933 31.4152L 15.0079 32.4099C 12.454 35.6384 10.7437 39.2346 9.9234 43.1031L 9.64496 44.4112L 5.14069 44.4112C 4.13324 44.4112 3.31451 45.2277 3.31451 46.2308L 3.31451 60.9723C 3.31451 61.9769 4.13477 62.7919 5.14069 62.7919L 14.1175 62.7919L 14.6146 63.45C 16.8054 66.3552 19.5831 68.8594 22.8692 70.8901L 23.8619 71.502L 23.5621 72.8794L 23.5654 80.0324C 23.5654 80.3343 23.6946 80.5109 23.741 80.5422L 29.9639 80.5206C 29.9457 80.5167 29.9564 80.485 29.9754 80.4286C 30.0031 80.3463 30.0485 80.2114 30.0485 80.0324L 30.0485 74.2947L 32.1266 74.8358C 37.733 76.2992 43.5363 76.4229 49.4792 75.0471L 51.5126 74.5753L 51.5126 80.2124C 51.5126 80.5124 51.6403 80.689 51.6867 80.7203L 57.8433 80.6988C 57.8995 80.6395 57.9957 80.4711 57.9957 80.2121L 57.913 71.9258Z"/>
<path id="path5_stroke" d="M 75.4032 40.5771L 76.3755 40.3433L 76.3703 40.3217L 76.3642 40.3004L 75.4032 40.5771ZM 52.9448 18.854L 52.0424 18.423L 51.5443 19.4658L 52.6478 19.8089L 52.9448 18.854ZM 29.0707 19.0404L 29.3837 19.9901L 30.4787 19.6292L 29.9666 18.5962L 29.0707 19.0404ZM 18.5723 24.4216L 18.1113 25.309L 18.6678 25.598L 19.1703 25.223L 18.5723 24.4216ZM 8.58258 24.5553L 9.17857 25.3583L 9.17906 25.3579L 8.58258 24.5553ZM 7.25354 25.5417L 6.65755 24.7387L 5.85058 25.3377L 6.4535 26.1417L 7.25354 25.5417ZM 11.6354 31.3849L 12.4442 31.973L 12.8784 31.3757L 12.4354 30.785L 11.6354 31.3849ZM 6.99182 41.113L 6.99182 42.113L 7.76358 42.113L 7.95917 41.3665L 6.99182 41.113ZM 5.14069 41.113L 5.14069 40.113L 5.14059 40.113L 5.14069 41.113ZM 12.4739 66.0924L 13.2559 65.4691L 12.9557 65.0924L 12.4739 65.0924L 12.4739 66.0924ZM 20.2496 73.1381L 21.2496 73.1381L 21.2496 72.5988L 20.799 72.3026L 20.2496 73.1381ZM 33.363 78.5113L 33.5636 77.5316L 32.363 77.2858L 32.363 78.5113L 33.363 78.5113ZM 48.1984 78.6797L 49.1984 78.6797L 49.1984 77.4828L 48.0206 77.6956L 48.1984 78.6797ZM 61.3118 73.767L 60.7897 72.9141L 60.3118 73.2067L 60.3118 73.767L 61.3118 73.767ZM 31.001 13.2134L 30.001 13.2124L 30.001 13.2134L 31.001 13.2134ZM 32.6913 18.7316L 31.8628 19.2917L 31.8734 19.3073L 31.8845 19.3225L 32.6913 18.7316ZM 32.7808 18.8538L 33.5916 18.2685L 33.5875 18.2629L 32.7808 18.8538ZM 32.8616 18.9612L 32.0684 19.5701L 32.0688 19.5707L 32.8616 18.9612ZM 32.9399 19.065L 32.1301 19.6519L 32.1344 19.6577L 32.9399 19.065ZM 33.6077 19.8751L 34.3564 19.2121L 34.3488 19.2036L 34.3411 19.1953L 33.6077 19.8751ZM 33.6351 19.9061L 34.3857 19.2452L 34.3838 19.2431L 33.6351 19.9061ZM 33.689 19.9657L 34.4173 19.2805L 34.4154 19.2785L 33.689 19.9657ZM 37.4509 22.4782L 37.096 23.4131L 37.1066 23.4171L 37.1172 23.4209L 37.4509 22.4782ZM 37.4882 22.4914L 37.1545 23.4341L 37.1574 23.4351L 37.4882 22.4914ZM 37.5785 22.5244L 37.2109 23.4544L 37.2232 23.4592L 37.2357 23.4638L 37.5785 22.5244ZM 38.5032 22.8065L 38.2519 23.7745L 38.2628 23.7772L 38.5032 22.8065ZM 38.5794 22.8264L 38.8378 21.8603L 38.8371 21.8602L 38.5794 22.8264ZM 38.7038 22.8576L 38.9314 21.8838L 38.9243 21.8821L 38.9172 21.8806L 38.7038 22.8576ZM 39.6003 23.0208L 39.4646 24.0116L 39.4753 24.013L 39.6003 23.0208ZM 39.7061 23.0369L 39.8694 22.0503L 39.8691 22.0503L 39.7061 23.0369ZM 39.834 23.0555L 39.9489 22.062L 39.9388 22.061L 39.834 23.0555ZM 42.0912 23.0555L 41.9837 22.0613L 41.9815 22.0615L 42.0912 23.0555ZM 42.2555 23.0314L 42.4197 24.0178L 42.4198 24.0178L 42.2555 23.0314ZM 42.3646 23.0141L 42.5046 24.0043L 42.5133 24.003L 42.3646 23.0141ZM 43.2197 22.8573L 43.4425 23.8322L 43.4502 23.8304L 43.2197 22.8573ZM 43.399 22.8114L 43.6555 23.778L 43.6556 23.778L 43.399 22.8114ZM 43.4881 22.788L 43.7381 23.7563L 43.7422 23.7552L 43.4881 22.788ZM 44.3383 22.5241L 44.6826 23.463L 44.6854 23.462L 44.3383 22.5241ZM 44.4185 22.4953L 44.7513 23.4383L 44.7515 23.4383L 44.4185 22.4953ZM 44.5505 22.4466L 44.1895 21.5139L 44.1776 21.5187L 44.5505 22.4466ZM 45.4901 22.0277L 45.0548 21.1274L 45.0447 21.1323L 45.0347 21.1374L 45.4901 22.0277ZM 45.5133 22.0165L 45.0833 21.1137L 45.078 21.1162L 45.5133 22.0165ZM 45.5597 21.9931L 45.1011 21.1044L 45.0842 21.1131L 45.0676 21.1225L 45.5597 21.9931ZM 47.4457 20.7178L 48.0948 21.4785L 48.1 21.4741L 47.4457 20.7178ZM 47.524 20.6476L 46.8502 19.9087L 46.8493 19.9095L 47.524 20.6476ZM 47.5981 20.581L 48.2544 21.3356L 48.2644 21.3267L 47.5981 20.581ZM 48.2543 19.9393L 48.9837 20.6234L 48.9908 20.6158L 48.9977 20.6082L 48.2543 19.9393ZM 48.3139 19.874L 47.5771 19.1978L 47.5769 19.1981L 48.3139 19.874ZM 48.4284 19.7463L 47.6803 19.0827L 47.6743 19.0894L 47.6684 19.0963L 48.4284 19.7463ZM 49.0333 18.9924L 49.8424 19.5801L 49.8448 19.5768L 49.0333 18.9924ZM 49.0952 18.9109L 48.3068 18.2957L 48.3067 18.2959L 49.0952 18.9109ZM 49.1759 18.8027L 48.3624 18.2211L 48.3556 18.2306L 48.3491 18.2403L 49.1759 18.8027ZM 49.2324 18.7236L 50.0459 19.3052L 50.0537 19.2944L 50.0611 19.2834L 49.2324 18.7236ZM 58.7964 71.416L 58.2976 70.5493L 58.2966 70.5499L 58.7964 71.416ZM 57.913 71.9258L 57.4132 71.0596L 56.9072 71.3516L 56.913 71.9358L 57.913 71.9258ZM 73.1733 48.1829L 74.1733 48.1835L 74.1733 48.1829L 73.1733 48.1829ZM 51.1042 21.7271L 51.3764 20.7649L 50.7521 20.5883L 50.3365 21.0864L 51.1042 21.7271ZM 51.0174 21.8199L 51.7277 22.5238L 51.7281 22.5234L 51.0174 21.8199ZM 50.9484 21.8922L 50.1998 21.2291L 50.1948 21.2348L 50.9484 21.8922ZM 50.1911 22.6923L 50.8779 23.4192L 50.8874 23.41L 50.1911 22.6923ZM 49.994 22.8702L 49.3324 22.1203L 49.332 22.1207L 49.994 22.8702ZM 49.886 22.9661L 49.2171 22.2228L 49.2121 22.2274L 49.886 22.9661ZM 49.1419 23.5979L 49.7509 24.3911L 49.7587 24.385L 49.1419 23.5979ZM 48.9268 23.7587L 48.3333 22.9538L 48.333 22.954L 48.9268 23.7587ZM 48.8054 23.8486L 49.3851 24.6634L 49.3944 24.6568L 49.4036 24.6499L 48.8054 23.8486ZM 48.6856 23.9374L 48.0825 23.1398L 48.0823 23.1399L 48.6856 23.9374ZM 48.5651 24.0268L 47.986 23.2115L 46.1818 24.493L 48.3359 25.0002L 48.5651 24.0268ZM 55.9182 26.7915L 56.3916 25.9107L 56.3914 25.9106L 55.9182 26.7915ZM 56.5875 29.0267L 55.709 28.5491L 55.7086 28.5498L 56.5875 29.0267ZM 54.3403 29.6934L 54.816 28.8138L 54.8139 28.8126L 54.3403 29.6934ZM 28.7811 29.393L 28.3298 28.5007L 28.3281 28.5015L 28.7811 29.393ZM 26.5538 28.6689L 27.4452 28.2157L 27.4444 28.2142L 26.5538 28.6689ZM 27.2796 26.4517L 27.7303 27.3443L 27.7306 27.3442L 27.2796 26.4517ZM 33.5239 24.142L 33.7682 25.1117L 35.9488 24.5623L 34.0804 23.3111L 33.5239 24.142ZM 33.2828 23.9649L 33.8923 23.1721L 33.8919 23.1718L 33.2828 23.9649ZM 33.1462 23.8615L 32.5515 24.6655L 32.5541 24.6673L 33.1462 23.8615ZM 33.0286 23.7737L 33.6282 22.9734L 33.6269 22.9725L 33.0286 23.7737ZM 32.934 23.7031L 32.3286 24.4991L 32.3356 24.5043L 32.934 23.7031ZM 32.0804 22.9954L 31.4091 23.7365L 31.4117 23.7389L 32.0804 22.9954ZM 32.0051 22.928L 32.6693 22.1805L 32.6691 22.1803L 32.0051 22.928ZM 31.8666 22.8024L 32.5541 22.0762L 32.55 22.0723L 31.8666 22.8024ZM 31.0745 21.9907L 30.3147 22.6409L 30.3225 22.65L 30.3305 22.6589L 31.0745 21.9907ZM 31.0153 21.9294L 30.3166 22.6448L 30.3175 22.6457L 31.0153 21.9294ZM 30.9551 21.867L 31.718 21.2205L 31.2942 20.7204L 30.6666 20.9095L 30.9551 21.867ZM 19.7491 27.6886L 19.1245 26.9078L 19.1242 26.9079L 19.7491 27.6886ZM 18.8278 28.4261L 18.296 29.273L 18.8979 29.6509L 19.4527 29.2068L 18.8278 28.4261ZM 17.8268 27.7975L 18.3586 26.9506L 18.3583 26.9504L 17.8268 27.7975ZM 12.0995 26.4861L 11.8643 25.5141L 10.389 25.8711L 11.2993 27.0858L 12.0995 26.4861ZM 15.7933 31.4152L 16.5781 32.0349L 17.0549 31.4312L 16.5936 30.8155L 15.7933 31.4152ZM 15.0079 32.4099L 15.7922 33.0302L 15.7927 33.0296L 15.0079 32.4099ZM 9.9234 43.1031L 10.9015 43.3113L 10.9017 43.3105L 9.9234 43.1031ZM 9.64496 44.4112L 9.64496 45.4112L 10.4545 45.4112L 10.623 44.6194L 9.64496 44.4112ZM 14.1175 62.7919L 14.9154 62.1892L 14.6154 61.7919L 14.1175 61.7919L 14.1175 62.7919ZM 14.6146 63.45L 15.413 62.8479L 15.4126 62.8473L 14.6146 63.45ZM 22.8692 70.8901L 22.3435 71.7407L 22.3445 71.7413L 22.8692 70.8901ZM 23.8619 71.502L 24.8391 71.7147L 24.9898 71.0225L 24.3867 70.6507L 23.8619 71.502ZM 23.5621 72.8794L 22.585 72.6666L 22.562 72.772L 22.5621 72.8798L 23.5621 72.8794ZM 23.5654 80.0324L 24.5654 80.0324L 24.5654 80.0319L 23.5654 80.0324ZM 23.741 80.5422L 23.1816 81.371L 23.4367 81.5433L 23.7445 81.5422L 23.741 80.5422ZM 29.9639 80.5206L 29.9674 81.5206L 30.177 79.5436L 29.9639 80.5206ZM 29.9754 80.4286L 29.0277 80.1093L 29.0275 80.11L 29.9754 80.4286ZM 30.0485 74.2947L 30.3005 73.327L 29.0485 73.001L 29.0485 74.2947L 30.0485 74.2947ZM 32.1266 74.8358L 32.3791 73.8682L 32.3786 73.8681L 32.1266 74.8358ZM 49.4792 75.0471L 49.7047 76.0213L 49.7052 76.0212L 49.4792 75.0471ZM 51.5126 74.5753L 52.5126 74.5753L 52.5126 73.3167L 51.2866 73.6012L 51.5126 74.5753ZM 51.6867 80.7203L 51.1276 81.5494L 51.3826 81.7214L 51.6902 81.7203L 51.6867 80.7203ZM 57.8433 80.6988L 57.8468 81.6988L 58.2747 81.6973L 58.569 81.3868L 57.8433 80.6988ZM 57.9957 80.2121L 58.9958 80.2121L 58.9957 80.2021L 57.9957 80.2121ZM 74.4309 40.8108C 74.5312 41.2278 74.6063 41.5405 74.6565 41.749C 74.6815 41.8533 74.7003 41.9315 74.7129 41.9836C 74.7191 42.0097 74.7238 42.0292 74.727 42.0422C 74.7285 42.0487 74.7297 42.0536 74.7305 42.0569C 74.7309 42.0585 74.7312 42.0597 74.7314 42.0606C 74.7315 42.061 74.7315 42.0613 74.7316 42.0615C 74.7316 42.0616 74.7316 42.0616 74.7316 42.0617C 74.7316 42.0617 74.7316 42.0617 74.7317 42.0618C 74.7317 42.0618 74.7317 42.0618 75.7039 41.828C 76.6762 41.5943 76.6762 41.5943 76.6762 41.5942C 76.6762 41.5942 76.6762 41.5942 76.6762 41.5942C 76.6762 41.5941 76.6762 41.5941 76.6762 41.594C 76.6761 41.5938 76.676 41.5935 76.6759 41.593C 76.6758 41.5922 76.6755 41.591 76.6751 41.5894C 76.6743 41.5861 76.6731 41.5812 76.6715 41.5747C 76.6684 41.5617 76.6637 41.5421 76.6574 41.5161C 76.6449 41.464 76.6261 41.3858 76.6011 41.2815C 76.5509 41.073 76.4757 40.7603 76.3755 40.3433L 74.4309 40.8108C 74.5312 41.2278 74.6063 41.5405 74.6565 41.749C 74.6815 41.8533 74.7003 41.9315 74.7129 41.9836C 74.7191 42.0097 74.7238 42.0292 74.727 42.0422C 74.7285 42.0487 74.7297 42.0536 74.7305 42.0569C 74.7309 42.0585 74.7312 42.0597 74.7314 42.0606C 74.7315 42.061 74.7315 42.0613 74.7316 42.0615C 74.7316 42.0616 74.7316 42.0616 74.7316 42.0617C 74.7316 42.0617 74.7316 42.0617 74.7317 42.0618C 74.7317 42.0618 74.7317 42.0618 75.7039 41.828C 76.6762 41.5943 76.6762 41.5943 76.6762 41.5942C 76.6762 41.5942 76.6762 41.5942 76.6762 41.5942C 76.6762 41.5941 76.6762 41.5941 76.6762 41.594C 76.6761 41.5938 76.676 41.5935 76.6759 41.593C 76.6758 41.5922 76.6755 41.591 76.6751 41.5894C 76.6743 41.5861 76.6731 41.5812 76.6715 41.5747C 76.6684 41.5617 76.6637 41.5421 76.6574 41.5161C 76.6449 41.464 76.6261 41.3858 76.6011 41.2815C 76.5509 41.073 76.4757 40.7603 76.3755 40.3433L 74.4309 40.8108ZM 76.3642 40.3004C 73.3924 29.9781 64.7311 21.4721 53.2417 17.8992L 52.6478 19.8089C 63.5669 23.2045 71.6767 31.248 74.4422 40.8537L 76.3642 40.3004ZM 53.8471 19.2851C 54.705 17.4772 55.2268 15.3536 55.2341 13.2106L 53.2341 13.2106C 53.2414 15.1123 52.822 16.8031 52.0424 18.423L 53.8471 19.2851ZM 55.2341 13.2106C 55.2341 5.37072 48.8275 -1 40.9613 -1L 40.9613 1C 47.7317 1 53.2341 6.48405 53.2341 13.2106L 55.2341 13.2106ZM 40.9613 -1C 33.0967 -1 26.692 5.37096 26.692 13.2106L 28.692 13.2106C 28.692 6.48381 34.193 1 40.9613 1L 40.9613 -1ZM 26.692 13.2106C 26.6998 15.4307 27.2599 17.6268 28.1747 19.4846L 29.9666 18.5962C 29.1348 16.9307 28.6841 15.1806 28.692 13.2106L 26.692 13.2106ZM 28.7576 18.0907C 24.8846 19.3702 21.1518 21.2536 17.9742 23.6201L 19.1703 25.223C 22.2041 22.9543 25.65 21.2179 29.3837 19.9901L 28.7576 18.0907ZM 19.0332 23.5341C 15.2658 21.5772 10.9833 21.5253 7.9861 23.7527L 9.17906 25.3579C 11.3988 23.7083 14.8222 23.6005 18.1113 25.309L 19.0332 23.5341ZM 7.98659 23.7523L 6.65755 24.7387L 7.84953 26.3447L 9.17857 25.3583L 7.98659 23.7523ZM 6.4535 26.1417L 10.8353 31.9849L 12.4354 30.785L 8.05358 24.9418L 6.4535 26.1417ZM 10.8266 30.7968C 8.60032 33.8657 6.96246 37.2969 6.02447 40.8596L 7.95917 41.3665C 8.84064 37.9843 10.3187 34.889 12.4442 31.973L 10.8266 30.7968ZM 6.99182 40.113L 5.14069 40.113L 5.14069 42.113L 6.99182 42.113L 6.99182 40.113ZM 5.14059 40.113C 1.75865 40.1133 -1 42.8532 -1 46.2321L 1 46.2321C 1 43.966 2.855 42.1132 5.14078 42.113L 5.14059 40.113ZM -1 46.2321L -1 60.9735L 1 60.9735L 1 46.2321L -1 46.2321ZM -1 60.9735C -1 64.3524 1.75865 67.0924 5.14069 67.0924L 5.14069 65.0924C 2.855 65.0924 1 63.2397 1 60.9735L -1 60.9735ZM 5.14069 67.0924L 12.4739 67.0924L 12.4739 65.0924L 5.14069 65.0924L 5.14069 67.0924ZM 11.6918 66.7156C 13.8942 69.4739 16.6193 71.9443 19.7002 73.9737L 20.799 72.3026C 17.844 70.3631 15.3526 68.1053 13.2559 65.4691L 11.6918 66.7156ZM 19.2496 73.1381L 19.2496 80.0337L 21.2496 80.0337L 21.2496 73.1381L 19.2496 73.1381ZM 19.2496 80.0337C 19.2496 82.5697 21.1229 84.8214 23.6484 84.8214L 23.6484 82.8214C 22.4258 82.8214 21.2496 81.6745 21.2496 80.0337L 19.2496 80.0337ZM 23.6484 84.8214L 29.9642 84.8214L 29.9642 82.8214L 23.6484 82.8214L 23.6484 84.8214ZM 29.9642 84.8214C 32.49 84.8214 34.363 82.5697 34.363 80.0337L 32.363 80.0337C 32.363 81.6745 31.1871 82.8214 29.9642 82.8214L 29.9642 84.8214ZM 34.363 80.0337L 34.363 78.5113L 32.363 78.5113L 32.363 80.0337L 34.363 80.0337ZM 33.1624 79.491C 38.0954 80.4968 43.2206 80.5903 48.3762 79.6638L 48.0206 77.6956C 43.0604 78.5967 38.3153 78.5089 33.5636 77.5316L 33.1624 79.491ZM 47.1984 78.6797L 47.1984 80.2139L 49.1984 80.2139L 49.1984 78.6797L 47.1984 78.6797ZM 47.1984 80.2139C 47.1984 82.7505 49.0722 85 51.5972 85L 51.5972 83C 50.374 83 49.1984 81.8541 49.1984 80.2139L 47.1984 80.2139ZM 51.5972 85L 57.913 85L 57.913 83L 51.5972 83L 51.5972 85ZM 57.913 85C 60.4382 85 62.3118 82.7507 62.3118 80.2139L 60.3118 80.2139C 60.3118 81.8543 59.1364 83 57.913 83L 57.913 85ZM 62.3118 80.2139L 62.3118 73.767L 60.3118 73.767L 60.3118 80.2139L 62.3118 80.2139ZM 61.8339 74.6199C 71.6181 68.6302 77.4836 58.8286 77.4836 48.1855L 75.4836 48.1855C 75.4836 58.0577 70.0468 67.2472 60.7897 72.9141L 61.8339 74.6199ZM 77.4836 48.1855C 77.4817 46.1007 77.2204 44.0091 76.7803 42.0277L 74.8281 42.4624C 75.2498 44.3512 75.4856 46.2254 75.4836 48.1855L 77.4836 48.1855ZM 76.3262 43.098C 76.3332 43.0936 76.3401 43.0895 76.3464 43.0855C 76.3523 43.0818 76.3598 43.0772 76.3677 43.0722C 76.3716 43.0697 76.3773 43.0659 76.3841 43.0615C 76.3875 43.0592 76.3921 43.0561 76.3975 43.0524C 76.4025 43.049 76.4106 43.0434 76.4204 43.0363C 76.4254 43.0327 76.4321 43.0278 76.4398 43.0219C 76.4472 43.0163 76.4582 43.0077 76.4713 42.9969C 76.477 42.9922 76.4892 42.9817 76.4959 42.9759C 76.5039 42.9687 76.5217 42.9523 76.5314 42.943C 76.5437 42.9308 76.5715 42.9017 76.5868 42.8847C 76.6073 42.8604 76.6545 42.7981 76.6802 42.7594C 76.7167 42.6966 76.7908 42.5179 76.8191 42.4002C 76.834 42.1978 76.7137 41.7496 76.5582 41.5359C 76.3931 41.3965 76.0773 41.2558 75.9484 41.2324C 75.8706 41.2266 75.7434 41.23 75.6945 41.2357C 75.6614 41.241 75.6051 41.2525 75.5818 41.2583C 75.5644 41.263 75.5338 41.2721 75.5206 41.2764C 75.51 41.2799 75.491 41.2867 75.4826 41.2898C 75.4755 41.2925 75.4626 41.2975 75.4567 41.2999C 75.443 41.3055 75.4317 41.3105 75.4239 41.3139C 75.4159 41.3175 75.4091 41.3207 75.404 41.3232C 75.3939 41.328 75.3857 41.3321 75.3806 41.3347C 75.3703 41.3399 75.3621 41.3443 75.3576 41.3466C 75.3526 41.3493 75.3482 41.3518 75.3448 41.3536C 75.342 41.3552 75.3378 41.3575 75.3351 41.359C 75.3244 41.365 75.3126 41.3717 75.3019 41.3778C 75.2799 41.3905 75.2525 41.4064 75.2251 41.4224C 75.1976 41.4384 75.168 41.4558 75.1424 41.4708C 75.1171 41.4857 75.093 41.5 75.076 41.5101C 75.0716 41.5128 75.0668 41.5156 75.0621 41.5185C 75.0597 41.5199 75.0568 41.5217 75.0537 41.5236C 75.0509 41.5253 75.0461 41.5283 75.0405 41.5319C 75.0376 41.5337 75.0332 41.5365 75.0279 41.54C 75.0251 41.5418 75.0216 41.5441 75.0174 41.5469C 75.0135 41.5496 75.0077 41.5535 75.0008 41.5583C 74.9978 41.5604 74.9914 41.565 74.9879 41.5675C 74.9837 41.5705 74.9745 41.5774 74.9694 41.5812C 74.963 41.5861 74.9484 41.5976 74.9402 41.6042C 74.9292 41.6133 74.9031 41.6362 74.8881 41.6501C 74.8655 41.672 74.8074 41.7357 74.7734 41.7786C 74.7115 41.8718 74.5837 42.239 74.5839 42.5174C 74.7448 42.9366 75.2933 43.3375 75.5299 43.3767C 75.628 43.3763 75.7744 43.3574 75.8227 43.3463C 75.8509 43.3386 75.897 43.3241 75.9152 43.3177C 75.9278 43.3131 75.9498 43.3045 75.9591 43.3006C 75.9662 43.2976 75.9789 43.2921 75.9846 43.2896C 75.9891 43.2875 75.9975 43.2837 76.0012 43.2819C 76.0099 43.2778 76.017 43.2743 76.0217 43.272C 76.0266 43.2695 76.0308 43.2674 76.0339 43.2657C 76.04 43.2626 76.045 43.2599 76.0481 43.2583C 76.0515 43.2565 76.0544 43.2549 76.0566 43.2537C 76.0609 43.2513 76.0647 43.2492 76.0675 43.2476C 76.0699 43.2463 76.0734 43.2443 76.076 43.2429C 76.0813 43.2399 76.087 43.2367 76.0929 43.2333C 76.1048 43.2265 76.12 43.2177 76.1388 43.2069C 76.1759 43.1855 76.2308 43.1537 76.3066 43.1097L 75.3018 41.3804C 75.2271 41.4238 75.1749 41.454 75.1394 41.4745C 75.1218 41.4847 75.1092 41.4919 75.1008 41.4967C 75.0965 41.4991 75.0939 41.5006 75.0925 41.5014C 75.0918 41.5018 75.0923 41.5015 75.0923 41.5015C 75.0927 41.5013 75.0944 41.5003 75.0971 41.4989C 75.0984 41.4981 75.1006 41.497 75.1033 41.4955C 75.1058 41.4942 75.1102 41.4918 75.1159 41.4889C 75.1188 41.4874 75.1227 41.4854 75.1275 41.483C 75.132 41.4808 75.1389 41.4773 75.1475 41.4733C 75.1512 41.4715 75.1594 41.4677 75.1639 41.4657C 75.1695 41.4632 75.1822 41.4577 75.1893 41.4547C 75.1986 41.4509 75.2204 41.4423 75.2331 41.4377C 75.2512 41.4313 75.2973 41.4168 75.3255 41.4091C 75.3737 41.398 75.5201 41.3792 75.6182 41.3787C 75.8548 41.4179 76.4033 41.8189 76.5642 42.238C 76.5644 42.5164 76.4366 42.8836 76.3747 42.9768C 76.3408 43.0197 76.2826 43.0833 76.2601 43.1053C 76.245 43.1192 76.219 43.142 76.208 43.151C 76.1999 43.1576 76.1853 43.1691 76.179 43.174C 76.1739 43.1778 76.1647 43.1846 76.1606 43.1876C 76.1571 43.1901 76.1508 43.1946 76.1479 43.1966C 76.1411 43.2014 76.1355 43.2052 76.1317 43.2078C 76.1277 43.2104 76.1243 43.2126 76.1218 43.2143C 76.1169 43.2175 76.113 43.22 76.1107 43.2214C 76.1062 43.2243 76.1029 43.2263 76.1019 43.2269C 76.1005 43.2278 76.0997 43.2283 76.0997 43.2283C 76.0989 43.2287 76.1008 43.2276 76.1032 43.2262C 76.1136 43.22 76.1325 43.2088 76.1567 43.1945C 76.1807 43.1804 76.207 43.165 76.2326 43.15C 76.2584 43.135 76.2812 43.1218 76.2973 43.1125C 76.3057 43.1077 76.31 43.1053 76.3111 43.1047C 76.3111 43.1047 76.3106 43.105 76.3095 43.1056C 76.3085 43.1061 76.3063 43.1074 76.303 43.1091C 76.3005 43.1105 76.2937 43.1141 76.2847 43.1186C 76.2802 43.1209 76.2726 43.1247 76.263 43.1293C 76.258 43.1317 76.2514 43.1348 76.2436 43.1383C 76.2361 43.1417 76.2249 43.1465 76.2113 43.1521C 76.2055 43.1544 76.1927 43.1595 76.1857 43.1621C 76.1773 43.1652 76.1583 43.1719 76.1478 43.1755C 76.1346 43.1797 76.1041 43.1888 76.0867 43.1935C 76.0635 43.1993 76.0073 43.2108 75.9742 43.2161C 75.9252 43.2218 75.7981 43.2252 75.7203 43.2194C 75.5915 43.196 75.2757 43.0553 75.1106 42.9159C 74.9551 42.7022 74.8348 42.254 74.8497 42.0516C 74.878 41.934 74.9521 41.7553 74.9886 41.6925C 75.0142 41.6539 75.0614 41.5916 75.0819 41.5673C 75.0972 41.5503 75.1249 41.5212 75.1372 41.5091C 75.1469 41.4998 75.1646 41.4834 75.1726 41.4763C 75.1792 41.4705 75.1914 41.4601 75.197 41.4554C 75.21 41.4447 75.2209 41.4363 75.2281 41.4308C 75.2357 41.425 75.2421 41.4202 75.2469 41.4167C 75.2563 41.41 75.2639 41.4047 75.2683 41.4017C 75.2731 41.3984 75.277 41.3958 75.2796 41.3941C 75.2848 41.3907 75.2886 41.3882 75.2901 41.3873C 75.2932 41.3853 75.2943 41.3846 75.292 41.386C 75.2902 41.3872 75.287 41.3891 75.2822 41.392L 76.3262 43.098ZM 76.7816 42.0336C 76.6563 41.4542 76.7636 41.9577 76.3755 40.3433L 74.4309 40.8108C 74.8448 42.5324 74.7045 41.8908 74.8268 42.4564L 76.7816 42.0336ZM 40.9613 4.30098C 45.9056 4.30098 49.9196 8.30346 49.9196 13.2121L 51.9196 13.2121C 51.9196 7.19007 47.0014 2.30098 40.9613 2.30098L 40.9613 4.30098ZM 32.001 13.2144C 32.0059 8.30308 36.0195 4.30098 40.9613 4.30098L 40.9613 2.30098C 34.9225 2.30098 30.007 7.19045 30.001 13.2124L 32.001 13.2144ZM 33.5197 18.1715C 32.5219 16.7127 31.9885 15.0979 32.001 13.2134L 30.001 13.2134C 30.0136 15.4138 30.7262 17.5933 31.8628 19.2917L 33.5197 18.1715ZM 33.5875 18.2629L 33.4981 18.1408L 31.8845 19.3225L 31.974 19.4446L 33.5875 18.2629ZM 33.6548 18.3522C 33.6272 18.3163 33.6087 18.2924 33.5916 18.2685L 31.97 19.4391C 32.0049 19.4874 32.0413 19.5348 32.0684 19.5701L 33.6548 18.3522ZM 33.7496 18.4782C 33.7161 18.4322 33.6811 18.3864 33.6543 18.3516L 32.0688 19.5707C 32.0952 19.605 32.1131 19.6281 32.1302 19.6519L 33.7496 18.4782ZM 34.3411 19.1953C 34.1243 18.9621 33.9383 18.7353 33.7454 18.4724L 32.1344 19.6577C 32.3592 19.9626 32.6172 20.2769 32.8744 20.555L 34.3411 19.1953ZM 34.3838 19.2431L 34.3564 19.2121L 32.8591 20.5381L 32.8865 20.5691L 34.3838 19.2431ZM 34.4154 19.2785C 34.4088 19.2718 34.4034 19.2654 34.3857 19.2452L 32.8846 20.5669C 32.9024 20.5871 32.9317 20.6201 32.9625 20.653L 34.4154 19.2785ZM 37.8057 21.5432C 36.4903 21.0506 35.3858 20.3196 34.4173 19.2805L 32.9607 20.651C 34.0967 21.8487 35.5776 22.8302 37.096 23.4131L 37.8057 21.5432ZM 37.8218 21.5487L 37.7845 21.5355L 37.1172 23.4209L 37.1545 23.4341L 37.8218 21.5487ZM 37.9461 21.5944C 37.8989 21.5759 37.8496 21.5584 37.8189 21.5477L 37.1574 23.4351C 37.1872 23.4455 37.1995 23.4497 37.2109 23.4544L 37.9461 21.5944ZM 38.7544 21.8386C 38.4576 21.7616 38.1936 21.6849 37.9213 21.585L 37.2357 23.4638C 37.5699 23.5852 37.9257 23.6896 38.2519 23.7744L 38.7544 21.8386ZM 38.8371 21.8602C 38.8122 21.8535 38.7782 21.8444 38.7435 21.8358L 38.2628 23.7772C 38.2789 23.7811 38.2956 23.7856 38.3217 23.7926L 38.8371 21.8602ZM 38.9172 21.8806C 38.8975 21.8766 38.8786 21.8712 38.8378 21.8603L 38.321 23.7924C 38.3622 23.8034 38.426 23.8202 38.4904 23.8345L 38.9172 21.8806ZM 39.736 22.0301C 39.4534 21.9915 39.201 21.9472 38.9314 21.8838L 38.4762 23.8313C 38.7996 23.9065 39.1439 23.9674 39.4646 24.0116L 39.736 22.0301ZM 39.8691 22.0503C 39.8341 22.0445 39.7801 22.0357 39.7254 22.0287L 39.4753 24.013C 39.492 24.0149 39.5081 24.0177 39.5431 24.0235L 39.8691 22.0503ZM 39.9388 22.061C 39.9251 22.06 39.9119 22.0573 39.8694 22.0503L 39.5427 24.0234C 39.5856 24.0305 39.6572 24.0419 39.7292 24.05L 39.9388 22.061ZM 40.9593 22.1232C 40.6143 22.1238 40.2971 22.1027 39.9489 22.0621L 39.7191 24.0488C 40.1166 24.0945 40.5487 24.1227 40.9593 24.1232L 40.9593 22.1232ZM 41.9815 22.0615C 41.6269 22.1009 41.3056 22.1238 40.9593 22.1232L 40.9593 24.1232C 41.3757 24.1226 41.8068 24.0928 42.201 24.0494L 41.9815 22.0615ZM 42.0913 22.0449C 42.0368 22.054 42.011 22.0587 41.9837 22.0613L 42.1988 24.0497C 42.2829 24.0402 42.3653 24.0269 42.4197 24.0178L 42.0913 22.0449ZM 42.2247 22.024C 42.1758 22.031 42.1274 22.0389 42.0912 22.045L 42.4198 24.0178C 42.4556 24.0118 42.4796 24.0078 42.5046 24.0043L 42.2247 22.024ZM 42.9968 21.8825C 42.7415 21.9412 42.4922 21.9838 42.2159 22.0253L 42.5133 24.003C 42.8105 23.9583 43.1341 23.9023 43.4425 23.8322L 42.9968 21.8825ZM 43.1424 21.8449C 43.0831 21.8607 43.0368 21.8731 42.9891 21.8843L 43.4502 23.8304C 43.5239 23.8128 43.5962 23.7937 43.6555 23.778L 43.1424 21.8449ZM 43.2381 21.8198C 43.205 21.8283 43.172 21.8371 43.1424 21.8449L 43.6556 23.778C 43.6852 23.7701 43.7115 23.7631 43.7381 23.7563L 43.2381 21.8198ZM 43.9939 21.5853C 43.7423 21.678 43.5041 21.7501 43.234 21.8208L 43.7422 23.7552C 44.0486 23.6745 44.3772 23.5746 44.6826 23.463L 43.9939 21.5853ZM 44.0856 21.5524C 44.0586 21.5619 44.0247 21.5739 43.9911 21.5863L 44.6854 23.462C 44.7054 23.4545 44.725 23.4476 44.7513 23.4383L 44.0856 21.5524ZM 44.1776 21.5187C 44.154 21.5285 44.1299 21.5367 44.0854 21.5524L 44.7515 23.4383C 44.7958 23.4226 44.8599 23.3997 44.9233 23.3745L 44.1776 21.5187ZM 45.0347 21.1374C 44.7537 21.2816 44.4877 21.3989 44.1896 21.514L 44.9114 23.3792C 45.2527 23.2468 45.6134 23.0874 45.9455 22.918L 45.0347 21.1374ZM 45.078 21.1162L 45.0548 21.1274L 45.9254 22.928L 45.9486 22.9168L 45.078 21.1162ZM 45.0676 21.1225C 45.0797 21.1157 45.0885 21.1113 45.0911 21.11C 45.0924 21.1093 45.0927 21.1092 45.0913 21.1098C 45.0894 21.1108 45.0873 21.1117 45.0833 21.1137L 45.9433 22.9193C 45.9581 22.9123 46.0049 22.8894 46.0518 22.8636L 45.0676 21.1225ZM 46.7965 19.9572C 46.2562 20.4201 45.7217 20.7863 45.1011 21.1044L 46.0182 22.8817C 46.7468 22.5037 47.4717 22.0084 48.0948 21.4785L 46.7965 19.9572ZM 46.8493 19.9095C 46.8238 19.9328 46.8079 19.9474 46.7914 19.9616L 48.1 21.4741C 48.1362 21.4427 48.1723 21.4098 48.1987 21.3857L 46.8493 19.9095ZM 46.9418 19.8265C 46.9076 19.8564 46.8743 19.8867 46.8502 19.9087L 48.1978 21.3865C 48.2229 21.3637 48.2387 21.3491 48.2544 21.3355L 46.9418 19.8265ZM 47.5249 19.2552C 47.3291 19.4644 47.1417 19.6481 46.9318 19.8353L 48.2644 21.3267C 48.5084 21.1084 48.7588 20.8629 48.9837 20.6234L 47.5249 19.2552ZM 47.5769 19.1981C 47.5574 19.2194 47.5342 19.2446 47.5109 19.2705L 48.9977 20.6082C 49.0139 20.5902 49.0306 20.572 49.0509 20.5499L 47.5769 19.1981ZM 47.6684 19.0963C 47.6427 19.1266 47.6158 19.1557 47.5771 19.1978L 49.0507 20.5501C 49.0892 20.5081 49.1396 20.453 49.1884 20.3962L 47.6684 19.0963ZM 48.2242 18.4047C 48.0478 18.6481 47.8761 18.8624 47.6803 19.0827L 49.1765 20.4099C 49.4051 20.1517 49.6377 19.8614 49.8424 19.5801L 48.2242 18.4047ZM 48.3067 18.2959C 48.2858 18.3227 48.2532 18.3648 48.2218 18.408L 49.8448 19.5768C 49.8535 19.5644 49.8628 19.5528 49.8837 19.5259L 48.3067 18.2959ZM 48.3491 18.2403C 48.3424 18.2511 48.3344 18.2604 48.3068 18.2957L 49.8836 19.5261C 49.9112 19.4908 49.9584 19.4293 50.0027 19.3651L 48.3491 18.2403ZM 48.4189 18.1421L 48.3624 18.2211L 49.9894 19.3843L 50.0459 19.3052L 48.4189 18.1421ZM 49.9196 13.2121C 49.9321 15.0932 49.3986 16.708 48.4037 18.1639L 50.0611 19.2834C 51.1945 17.5882 51.907 15.4092 51.9196 13.2121L 49.9196 13.2121ZM 58.2966 70.5499L 57.4132 71.0596L 58.4128 72.7919L 59.2962 72.2821L 58.2966 70.5499ZM 72.1733 48.1823C 72.1678 57.1483 67.0283 65.5245 58.2976 70.5493L 59.2952 72.2827C 68.5651 66.9477 74.1674 57.953 74.1733 48.1835L 72.1733 48.1823ZM 50.832 22.6894C 63.5292 26.2808 72.1733 36.6894 72.1733 48.1829L 74.1733 48.1829C 74.1733 35.6373 64.7734 24.5542 51.3764 20.7649L 50.832 22.6894ZM 51.7281 22.5234C 51.7571 22.4941 51.816 22.4335 51.8719 22.3679L 50.3365 21.0864C 50.3403 21.0817 50.3412 21.0811 50.3362 21.0864C 50.3301 21.0927 50.323 21.1 50.3066 21.1165L 51.7281 22.5234ZM 51.697 22.5552C 51.6939 22.5593 51.7041 22.5476 51.7277 22.5238L 50.3071 21.116C 50.2837 21.1396 50.2409 21.1834 50.1998 21.2292L 51.697 22.5552ZM 50.8874 23.41C 51.1668 23.1387 51.4473 22.8412 51.702 22.5495L 50.1948 21.2348C 49.9659 21.4976 49.7425 21.7345 49.4948 21.9745L 50.8874 23.41ZM 50.6555 23.6202C 50.7221 23.5614 50.8009 23.4917 50.8778 23.4192L 49.5044 21.9653C 49.4522 22.0148 49.3989 22.0617 49.3324 22.1203L 50.6555 23.6202ZM 50.555 23.7094C 50.5875 23.6802 50.62 23.6515 50.6559 23.6198L 49.332 22.1207C 49.2961 22.1524 49.2566 22.1873 49.2171 22.2228L 50.555 23.7094ZM 49.7587 24.385C 50.0323 24.1703 50.3078 23.9348 50.56 23.7049L 49.2121 22.2274C 48.9837 22.4359 48.7652 22.6229 48.5251 22.8107L 49.7587 24.385ZM 49.5202 24.5635C 49.593 24.5099 49.6729 24.4508 49.7509 24.391L 48.5329 22.8047C 48.4701 22.8529 48.4057 22.9004 48.3333 22.9538L 49.5202 24.5635ZM 49.4036 24.6499C 49.4419 24.6214 49.4802 24.5931 49.5205 24.5633L 48.333 22.954C 48.2924 22.984 48.2496 23.0156 48.2071 23.0473L 49.4036 24.6499ZM 49.2887 24.735C 49.3286 24.7049 49.3566 24.6836 49.3851 24.6634L 48.2256 23.0338C 48.1732 23.0713 48.1219 23.1099 48.0825 23.1398L 49.2887 24.735ZM 49.1442 24.842C 49.1974 24.8041 49.2493 24.7649 49.2889 24.7349L 48.0823 23.1399C 48.0421 23.1703 48.0143 23.1915 47.986 23.2115L 49.1442 24.842ZM 56.3914 25.9106C 54.0334 24.6466 51.4335 23.6768 48.7942 23.0534L 48.3359 25.0002C 50.8538 25.5909 53.2089 26.4687 55.4449 27.6725L 56.3914 25.9106ZM 57.4661 29.5044C 58.1679 28.2133 57.6809 26.6037 56.3916 25.9107L 55.4447 27.6724C 55.7629 27.8434 55.8787 28.2369 55.709 28.5491L 57.4661 29.5044ZM 55.1276 30.8913C 56.064 30.8913 56.9829 30.3948 57.4665 29.5037L 55.7086 28.5498C 55.5924 28.764 55.368 28.8913 55.1276 28.8913L 55.1276 30.8913ZM 53.8646 30.573C 54.2365 30.7639 54.747 30.8848 55.1276 30.8913L 55.1276 28.8913C 54.9743 28.8977 54.9444 28.8934 54.816 28.8138L 53.8646 30.573ZM 41.2731 27.4732C 45.7812 27.466 50.0634 28.52 53.8667 30.5741L 54.8139 28.8126C 50.7819 26.6535 46.0221 25.4805 41.2731 25.4732L 41.2731 27.4732ZM 29.2325 30.2854C 32.8998 28.4225 36.9944 27.4667 41.2731 27.4732L 41.2731 25.4732C 36.7655 25.4798 32.2162 26.543 28.3298 28.5007L 29.2325 30.2854ZM 25.6624 29.1221C 26.3279 30.4312 27.9283 30.948 29.2341 30.2846L 28.3281 28.5015C 28.0032 28.6666 27.6084 28.5366 27.4452 28.2157L 25.6624 29.1221ZM 26.8289 25.559C 25.5179 26.221 24.9965 27.8181 25.6632 29.1237L 27.4444 28.2142C 27.2822 27.8965 27.4075 27.5074 27.7303 27.3443L 26.8289 25.559ZM 33.2796 23.1723C 31.0557 23.734 28.8507 24.5392 26.8286 25.5592L 27.7306 27.3442C 29.646 26.3743 31.6436 25.6456 33.7682 25.1117L 33.2796 23.1723ZM 32.6732 24.7576C 32.7523 24.8184 32.8578 24.8988 32.9675 24.9729L 34.0804 23.3111C 34.0241 23.2741 33.9711 23.2327 33.8923 23.1721L 32.6732 24.7576ZM 32.5541 24.6673C 32.5913 24.6946 32.6281 24.723 32.6736 24.7579L 33.8919 23.1718C 33.8466 23.137 33.7928 23.0958 33.7383 23.0556L 32.5541 24.6673ZM 32.429 24.574C 32.4681 24.6033 32.5095 24.6344 32.5515 24.6655L 33.7408 23.0575C 33.7036 23.0299 33.6671 23.0026 33.6282 22.9734L 32.429 24.574ZM 32.3356 24.5043L 32.4302 24.575L 33.6269 22.9725L 33.5323 22.9019L 32.3356 24.5043ZM 31.4117 23.7389C 31.7012 23.9991 32.0163 24.2612 32.3286 24.499L 33.5393 22.9071C 33.2617 22.6963 33.0099 22.4867 32.7491 22.2519L 31.4117 23.7389ZM 31.3408 23.6755C 31.3661 23.698 31.3878 23.7172 31.4091 23.7365L 32.7518 22.2543C 32.7232 22.2284 32.6944 22.2028 32.6693 22.1805L 31.3408 23.6755ZM 31.1792 23.5286C 31.2358 23.5821 31.2942 23.6341 31.341 23.6757L 32.6691 22.1803C 32.6226 22.139 32.5879 22.1083 32.5541 22.0762L 31.1792 23.5286ZM 30.3305 22.6589C 30.5952 22.9533 30.8889 23.2564 31.1832 23.5324L 32.55 22.0723C 32.2911 21.8303 32.0578 21.5893 31.8185 21.3226L 30.3305 22.6589ZM 30.3175 22.6457C 30.3226 22.6507 30.3257 22.6538 30.3283 22.6563C 30.3308 22.6587 30.3316 22.6596 30.3315 22.6594C 30.3313 22.6593 30.3296 22.6576 30.3269 22.6546C 30.3241 22.6516 30.3199 22.647 30.3147 22.6409L 31.8343 21.3406C 31.7866 21.2863 31.7344 21.2339 31.713 21.213L 30.3175 22.6457ZM 30.1922 22.5135C 30.2425 22.571 30.2964 22.6251 30.3166 22.6448L 31.7139 21.214C 31.7081 21.2082 31.7049 21.2051 31.7019 21.2022C 31.6992 21.1995 31.6983 21.1986 31.6986 21.1988C 31.6986 21.1988 31.7065 21.2069 31.718 21.2205L 30.1922 22.5135ZM 20.3738 28.4695C 23.5175 25.9486 27.2032 24.0375 31.2437 22.8245L 30.6666 20.9095C 26.451 22.1843 22.4272 24.2719 19.1245 26.9078L 20.3738 28.4695ZM 19.4527 29.2068L 20.374 28.4693L 19.1242 26.9079L 18.2029 27.6454L 19.4527 29.2068ZM 17.295 28.6443L 18.296 29.273L 19.3596 27.5792L 18.3586 26.9506L 17.295 28.6443ZM 12.3347 27.458C 13.6267 27.1454 15.4905 27.5121 17.2953 28.6445L 18.3583 26.9504C 16.2622 25.6351 13.8435 25.0352 11.8643 25.5141L 12.3347 27.458ZM 16.5936 30.8155L 12.8997 25.8864L 11.2993 27.0858L 14.9931 32.0149L 16.5936 30.8155ZM 15.7927 33.0296L 16.5781 32.0349L 15.0085 30.7954L 14.2231 31.7901L 15.7927 33.0296ZM 10.9017 43.3105C 11.6908 39.5553 13.3031 36.1667 15.7922 33.0302L 14.2236 31.7895C 11.605 35.1101 9.79646 38.9139 8.94515 42.8957L 10.9017 43.3105ZM 10.623 44.6194L 10.9015 43.3113L 8.94531 42.8949L 8.66687 44.203L 10.623 44.6194ZM 5.14069 45.4112L 9.64496 45.4112L 9.64496 43.4112L 5.14069 43.4112L 5.14069 45.4112ZM 4.31451 46.2308C 4.31451 45.7831 4.6824 45.4112 5.14069 45.4112L 5.14069 43.4112C 3.58408 43.4112 2.31451 44.6723 2.31451 46.2308L 4.31451 46.2308ZM 4.31451 60.9723L 4.31451 46.2308L 2.31451 46.2308L 2.31451 60.9723L 4.31451 60.9723ZM 5.14069 61.7919C 4.68282 61.7919 4.31451 61.4204 4.31451 60.9723L 2.31451 60.9723C 2.31451 62.5334 3.58671 63.7919 5.14069 63.7919L 5.14069 61.7919ZM 14.1175 61.7919L 5.14069 61.7919L 5.14069 63.7919L 14.1175 63.7919L 14.1175 61.7919ZM 15.4126 62.8473L 14.9154 62.1892L 13.3195 63.3946L 13.8167 64.0528L 15.4126 62.8473ZM 23.3949 70.0394C 20.1831 68.0595 17.5428 65.6797 15.413 62.8479L 13.8162 64.0521C 16.068 67.0307 18.983 69.6594 22.3435 71.7407L 23.3949 70.0394ZM 24.3867 70.6507L 23.3939 70.0388L 22.3445 71.7413L 23.3372 72.3533L 24.3867 70.6507ZM 24.5392 73.0921L 24.8391 71.7147L 22.8848 71.2893L 22.585 72.6666L 24.5392 73.0921ZM 24.5654 80.0319L 24.5621 72.8789L 22.5621 72.8798L 22.5654 80.0329L 24.5654 80.0319ZM 24.3005 79.7133C 24.3758 79.7642 24.4246 79.8132 24.4461 79.8359C 24.4723 79.8636 24.491 79.8873 24.5033 79.9044C 24.5281 79.9386 24.542 79.9655 24.5498 79.9829C 24.5664 80.0204 24.5654 80.0387 24.5654 80.0324L 22.5654 80.0324C 22.5741 80.3148 22.6553 80.6372 22.7219 80.7946C 22.7922 80.953 22.9326 81.203 23.1816 81.371L 24.3005 79.7133ZM 29.9605 79.5206L 23.7376 79.5422L 23.7445 81.5422L 29.9674 81.5206L 29.9605 79.5206ZM 29.0275 80.11C 29.0228 80.124 29.0147 80.1483 29.0076 80.1712C 28.9993 80.1985 28.9815 80.2671 28.9714 80.3179C 28.9638 80.3601 28.9273 80.5545 28.9939 80.7875C 29.0331 80.8997 29.1664 81.1288 29.2661 81.2394C 29.3805 81.3343 29.6255 81.4619 29.7508 81.4977L 30.177 79.5436C 30.3246 79.5758 30.4983 79.65 30.6508 79.7963C 30.8015 79.9409 30.8791 80.1056 30.9168 80.2375C 30.981 80.4617 30.9448 80.6439 30.9401 80.6706C 30.9265 80.7463 30.9018 80.8111 30.9233 80.7472L 29.0275 80.11ZM 29.0485 80.0324C 29.0485 80.0363 29.0481 80.041 29.0464 80.049C 29.0441 80.0592 29.041 80.0698 29.0277 80.1093L 30.9231 80.7479C 30.9508 80.6655 31.0354 80.373 31.0485 80.0324L 29.0485 80.0324ZM 29.0485 74.2947L 29.0485 80.0324L 31.0485 80.0324L 31.0485 74.2947L 29.0485 74.2947ZM 32.3786 73.8681L 30.3005 73.327L 29.7965 75.2625L 31.8746 75.8036L 32.3786 73.8681ZM 49.2536 74.0728C 43.4334 75.4282 37.8708 75.3087 32.3791 73.8682L 31.874 75.8034C 37.5951 77.2896 43.6392 77.4176 49.7047 76.0213L 49.2536 74.0728ZM 51.2866 73.6012L 49.2532 74.0729L 49.7052 76.0212L 51.7386 75.5494L 51.2866 73.6012ZM 52.5126 80.2124L 52.5126 74.5753L 50.5126 74.5753L 50.5126 80.2124L 52.5126 80.2124ZM 52.2459 79.8913C 52.3222 79.9428 52.3716 79.9926 52.3934 80.0157C 52.4198 80.0437 52.4386 80.0678 52.451 80.085C 52.4759 80.1196 52.4897 80.1466 52.4973 80.1638C 52.5137 80.201 52.5126 80.2188 52.5126 80.2124L 50.5126 80.2124C 50.5212 80.4928 50.6012 80.8135 50.6672 80.9704C 50.7361 81.1267 50.8759 81.3797 51.1276 81.5494L 52.2459 79.8913ZM 57.8398 79.6988L 51.6832 79.7203L 51.6902 81.7203L 57.8468 81.6988L 57.8398 79.6988ZM 56.9957 80.2121C 56.9957 80.2166 56.9951 80.2034 57.0057 80.1755C 57.0107 80.1622 57.0192 80.1431 57.0336 80.1192C 57.0461 80.0984 57.072 80.0589 57.1176 80.0108L 58.569 81.3868C 58.8175 81.1247 58.9957 80.7027 58.9957 80.2121L 56.9957 80.2121ZM 56.913 71.9358L 56.9958 80.2221L 58.9957 80.2021L 58.9129 71.9158L 56.913 71.9358ZM 21.853 42.6919C 21.853 43.6513 21.0704 44.4369 20.0954 44.4369L 20.0954 46.4369C 22.1663 46.4369 23.853 44.7645 23.853 42.6919L 21.853 42.6919ZM 20.0954 40.9469C 21.0704 40.9469 21.853 41.7325 21.853 42.6919L 23.853 42.6919C 23.853 40.6193 22.1663 38.9469 20.0954 38.9469L 20.0954 40.9469ZM 18.3379 42.6919C 18.3379 41.7325 19.1205 40.9469 20.0954 40.9469L 20.0954 38.9469C 18.0245 38.9469 16.3379 40.6193 16.3379 42.6919L 18.3379 42.6919ZM 20.0954 44.4369C 19.1205 44.4369 18.3379 43.6513 18.3379 42.6919L 16.3379 42.6919C 16.3379 44.7644 18.0245 46.4369 20.0954 46.4369L 20.0954 44.4369Z"/>
</defs>
</svg>
