<svg width="190" height="190" viewBox="0 0 190 190" version="1.1" xmlns="http://www.w3.org/2000/svg" xmlns:xlink="http://www.w3.org/1999/xlink" xmlns:figma="http://www.figma.com/figma/ns">
<title>scalable1-img</title>
<desc>Created using Figma</desc>
<g id="Canvas" transform="translate(-490 217)" figma:type="canvas">
<g id="scalable1-img" figma:type="frame">
<g id="img" figma:type="frame">
<g id="bg" figma:type="rounded-rectangle">
<use xlink:href="#path0_fill" transform="translate(490 -217)" fill="#FFFFFF"/>
<mask id="mask0_outline_ins">
<use xlink:href="#path0_fill" fill="white" transform="translate(490 -217)"/>
</mask>
<g mask="url(#mask0_outline_ins)">
<use xlink:href="#path1_stroke_2x" transform="translate(490 -217)" fill="#000000" fill-opacity="0.1"/>
</g>
</g>
</g>
<g id="Rectangle" figma:type="vector">
<use xlink:href="#path2_fill" transform="translate(560 -142)" fill="#94CBFE"/>
<use xlink:href="#path3_stroke" transform="translate(560 -142)" fill="#047AE9"/>
</g>
<g id="Rectangle" figma:type="rounded-rectangle">
<use xlink:href="#path4_fill" transform="translate(550 -162)" fill="#FFFFFF"/>
<use xlink:href="#path5_stroke" transform="translate(550 -162)" fill="#047AE9"/>
</g>
<g id="Rectangle 2" figma:type="vector">
<use xlink:href="#path6_stroke" transform="matrix(5.55112e-17 1 -1 5.55112e-17 601.213 -153.213)" fill="#047AE9"/>
</g>
<g id="Vector" figma:type="vector">
<use xlink:href="#path7_stroke" transform="matrix(0.707107 0.707107 -0.707107 0.707107 601.213 -153.213)" fill="#047AE9"/>
</g>
<g id="Rectangle 2" figma:type="vector">
<use xlink:href="#path6_stroke" transform="matrix(-5.55112e-17 -1 1 -5.55112e-17 558.808 -110.808)" fill="#047AE9"/>
</g>
</g>
</g>
<defs>
<path id="path0_fill" d="M 0 10C 0 4.47715 4.47715 0 10 0L 180 0C 185.523 0 190 4.47715 190 10L 190 180C 190 185.523 185.523 190 180 190L 10 190C 4.47715 190 0 185.523 0 180L 0 10Z"/>
<path id="path1_stroke_2x" d="M 10 1L 180 1L 180 -1L 10 -1L 10 1ZM 189 10L 189 180L 191 180L 191 10L 189 10ZM 180 189L 10 189L 10 191L 180 191L 180 189ZM 1 180L 1 10L -1 10L -1 180L 1 180ZM 10 -1C 3.92487 -1 -1 3.92487 -1 10L 1 10C 1 5.02944 5.02944 1 10 1L 10 -1ZM 180 1C 184.971 1 189 5.02944 189 10L 191 10C 191 3.92487 186.075 -1 180 -1L 180 1ZM 189 180C 189 184.971 184.971 189 180 189L 180 191C 186.075 191 191 186.075 191 180L 189 180ZM 10 189C 5.02944 189 1 184.971 1 180L -1 180C -1 186.075 3.92487 191 10 191L 10 189Z"/>
<path id="path2_fill" d="M 60 52L 60 10.9249C 60 5.51504 54.7423 1.66494 49.5849 3.29813L 5.58487 17.2315C 2.25972 18.2844 0 21.3703 0 24.8582L 0 50L 0 52C 0 56.4183 3.58172 60 8 60L 52 60C 56.4183 60 60 56.4183 60 52Z"/>
<path id="path3_stroke" d="M 5.58487 17.2315L 6.3396 19.6148L 5.58487 17.2315ZM 49.5849 3.29813L 48.8301 0.91477L 49.5849 3.29813ZM 57.5 10.9249L 57.5 52L 62.5 52L 62.5 10.9249L 57.5 10.9249ZM 52 57.5L 8 57.5L 8 62.5L 52 62.5L 52 57.5ZM 2.5 52L 2.5 50L -2.5 50L -2.5 52L 2.5 52ZM 2.5 50L 2.5 24.8582L -2.5 24.8582L -2.5 50L 2.5 50ZM 6.3396 19.6148L 50.3396 5.68148L 48.8301 0.91477L 4.83014 14.8481L 6.3396 19.6148ZM 62.5 10.9249C 62.5 3.82447 55.5992 -1.22878 48.8301 0.91477L 50.3396 5.68148C 53.8853 4.55867 57.5 7.20561 57.5 10.9249L 62.5 10.9249ZM 57.5 52C 57.5 55.0376 55.0376 57.5 52 57.5L 52 62.5C 57.799 62.5 62.5 57.799 62.5 52L 57.5 52ZM 8 57.5C 4.96243 57.5 2.5 55.0376 2.5 52L -2.5 52C -2.5 57.799 2.20101 62.5 8 62.5L 8 57.5ZM 2.5 24.8582C 2.5 22.4603 4.05356 20.3387 6.3396 19.6148L 4.83014 14.8481C 0.465881 16.2301 -2.5 20.2803 -2.5 24.8582L 2.5 24.8582Z"/>
<path id="path4_fill" d="M 0 8C 0 3.58172 3.58172 0 8 0L 52 0C 56.4183 0 60 3.58172 60 8L 60 52C 60 56.4183 56.4183 60 52 60L 8 60C 3.58172 60 0 56.4183 0 52L 0 8Z"/>
<path id="path5_stroke" d="M 8 2.5L 52 2.5L 52 -2.5L 8 -2.5L 8 2.5ZM 57.5 8L 57.5 52L 62.5 52L 62.5 8L 57.5 8ZM 52 57.5L 8 57.5L 8 62.5L 52 62.5L 52 57.5ZM 2.5 52L 2.5 8L -2.5 8L -2.5 52L 2.5 52ZM 8 -2.5C 2.20101 -2.5 -2.5 2.20101 -2.5 8L 2.5 8C 2.5 4.96243 4.96243 2.5 8 2.5L 8 -2.5ZM 52 2.5C 55.0376 2.5 57.5 4.96243 57.5 8L 62.5 8C 62.5 2.20101 57.799 -2.5 52 -2.5L 52 2.5ZM 57.5 52C 57.5 55.0376 55.0376 57.5 52 57.5L 52 62.5C 57.799 62.5 62.5 57.799 62.5 52L 57.5 52ZM 8 57.5C 4.96243 57.5 2.5 55.0376 2.5 52L -2.5 52C -2.5 57.799 2.20101 62.5 8 62.5L 8 57.5Z"/>
<path id="path6_stroke" d="M 12 2.5C 13.3807 2.5 14.5 1.38071 14.5 0C 14.5 -1.38071 13.3807 -2.5 12 -2.5L 12 2.5ZM -2.5 12C -2.5 13.3807 -1.38071 14.5 0 14.5C 1.38071 14.5 2.5 13.3807 2.5 12L -2.5 12ZM 1 2.5L 12 2.5L 12 -2.5L 1 -2.5L 1 2.5ZM 2.5 12L 2.5 1L -2.5 1L -2.5 12L 2.5 12ZM 1 -2.5C -0.932997 -2.5 -2.5 -0.932997 -2.5 1L 2.5 1C 2.5 1.82843 1.82843 2.5 1 2.5L 1 -2.5Z"/>
<path id="path7_stroke" d="M -2.5 0L -2.5 60L 2.5 60L 2.5 0L -2.5 0Z"/>
</defs>
</svg>
