<svg width="190" height="190" viewBox="0 0 190 190" version="1.1" xmlns="http://www.w3.org/2000/svg" xmlns:xlink="http://www.w3.org/1999/xlink" xmlns:figma="http://www.figma.com/figma/ns">
<title>Group</title>
<desc>Created using Figma</desc>
<g id="Canvas" transform="translate(0 -1645)" figma:type="canvas">
<g id="Group" figma:type="frame">
<g id="Group" figma:type="frame">
<g id="img" figma:type="frame">
<g id="bg" figma:type="rounded-rectangle">
<use xlink:href="#path0_fill" transform="translate(0 1645)" fill="#FFFFFF"/>
<mask id="mask0_outline_ins">
<use xlink:href="#path0_fill" fill="white" transform="translate(0 1645)"/>
</mask>
<g mask="url(#mask0_outline_ins)">
<use xlink:href="#path1_stroke_2x" transform="translate(0 1645)" fill="#000000" fill-opacity="0.1"/>
</g>
</g>
</g>
</g>
<g id="Group" figma:type="frame">
<g id="Rectangle 3" figma:type="rounded-rectangle">
<use xlink:href="#path2_fill" transform="translate(75 1726)" fill="#94CBFE"/>
<use xlink:href="#path3_stroke" transform="translate(75 1726)" fill="#047AE9"/>
</g>
<g id="Ellipse" figma:type="ellipse">
<use xlink:href="#path4_stroke" transform="translate(78 1704)" fill="#047AE9"/>
</g>
<g id="Rectangle 3" figma:type="rounded-rectangle">
<use xlink:href="#path2_fill" transform="translate(65 1716)" fill="#FFFFFF"/>
<use xlink:href="#path3_stroke" transform="translate(65 1716)" fill="#047AE9"/>
</g>
<g id="Ellipse 2" figma:type="ellipse">
<use xlink:href="#path5_fill" transform="translate(86 1732)" fill="#047AE9"/>
</g>
<g id="Union" figma:type="vector">
<use xlink:href="#path6_fill" transform="translate(84 1736)" fill="#047AE9"/>
</g>
</g>
</g>
</g>
<defs>
<path id="path0_fill" d="M 0 10C 0 4.47715 4.47715 0 10 0L 180 0C 185.523 0 190 4.47715 190 10L 190 180C 190 185.523 185.523 190 180 190L 10 190C 4.47715 190 0 185.523 0 180L 0 10Z"/>
<path id="path1_stroke_2x" d="M 10 1L 180 1L 180 -1L 10 -1L 10 1ZM 189 10L 189 180L 191 180L 191 10L 189 10ZM 180 189L 10 189L 10 191L 180 191L 180 189ZM 1 180L 1 10L -1 10L -1 180L 1 180ZM 10 -1C 3.92487 -1 -1 3.92487 -1 10L 1 10C 1 5.02944 5.02944 1 10 1L 10 -1ZM 180 1C 184.971 1 189 5.02944 189 10L 191 10C 191 3.92487 186.075 -1 180 -1L 180 1ZM 189 180C 189 184.971 184.971 189 180 189L 180 191C 186.075 191 191 186.075 191 180L 189 180ZM 10 189C 5.02944 189 1 184.971 1 180L -1 180C -1 186.075 3.92487 191 10 191L 10 189Z"/>
<path id="path2_fill" d="M 0 8C 0 3.58172 3.58172 0 8 0L 42 0C 46.4183 0 50 3.58172 50 8L 50 42C 50 46.4183 46.4183 50 42 50L 8 50C 3.58172 50 0 46.4183 0 42L 0 8Z"/>
<path id="path3_stroke" d="M 8 2.5L 42 2.5L 42 -2.5L 8 -2.5L 8 2.5ZM 47.5 8L 47.5 42L 52.5 42L 52.5 8L 47.5 8ZM 42 47.5L 8 47.5L 8 52.5L 42 52.5L 42 47.5ZM 2.5 42L 2.5 8L -2.5 8L -2.5 42L 2.5 42ZM 8 -2.5C 2.20101 -2.5 -2.5 2.20101 -2.5 8L 2.5 8C 2.5 4.96243 4.96243 2.5 8 2.5L 8 -2.5ZM 42 2.5C 45.0376 2.5 47.5 4.96243 47.5 8L 52.5 8C 52.5 2.20101 47.799 -2.5 42 -2.5L 42 2.5ZM 47.5 42C 47.5 45.0376 45.0376 47.5 42 47.5L 42 52.5C 47.799 52.5 52.5 47.799 52.5 42L 47.5 42ZM 8 47.5C 4.96243 47.5 2.5 45.0376 2.5 42L -2.5 42C -2.5 47.799 2.20101 52.5 8 52.5L 8 47.5Z"/>
<path id="path4_stroke" d="M 21.5 12C 21.5 17.2467 17.2467 21.5 12 21.5L 12 26.5C 20.0081 26.5 26.5 20.0081 26.5 12L 21.5 12ZM 12 21.5C 6.75329 21.5 2.5 17.2467 2.5 12L -2.5 12C -2.5 20.0081 3.99187 26.5 12 26.5L 12 21.5ZM 2.5 12C 2.5 6.75329 6.75329 2.5 12 2.5L 12 -2.5C 3.99187 -2.5 -2.5 3.99187 -2.5 12L 2.5 12ZM 12 2.5C 17.2467 2.5 21.5 6.75329 21.5 12L 26.5 12C 26.5 3.99187 20.0081 -2.5 12 -2.5L 12 2.5Z"/>
<path id="path5_fill" d="M 8 4C 8 6.20914 6.20914 8 4 8C 1.79086 8 0 6.20914 0 4C 0 1.79086 1.79086 0 4 0C 6.20914 0 8 1.79086 8 4Z"/>
<path id="path6_fill" d="M 6 0L 0.877197 11.9532C 0.537304 12.7463 1.294 13.5687 2.11257 13.2958L 5.68377 12.1054C 5.88904 12.037 6.11096 12.037 6.31623 12.1054L 9.88743 13.2958C 10.706 13.5687 11.4627 12.7463 11.1228 11.9532L 6 0Z"/>
</defs>
</svg>
